<?xml version="1.0" encoding="UTF-8"?>
<svg width="55px" height="23px" viewBox="0 0 55 23" version="1.1" xmlns="http://www.w3.org/2000/svg" xmlns:xlink="http://www.w3.org/1999/xlink">
    <!-- Generator: Sketch 60 (88103) - https://sketch.com -->
    <title>Combined Shape</title>
    <desc>Created with Sketch.</desc>
    <g id="Turanza-T005" stroke="none" stroke-width="1" fill="none" fill-rule="evenodd">
        <g id="XL_1280x800_Turanza-T005" transform="translate(-338.000000, -736.000000)" fill="#020303">
            <g id="Components/Product-Component/Desktop" transform="translate(0.000000, 211.000000)">
                <g id="Group">
                    <g id="Group-5" transform="translate(124.000000, 525.000000)">
                        <g id="Group-15" transform="translate(214.000000, 0.000000)">
                            <path d="M7.83810394,8.02263463 C8.28314425,7.91145891 8.70660685,8.2221808 8.79831213,8.68398765 C8.88732019,9.14864516 8.60680994,9.60190003 8.16986126,9.6959718 C3.33645374,10.7621185 1.62372284,11.6344203 1.62372284,13.0283928 C1.62372284,13.2507443 1.80713339,13.4901997 1.96357181,13.6498366 C4.30205636,16.0728973 15.5791082,18.4417954 32.0914524,18.2736064 L32.0914524,18.2736064 L30.86422,16.9765563 C30.5270683,16.6230745 30.5270683,16.0443907 30.86422,15.6909089 C31.1986746,15.3345764 31.7435118,15.3317258 32.0833608,15.6909089 L32.0833608,15.6909089 L34.7482082,18.5045099 C35.0718739,18.846589 35.08536,19.399617 34.7778776,19.7616507 L34.7778776,19.7616507 L32.2532852,22.7035314 C32.0833608,22.9002269 31.8487031,23 31.6140455,23 C31.4090573,23 31.2013718,22.9230322 31.0368417,22.7633953 C30.6835067,22.4270174 30.6565345,21.8511842 30.9748058,21.4777478 L30.9748058,21.4777478 L32.2559825,19.9868528 C31.6464121,19.9925542 31.0314473,20.0068075 30.435363,20.0068075 C15.7517299,20.0068075 3.82464948,17.9799885 0.830741918,14.8756202 C0.277813044,14.3054883 0,13.6840445 0,13.0283928 C0,9.98958974 3.39579245,8.99756021 7.83810394,8.02263463 Z M46.223325,8.67507 C46.3152,8.25927 46.72995,7.97950333 47.157825,8.07960333 C51.520575,8.96767 54.859575,9.86343667 54.859575,12.6046367 C54.859575,15.34327 47.892825,17.83807 39.00195,18.2795367 L39.00195,18.2795367 L38.962575,18.2795367 C38.5452,18.2795367 38.196075,17.9587033 38.175075,17.54547 C38.15145,17.1194033 38.48745,16.7575033 38.9232,16.7344033 C48.3942,16.2647033 53.279325,13.62617 53.279325,12.6046367 C53.279325,11.34697 51.59145,10.5590033 46.83495,9.58880333 C46.407075,9.50410333 46.134075,9.09600333 46.223325,8.67507 Z M17.5,1 C19.4477099,1 20.8824427,2.33549838 20.8824427,4.20684487 C20.8824427,5.3912066 20.3187023,5.96827379 19.7896947,6.31726205 C20.3641221,6.72670497 21,7.38071446 21,8.67224582 C21,10.9337997 19.3461832,12 17.5,12 C15.7553435,12 14,11.0409693 14,8.61179116 L16.4206107,8.61179116 C16.4206107,9.37022233 16.8935115,9.75218586 17.5,9.75218586 C18.1358779,9.75218586 18.5767176,9.37022233 18.5767176,8.59805146 C18.5767176,7.94129403 18.1064885,7.45765676 17.4545802,7.45765676 L17.1152672,7.45765676 L17.1152672,5.30052461 L17.4545802,5.30052461 C18.178626,5.30052461 18.4591603,4.76742443 18.4591603,4.28103922 C18.4591603,3.59955034 17.9996183,3.24781414 17.5,3.24781414 C16.9977099,3.24781414 16.5381679,3.61329003 16.5381679,4.26729953 L14.1175573,4.26729953 C14.1175573,2.22832875 15.6244275,1 17.5,1 Z M27.6854962,1 L25.6015267,5.27531486 C25.8099237,5.197733 26.0316794,5.197733 26.1919847,5.197733 C27.4770992,5.197733 29,6.33098237 29,8.48942065 C29,10.8030227 27.3916031,12 25.5,12 C23.6083969,12 22,10.8030227 22,8.48942065 C22,7.37279597 22.5156489,6.34760705 23.0019084,5.31964736 L25.0270992,1 L27.6854962,1 Z M34.5,1 C36.3025276,1 38,2.14314264 38,4.37446915 L38,8.62827879 C38,10.8596053 36.3025276,12 34.5,12 C32.6947077,12 31,10.8596053 31,8.62827879 L31,4.37446915 C31,2.14314264 32.6947077,1 34.5,1 Z M34.5,3.25056208 C33.9636651,3.25056208 33.5047393,3.61603797 33.5047393,4.37446915 L33.5047393,8.64201849 C33.5047393,9.40044966 33.9636651,9.75218586 34.5,9.75218586 C35.0335703,9.75218586 35.4924961,9.40044966 35.4924961,8.64201849 L35.4924961,4.37446915 C35.4924961,3.61603797 35.0335703,3.25056208 34.5,3.25056208 Z M25.5,7.25088161 C24.909542,7.25088161 24.4206107,7.68035264 24.4206107,8.48942065 C24.4206107,9.30403023 24.909542,9.73350126 25.5,9.73350126 C26.090458,9.73350126 26.5767176,9.30403023 26.5767176,8.48942065 C26.5767176,7.68035264 26.090458,7.25088161 25.5,7.25088161 Z M41.0968,0.0776 C42.6888,0.0776 43.9848,1.37893333 43.9848,2.9656 C43.9848,4.56026667 42.6888,5.85893333 41.0968,5.85893333 C39.5048,5.85893333 38.2088,4.56026667 38.2088,2.9656 C38.2088,1.37893333 39.5048,0.0776 41.0968,0.0776 Z M41.0968,2.01093333 C40.5661333,2.01093333 40.1394667,2.4376 40.1394667,2.9656 C40.1394667,3.5016 40.5661333,3.9256 41.0968,3.9256 C41.6274667,3.9256 42.0541333,3.5016 42.0541333,2.9656 C42.0541333,2.4376 41.6274667,2.01093333 41.0968,2.01093333 Z" id="Combined-Shape"></path>
                        </g>
                    </g>
                </g>
            </g>
        </g>
    </g>
</svg>