<svg id="add_circle_outlined" xmlns="http://www.w3.org/2000/svg" width="20" height="20" viewBox="0 0 20 20">
  <path id="Exclusion_261" data-name="Exclusion 261" d="M10,20A10,10,0,1,1,20,10,10.011,10.011,0,0,1,10,20ZM10,2a8,8,0,1,0,8,8A8.009,8.009,0,0,0,10,2Z" transform="translate(0 0)"/>
  <path id="Path" d="M7.5,3H5V.5A.5.5,0,0,0,4.5,0h-1A.5.5,0,0,0,3,.5V3H.5a.5.5,0,0,0-.5.5v1A.5.5,0,0,0,.5,5H3V7.5a.5.5,0,0,0,.5.5h1A.5.5,0,0,0,5,7.5V5H7.5A.5.5,0,0,0,8,4.5v-1A.5.5,0,0,0,7.5,3Z" transform="translate(6 6)"/>
</svg>
