<svg id="add_to_trash" xmlns="http://www.w3.org/2000/svg" width="16" height="20" viewBox="0 0 16 20">
  <path id="Icon_color" data-name="Icon color" d="M12.155,20H3.865A2.005,2.005,0,0,1,1.87,18.14L1,6H15L14.15,18.14A2.005,2.005,0,0,1,12.155,20ZM4.5,12a.5.5,0,0,0-.5.5v1a.5.5,0,0,0,.5.5H7v2.5a.5.5,0,0,0,.5.5h1a.5.5,0,0,0,.5-.5V14h2.5a.5.5,0,0,0,.5-.5v-1a.5.5,0,0,0-.5-.5H9V9.5A.5.5,0,0,0,8.5,9h-1a.5.5,0,0,0-.5.5V12Zm11-8H.5A.5.5,0,0,1,0,3.5v-1A.5.5,0,0,1,.5,2H5V1A1,1,0,0,1,6,0h4a1,1,0,0,1,1,1V2h4.5a.5.5,0,0,1,.5.5v1A.5.5,0,0,1,15.5,4Z" transform="translate(0 0)"/>
</svg>
