<svg id="add_event" xmlns="http://www.w3.org/2000/svg" width="18" height="19" viewBox="0 0 18 19">
  <path id="Icon_color" data-name="Icon color" d="M16,19H2a2,2,0,0,1-2-2V4A2,2,0,0,1,2,2H3V.5A.5.5,0,0,1,3.5,0h1A.5.5,0,0,1,5,.5V2h8V.5a.5.5,0,0,1,.5-.5h1a.5.5,0,0,1,.5.5V2h1a2,2,0,0,1,2,2V17A2,2,0,0,1,16,19ZM2,6V17H16V6Zm7.38,8H8.62a.5.5,0,0,1-.5-.5V11.88H6.5a.5.5,0,0,1-.5-.5v-.76a.5.5,0,0,1,.5-.5H8.12V8.5a.5.5,0,0,1,.5-.5h.76a.5.5,0,0,1,.5.5v1.62H11.5a.5.5,0,0,1,.5.5v.76a.5.5,0,0,1-.5.5H9.88V13.5A.5.5,0,0,1,9.38,14Z" transform="translate(0 0)"/>
</svg>
