<svg id="alarm" xmlns="http://www.w3.org/2000/svg" width="19.998" height="20.002" viewBox="0 0 19.998 20.002">
  <path id="Icon_color" data-name="Icon color" d="M10,20A9,9,0,1,1,19,11,9.007,9.007,0,0,1,10,20ZM10,4a7,7,0,1,0,7,7A7.005,7.005,0,0,0,10,4ZM12.914,14.95a.5.5,0,0,1-.355-.148l-3.289-3.29a.528.528,0,0,1-.149-.35V6.5a.5.5,0,0,1,.5-.5h.76a.5.5,0,0,1,.5.5v4.14l2.919,2.92a.5.5,0,0,1,0,.71l-.53.53A.5.5,0,0,1,12.914,14.95Zm6.2-9.938h-.01a.239.239,0,0,1-.17-.07l-3.878-3.88a.242.242,0,0,1-.07-.18.279.279,0,0,1,.09-.19A3.007,3.007,0,0,1,16.993,0H17a3,3,0,0,1,2.3,4.92A.287.287,0,0,1,19.116,5.012ZM.9,5H.886A.279.279,0,0,1,.7,4.922,3,3,0,0,1,4.914.692.282.282,0,0,1,5,.882a.236.236,0,0,1-.06.18L1.066,4.932A.236.236,0,0,1,.9,5Z" transform="translate(0 0)"/>
</svg>
