<svg id="alarm_alert" xmlns="http://www.w3.org/2000/svg" width="19.998" height="20" viewBox="0 0 19.998 20">
  <path id="Icon_color" data-name="Icon color" d="M10.013,20A8.986,8.986,0,1,1,19,11.014,8.995,8.995,0,0,1,10.013,20Zm0-15.975A6.989,6.989,0,1,0,17,11.014,7,7,0,0,0,10.013,4.025Zm.469,10.983h-1a.5.5,0,0,1-.5-.5v-1a.5.5,0,0,1,.5-.5h1.028a.5.5,0,0,1,.47.5v1A.5.5,0,0,1,10.482,15.007Zm.062-3.993H9.484a.251.251,0,0,1-.249-.22l-.4-3.215a.5.5,0,0,1,.5-.56h1.36a.506.506,0,0,1,.376.167.5.5,0,0,1,.123.392l-.4,3.215A.25.25,0,0,1,10.544,11.014Zm8.573-5.981h-.01a.239.239,0,0,1-.17-.07L15.064,1.09a.242.242,0,0,1-.07-.18.279.279,0,0,1,.09-.19A3,3,0,0,1,16.992.032H17a2.995,2.995,0,0,1,2.306,4.912A.282.282,0,0,1,19.117,5.034ZM.92,5.024H.91a.284.284,0,0,1-.19-.08A3,3,0,0,1,4.943.72a.278.278,0,0,1,.079.19.245.245,0,0,1-.059.18L1.089,4.954A.238.238,0,0,1,.92,5.024Z" transform="translate(0 0)"/>
</svg>
