<svg id="alarm_off" xmlns="http://www.w3.org/2000/svg" width="20.998" height="20" viewBox="0 0 20.998 20">
  <path id="Icon_color" data-name="Icon color" d="M18.966,20a.479.479,0,0,1-.349-.151l-1.91-1.895A9.036,9.036,0,0,1,11,19.992,8.986,8.986,0,0,1,4.062,5.282L2.883,4.1l-.82.818a.235.235,0,0,1-.167.069H1.883a.278.278,0,0,1-.19-.079A2.993,2.993,0,0,1,1,3a3.025,3.025,0,0,1,.08-.679l-.94-.937a.506.506,0,0,1,0-.708L.673.147a.512.512,0,0,1,.71,0L19.846,18.623a.478.478,0,0,1,0,.7l-.53.528A.484.484,0,0,1,18.966,20ZM5.472,6.7A6.981,6.981,0,0,0,11,17.954a7.039,7.039,0,0,0,4.288-1.465Zm13.464,8.5h0l-1.5-1.495A6.828,6.828,0,0,0,18,10.976,7,7,0,0,0,8.27,4.544l-1.5-1.486A8.913,8.913,0,0,1,10.972,2H11a9,9,0,0,1,9,8.974,8.852,8.852,0,0,1-1.059,4.216ZM20.116,5h-.01a.239.239,0,0,1-.17-.07L16.057,1.065a.24.24,0,0,1-.069-.18A.277.277,0,0,1,16.077.7,3.016,3.016,0,0,1,17.993.007H18a2.991,2.991,0,0,1,2.3,4.906A.287.287,0,0,1,20.116,5ZM5.361,1.642h0L3.742.007A1.115,1.115,0,0,1,3.873,0C3.91,0,3.951,0,4,.007A3.009,3.009,0,0,1,5.911.7.274.274,0,0,1,6,.885a.245.245,0,0,1-.059.18l-.58.577Z" transform="translate(0.001 0)"/>
</svg>
