<svg id="alarm_add" xmlns="http://www.w3.org/2000/svg" width="19.998" height="20.002" viewBox="0 0 19.998 20.002">
  <path id="Icon_color" data-name="Icon color" d="M10,20A9,9,0,1,1,19,11,9.007,9.007,0,0,1,10,20ZM10,4a7,7,0,1,0,7,7A7.005,7.005,0,0,0,10,4Zm.5,11h-1a.5.5,0,0,1-.5-.5V12H6.5a.5.5,0,0,1-.5-.5v-1a.5.5,0,0,1,.5-.5H9V7.5A.5.5,0,0,1,9.5,7h1a.5.5,0,0,1,.5.5V10h2.5a.5.5,0,0,1,.5.5v1a.5.5,0,0,1-.5.5H11v2.5A.5.5,0,0,1,10.5,15Zm8.606-9.99h0a.239.239,0,0,1-.17-.07l-3.878-3.88a.242.242,0,0,1-.07-.18.283.283,0,0,1,.09-.19A3.008,3.008,0,0,1,16.993,0H17a3,3,0,0,1,2.3,4.92.287.287,0,0,1-.19.09ZM.9,5H.886A.279.279,0,0,1,.7,4.922,3,3,0,0,1,4.914.692.279.279,0,0,1,5,.882a.239.239,0,0,1-.06.18L1.066,4.932A.239.239,0,0,1,.9,5Z" transform="translate(0 0)"/>
</svg>
