<svg id="albums" xmlns="http://www.w3.org/2000/svg" width="20" height="20" viewBox="0 0 20 20">
  <path id="Icon_color" data-name="Icon color" d="M14,20H2a2,2,0,0,1-2-2V2A2,2,0,0,1,2,0H14a2,2,0,0,1,2,2V18A2,2,0,0,1,14,20ZM5,8.538a.524.524,0,0,1,.281.082l1.94,1.3a.5.5,0,0,0,.28.085.509.509,0,0,0,.238-.059A.5.5,0,0,0,8,9.5v-7A.5.5,0,0,0,7.5,2h-5a.5.5,0,0,0-.5.5v7a.5.5,0,0,0,.263.446.509.509,0,0,0,.238.059.5.5,0,0,0,.28-.085L4.72,8.62A.522.522,0,0,1,5,8.538ZM19,18H18V2h1a1,1,0,0,1,1,1V17A1,1,0,0,1,19,18Z" transform="translate(0 0)"/>
</svg>
