<svg id="Layer_1" data-name="Layer 1" xmlns="http://www.w3.org/2000/svg" viewBox="0 0 992.13 992.13"><defs><style>.cls-1{fill:#222221;}</style></defs><title>Bridgestone icons 2020_correct-dev-names</title><path class="cls-1" d="M314,301.13A107.72,107.72,0,1,1,421.73,193.4,107.85,107.85,0,0,1,314,301.13Zm627.78,605.3H50.31c-20-.3-35.87-19.66-36.14-44.06V808.88A67.68,67.68,0,0,1,24.29,773l204.8-322.62c6.91-10.49,17.18-16.51,28.19-16.51s21.29,6,28.19,16.51L391,606.73c4.61,7,11.46,11,18.79,11s14.19-4,18.8-11L621.35,302.92c7-11,17.53-17.26,28.92-17.26s21.92,6.29,28.91,17.26L968.31,773A68,68,0,0,1,978,808.29v54.08C977.71,886.77,961.83,906.13,941.81,906.43Z"/></svg>