<svg id="Layer_1" data-name="Layer 1" xmlns="http://www.w3.org/2000/svg" viewBox="0 0 992.13 992.13"><defs><style>.cls-1{fill:#222221;}</style></defs><title>Bridgestone icons 2020_correct-dev-names</title><path class="cls-1" d="M901.74,558.3v22.53a22.54,22.54,0,0,1-22.53,22.54H695.3L804.83,712.9a21.63,21.63,0,0,1,0,31.55l-15.78,16.23a23,23,0,0,1-32,0L599.74,603.37H527.17v67.16L684.48,827.84a22.55,22.55,0,0,1,0,31.56l-16.23,16.22a22.53,22.53,0,0,1-31.55,0L527.17,766.09V956.76A21.17,21.17,0,0,1,506,977.94H480.29a21.19,21.19,0,0,1-20.74-21.18V776.46L355.43,880.13a21.63,21.63,0,0,1-31.55,0l-16.23-15.78a23,23,0,0,1,0-32L459.55,680.9V603.37H397.81L240.49,760.68a22.53,22.53,0,0,1-31.55,0l-16.22-16.23a22.52,22.52,0,0,1,0-31.55L302.24,603.37H111.58A21.18,21.18,0,0,1,90.4,582.18V556.49a21.17,21.17,0,0,1,21.18-20.73H879.21a22.53,22.53,0,0,1,22.53,22.54Z"/><path class="cls-1" d="M703.17,456.36H286.7a206.66,206.66,0,0,1-4.26-41.88c0-115.38,95.36-209.25,212.58-209.25S707.43,299.1,707.43,414.48a207.05,207.05,0,0,1-4.24,41.8Z"/><path class="cls-1" d="M207.89,419.61a41.22,41.22,0,0,0-41.18-41.17H131.55a41.18,41.18,0,0,0,0,82.35h35.16A41.23,41.23,0,0,0,207.89,419.61Z"/><path class="cls-1" d="M860.08,378.44H824.92a41.18,41.18,0,0,0,0,82.35h35.16a41.18,41.18,0,0,0,0-82.35Z"/><path class="cls-1" d="M495.81,130.39a41.06,41.06,0,0,0,41-41V55.19a41,41,0,0,0-82,0V89.37A41.07,41.07,0,0,0,495.81,130.39Z"/><path class="cls-1" d="M290.3,213.46a41.22,41.22,0,0,0,.3-58.23l-24.73-25a41.18,41.18,0,0,0-58.53,57.93l24.73,25A41.22,41.22,0,0,0,290.3,213.46Z"/><path class="cls-1" d="M701.34,213.46a41.22,41.22,0,0,1-.29-58.23l24.73-25a41.18,41.18,0,0,1,58.53,57.93l-24.74,25A41.22,41.22,0,0,1,701.34,213.46Z"/></svg>