<svg id="all_done" xmlns="http://www.w3.org/2000/svg" width="21.996" height="12.312" viewBox="0 0 21.996 12.312">
  <path id="Icon_color" data-name="Icon color" d="M10.893,12.312a.5.5,0,0,1-.355-.149l-5.39-5.39a.5.5,0,0,1,0-.709l.7-.7a.5.5,0,0,1,.71,0L8.4,7.244l7-7.051a.51.51,0,0,1,.71,0l.7.71a.5.5,0,0,1,0,.71l-7,7,1.08,1.08,9.55-9.55a.51.51,0,0,1,.71,0l.7.71a.5.5,0,0,1,0,.71l-10.6,10.6A.5.5,0,0,1,10.893,12.312Zm-5,0a.5.5,0,0,1-.355-.149L.148,6.773a.5.5,0,0,1,0-.709l.7-.7a.5.5,0,0,1,.71,0l5.75,5.74-1.06,1.059A.5.5,0,0,1,5.893,12.312Z" transform="translate(0 0)"/>
</svg>
