<svg id="Layer_1" data-name="Layer 1" xmlns="http://www.w3.org/2000/svg" viewBox="0 0 992.13 992.13"><defs><style>.cls-1{fill:#222221;}</style></defs><title>Bridgestone icons 2020_correct-dev-names</title><path class="cls-1" d="M202.11,137.49c-5.89,0-11.18,4.25-12.87,10.33L127.13,381.34H865L803.94,147.82c-1.68-6.18-6.85-10.33-12.87-10.33ZM174.79,496.06c-29.52,0-53.54,25.73-53.54,57.36v57.37c0,31.63,24,57.36,53.54,57.36h53.53c29.55,0,53.59-25.73,53.59-57.36V553.42c0-31.63-24-57.36-53.59-57.36Zm589,0c-29.55,0-53.59,25.73-53.59,57.36v57.37c0,31.63,24,57.36,53.59,57.36h53.54c29.52,0,53.53-25.73,53.53-57.36V553.42c0-31.63-24-57.36-53.53-57.36ZM924.41,955H870.87c-29.52,0-53.53-25.74-53.53-57.36V840.28H174.79v57.37c0,31.62-24,57.36-53.54,57.36H67.71c-29.52,0-53.54-25.74-53.54-57.36V470.81a249,249,0,0,1,8-63.66l77.1-286.86c13.11-49.18,54-82.6,101.73-83.17H790c47.66.15,89.92,34.59,102.79,83.74l77.1,286.86A249.39,249.39,0,0,1,978,470.81V897.65C978,929.27,953.93,955,924.41,955Z"/></svg>