<svg xmlns="http://www.w3.org/2000/svg" xmlns:xlink="http://www.w3.org/1999/xlink" width="18" height="19" viewBox="0 0 18 19">
  <defs>
    <clipPath id="clip-path">
      <path id="Icon_color" data-name="Icon color" d="M16,19H2a2,2,0,0,1-2-2V4A2,2,0,0,1,2,2H3V.5A.5.5,0,0,1,3.5,0h1A.5.5,0,0,1,5,.5V2h8V.5a.5.5,0,0,1,.5-.5h1a.5.5,0,0,1,.5.5V2h1a2,2,0,0,1,2,2V17A2,2,0,0,1,16,19ZM2,6V17H16V6Zm8.97,8a.483.483,0,0,1-.35-.151L9,12.24,7.38,13.85a.481.481,0,0,1-.7,0l-.53-.53a.481.481,0,0,1,0-.7L7.76,11,6.15,9.38a.481.481,0,0,1,0-.7l.53-.529a.479.479,0,0,1,.7,0L9,9.76,10.62,8.15a.479.479,0,0,1,.7,0l.53.529a.481.481,0,0,1,0,.7L10.24,11l1.61,1.62a.481.481,0,0,1,0,.7l-.53.53A.484.484,0,0,1,10.97,14Z" transform="translate(3 2)"/>
    </clipPath>
  </defs>
  <g id="appointment_cancelled" transform="translate(-3 -2)">
    <path id="Icon_color-2" data-name="Icon color" d="M16,19H2a2,2,0,0,1-2-2V4A2,2,0,0,1,2,2H3V.5A.5.5,0,0,1,3.5,0h1A.5.5,0,0,1,5,.5V2h8V.5a.5.5,0,0,1,.5-.5h1a.5.5,0,0,1,.5.5V2h1a2,2,0,0,1,2,2V17A2,2,0,0,1,16,19ZM2,6V17H16V6Zm8.97,8a.483.483,0,0,1-.35-.151L9,12.24,7.38,13.85a.481.481,0,0,1-.7,0l-.53-.53a.481.481,0,0,1,0-.7L7.76,11,6.15,9.38a.481.481,0,0,1,0-.7l.53-.529a.479.479,0,0,1,.7,0L9,9.76,10.62,8.15a.479.479,0,0,1,.7,0l.53.529a.481.481,0,0,1,0,.7L10.24,11l1.61,1.62a.481.481,0,0,1,0,.7l-.53.53A.484.484,0,0,1,10.97,14Z" transform="translate(3 2)"/>
  </g>
</svg>
