<svg xmlns="http://www.w3.org/2000/svg" width="18" height="19" viewBox="0 0 18 19">
  <g id="appointment" transform="translate(-3 -2)">
    <path id="Icon_color" data-name="Icon color" d="M16,19H2a2,2,0,0,1-2-2V4A2,2,0,0,1,2,2H3V.5A.5.5,0,0,1,3.5,0h1A.5.5,0,0,1,5,.5V2h8V.5a.5.5,0,0,1,.5-.5h1a.5.5,0,0,1,.5.5V2h1a2,2,0,0,1,2,2V17A2,2,0,0,1,16,19ZM2,6V17H16V6Zm5.94,8a.483.483,0,0,1-.35-.151L5.46,11.7a.5.5,0,0,1,0-.7l.53-.509a.507.507,0,0,1,.709,0L7.93,11.73l3.36-3.36a.51.51,0,0,1,.71,0l.54.53a.508.508,0,0,1,0,.71L8.29,13.85A.484.484,0,0,1,7.94,14Z" transform="translate(3 2)"/>
  </g>
</svg>
