<svg id="appstore" xmlns="http://www.w3.org/2000/svg" width="20" height="18" viewBox="0 0 20 18">
  <path id="Icon_color" data-name="Icon color" d="M15.77,17.288l-4.118-7.04a3.121,3.121,0,0,1,0-2.975l.6-.991,3.013,5.156h3.616a1.159,1.159,0,0,1,1.105,1.289,1.213,1.213,0,0,1-1.205,1.19h-2.11L17.98,16.1a.1.1,0,0,1,.1.1,1.3,1.3,0,0,1-.6,1.686,1.157,1.157,0,0,1-.515.117A1.362,1.362,0,0,1,15.77,17.288Zm-13.259.4A1.153,1.153,0,0,1,2.11,16l.1-.1a1.571,1.571,0,0,1,1.306-.794H5.524L4.319,17.189l-.1.1a1.091,1.091,0,0,1-1.014.56A1.577,1.577,0,0,1,2.511,17.685ZM1.205,13.917A1.306,1.306,0,0,1,0,12.628a1.213,1.213,0,0,1,1.205-1.19H4.922L8.638,5.092,6.83,1.919a.1.1,0,0,1-.1-.1,1.159,1.159,0,0,1,.5-1.686A1.246,1.246,0,0,1,8.94.729l1.105,1.884,1.1-1.884.1-.1a1.267,1.267,0,0,1,1.707-.4,1.153,1.153,0,0,1,.4,1.686L7.735,11.438H9.743a1.793,1.793,0,0,1,1.607.992l.9,1.487Z" transform="translate(0 0)"/>
</svg>
