<svg id="apps" xmlns="http://www.w3.org/2000/svg" width="16" height="16" viewBox="0 0 16 16">
  <path id="Icon_color" data-name="Icon color" d="M15.5,16h-3a.5.5,0,0,1-.5-.5v-3a.5.5,0,0,1,.5-.5h3a.5.5,0,0,1,.5.5v3A.5.5,0,0,1,15.5,16Zm-6,0h-3a.5.5,0,0,1-.5-.5v-3a.5.5,0,0,1,.5-.5h3a.5.5,0,0,1,.5.5v3A.5.5,0,0,1,9.5,16Zm-6,0H.5a.5.5,0,0,1-.5-.5v-3A.5.5,0,0,1,.5,12h3a.5.5,0,0,1,.5.5v3A.5.5,0,0,1,3.5,16Zm12-6h-3a.5.5,0,0,1-.5-.5v-3a.5.5,0,0,1,.5-.5h3a.5.5,0,0,1,.5.5v3A.5.5,0,0,1,15.5,10Zm-6,0h-3A.5.5,0,0,1,6,9.5v-3A.5.5,0,0,1,6.5,6h3a.5.5,0,0,1,.5.5v3A.5.5,0,0,1,9.5,10Zm-6,0H.5A.5.5,0,0,1,0,9.5v-3A.5.5,0,0,1,.5,6h3a.5.5,0,0,1,.5.5v3A.5.5,0,0,1,3.5,10Zm12-6h-3a.5.5,0,0,1-.5-.5V.5a.5.5,0,0,1,.5-.5h3a.5.5,0,0,1,.5.5v3A.5.5,0,0,1,15.5,4Zm-6,0h-3A.5.5,0,0,1,6,3.5V.5A.5.5,0,0,1,6.5,0h3a.5.5,0,0,1,.5.5v3A.5.5,0,0,1,9.5,4Zm-6,0H.5A.5.5,0,0,1,0,3.5V.5A.5.5,0,0,1,.5,0h3A.5.5,0,0,1,4,.5v3A.5.5,0,0,1,3.5,4Z"/>
</svg>
