<svg xmlns="http://www.w3.org/2000/svg" width="18" height="18" viewBox="0 0 18 18">
  <g id="archive" transform="translate(-3 -3)">
    <path id="Icon_color" data-name="Icon color" d="M16,18H2a2,2,0,0,1-2-2V2A2,2,0,0,1,2,0H16a2,2,0,0,1,2,2V16A2,2,0,0,1,16,18ZM5.67,10.26H5.662a.488.488,0,0,0-.342.139l-.21.21a.508.508,0,0,0,0,.71l3.54,3.53a.481.481,0,0,0,.7,0l3.54-3.53a.508.508,0,0,0,0-.71l-.21-.21a.5.5,0,0,0-.347-.14H11V6.5a.5.5,0,0,0-.5-.5h-3a.5.5,0,0,0-.5.5v3.76ZM2,2V4H16V2Z" transform="translate(3 3)"/>
  </g>
</svg>
