<svg id="arrow_large_upward_outlined" xmlns="http://www.w3.org/2000/svg" width="14.58" height="16.001" viewBox="0 0 14.58 16.001">
  <path id="Icon_color" data-name="Icon color" d="M9.79,16h-5a.5.5,0,0,1-.5-.5V8H.7a.493.493,0,0,1-.354-.15l-.2-.2A.51.51,0,0,1,0,7.292a.487.487,0,0,1,.15-.35L6.94.151a.481.481,0,0,1,.7,0l6.79,6.791a.487.487,0,0,1,.15.35.51.51,0,0,1-.15.36l-.2.2a.493.493,0,0,1-.354.15H10.29v7.5A.5.5,0,0,1,9.79,16ZM7.29,2.622h0L3.91,6H5.79a.5.5,0,0,1,.5.5V14h2V6.5a.5.5,0,0,1,.5-.5h1.88L7.29,2.622Z" transform="translate(0 0)"/>
</svg>
