<svg id="arrow_large_forward_outlined" xmlns="http://www.w3.org/2000/svg" width="16.001" height="14.576" viewBox="0 0 16.001 14.576">
  <path id="Icon_color" data-name="Icon color" d="M8.7,14.576a.5.5,0,0,1-.355-.148l-.2-.2a.493.493,0,0,1-.15-.36v-3.58H.5a.5.5,0,0,1-.5-.5v-5a.5.5,0,0,1,.5-.5H8V.708a.49.49,0,0,1,.15-.36l.2-.2a.5.5,0,0,1,.71,0l6.79,6.791a.474.474,0,0,1,.151.35.481.481,0,0,1-.151.35l-6.79,6.79A.5.5,0,0,1,8.7,14.576ZM2,6.288v2H9.5a.5.5,0,0,1,.5.5v1.88l3.38-3.379L10,3.908v1.88a.5.5,0,0,1-.5.5Z" transform="translate(0 0)"/>
</svg>
