<svg id="arrow_large_downward_outlined" xmlns="http://www.w3.org/2000/svg" width="14.576" height="16.001" viewBox="0 0 14.576 16.001">
  <path id="Icon_color" data-name="Icon color" d="M7.288,16a.474.474,0,0,1-.35-.151L.148,9.06a.5.5,0,0,1,0-.71l.2-.2A.49.49,0,0,1,.7,8H4.288V.5a.5.5,0,0,1,.5-.5h5a.5.5,0,0,1,.5.5V8h3.587a.493.493,0,0,1,.353.15l.2.2a.5.5,0,0,1,0,.71l-6.79,6.79A.481.481,0,0,1,7.288,16Zm-3.38-6,3.38,3.38L10.668,10H8.788a.5.5,0,0,1-.5-.5V2h-2V9.5a.5.5,0,0,1-.5.5Z" transform="translate(0 0)"/>
</svg>
