<svg id="arrow_large_backward_outlined" xmlns="http://www.w3.org/2000/svg" width="16.001" height="14.576" viewBox="0 0 16.001 14.576">
  <path id="Icon_color" data-name="Icon color" d="M7.3,14.576a.5.5,0,0,1-.355-.148L.151,7.638a.481.481,0,0,1,0-.7L6.942.148a.5.5,0,0,1,.71,0l.2.2A.493.493,0,0,1,8,.708V4.288h7.5a.5.5,0,0,1,.5.5v5a.5.5,0,0,1-.5.5H8v3.58a.5.5,0,0,1-.15.36l-.2.2A.5.5,0,0,1,7.3,14.576ZM6,3.908,2.622,7.288,6,10.668V8.788a.5.5,0,0,1,.5-.5H14v-2H6.5a.5.5,0,0,1-.5-.5Z" transform="translate(0 0)"/>
</svg>
