<svg xmlns="http://www.w3.org/2000/svg" width="15.993" height="21.996" viewBox="0 0 15.993 21.996">
  <g id="autorenew" transform="translate(-4.003 -1.002)">
    <path id="Icon_color" data-name="Icon color" d="M7.295,22a.494.494,0,0,1-.356-.149L3.4,18.318a.507.507,0,0,1,0-.71l3.543-3.53a.5.5,0,0,1,.711,0l.2.2a.493.493,0,0,1,.15.36V17a6.011,6.011,0,0,0,6.006-6,5.847,5.847,0,0,0-.7-2.77.507.507,0,0,1,.09-.59l.741-.741a.505.505,0,0,1,.352-.144.5.5,0,0,1,.069,0A.519.519,0,0,1,14.927,7,8,8,0,0,1,8,19v2.29a.49.49,0,0,1-.15.36l-.2.2A.5.5,0,0,1,7.295,22ZM1.512,15.253a.5.5,0,0,1-.069,0A.517.517,0,0,1,1.073,15,8,8,0,0,1,8,3V.708a.49.49,0,0,1,.15-.36l.2-.2a.5.5,0,0,1,.711,0L12.6,3.678a.51.51,0,0,1,0,.709L9.061,7.918a.5.5,0,0,1-.711,0l-.2-.2A.49.49,0,0,1,8,7.358V5a6,6,0,0,0-5.315,8.79.5.5,0,0,1-.09.59l-.731.731A.505.505,0,0,1,1.512,15.253Z" transform="translate(4 1.002)"/>
  </g>
</svg>
