<svg id="behance" xmlns="http://www.w3.org/2000/svg" width="20" height="12.467" viewBox="0 0 20 12.467">
  <path id="Icon_color" data-name="Icon color" d="M15.908,12.467c-.078,0-.161,0-.248-.007h-.1A4.89,4.89,0,0,1,12.52,11.4a4.335,4.335,0,0,1-1.36-3.57,4.846,4.846,0,0,1,1.23-3.55,4.255,4.255,0,0,1,3.018-1.244c.065,0,.121,0,.172,0h.082a4.97,4.97,0,0,1,2.008.421,3.616,3.616,0,0,1,1.54,1.28,4.322,4.322,0,0,1,.71,1.84A8.457,8.457,0,0,1,20,7.85a.5.5,0,0,1-.139.35.511.511,0,0,1-.35.149h-6a2.1,2.1,0,0,0,.93,1.88,2.3,2.3,0,0,0,1.2.341h.077l.085,0a2.009,2.009,0,0,0,1.215-.412,1.633,1.633,0,0,0,.34-.39.509.509,0,0,1,.418-.22h1.833a.229.229,0,0,1,.189.1.237.237,0,0,1,0,.22,3.289,3.289,0,0,1-.8,1.29A4.335,4.335,0,0,1,15.908,12.467Zm-.432-7.41a1.858,1.858,0,0,0-1.3.522,2.4,2.4,0,0,0-.62,1.381H17.58a1.946,1.946,0,0,0-.62-1.41,2,2,0,0,0-1.312-.491H15.58ZM5.64,12.46H.75A.765.765,0,0,1,0,11.71V.77A.751.751,0,0,1,.75.02H6A3.633,3.633,0,0,1,6.386,0,3.79,3.79,0,0,1,9.28,1.339a3.184,3.184,0,0,1,.57,1.9A2.779,2.779,0,0,1,9.28,5.07a2.929,2.929,0,0,1-1,.71A2.766,2.766,0,0,1,9.71,6.85a3.229,3.229,0,0,1,.49,1.82,3.645,3.645,0,0,1-.55,2,3.575,3.575,0,0,1-.88,1,3.473,3.473,0,0,1-1.409.62A8.886,8.886,0,0,1,5.64,12.46ZM2.87,6.96v3.5H5.526c.04,0,.085,0,.127,0a2.713,2.713,0,0,0,1.107-.235,1.691,1.691,0,0,0,.82-1.64,1.435,1.435,0,0,0-.79-1.41,3.14,3.14,0,0,0-1.163-.22H2.87Zm0-4.78v2.74H5.5l.115,0A2.5,2.5,0,0,0,6.82,4.61a1.16,1.16,0,0,0,.5-1.09,1.116,1.116,0,0,0-.66-1.15,4.765,4.765,0,0,0-1.333-.192l-.137,0Zm14.63-.22h-4a.5.5,0,0,1-.5-.5v-.5a.5.5,0,0,1,.5-.5h4a.5.5,0,0,1,.5.5v.5A.5.5,0,0,1,17.5,1.959Z" transform="translate(0 0)"/>
</svg>
