<svg id="Layer_1" data-name="Layer 1" xmlns="http://www.w3.org/2000/svg" viewBox="0 0 992.13 992.13"><defs><style>.cls-1,.cls-2{fill:#222221;}.cls-1{fill-rule:evenodd;}</style></defs><title>Bridgestone icons 2020_correct-dev-names</title><path class="cls-1" d="M637.8,741.54a283.21,283.21,0,0,1-70.86,29.06,28.35,28.35,0,0,1-35.43-27.46l0-75.24c0-23.4,11.6-43.52,31.89-55.22s43.5-11.73,63.78,0l65.2,37.6a28.35,28.35,0,0,1,6,44.42A280.91,280.91,0,0,1,637.8,741.54Zm-344-46.84a28.36,28.36,0,0,1,6-44.42L365,612.68c20.26-11.73,43.52-11.73,63.78,0s31.88,31.82,31.88,55.22l0,75.24a28.36,28.36,0,0,1-35.44,27.46,285.63,285.63,0,0,1-131.42-75.9ZM779.52,496.05A284,284,0,0,1,769.26,572a28.38,28.38,0,0,1-41.5,17L662.62,551.3c-20.28-11.69-31.92-31.8-31.92-55.25s11.6-43.5,31.92-55.22l65.14-37.62a28.37,28.37,0,0,1,41.5,17A283.67,283.67,0,0,1,779.52,496.05ZM496.05,432.27a63.79,63.79,0,1,0,63.79,63.78A63.79,63.79,0,0,0,496.05,432.27Zm0-361.4C261.2,70.87,70.86,261.25,70.86,496.05S261.2,921.26,496.05,921.26s425.2-190.38,425.2-425.21S730.86,70.87,496.05,70.87ZM822,496.05c0,180.05-145.95,326-326,326s-326-145.94-326-326,146-326,326-326S822,316,822,496.05ZM698.36,297.43a28.33,28.33,0,0,1-6,44.4l-65.2,37.62c-20.28,11.72-43.52,11.72-63.78,0s-31.89-31.82-31.89-55.22l0-75.24a28.35,28.35,0,0,1,35.43-27.46,285.36,285.36,0,0,1,131.42,75.9Zm-344-46.84a282.77,282.77,0,0,1,70.84-29.06A28.36,28.36,0,0,1,460.61,249l0,75.24c0,23.4-11.6,43.5-31.88,55.22s-43.52,11.72-63.78,0l-65.19-37.62a28.34,28.34,0,0,1-6-44.4A281.53,281.53,0,0,1,354.33,250.59ZM222.86,420.19a28.37,28.37,0,0,1,41.5-17l65.17,37.62c20.3,11.72,31.92,31.84,31.92,55.22s-11.64,43.56-31.92,55.25l-65.17,37.62a28.38,28.38,0,0,1-41.5-17,285.72,285.72,0,0,1,0-151.76Z"/><path class="cls-2" d="M216.69,752.35h-.06a47.37,47.37,0,0,0-33.86,14.15l-15.66,15.81A47.74,47.74,0,0,0,201,863.63H201a47.39,47.39,0,0,0,33.73-14l15.75-15.73a47.81,47.81,0,0,0-33.82-81.58Z"/><path class="cls-2" d="M150.68,496.06a47.88,47.88,0,0,0-47.84-47.83H62a47.83,47.83,0,0,0,0,95.66h40.84A47.88,47.88,0,0,0,150.68,496.06Z"/><path class="cls-2" d="M496,843A47.63,47.63,0,0,0,448.4,890.6v39.71a47.65,47.65,0,0,0,95.29,0V890.6A47.7,47.7,0,0,0,496,843Z"/><path class="cls-2" d="M820.52,754.17A47.41,47.41,0,0,0,786.67,740h-.07a47.82,47.82,0,0,0-33.82,81.59l15.75,15.73a47.42,47.42,0,0,0,33.73,14h.07A47.73,47.73,0,0,0,836.18,770Z"/><path class="cls-2" d="M930.12,448.23H889.29a47.83,47.83,0,1,0,0,95.66h40.83a47.83,47.83,0,1,0,0-95.66Z"/><path class="cls-2" d="M496,134.84c26.27,0,47.64-19.11,47.64-42.59V56.76c0-23.48-21.37-42.59-47.64-42.59S448.4,33.28,448.4,56.76V92.25C448.4,115.73,469.77,134.84,496,134.84Z"/><path class="cls-2" d="M159.66,247.79a47.41,47.41,0,0,0,33.86,14.15h.06a47.81,47.81,0,0,0,33.82-81.58l-15.74-15.73a47.43,47.43,0,0,0-33.74-14h-.06A47.74,47.74,0,0,0,144,232Z"/><path class="cls-2" d="M786.59,252.1h.06A47.44,47.44,0,0,0,820.51,238l15.66-15.82a47.86,47.86,0,0,0-.09-67.26h0a47.39,47.39,0,0,0-33.76-14.06h-.07a47.41,47.41,0,0,0-33.73,14l-15.75,15.72a47.82,47.82,0,0,0,33.82,81.59Z"/></svg>