<svg xmlns="http://www.w3.org/2000/svg" width="18" height="18" viewBox="0 0 18 18">
  <g id="block_ads" transform="translate(-3 -3)">
    <path id="Icon_color" data-name="Icon color" d="M11.5,18h-5a2.89,2.89,0,0,1-2.1-.9L.9,13.6A2.732,2.732,0,0,1,0,11.5v-5A2.89,2.89,0,0,1,.9,4.4L4.4.9A2.732,2.732,0,0,1,6.5,0h5a2.89,2.89,0,0,1,2.1.9l3.5,3.5A2.732,2.732,0,0,1,18,6.5v5a2.89,2.89,0,0,1-.9,2.1l-3.5,3.5A2.732,2.732,0,0,1,11.5,18ZM14.6,4.7h0L4.7,14.6l1.1,1.1a.906.906,0,0,0,.7.3h5a.906.906,0,0,0,.7-.3l3.5-3.5a.906.906,0,0,0,.3-.7v-5a.906.906,0,0,0-.3-.7L14.6,4.7ZM6.5,2a.906.906,0,0,0-.7.3L2.3,5.8a.906.906,0,0,0-.3.7v5a1.446,1.446,0,0,0,.2.7l1.2,1.1,9.9-9.9L12.2,2.3a.906.906,0,0,0-.7-.3Z" transform="translate(3 3)"/>
  </g>
</svg>
