<?xml version="1.0" encoding="UTF-8"?>
<svg width="22px" height="16px" viewBox="0 0 22 16" version="1.1" xmlns="http://www.w3.org/2000/svg" xmlns:xlink="http://www.w3.org/1999/xlink">
    <path d="M16.9131707,13.877561 L16.0458537,13.877561 C15.5670705,13.8770233 15.1790742,13.489027 15.1785366,13.0102439 L15.1785366,12.1429268 L4.7702439,12.1429268 L4.7702439,13.0102439 C4.76970625,13.489027 4.38170994,13.8770233 3.90292683,13.877561 L3.03560976,13.877561 C2.55682664,13.8770233 2.16883034,13.489027 2.16827079,13.0102439 L2.16827079,6.55707317 C2.16714702,6.23179099 2.21097655,5.90791206 2.29853659,5.59463415 L3.54731707,1.25756098 C3.75470592,0.517619446 4.42716799,0.00456611781 5.19560976,0 L14.7360976,0 C15.5115392,0.00493412031 16.1902928,0.522004019 16.4009756,1.26829268 L17.6497561,5.60536585 C17.7356223,5.91528691 17.7787849,6.23547789 17.778058,6.55707317 L17.778058,13.0102439 C17.7775156,13.4880776 17.3910011,13.8756822 16.9131707,13.877561 Z M14.3112195,6.93853659 C13.832737,6.93907202 13.4447576,7.32639713 13.4434146,7.80487805 L13.4434146,8.67317073 C13.444221,9.15203274 13.8323571,9.53995074 14.3112195,9.5404878 L15.1785366,9.5404878 C15.6573197,9.53995015 16.045316,9.15195384 16.0458537,8.67317073 L16.0458537,7.80487805 C16.045316,7.32609494 15.6573197,6.93809863 15.1785366,6.93756098 L14.3112195,6.93853659 Z M4.7702439,6.93853659 C4.29184093,6.93907291 3.90400159,7.32647598 3.90292683,7.80487805 L3.90292683,8.67317073 C3.90346449,9.15195384 4.29146079,9.53995015 4.7702439,9.5404878 L5.63707317,9.5404878 C6.11612602,9.5402195 6.50455899,9.15222298 6.50536585,8.67317073 L6.50536585,7.80487805 C6.50455954,7.32601604 6.11642336,6.93809804 5.63756098,6.93756098 L4.7702439,6.93853659 Z M5.21268293,1.51755835 C5.11651078,1.51821918 5.03201939,1.58153826 5.00439024,1.67365854 L3.99804878,5.20439024 L15.9492683,5.20439024 L14.9614634,1.67365854 C14.9348147,1.58085795 14.8497206,1.51708716 14.7531707,1.51755835 L5.21268293,1.51755835 Z" id="Icon_color" fill="#000000" fill-rule="nonzero"></path>
</svg>