<?xml version="1.0" encoding="UTF-8"?>
<svg width="20px" height="19px" viewBox="0 0 20 19" version="1.1" xmlns="http://www.w3.org/2000/svg" xmlns:xlink="http://www.w3.org/1999/xlink">
    <!-- Generator: Sketch 60 (88103) - https://sketch.com -->
    <title>road-variant</title>
    <desc>Created with Sketch.</desc>
    <g id="🔸-Atoms---USP-Icons" stroke="none" stroke-width="1" fill="none" fill-rule="evenodd">
        <g id="1---Atom/⚒/Icon/USP/Road" transform="translate(-2.000000, -3.000000)" fill="#000000" fill-rule="nonzero">
            <path d="M18.775625,4.51875 C18.6789707,3.98360062 18.2020701,3.60197333 17.65875,3.625 L13.076875,3.625 L13.300625,6.9775 L10.61875,6.9775 L10.841875,3.625 L6.14875,3.625 C5.62031273,3.6449529 5.16685414,4.00761833 5.03125,4.51875 L2.014375,20.163125 C1.96842341,20.4924807 2.06372914,20.8259235 2.27679534,21.0812458 C2.48986154,21.3365682 2.80086305,21.4900131 3.133125,21.50375 L9.725,21.50375 L10.06,15.916875 L13.859375,15.916875 L14.194375,21.50375 L20.675625,21.50375 C21.007665,21.4896713 21.3183341,21.3360802 21.5311271,21.0808001 C21.74392,20.8255199 21.8390626,20.4922732 21.793125,20.163125 L18.775625,4.51875 M10.171875,13.681875 L10.395625,9.211875 L13.30125,9.211875 L13.525,13.681875 L10.171875,13.681875 Z" id="road-variant"></path>
        </g>
    </g>
</svg>