<svg id="Layer_1" data-name="Layer 1" xmlns="http://www.w3.org/2000/svg" viewBox="0 0 992.13 992.13"><defs><style>.cls-1{fill:#222221;}</style></defs><title>Bridgestone icons 2020_correct-dev-names</title><path class="cls-1" d="M110.54,203.44V788.69h771V203.44Zm771,682.78h-771c-53.14,0-96.37-43.75-96.37-97.53V203.44c0-53.78,43.23-97.53,96.37-97.53h771c53.14,0,96.37,43.75,96.37,97.53V788.69C978,842.47,934.72,886.22,881.58,886.22Z"/><path class="cls-1" d="M325.2,542.36H283.08l21.74-64.55Zm89,85.62-88-241.91H280.36L192.37,628h62.17l11.89-36h74.4L352,628Z"/><path class="cls-1" d="M716.33,459.12c0,9.51-5.09,19.7-21.4,19.7h-37V439.41h37C711.24,439.41,716.33,449.6,716.33,459.12Zm3.4,94.11c0,10.2-5.44,21.41-21.74,21.41H657.9V532.17H698C714.29,532.17,719.73,543,719.73,553.23Zm59.45,3.4c0-34-20-46.55-29.89-52.66,7.47-5.1,26.49-20.39,26.49-47.91,0-41.79-26.83-70-77.11-70H598.45V628H703.76C746.91,628,779.18,602.84,779.18,556.63Z"/><path class="cls-1" d="M496.06,725a10.63,10.63,0,0,1-10.62-10.62V279.81a10.62,10.62,0,1,1,21.23,0V714.38A10.62,10.62,0,0,1,496.06,725Z"/></svg>