<?xml version="1.0" encoding="UTF-8"?>
<svg width="241px" height="132px" viewBox="0 0 241 132" version="1.1" xmlns="http://www.w3.org/2000/svg" xmlns:xlink="http://www.w3.org/1999/xlink">
    <title>Combined Shape</title>
    <g id="Page-1" stroke="none" stroke-width="1" fill="none" fill-rule="evenodd">
        <path d="M197.146573,0.721732002 C202.553714,2.17151346 207.163091,5.71063537 209.96,10.56 L220.52,28.84 L42.22,131.75 L31.67,113.47 C24.3816305,108.064422 18.3246304,101.172326 13.9,93.25 C9.24999953,85.4614789 6.31152587,76.7721873 5.28,67.76 L0,58.62 L9.14,53.34 L23.56,57.21 L64.69,33.46 L68.56,19.04 L77.7,13.76 L153.7,18.66 L181.13,2.83 C185.977788,0.0303581668 191.739432,-0.728049458 197.146573,0.721732002 Z M225.11,38.3 L227.75,42.87 L238.31,61.16 L240.94,65.73 L236.38,68.36 L236.37,68.36 L221.44,76.99 L236.05,102.29 L238.69,106.86 L234.12,109.5 L224.97,114.78 L220.4,117.42 L217.77,112.85 L217.76,112.84 L203.16,87.54 L172.5,105.24 L149.54,118.5 L133.7,91.08 L138.27,88.44 L202.44,51.4 L225.11,38.3 Z" id="Combined-Shape" fill="#000000" fill-rule="nonzero"></path>
    </g>
</svg>