<svg xmlns="http://www.w3.org/2000/svg" width="18" height="19" viewBox="0 0 18 19">
  <g id="calendar_month" transform="translate(-3 -2)">
    <path id="Icon_color" data-name="Icon color" d="M16,19H2a2,2,0,0,1-2-2V4A2,2,0,0,1,2,2H3V.5A.5.5,0,0,1,3.5,0h1A.5.5,0,0,1,5,.5V2h8V.5a.5.5,0,0,1,.5-.5h1a.5.5,0,0,1,.5.5V2h1a2,2,0,0,1,2,2V17A2,2,0,0,1,16,19ZM2,6V17H16V6Zm7.5,8h-1a.5.5,0,0,1-.5-.5v-1a.5.5,0,0,1,.5-.5h1a.5.5,0,0,1,.5.5v1A.5.5,0,0,1,9.5,14Zm-4,0h-1a.5.5,0,0,1-.5-.5v-1a.5.5,0,0,1,.5-.5h1a.5.5,0,0,1,.5.5v1A.5.5,0,0,1,5.5,14Zm8-4h-1a.5.5,0,0,1-.5-.5v-1a.5.5,0,0,1,.5-.5h1a.5.5,0,0,1,.5.5v1A.5.5,0,0,1,13.5,10Zm-4,0h-1A.5.5,0,0,1,8,9.5v-1A.5.5,0,0,1,8.5,8h1a.5.5,0,0,1,.5.5v1A.5.5,0,0,1,9.5,10Zm-4,0h-1A.5.5,0,0,1,4,9.5v-1A.5.5,0,0,1,4.5,8h1a.5.5,0,0,1,.5.5v1A.5.5,0,0,1,5.5,10Z" transform="translate(3 2)"/>
  </g>
</svg>
