<svg id="call_ended" xmlns="http://www.w3.org/2000/svg" width="22" height="9" viewBox="0 0 22 9">
  <path id="Icon_color" data-name="Icon color" d="M22,5.314V8.227a.75.75,0,0,1-.94.718L16.74,7.818a1,1,0,0,1-.74-1V3.668a.489.489,0,0,0-.36-.479l-.71-.2a13.862,13.862,0,0,0-7.86,0l-.71.219A.489.489,0,0,0,6,3.688V6.861a1,1,0,0,1-.74,1L.94,8.975A.75.75,0,0,1,0,8.227v-2.9A1.993,1.993,0,0,1,.59,3.908l.5-.5A10.065,10.065,0,0,1,5.28.905l.5-.15a18.443,18.443,0,0,1,10.45,0l.49.15a10.065,10.065,0,0,1,4.19,2.5l.5.5A1.993,1.993,0,0,1,22,5.314Z"/>
</svg>
