<svg id="call_talking_quiet" xmlns="http://www.w3.org/2000/svg" width="18.002" height="18.002" viewBox="0 0 18.002 18.002">
  <path id="Icon_color" data-name="Icon color" d="M14.67,18H14a10.107,10.107,0,0,1-4.781-1.23l-.45-.25a17.943,17.943,0,0,1-7.33-7.33l-.25-.45A10.113,10.113,0,0,1,0,4v-.67a2.017,2.017,0,0,1,.59-1.42L2.28.221a.751.751,0,0,1,1.18.15l2.25,3.86a1,1,0,0,1-.159,1.21L3.66,7.331a.5.5,0,0,0-.09.59l.35.66a13.487,13.487,0,0,0,5.5,5.49l.66.36a.5.5,0,0,0,.235.059.5.5,0,0,0,.355-.149l1.89-1.89a.993.993,0,0,1,.709-.294,1,1,0,0,1,.5.134l3.86,2.25a.755.755,0,0,1,.365.553.747.747,0,0,1-.215.627l-1.69,1.689A2.017,2.017,0,0,1,14.67,18ZM12.493,7.982h0a.492.492,0,0,1-.483-.4A1.988,1.988,0,0,0,10.42,6a.49.49,0,0,1-.4-.49v-1a.5.5,0,0,1,.17-.38A.52.52,0,0,1,10.538,4l.052,0A4.052,4.052,0,0,1,14,7.411a.524.524,0,0,1-.121.4.5.5,0,0,1-.377.17H12.493Z" transform="translate(0 0)"/>
</svg>
