<svg id="call_forward" xmlns="http://www.w3.org/2000/svg" width="18.002" height="18.002" viewBox="0 0 18.002 18.002">
  <path id="Icon_color" data-name="Icon color" d="M14.67,18H14a10.114,10.114,0,0,1-4.74-1.19l-.45-.25a17.955,17.955,0,0,1-7.33-7.33l-.249-.45A10.1,10.1,0,0,1,0,4v-.67a2.017,2.017,0,0,1,.59-1.42L2.28.221a.751.751,0,0,1,1.18.15l2.25,3.86a1,1,0,0,1-.159,1.21L3.66,7.331a.5.5,0,0,0-.09.59l.35.66a13.487,13.487,0,0,0,5.5,5.49l.66.36a.5.5,0,0,0,.235.059.5.5,0,0,0,.355-.149l1.89-1.89a.993.993,0,0,1,.709-.294,1,1,0,0,1,.5.134l3.86,2.25a.755.755,0,0,1,.365.553.747.747,0,0,1-.215.627l-1.69,1.689A2.017,2.017,0,0,1,14.67,18ZM12.5,8.495A.5.5,0,0,1,12,8V6H9.5A.5.5,0,0,1,9,5.5v-1A.5.5,0,0,1,9.5,4H12V2a.5.5,0,0,1,.316-.52.5.5,0,0,1,.584.17l3,3H15.86a.51.51,0,0,1-.01.7l-3,3A.5.5,0,0,1,12.5,8.495Z" transform="translate(0 0)"/>
</svg>
