<svg id="call_cancelled" xmlns="http://www.w3.org/2000/svg" width="18" height="18.002" viewBox="0 0 18 18.002">
  <path id="Icon_color" data-name="Icon color" d="M14.687,18h-.708a10.076,10.076,0,0,1-4.773-1.23l-.449-.25a17.924,17.924,0,0,1-7.319-7.33l-.25-.45A10.122,10.122,0,0,1,0,4v-.67A1.99,1.99,0,0,1,.59,1.912L2.276.221A.757.757,0,0,1,2.808,0,.743.743,0,0,1,2.9.006a.753.753,0,0,1,.553.365L5.7,4.232a1,1,0,0,1-.16,1.21L3.654,7.331a.5.5,0,0,0-.089.59l.349.66a13.478,13.478,0,0,0,5.492,5.49l.659.36a.5.5,0,0,0,.234.059.493.493,0,0,0,.354-.149l1.887-1.89a1,1,0,0,1,1.209-.16l3.854,2.25a.752.752,0,0,1,.19,1.181l-1.687,1.689A1.985,1.985,0,0,1,14.687,18Zm.5-9.759a.482.482,0,0,1-.349-.151L12.98,6.241l-1.857,1.85a.48.48,0,0,1-.7,0l-.529-.53a.481.481,0,0,1,0-.7L11.742,5,9.895,3.142a.481.481,0,0,1,0-.7l.529-.53a.48.48,0,0,1,.7,0l1.857,1.85,1.858-1.85a.479.479,0,0,1,.7,0l.529.53a.479.479,0,0,1,0,.7L14.218,5l1.847,1.86a.479.479,0,0,1,0,.7l-.529.53A.479.479,0,0,1,15.187,8.243Z" transform="translate(0 0)"/>
</svg>
