<svg id="call_talking" xmlns="http://www.w3.org/2000/svg" width="18.001" height="18.003" viewBox="0 0 18.001 18.003">
  <path id="Icon_color" data-name="Icon color" d="M14.67,18H14a10.108,10.108,0,0,1-4.781-1.23l-.45-.25a17.947,17.947,0,0,1-7.33-7.33l-.25-.45A10.119,10.119,0,0,1,0,4v-.67a2.014,2.014,0,0,1,.59-1.42L2.28.222A.748.748,0,0,1,2.813,0,.746.746,0,0,1,3.46.373l2.25,3.86a1,1,0,0,1-.159,1.21L3.66,7.332a.5.5,0,0,0-.09.59l.35.66a13.487,13.487,0,0,0,5.5,5.49l.66.36a.5.5,0,0,0,.59-.09l1.89-1.89a.991.991,0,0,1,.709-.295,1,1,0,0,1,.5.135l3.86,2.25a.751.751,0,0,1,.15,1.18l-1.69,1.69A2.017,2.017,0,0,1,14.67,18ZM17.509,7.982H16.5a.5.5,0,0,1-.5-.46A6,6,0,0,0,10.48,2,.5.5,0,0,1,10,1.5V.5a.512.512,0,0,1,.15-.37A.528.528,0,0,1,10.5,0l.051,0A8,8,0,0,1,18,7.452a.532.532,0,0,1-.13.381A.514.514,0,0,1,17.509,7.982Zm-4.013,0H12.482a.49.49,0,0,1-.482-.4,1.991,1.991,0,0,0-1.6-1.57.488.488,0,0,1-.4-.49v-1a.5.5,0,0,1,.17-.38h.02A.518.518,0,0,1,10.546,4l.044,0a4.049,4.049,0,0,1,3.4,3.41.518.518,0,0,1-.12.4A.494.494,0,0,1,13.5,7.982Z" transform="translate(0 0)"/>
</svg>
