<svg xmlns="http://www.w3.org/2000/svg" width="20" height="20" viewBox="0 0 20 20">
  <g id="checkmark_circle_outlined" transform="translate(-2 -2)">
    <path id="Icon_color" data-name="Icon color" d="M10,20A10,10,0,1,1,20,10,10.011,10.011,0,0,1,10,20ZM10,2a8,8,0,1,0,8,8A8.009,8.009,0,0,0,10,2ZM8.35,13.5A.481.481,0,0,1,8,13.35L5.65,10.98a.5.5,0,0,1,0-.71l.53-.53a.48.48,0,0,1,.7,0l1.5,1.49,4.74-4.74a.5.5,0,0,1,.7,0l.5.53a.5.5,0,0,1,.148.355.5.5,0,0,1-.148.355L8.7,13.35A.481.481,0,0,1,8.35,13.5Z" transform="translate(2 2)"/>
  </g>
</svg>
