<svg xmlns="http://www.w3.org/2000/svg" width="18" height="18" viewBox="0 0 18 18">
  <g id="checkmark_square" transform="translate(-3 -3)">
    <path id="Icon_color" data-name="Icon color" d="M16,18H2a2,2,0,0,1-2-2V2A2,2,0,0,1,2,0H16a2,2,0,0,1,2,2V16A2,2,0,0,1,16,18ZM5.53,8.608a.479.479,0,0,0-.349.151l-.53.53a.5.5,0,0,0,0,.71l2.38,2.35a.479.479,0,0,0,.7,0l5.62-5.62a.5.5,0,0,0,0-.69l-.53-.53a.5.5,0,0,0-.7,0L7.38,10.25,5.88,8.76A.48.48,0,0,0,5.53,8.608Z" transform="translate(3 3)"/>
  </g>
</svg>
