<svg xmlns="http://www.w3.org/2000/svg" width="18" height="18" viewBox="0 0 18 18">
  <g id="clear_square" transform="translate(-3 -3)">
    <path id="Icon_color" data-name="Icon color" d="M16,18H2a2,2,0,0,1-2-2V2A2,2,0,0,1,2,0H16a2,2,0,0,1,2,2V16A2,2,0,0,1,16,18ZM9,10.24H9l1.86,1.849a.478.478,0,0,0,.7,0l.53-.53a.478.478,0,0,0,0-.7L10.24,9,12.09,7.14a.478.478,0,0,0,0-.7l-.53-.53a.478.478,0,0,0-.7,0L9,7.76,7.14,5.91a.478.478,0,0,0-.7,0l-.53.53a.478.478,0,0,0,0,.7L7.76,9,5.91,10.86a.478.478,0,0,0,0,.7l.53.53a.478.478,0,0,0,.7,0L9,10.241Z" transform="translate(3 3)"/>
  </g>
</svg>
