<svg id="collapse_all" xmlns="http://www.w3.org/2000/svg" width="10.003" height="15.925" viewBox="0 0 10.003 15.925">
  <path id="Icon_color" data-name="Icon color" d="M1.207,15.926a.5.5,0,0,1-.356-.148l-.7-.71a.481.481,0,0,1,0-.7l4.13-4.15a.755.755,0,0,1,.53-.22h.38a.763.763,0,0,1,.53.22l4.13,4.15a.481.481,0,0,1,.151.35.474.474,0,0,1-.151.35l-.71.71a.5.5,0,0,1-.7,0L5,12.328l-3.44,3.45A.5.5,0,0,1,1.207,15.926Zm3.984-10h-.38a.772.772,0,0,1-.53-.22L.151,1.578a.5.5,0,0,1,0-.71l.71-.71a.491.491,0,0,1,.7,0L5,3.6,8.441.148a.5.5,0,0,1,.71,0l.7.71a.5.5,0,0,1,0,.71l-4.13,4.14A.76.76,0,0,1,5.191,5.928Z" transform="translate(0 0)"/>
</svg>
