<svg id="Layer_1" data-name="Layer 1" xmlns="http://www.w3.org/2000/svg" viewBox="0 0 992.13 992.13"><defs><style>.cls-1{fill:#222221;}</style></defs><title>Bridgestone icons 2020_correct-dev-names</title><path class="cls-1" d="M793.74,207c-25,0-46.67-15.08-52.68-36.66L713.89,74c-4-14.52-.15-30.15,10.44-41.8,10.35-11.42,25.76-18,42.29-18,.52,0,1,0,1.56,0H876.77c29.94,0,54.3,21.63,54.3,48.22v96.35c0,26.57-24.36,48.18-54.3,48.18H795.31C794.78,207,794.26,207,793.74,207ZM221.49,978c-48.75,0-91.83-29.16-104.76-70.92L62.44,731.66c-5.86-17.12-.66-35.58,13.58-48.17l25.51-22.16c10.13-9.18,24.28-14.45,38.83-14.45a61.85,61.85,0,0,1,7.32.44L582,702.26l-6.53-36.12c-9.11-48.59,2.84-97.87,33.65-138.77L762.2,323.56c10.17-12.7,26.71-20.28,44.25-20.28.63,0,1.27,0,1.9,0h69.39c16,0,31.19,6.26,41.56,17.18,10.58,11.19,14.87,25.83,11.77,40.16L806.19,938.86c-4.92,22.62-27.33,39-53.27,39H225.33C224.05,977.93,222.76,978,221.49,978Z"/></svg>