<svg id="comment_play_outlined" xmlns="http://www.w3.org/2000/svg" width="20" height="18" viewBox="0 0 20 18">
  <path id="Icon_color" data-name="Icon color" d="M10.19,18H9.81a.755.755,0,0,1-.53-.22L7.79,16.29a1.008,1.008,0,0,0-.7-.29H2a2,2,0,0,1-2-2V2A2,2,0,0,1,2,0H18a2,2,0,0,1,2,2V14a2,2,0,0,1-2,2H12.91a.993.993,0,0,0-.7.29l-1.49,1.49A.755.755,0,0,1,10.19,18ZM2,2V14H7.09a2.975,2.975,0,0,1,2.119.879l.79.79.79-.79A3.016,3.016,0,0,1,12.91,14H18V2Zm6.75,9.349A.749.749,0,0,1,8,10.6V5.4a.75.75,0,0,1,1.17-.62l3.89,2.6a.741.741,0,0,1,0,1.24l-3.89,2.6A.749.749,0,0,1,8.75,11.349Z" transform="translate(0)"/>
</svg>
