<svg id="comment_image_outlined" xmlns="http://www.w3.org/2000/svg" width="20" height="18" viewBox="0 0 20 18">
  <path id="Icon_color" data-name="Icon color" d="M10.19,18H9.81a.755.755,0,0,1-.53-.22L7.79,16.29a1.008,1.008,0,0,0-.7-.29H2a2,2,0,0,1-2-2V2A2,2,0,0,1,2,0H18a2,2,0,0,1,2,2V14a2,2,0,0,1-2,2H12.91a.993.993,0,0,0-.7.29l-1.49,1.49A.755.755,0,0,1,10.19,18ZM12.25,7.006a.509.509,0,0,1,.4.194l4.45,5.93a.478.478,0,0,0,.389.2h.021a.489.489,0,0,0,.49-.5V2H2V12.82a.49.49,0,0,0,.491.5h.018a.481.481,0,0,0,.382-.19L5.96,9.19A.521.521,0,0,1,6.35,9h.006a.5.5,0,0,1,.383.18l1.48,1.75a.487.487,0,0,0,.378.18.512.512,0,0,0,.4-.2L11.85,7.2A.506.506,0,0,1,12.25,7.006ZM7.5,7A1.5,1.5,0,1,1,9,5.5,1.5,1.5,0,0,1,7.5,7Z" transform="translate(0)"/>
</svg>
