<svg id="comment_play" xmlns="http://www.w3.org/2000/svg" width="20" height="18" viewBox="0 0 20 18">
  <path id="Icon_color" data-name="Icon color" d="M10.19,18H9.81a.755.755,0,0,1-.53-.22L7.79,16.29a1.008,1.008,0,0,0-.7-.29H2a2,2,0,0,1-2-2V2A2,2,0,0,1,2,0H18a2,2,0,0,1,2,2V14a2,2,0,0,1-2,2H12.91a.993.993,0,0,0-.7.29l-1.49,1.49A.755.755,0,0,1,10.19,18ZM8.75,4.651A.749.749,0,0,0,8,5.4v5.2a.75.75,0,0,0,1.17.62l3.89-2.6a.741.741,0,0,0,0-1.24L9.17,4.78A.749.749,0,0,0,8.75,4.651Z" transform="translate(0)"/>
</svg>
