<svg id="comment_video" xmlns="http://www.w3.org/2000/svg" width="20" height="18" viewBox="0 0 20 18">
  <path id="Icon_color" data-name="Icon color" d="M10.19,18H9.81a.755.755,0,0,1-.53-.22L7.79,16.29a1.008,1.008,0,0,0-.7-.29H2a2,2,0,0,1-2-2V2A2,2,0,0,1,2,0H18a2,2,0,0,1,2,2V14a2,2,0,0,1-2,2H12.91a.993.993,0,0,0-.7.29l-1.49,1.49A.755.755,0,0,1,10.19,18ZM4.5,3A1.5,1.5,0,0,0,3,4.5v7A1.5,1.5,0,0,0,4.5,13h7A1.5,1.5,0,0,0,13,11.5V9l2.711,2.71a.993.993,0,0,0,.7.29h.09a.5.5,0,0,0,.5-.5v-7a.5.5,0,0,0-.5-.5h-.09a1,1,0,0,0-.7.291L13,7V4.5A1.5,1.5,0,0,0,11.5,3Z" transform="translate(0)"/>
</svg>
