<svg id="contacts" xmlns="http://www.w3.org/2000/svg" width="20" height="24" viewBox="0 0 20 24">
  <path id="Icon_color" data-name="Icon color" d="M17,24H3a1,1,0,0,1-1-1V22H18v1A1,1,0,0,1,17,24Zm1-4H2a2,2,0,0,1-2-2V6A2,2,0,0,1,2,4H18a2,2,0,0,1,2,2V18A2,2,0,0,1,18,20ZM7.77,13A1.992,1.992,0,0,0,6,14.1L5.08,15.91A.75.75,0,0,0,5.75,17h8.5a.75.75,0,0,0,.651-1.09L14,14.1A2,2,0,0,0,12.23,13ZM9.99,6.75a2.225,2.225,0,0,0-1.584.656A2.254,2.254,0,1,0,10,6.75ZM18,2H2V1A1,1,0,0,1,3,0H17a1,1,0,0,1,1,1V2Z" transform="translate(0 0)"/>
</svg>
