<svg id="Layer_1" data-name="Layer 1" xmlns="http://www.w3.org/2000/svg" viewBox="0 0 992.13 992.13"><defs><style>.cls-1{fill:#222221;}</style></defs><title>Bridgestone icons 2020_correct-dev-names</title><path class="cls-1" d="M142.62,603.73c39.7-.13,92.26,14.38,129.45,36.13,79.08,46.31,128.82,128.8,136.75,226.94.17,1.89.27,3.7.35,5.4A384.92,384.92,0,0,1,125.7,604.89a88.91,88.91,0,0,1,9.2-.92C137.41,603.84,140,603.76,142.62,603.73Zm714.87-3.88a73.44,73.44,0,0,1,10.2.4A384.9,384.9,0,0,1,583.44,872.12v-1.94c1-68.87,30.52-136.76,81.55-187.79,49.18-49.17,111-77,182.36-82.06C851.1,600.06,854.44,599.9,857.49,599.85ZM496.06,110.48c166.17,0,307.79,103.81,361.65,250.77,24.58,67.06-14.76,64.79-23,65.9-7.07.94-12.14-.62-31.84-9.77-77.23-35.89-162.12-60.48-240.7-69.73-14.9-1.72-41.59-2.62-68.3-2.62s-53.43.9-68.3,2.62c-78.84,9.28-172.78,36.73-244.77,71.54-9.72,4.69-19.67,8.58-22.05,8.58-9.31,0-54.13,11.47-23-69.92A384.92,384.92,0,0,1,496.06,110.48Zm0-96.3c-265.53,0-481.92,216.38-481.92,481.91S230.56,978,496.09,978,978,761.59,978,496.09,761.59,14.18,496.09,14.18Z"/></svg>