<svg id="contacts_book" xmlns="http://www.w3.org/2000/svg" width="18" height="20" viewBox="0 0 18 20">
  <path id="Icon_color" data-name="Icon color" d="M16,20H4a2,2,0,0,1-2-2H.5a.5.5,0,0,1-.5-.5v-1A.5.5,0,0,1,.5,16H2V11H.5a.5.5,0,0,1-.5-.5v-1A.5.5,0,0,1,.5,9H2V4H.5A.5.5,0,0,1,0,3.5v-1A.5.5,0,0,1,.5,2H2A2,2,0,0,1,4,0H16a2,2,0,0,1,2,2V18A2,2,0,0,1,16,20ZM7.12,14a1.49,1.49,0,0,0-1.34.83l-.73,1.45A.5.5,0,0,0,5.5,17l.052,0h7a.5.5,0,0,0,.426-.235A.5.5,0,0,0,13,16.28l-.779-1.45A1.49,1.49,0,0,0,10.88,14ZM9,9a2,2,0,1,0,2,2A2,2,0,0,0,9,9Z" transform="translate(0 0)"/>
</svg>
