<svg id="Layer_1" data-name="Layer 1" xmlns="http://www.w3.org/2000/svg" viewBox="0 0 992.13 992.13"><defs><style>.cls-1{fill:#222221;}</style></defs><title>Bridgestone icons 2020_correct-dev-names</title><polygon class="cls-1" points="539.29 246.88 539.29 477.1 726.7 589.77 688.15 655.31 458.97 517.72 458.97 246.88 539.29 246.88"/><path class="cls-1" d="M950.21,495.57h-52.4a27.24,27.24,0,0,0-27.15,25.74C865.22,616.58,829.05,693.82,762.15,761,616,907.25,379.28,907.25,233.1,761c-146.18-147.34-146.18-384,0-530.85C378.77,84.42,614.26,89.32,760.56,234.06L670.19,325.3c-14.15,14.28-4.56,38.57,15.53,39.33l119.82,4.57,147.18,5.62a23.11,23.11,0,0,0,23.95-24.18l-7-147.12L963.94,83.75c-1-20.08-25.34-29.44-39.48-15.16L838,155.86c-192.78-188.66-496-188.08-683.1-1C-33,342.82-31.42,648.33,156,836.29c188,188.5,493.18,188.5,681.13,0C923,750.44,969.69,627.3,977.35,525A27.27,27.27,0,0,0,950.21,495.57Z"/></svg>