<svg id="dashboard_outlined" xmlns="http://www.w3.org/2000/svg" width="18" height="18" viewBox="0 0 18 18">
  <path id="Icon_color" data-name="Icon color" d="M17,18H11a1,1,0,0,1-1-1V13a1,1,0,0,1,1-1h6a1,1,0,0,1,1,1v4A1,1,0,0,1,17,18Zm-5-4v2h4V14ZM7,18H1a1,1,0,0,1-1-1V9A1,1,0,0,1,1,8H7A1,1,0,0,1,8,9v8A1,1,0,0,1,7,18ZM2,10v6H6V10Zm15,0H11a1,1,0,0,1-1-1V1a1,1,0,0,1,1-1h6a1,1,0,0,1,1,1V9A1,1,0,0,1,17,10ZM12,2V8h4V2ZM7,6H1A1,1,0,0,1,0,5V1A1,1,0,0,1,1,0H7A1,1,0,0,1,8,1V5A1,1,0,0,1,7,6ZM2,2V4H6V2Z"/>
</svg>
