<svg id="Layer_1" data-name="Layer 1" xmlns="http://www.w3.org/2000/svg" viewBox="0 0 992.13 992.13"><defs><style>.cls-1{fill:#222221;}</style></defs><title>Bridgestone icons 2020_correct-dev-names</title><path class="cls-1" d="M737,147.18c89.63,68.9,144.56,185.52,144.56,300.69,0,144.57-80.47,271.79-199.5,337.33h-372c-119-65.54-199.5-192.76-199.5-337.33,0-115.17,52.53-232.75,144.57-300.69V41.36a27.19,27.19,0,0,0-27.19-27.19h-42a27.18,27.18,0,0,0-27.18,27.19V103.8C69.59,191.51,14.17,313,14.17,447.87S69.59,704.24,158.74,791.94V978h96.38V881.57H351.5V978h96.37V881.57h96.38V978h96.38V881.57H737V978h96.38v-186C922.54,704.24,978,582.8,978,447.87S922.54,191.51,833.39,103.8V41.36A27.19,27.19,0,0,0,806.2,14.17h-42A27.18,27.18,0,0,0,737,41.36ZM447.87,158.74h96.38V447.87H447.87V158.74m0,385.51h96.38v96.38H447.87V544.25"/></svg>