<svg id="double_caret_vertical" xmlns="http://www.w3.org/2000/svg" width="8.576" height="14.003" viewBox="0 0 8.576 14.003">
  <path id="Icon_color" data-name="Icon color" d="M4.288,14a.483.483,0,0,1-.35-.151L.148,10.061a.5.5,0,0,1,0-.709l.2-.2A.493.493,0,0,1,.7,9H7.874a.493.493,0,0,1,.353.149l.2.2a.5.5,0,0,1,0,.709l-3.79,3.791A.484.484,0,0,1,4.288,14ZM7.874,5H.7a.493.493,0,0,1-.353-.149l-.2-.2a.5.5,0,0,1,0-.71L3.938.151a.481.481,0,0,1,.7,0l3.79,3.79a.5.5,0,0,1,0,.71l-.2.2A.493.493,0,0,1,7.874,5Z"/>
</svg>
