<svg id="download_outlined" xmlns="http://www.w3.org/2000/svg" width="20" height="20" viewBox="0 0 20 20">
  <path id="Icon_color" data-name="Icon color" d="M10,20A10,10,0,1,1,20,10,9.939,9.939,0,0,1,10,20ZM10,2a8,8,0,1,0,8,8A8.009,8.009,0,0,0,10,2Zm.19,14H9.81a.768.768,0,0,1-.53-.22L6.15,12.65a.5.5,0,0,1,0-.71l.71-.71a.489.489,0,0,1,.7,0L9,12.67V4.5A.5.5,0,0,1,9.5,4h1a.5.5,0,0,1,.5.5v8.17l1.44-1.45a.5.5,0,0,1,.71,0l.7.71a.5.5,0,0,1,0,.709l-3.13,3.14A.752.752,0,0,1,10.19,16Z" transform="translate(0 0)"/>
</svg>
