<svg id="download" xmlns="http://www.w3.org/2000/svg" width="20" height="20" viewBox="0 0 20 20">
  <path id="Icon_color" data-name="Icon color" d="M10,20A10,10,0,1,1,20,10,10.011,10.011,0,0,1,10,20ZM7.21,11.073a.494.494,0,0,0-.35.148l-.71.71a.5.5,0,0,0,0,.709l3.13,3.14a.769.769,0,0,0,.53.22h.38a.752.752,0,0,0,.53-.22l3.13-3.14a.5.5,0,0,0,0-.709l-.7-.71a.5.5,0,0,0-.71,0L11,12.67V4.5a.5.5,0,0,0-.5-.5h-1a.5.5,0,0,0-.5.5v8.17L7.56,11.22A.491.491,0,0,0,7.21,11.073Z" transform="translate(0 0)"/>
</svg>
