<svg id="dribbble" xmlns="http://www.w3.org/2000/svg" width="20" height="20" viewBox="0 0 20 20">
  <path id="Icon_color" data-name="Icon color" d="M10,20A10,10,0,1,1,20,10,10.011,10.011,0,0,1,10,20Zm1.41-8.54a10.667,10.667,0,0,0-6.23,4.91v.01A7.927,7.927,0,0,0,12.9,17.46a29.863,29.863,0,0,0-1.49-6ZM14.47,11a11.958,11.958,0,0,0-1.58.121,32.829,32.829,0,0,1,1.42,5.61,8.037,8.037,0,0,0,3.54-5.18A10.739,10.739,0,0,0,14.47,11ZM2,9.62V10a7.985,7.985,0,0,0,2.06,5.34,12.215,12.215,0,0,1,6.82-5.279c-.219-.541-.469-1.061-.69-1.52A16.6,16.6,0,0,1,4,9.75,16.055,16.055,0,0,1,2,9.62Zm12.47-.14A12.211,12.211,0,0,1,18,10a7.934,7.934,0,0,0-2-5.31A16.945,16.945,0,0,1,11.56,7.9c.272.57.53,1.156.79,1.79A12.5,12.5,0,0,1,14.47,9.48ZM6.62,2.76A7.96,7.96,0,0,0,2.23,8.14,17.547,17.547,0,0,0,4,8.25,15.3,15.3,0,0,0,9.51,7.2,32.334,32.334,0,0,0,6.62,2.76ZM10,2a8.132,8.132,0,0,0-1.92.24,32.784,32.784,0,0,1,2.79,4.34,15.155,15.155,0,0,0,4-2.91A8.048,8.048,0,0,0,10,2Z" transform="translate(0 0)"/>
</svg>
