<svg id="dropbox" xmlns="http://www.w3.org/2000/svg" width="18.001" height="20" viewBox="0 0 18.001 20">
  <path id="Icon_color" data-name="Icon color" d="M9.541,20h-1A.991.991,0,0,1,8,19.84l-4.54-2.92A1,1,0,0,1,3,16.08V14.19l2.73,1.73A.5.5,0,0,0,6,16h.034a.521.521,0,0,0,.4-.181L9,12.65l2.61,3.17A.52.52,0,0,0,12,16a.466.466,0,0,0,.086.007.5.5,0,0,0,.284-.087l2.69-1.73v1.89a1,1,0,0,1-.46.84l-4.52,2.92A1,1,0,0,1,9.541,20Zm2.809-6.143a.5.5,0,0,1-.389-.186L8.968,9.92,6,13.53a.506.506,0,0,1-.4.195.514.514,0,0,1-.229-.054L.16,10.29A.34.34,0,0,1,0,10V9.81a.363.363,0,0,1,.08-.22l2.53-3.1L.1,4A.361.361,0,0,1,0,3.73V3.66A.34.34,0,0,1,.16,3.37L5.241.08A.493.493,0,0,1,5.511,0H5.8a.487.487,0,0,1,.353.15L9,3,3.681,6.44,9,9.88l-.006.008L14.28,6.47,9,3,11.85.15A.493.493,0,0,1,12.2,0h.286a.493.493,0,0,1,.27.08l5.08,3.29a.339.339,0,0,1,.16.29v.07a.363.363,0,0,1-.1.249l-2.51,2.51,2.53,3.1a.376.376,0,0,1,.08.22V10a.339.339,0,0,1-.16.29l-5.21,3.48A.5.5,0,0,1,12.35,13.856Z" transform="translate(0 0)"/>
</svg>
