<svg id="Layer_1" data-name="Layer 1" xmlns="http://www.w3.org/2000/svg" viewBox="0 0 992.13 992.13"><defs><style>.cls-1{fill:#222221;}</style></defs><title>Bridgestone icons 2020_correct-dev-names</title><path class="cls-1" d="M476.84,274.58A453.39,453.39,0,0,1,605.1,293.05a152,152,0,0,0,32.7-94.31c0-84.82-69.34-153.59-154.88-153.59S328.05,113.92,328.05,198.74a152,152,0,0,0,30.47,91.47A452.57,452.57,0,0,1,476.84,274.58Z"/><path class="cls-1" d="M883.41,398.36c-.83-.06-1.67-.08-2.52-.11-.55,0-1.08-.07-1.64-.07v0l-.58,0c-23.2,0-42,12-42,26.72s18.81,26.72,42,26.72l.58,0v0c30,0,45.85,19,45.85,36.83,0,19.37-11.39,39.28-31.25,54.63-10.68,8.25-26.81,17.35-50,23.76-20.77-133.22-156.5-238.6-327.24-253.49,0-.12,0-.24,0-.36-11.46-.94-23.12-1.5-35-1.5-1.29,0-2.55,0-3.83.05-.93,0-1.84-.05-2.76-.05-71.91,0-139,16.07-195.85,43.76L203.75,288.2l-6.22,133.24c-29.42,29.64-51.79,63.92-65,101.28a1,1,0,0,1-.38-.18s-34.06,67.54-118,78.31L48.49,708.62s39,1.49,136.47,61.45v-.14c29,33,66.4,60.66,109.62,81.55L323,937.69s44.76,17.09,86.87,4.9l3.69-53.28A472.87,472.87,0,0,0,475,893.37c1.08,0,2.14-.06,3.21-.06s2.24.06,3.38.06A447.35,447.35,0,0,0,569,884.49l4.1,58.1c42.1,12.19,86.83-4.9,86.83-4.9L692.49,839A354.75,354.75,0,0,0,732,812.58c65.25-48.89,107.76-116.17,113.93-191.23,31.49-7.05,58.81-19.11,80.63-36,33-25.54,51.44-60.87,51.44-96.92C978,437.49,936,400.25,883.41,398.36ZM242,616.7a34.43,34.43,0,1,1,34.41-34.43A34.42,34.42,0,0,1,242,616.7Z"/></svg>