<svg id="edit" xmlns="http://www.w3.org/2000/svg" width="18" height="18" viewBox="0 0 18 18">
  <path id="Icon_color" data-name="Icon color" d="M.583,18a.5.5,0,0,1-.353-.146.5.5,0,0,1-.189-.619L1.757,12.9a1.986,1.986,0,0,1,.449-.679l8.051-8.054a.5.5,0,0,1,.355-.148.494.494,0,0,1,.354.148L13.82,6.986a.5.5,0,0,1,0,.7L5.778,15.758a1.975,1.975,0,0,1-.679.449L.77,17.964A.5.5,0,0,1,.583,18ZM15.361,5.956a.5.5,0,0,1-.355-.148L12.2,2.964a.5.5,0,0,1,0-.7L14.009.439A1.49,1.49,0,0,1,15.07,0h.775A1.488,1.488,0,0,1,16.9.439l.659.659A1.491,1.491,0,0,1,18,2.156v.759a1.507,1.507,0,0,1-.439,1.078L15.715,5.809A.5.5,0,0,1,15.361,5.956Z" transform="translate(0 0)"/>
</svg>
