<svg xmlns="http://www.w3.org/2000/svg" width="20" height="16" viewBox="0 0 20 16">
  <g id="exit_fullscreen_4_3" transform="translate(-2 -4)">
    <path id="Icon_color" data-name="Icon color" d="M16.5,16h-1a.5.5,0,0,1-.5-.5V12a1,1,0,0,1,1-1h3.5a.5.5,0,0,1,.5.5v1a.5.5,0,0,1-.5.5H17v2.5A.5.5,0,0,1,16.5,16Zm-12,0h-1a.5.5,0,0,1-.5-.5V13H.5a.5.5,0,0,1-.5-.5v-1A.5.5,0,0,1,.5,11H4a1,1,0,0,1,1,1v3.5A.5.5,0,0,1,4.5,16Zm15-11H16a1,1,0,0,1-1-1V.5a.5.5,0,0,1,.5-.5h1a.5.5,0,0,1,.5.5V3h2.5a.5.5,0,0,1,.5.5v1A.5.5,0,0,1,19.5,5ZM4,5H.5A.5.5,0,0,1,0,4.5v-1A.5.5,0,0,1,.5,3H3V.5A.5.5,0,0,1,3.5,0h1A.5.5,0,0,1,5,.5V4A1,1,0,0,1,4,5Z" transform="translate(2 4)"/>
  </g>
</svg>
