<svg xmlns="http://www.w3.org/2000/svg" width="18" height="18" viewBox="0 0 18 18">
  <g id="exit_fullscreen_1_1" transform="translate(-3 -3)">
    <path id="Icon_color" data-name="Icon color" d="M13.5,18h-1a.5.5,0,0,1-.5-.5V13a1,1,0,0,1,1-1h4.5a.5.5,0,0,1,.5.5v1a.5.5,0,0,1-.5.5H14v3.5A.5.5,0,0,1,13.5,18Zm-8,0h-1a.5.5,0,0,1-.5-.5V14H.5a.5.5,0,0,1-.5-.5v-1A.5.5,0,0,1,.5,12H5a1,1,0,0,1,1,1v4.5A.5.5,0,0,1,5.5,18Zm12-12H13a1,1,0,0,1-1-1V.5a.5.5,0,0,1,.5-.5h1a.5.5,0,0,1,.5.5V4h3.5a.5.5,0,0,1,.5.5v1A.5.5,0,0,1,17.5,6ZM5,6H.5A.5.5,0,0,1,0,5.5v-1A.5.5,0,0,1,.5,4H4V.5A.5.5,0,0,1,4.5,0h1A.5.5,0,0,1,6,.5V5A1,1,0,0,1,5,6Z" transform="translate(3 3)"/>
  </g>
</svg>
