<svg xmlns="http://www.w3.org/2000/svg" width="22" height="12" viewBox="0 0 22 12">
  <g id="exit_fullscreen_16_9" transform="translate(-1 -6)">
    <path id="Icon_color" data-name="Icon color" d="M18.5,12h-1a.5.5,0,0,1-.5-.5V8a1,1,0,0,1,1-1h3.5a.5.5,0,0,1,.5.5v1a.5.5,0,0,1-.5.5H19v2.5A.5.5,0,0,1,18.5,12Zm-14,0h-1a.5.5,0,0,1-.5-.5V9H.5A.5.5,0,0,1,0,8.5v-1A.5.5,0,0,1,.5,7H4A1,1,0,0,1,5,8v3.5A.5.5,0,0,1,4.5,12Zm17-7H18a1,1,0,0,1-1-1V.5a.5.5,0,0,1,.5-.5h1a.5.5,0,0,1,.5.5V3h2.5a.5.5,0,0,1,.5.5v1A.5.5,0,0,1,21.5,5ZM4,5H.5A.5.5,0,0,1,0,4.5v-1A.5.5,0,0,1,.5,3H3V.5A.5.5,0,0,1,3.5,0h1A.5.5,0,0,1,5,.5V4A1,1,0,0,1,4,5Z" transform="translate(1 6)"/>
  </g>
</svg>
