<svg id="expand_all" xmlns="http://www.w3.org/2000/svg" width="9.995" height="18" viewBox="0 0 9.995 18">
  <path id="Icon_color" data-name="Icon color" d="M5.188,18h-.38a.771.771,0,0,1-.53-.22L.148,13.642a.5.5,0,0,1,0-.709l.71-.71a.491.491,0,0,1,.7,0L5,15.661l3.44-3.448a.5.5,0,0,1,.71,0l.7.72a.5.5,0,0,1,0,.709L5.718,17.78A.755.755,0,0,1,5.188,18ZM1.2,5.925a.5.5,0,0,1-.356-.148l-.7-.71a.5.5,0,0,1,0-.709L4.278.22A.755.755,0,0,1,4.808,0h.38a.768.768,0,0,1,.53.22l4.13,4.138a.5.5,0,0,1,0,.709l-.71.71a.491.491,0,0,1-.7,0L5,2.328,1.558,5.777A.5.5,0,0,1,1.2,5.925Z"/>
</svg>
