<svg id="explore_off" xmlns="http://www.w3.org/2000/svg" width="19.997" height="20.001" viewBox="0 0 19.997 20.001">
  <path id="Icon_color" data-name="Icon color" d="M10.012,20h0A10.01,10.01,0,0,1,2.3,3.607l-1.192-1.2a.482.482,0,0,1,0-.7l.531-.53a.479.479,0,0,1,.7,0L18.825,17.66a.48.48,0,0,1,0,.7l-.53.53a.48.48,0,0,1-.7,0l-1.2-1.191A10.027,10.027,0,0,1,10.012,20ZM7.455,8.791l-2,4.825a.489.489,0,0,0,.11.541l.24.239a.491.491,0,0,0,.541.111l4.834-1.992Zm11.191,6.246h0L13.171,9.522,14.4,6.449a.49.49,0,0,0-.111-.541l-.24-.239a.489.489,0,0,0-.54-.111L10.478,6.83,4.963,1.355A10.009,10.009,0,0,1,18.646,15.036Z" transform="translate(-0.001 0)"/>
</svg>
