<svg id="explore_outlined" xmlns="http://www.w3.org/2000/svg" width="20" height="20" viewBox="0 0 20 20">
  <path id="Icon_color" data-name="Icon color" d="M10,20A10,10,0,1,1,20,10,10.011,10.011,0,0,1,10,20ZM10,2a8,8,0,1,0,8,8A8.009,8.009,0,0,0,10,2ZM6.261,14.478a.493.493,0,0,1-.351-.148l-.24-.239a.488.488,0,0,1-.11-.54l2-4.93A2.011,2.011,0,0,1,8.65,7.53l4.93-2a.486.486,0,0,1,.188-.038.494.494,0,0,1,.352.148l.24.239a.488.488,0,0,1,.11.54l-2,4.93a2.012,2.012,0,0,1-1.091,1.09l-4.929,2A.484.484,0,0,1,6.261,14.478Z" transform="translate(0 0)"/>
</svg>
