<svg id="explore" xmlns="http://www.w3.org/2000/svg" width="20" height="20" viewBox="0 0 20 20">
  <path id="Icon_color" data-name="Icon color" d="M10,20A10,10,0,1,1,20,10,10.011,10.011,0,0,1,10,20ZM13.768,5.492a.486.486,0,0,0-.188.038l-4.93,2A2.011,2.011,0,0,0,7.56,8.62l-2,4.93a.488.488,0,0,0,.11.54l.24.239a.493.493,0,0,0,.351.148.484.484,0,0,0,.189-.038l4.929-2a2.011,2.011,0,0,0,1.091-1.09l2-4.93a.488.488,0,0,0-.11-.54l-.24-.239A.494.494,0,0,0,13.768,5.492Z" transform="translate(0 0)"/>
</svg>
