<svg id="explore_off_outlined" xmlns="http://www.w3.org/2000/svg" width="19.999" height="20" viewBox="0 0 19.999 20">
  <path id="Icon_color" data-name="Icon color" d="M10,20A10,10,0,0,1,2.3,3.626l-1.19-1.2a.478.478,0,0,1,0-.7l.529-.53a.481.481,0,0,1,.7,0L18.8,17.663a.481.481,0,0,1,0,.7l-.53.53a.48.48,0,0,1-.7,0l-1.2-1.19A10.017,10.017,0,0,1,10,20ZM3.727,5.046A7.984,7.984,0,0,0,14.954,16.273L11.2,12.5l-4.828,2a.488.488,0,0,1-.189.038.5.5,0,0,1-.351-.148l-.24-.24a.487.487,0,0,1-.11-.54l2-4.828Zm14.906,10h0l-1.479-1.508A8,8,0,0,0,6.467,2.847l-1.51-1.48A10,10,0,0,1,18.634,15.043ZM13.154,9.535h0L10.465,6.845l3.069-1.27a.486.486,0,0,1,.188-.038.494.494,0,0,1,.352.148l.24.239a.488.488,0,0,1,.11.54L13.155,9.533Z" transform="translate(0 0)"/>
</svg>
