<svg id="favorite_comment" xmlns="http://www.w3.org/2000/svg" width="20" height="18" viewBox="0 0 20 18">
  <path id="Icon_color" data-name="Icon color" d="M10.19,18H9.81a.755.755,0,0,1-.53-.22L7.79,16.29a1.008,1.008,0,0,0-.7-.29H2a2,2,0,0,1-2-2V2A2,2,0,0,1,2,0H18a2,2,0,0,1,2,2V14a2,2,0,0,1-2,2H12.91a.993.993,0,0,0-.7.29l-1.49,1.49A.755.755,0,0,1,10.19,18ZM7.75,4A2.753,2.753,0,0,0,5,6.75c0,1.535,1.8,3.38,3,4.6.162.166.314.321.444.459l1,1a.75.75,0,0,0,1.06,0l1-1,.3-.3C13,10.328,15,8.354,15,6.75A2.75,2.75,0,0,0,12.25,4,3.226,3.226,0,0,0,10,5,3.2,3.2,0,0,0,7.75,4Z" transform="translate(0)"/>
</svg>
