<svg id="feed_outlined" xmlns="http://www.w3.org/2000/svg" width="20" height="16" viewBox="0 0 20 16">
  <path id="Icon_color" data-name="Icon color" d="M17,16H3a3,3,0,0,1-3-3V2A2,2,0,0,1,2,0H14a2,2,0,0,1,2,2V13a1,1,0,1,0,2,0V2.5a.5.5,0,0,1,.5-.5h1a.5.5,0,0,1,.5.5V13A3,3,0,0,1,17,16ZM2,2V13a1,1,0,0,0,1,1H14.18A2.987,2.987,0,0,1,14,13V2Zm9.5,10h-7a.5.5,0,0,1-.5-.5v-1a.5.5,0,0,1,.5-.5h7a.5.5,0,0,1,.5.5v1A.5.5,0,0,1,11.5,12Zm0-4h-7A.5.5,0,0,1,4,7.5v-3A.5.5,0,0,1,4.5,4h7a.5.5,0,0,1,.5.5v3A.5.5,0,0,1,11.5,8Z" transform="translate(0)"/>
</svg>
