<svg xmlns="http://www.w3.org/2000/svg" width="17.999" height="18" viewBox="0 0 17.999 18">
  <g id="find_replace" transform="translate(-3 -3)">
    <path id="Icon_color" data-name="Icon color" d="M16.8,18a.5.5,0,0,1-.356-.148l-4.006-4a2.618,2.618,0,0,1-.3-.36l-.751-1a7.017,7.017,0,0,1-9.534-.73l-1,1A.491.491,0,0,1,0,12.412V8.532a.523.523,0,0,1,.5-.5H4.4l.049,0a.5.5,0,0,1,.321.882L3.3,10.382a5.011,5.011,0,0,0,8.543-2,.5.5,0,0,1,.481-.36h1a.5.5,0,0,1,.391.19.529.529,0,0,1,.1.419,7.033,7.033,0,0,1-1.382,2.8l1,.69a2.444,2.444,0,0,1,.43.35l4.006,4a.5.5,0,0,1-.02.68l-.7.7A.5.5,0,0,1,16.8,18ZM.679,6.033a.493.493,0,0,1-.388-.191.526.526,0,0,1-.1-.419,7.013,7.013,0,0,1,12.017-3.13l1-1a.493.493,0,0,1,.362-.158.487.487,0,0,1,.187.037.493.493,0,0,1,.3.472v3.89a.522.522,0,0,1-.5.5H9.625a.5.5,0,0,1-.351-.85l1.463-1.47a5.01,5.01,0,0,0-8.543,2,.5.5,0,0,1-.466.32H.679Z" transform="translate(3 3)"/>
  </g>
</svg>
