<svg xmlns="http://www.w3.org/2000/svg" width="10.928" height="12" viewBox="0 0 10.928 12">
  <g id="first_page" transform="translate(-7 -6)">
    <path id="Icon_color" data-name="Icon color" d="M1.5,12H.5a.5.5,0,0,1-.5-.5V.5A.5.5,0,0,1,.5,0h1A.5.5,0,0,1,2,.5v11A.5.5,0,0,1,1.5,12Zm8.214,0a.5.5,0,0,1-.355-.148L4.22,6.72A.76.76,0,0,1,4,6.19V5.81a.768.768,0,0,1,.22-.53L9.36.15A.5.5,0,0,1,9.715,0,.494.494,0,0,1,10.07.15l.71.71a.49.49,0,0,1,0,.7L6.33,6l4.451,4.44a.5.5,0,0,1,.148.355.5.5,0,0,1-.148.356l-.71.7A.5.5,0,0,1,9.715,12Z" transform="translate(7 6)"/>
  </g>
</svg>
