<svg id="Layer_1" data-name="Layer 1" xmlns="http://www.w3.org/2000/svg" viewBox="0 0 992.13 992.13"><defs><style>.cls-1,.cls-2{fill:#222221;}.cls-2{fill-rule:evenodd;}</style></defs><title>Bridgestone icons 2020_correct-dev-names</title><path class="cls-1" d="M689.13,719.8A232.6,232.6,0,0,0,796.24,658a23.12,23.12,0,0,0-4.91-36.21L738.19,591.1a55.06,55.06,0,0,0-8.74-4,377.27,377.27,0,0,1-52.9,120.21c-2,3.07-4.23,6-6.37,9A22.35,22.35,0,0,0,689.13,719.8Z"/><path class="cls-1" d="M840.49,573.11A22.43,22.43,0,0,0,854,557.91a232.9,232.9,0,0,0,0-123.68,23.12,23.12,0,0,0-33.82-13.84l-53.09,30.66a51.95,51.95,0,0,0,0,90l53.09,30.66A22.39,22.39,0,0,0,840.49,573.11Z"/><path class="cls-1" d="M631.36,149.53a346.53,346.53,0,0,0-92.59,12.54A376.28,376.28,0,0,1,629.44,229c.46.46.89,1,1.35,1.42h.57C778.08,230.4,897,349.32,897,496.06c0,146.4-118.42,265.12-264.69,265.64-1,1-1.9,2-2.89,3A378.66,378.66,0,0,1,572,811.85Q556.82,822,540.78,830.61a346.92,346.92,0,0,0,90.58,12c191.37,0,346.53-155.16,346.53-346.53S822.73,149.53,631.36,149.53Z"/><path class="cls-1" d="M746.88,296a230.76,230.76,0,0,0-57.75-23.69,22.37,22.37,0,0,0-19.7,4c2.4,3.35,4.82,6.68,7.12,10.11a378.47,378.47,0,0,1,52.56,118.73,55.16,55.16,0,0,0,9.08-4.09l53.14-30.66a23.1,23.1,0,0,0,4.91-36.19A228.83,228.83,0,0,0,746.88,296Z"/><path class="cls-2" d="M476.29,696.12a230.27,230.27,0,0,1-57.76,23.68,23.09,23.09,0,0,1-28.86-22.38l0-61.31a52,52,0,0,1,78-45l53.14,30.64a23.11,23.11,0,0,1,4.9,36.21A229.08,229.08,0,0,1,476.29,696.12ZM195.89,658a23.13,23.13,0,0,1,4.92-36.21l53.12-30.64a52,52,0,0,1,78,45l0,61.31A23.1,23.1,0,0,1,303,719.8,232.73,232.73,0,0,1,195.89,658Zm395.9-161.89a232,232,0,0,1-8.36,61.85,23.13,23.13,0,0,1-33.83,13.83l-53.09-30.66a52,52,0,0,1,0-90l53.09-30.66a23.13,23.13,0,0,1,33.83,13.84A231.69,231.69,0,0,1,591.79,496.06Zm-231-52a52,52,0,1,0,52,52A52,52,0,0,0,360.77,444.07Zm0-294.54c-191.4,0-346.53,155.16-346.53,346.53S169.37,842.59,360.77,842.59,707.29,687.43,707.29,496.06,552.13,149.53,360.77,149.53ZM626.43,496.06c0,146.73-118.94,265.67-265.66,265.67S95.09,642.79,95.09,496.06,214,230.4,360.77,230.4,626.43,349.32,626.43,496.06ZM525.64,334.18a23.09,23.09,0,0,1-4.9,36.19L467.6,401a52,52,0,0,1-78-45l0-61.32a23.1,23.1,0,0,1,28.86-22.38,232.6,232.6,0,0,1,107.11,61.86ZM245.26,296A230.39,230.39,0,0,1,303,272.32a23.11,23.11,0,0,1,28.88,22.38l0,61.32a52,52,0,0,1-78,45l-53.12-30.66a23.11,23.11,0,0,1-4.92-36.19A229.38,229.38,0,0,1,245.26,296ZM138.12,434.23a23.12,23.12,0,0,1,33.82-13.84l53.11,30.66a52,52,0,0,1,0,90l-53.11,30.66a23.12,23.12,0,0,1-33.82-13.83,232.9,232.9,0,0,1,0-123.68Z"/></svg>