<svg id="Layer_1" data-name="Layer 1" xmlns="http://www.w3.org/2000/svg" viewBox="0 0 992.13 992.13"><defs><style>.cls-1{fill:#222221;}</style></defs><title>Bridgestone icons 2020_correct-dev-names</title><path class="cls-1" d="M953,253.47,721.7,22.74a27.21,27.21,0,0,0-39.68,0L661.61,42.58a28.9,28.9,0,0,0,0,40.25L779.53,200.75V335.11a85.06,85.06,0,0,0,24.94,60.09l88.44,89V837.9c0,21-11.77,40.77-31,49.35-41.84,18.7-82.42-11.41-82.42-51V577.54A109.78,109.78,0,0,0,669.75,467.76H581.1V67.28a53,53,0,0,0-53-53H67.25A53.08,53.08,0,0,0,14.17,67.32V924.88A53.09,53.09,0,0,0,67.27,978H528a53.07,53.07,0,0,0,53.06-53.06V552.8h88.64a24.75,24.75,0,0,1,24.75,24.75V837.24c0,56.15,43.33,117.43,97,133.89C888.82,1001,978,929,978,836.25V314.13A87.3,87.3,0,0,0,953,253.47Zm-444.62,60.6H88.06V87.31H508.39Z"/></svg>