<svg id="github" xmlns="http://www.w3.org/2000/svg" width="20.001" height="19.511" viewBox="0 0 20.001 19.511">
  <path id="Icon_color" data-name="Icon color" d="M20,10.008a10,10,0,0,1-6.84,9.48.52.52,0,0,1-.45-.07.51.51,0,0,1-.21-.41v-2.67a4,4,0,0,0-.5-2.06.25.25,0,0,1,0-.27.27.27,0,0,1,.2-.14c2.44-.25,3.8-1.22,3.8-3.86a4.71,4.71,0,0,0-1.19-3.36,4.3,4.3,0,0,0,.19-1.2,4.33,4.33,0,0,0-.15-1.08.49.49,0,0,0-.53-.36,4.45,4.45,0,0,0-2.44,1.18,9.91,9.91,0,0,0-3.76,0,4.45,4.45,0,0,0-2.44-1.18.49.49,0,0,0-.53.36A4.33,4.33,0,0,0,5,5.448a4.3,4.3,0,0,0,.19,1.2A4.71,4.71,0,0,0,4,10.008c0,2.78,1.51,3.71,4.28,3.94a3.71,3.71,0,0,0-.69,1.53h0v.12a.68.68,0,0,0,0,.14.59.59,0,0,1-.64.51h0a1,1,0,0,1-.43-.12,5.34,5.34,0,0,1-1.42-1.26,10.09,10.09,0,0,0-.8-.81,2.74,2.74,0,0,0-.59-.39.49.49,0,0,0-.48,0,.5.5,0,0,0-.23.42v.06a.5.5,0,0,0,.23.42,4.54,4.54,0,0,1,.92,1.05,6.61,6.61,0,0,0,1.59,1.72,2.48,2.48,0,0,0,1.4.42H7.5v1.25a.51.51,0,0,1-.21.41.52.52,0,0,1-.45.07A10,10,0,1,1,20,10.008Z" transform="translate(0)"/>
</svg>
