<svg id="gmail" xmlns="http://www.w3.org/2000/svg" width="20" height="16" viewBox="0 0 20 16">
  <path id="Icon_color" data-name="Icon color" d="M18,16H2a2,2,0,0,1-2-2V2A2,2,0,0,1,2,0H18a2,2,0,0,1,2,2V14A2,2,0,0,1,18,16ZM16,4.37V13.5a.5.5,0,0,0,.5.5h1a.5.5,0,0,0,.5-.5V2.5a.5.5,0,0,0-.5-.5H16.12a1.009,1.009,0,0,0-.62.221L9.86,6.72,4.23,2.22A1,1,0,0,0,3.61,2H2.5a.5.5,0,0,0-.5.5v11a.5.5,0,0,0,.5.5h1a.5.5,0,0,0,.5-.5V4.59L9.35,8.84A.8.8,0,0,0,9.82,9H10a.812.812,0,0,0,.42-.16L16,4.372Z" transform="translate(0)"/>
</svg>
