<svg id="google" xmlns="http://www.w3.org/2000/svg" width="18.001" height="18" viewBox="0 0 18.001 18">
  <path id="Icon_color" data-name="Icon color" d="M18,8.79C18,12.94,15.79,18,9.13,18A9.07,9.07,0,0,1,0,9,9.07,9.07,0,0,1,9.13,0a9.22,9.22,0,0,1,5.7,2,.52.52,0,0,1,.19.37.55.55,0,0,1-.16.39A26.4,26.4,0,0,0,13,4.64a.49.49,0,0,1-.66.06,5.11,5.11,0,0,0-3.2-1,5.35,5.35,0,1,0,0,10.7c3,0,4.27-1.28,4.93-3.55H9.5a.5.5,0,0,1-.5-.5V7.7a.5.5,0,0,1,.5-.5h8a.45.45,0,0,1,.45.4A11.56,11.56,0,0,1,18,8.79Z" transform="translate(0 0)"/>
</svg>
