<svg id="google_drive" xmlns="http://www.w3.org/2000/svg" width="19.837" height="18.001" viewBox="0 0 19.837 18.001">
  <path id="Icon_color" data-name="Icon color" d="M15.607,18H6.4a.5.5,0,0,1-.409-.264A.5.5,0,0,1,6,17.251L8.37,13A2.007,2.007,0,0,1,10.1,12H19.34a.5.5,0,0,1,.43.75L17.34,17A2.007,2.007,0,0,1,15.607,18ZM3.165,17.385a.513.513,0,0,1-.436-.244L.2,12.722a1.534,1.534,0,0,1-.2-.75v-.22A1.534,1.534,0,0,1,.2,11L4.91,2.781a.49.49,0,0,1,.86,0l2.46,4.27A1.987,1.987,0,0,1,8.23,9L3.6,17.141A.512.512,0,0,1,3.165,17.385ZM18.377,10h-4.9a2.006,2.006,0,0,1-1.73-1L7,.752A.5.5,0,0,1,7.431,0L7.47,0h4.9A2,2,0,0,1,14.1,1l4.71,8.249a.5.5,0,0,1-.433.751Z" transform="translate(0 0)"/>
</svg>
