<svg id="Layer_1" data-name="Layer 1" xmlns="http://www.w3.org/2000/svg" viewBox="0 0 992.13 992.13"><defs><style>.cls-1,.cls-2{fill:#222221;}.cls-1{fill-rule:evenodd;}</style></defs><title>Bridgestone icons 2020_correct-dev-names</title><path class="cls-1" d="M656.71,774.27A321.39,321.39,0,0,1,576.4,807.2a32.12,32.12,0,0,1-40.15-31.12l0-85.27c0-26.52,13.15-49.33,36.13-62.59s49.3-13.28,72.29,0l73.89,42.62a32.12,32.12,0,0,1,6.83,50.34A318.3,318.3,0,0,1,656.71,774.27ZM266.78,721.18a32.14,32.14,0,0,1,6.85-50.34l73.87-42.62c23-13.28,49.32-13.28,72.29,0s36.13,36.07,36.13,62.59l0,85.27a32.15,32.15,0,0,1-40.17,31.12,323.61,323.61,0,0,1-149-86ZM817.33,496.05a322.4,322.4,0,0,1-11.63,86,32.16,32.16,0,0,1-47,19.23l-73.83-42.64c-23-13.24-36.18-36-36.18-62.61s13.15-49.3,36.18-62.58l73.83-42.64a32.16,32.16,0,0,1,47,19.24A322.05,322.05,0,0,1,817.33,496.05ZM496.06,423.77a72.3,72.3,0,1,0,72.29,72.28A72.29,72.29,0,0,0,496.06,423.77Zm0-409.6C229.9,14.17,14.17,229.94,14.17,496.05S229.9,978,496.06,978,978,762.19,978,496.05,762.18,14.17,496.06,14.17ZM865.5,496.05c0,204.05-165.4,369.45-369.44,369.45S126.61,700.1,126.61,496.05,292,126.62,496.06,126.62,865.5,292,865.5,496.05ZM725.35,270.94a32.12,32.12,0,0,1-6.83,50.33L644.63,363.9c-23,13.29-49.33,13.29-72.29,0s-36.13-36.06-36.13-62.58l0-85.27a32.12,32.12,0,0,1,40.15-31.13,323.58,323.58,0,0,1,149,86ZM335.44,217.86a320.31,320.31,0,0,1,80.29-32.94,32.15,32.15,0,0,1,40.17,31.13l0,85.27c0,26.52-13.15,49.3-36.13,62.58s-49.33,13.29-72.29,0l-73.87-42.63a32.14,32.14,0,0,1-6.85-50.33A319.19,319.19,0,0,1,335.44,217.86Zm-149,192.21a32.16,32.16,0,0,1,47-19.24l73.85,42.64c23,13.28,36.18,36.08,36.18,62.58s-13.19,49.37-36.18,62.61L233.48,601.3a32.16,32.16,0,0,1-47-19.23,323.79,323.79,0,0,1,0-172Z"/><path class="cls-2" d="M886.4,976.4H105.06a34.58,34.58,0,0,1,0-69.16H886.4a34.58,34.58,0,1,1,0,69.16Z"/></svg>