<svg id="hangouts_outlined" xmlns="http://www.w3.org/2000/svg" width="17" height="20" viewBox="0 0 17 20">
  <path id="Icon_color" data-name="Icon color" d="M8.494,20A.5.5,0,0,1,8,19.5V16.99A8.5,8.5,0,1,1,17,8.5a11.683,11.683,0,0,1-2.355,7.382A12.7,12.7,0,0,1,8.66,19.97.475.475,0,0,1,8.494,20ZM8.5,2a6.5,6.5,0,0,0-.383,12.993l1.413.083a.5.5,0,0,1,.471.5v1.616a9.591,9.591,0,0,0,3.478-3.127A9.969,9.969,0,0,0,15,8.5,6.508,6.508,0,0,0,8.5,2Zm2,10.7a.493.493,0,0,1-.313-.113A.5.5,0,0,1,10,12.2v-.513a.5.5,0,0,1,.375-.484A1.5,1.5,0,0,0,11.5,9.75H9.75a.5.5,0,0,1-.5-.5V6.5a.5.5,0,0,1,.5-.5H12.5a.5.5,0,0,1,.5.5V9.75a3.006,3.006,0,0,1-2.4,2.939A.481.481,0,0,1,10.5,12.7Zm-5.25,0a.5.5,0,0,1-.5-.5v-.513a.5.5,0,0,1,.374-.484A1.5,1.5,0,0,0,6.25,9.75H4.5a.5.5,0,0,1-.5-.5V6.5A.5.5,0,0,1,4.5,6H7.25a.5.5,0,0,1,.5.5V9.75a3.007,3.007,0,0,1-2.4,2.939A.482.482,0,0,1,5.248,12.7Z" transform="translate(0 0)"/>
</svg>
