<svg id="hangouts" xmlns="http://www.w3.org/2000/svg" width="17" height="20" viewBox="0 0 17 20">
  <path id="Icon_color" data-name="Icon color" d="M8.494,20A.5.5,0,0,1,8,19.5V16.99A8.5,8.5,0,1,1,17,8.5a11.683,11.683,0,0,1-2.355,7.382A12.7,12.7,0,0,1,8.66,19.97.472.472,0,0,1,8.494,20ZM9.75,6a.5.5,0,0,0-.5.5V9.25a.5.5,0,0,0,.5.5H11.5A1.5,1.5,0,0,1,10.375,11.2a.5.5,0,0,0-.375.484V12.2a.5.5,0,0,0,.6.489A3.006,3.006,0,0,0,13,9.75V6.5a.5.5,0,0,0-.5-.5ZM4.5,6a.5.5,0,0,0-.5.5V9.25a.5.5,0,0,0,.5.5H6.25A1.5,1.5,0,0,1,5.125,11.2a.5.5,0,0,0-.374.484V12.2a.5.5,0,0,0,.5.5.482.482,0,0,0,.1-.011A3.007,3.007,0,0,0,7.75,9.75V6.5a.5.5,0,0,0-.5-.5Z" transform="translate(0 0)"/>
</svg>
