<svg xmlns="http://www.w3.org/2000/svg" width="20" height="20" viewBox="0 0 20 20">
  <g id="help_outlined" transform="translate(-2 -2)">
    <path id="Icon_color" data-name="Icon color" d="M10,20A10,10,0,1,1,20,10,10.011,10.011,0,0,1,10,20ZM10,2a8,8,0,1,0,8,8A8.009,8.009,0,0,0,10,2Zm.5,14h-1a.5.5,0,0,1-.5-.5v-1a.5.5,0,0,1,.5-.5h1a.5.5,0,0,1,.5.5v1A.5.5,0,0,1,10.5,16Zm-.121-4H9.62a.5.5,0,0,1-.5-.5v-.78A1.879,1.879,0,0,1,10.41,8.94l.95-.31a1.131,1.131,0,0,0,.76-1.07V7A1.122,1.122,0,0,0,11,5.88H9A1.12,1.12,0,0,0,7.88,7v.5a.5.5,0,0,1-.5.5H6.62a.5.5,0,0,1-.5-.5V7A2.883,2.883,0,0,1,9,4.12h2A2.883,2.883,0,0,1,13.88,7l.07.56a2.884,2.884,0,0,1-2,2.73L11,10.6a.13.13,0,0,0-.12.12v.78A.5.5,0,0,1,10.38,12Z" transform="translate(2 2)"/>
  </g>
</svg>
