<svg xmlns="http://www.w3.org/2000/svg" width="20" height="20" viewBox="0 0 20 20">
  <g id="help" transform="translate(-2 -2)">
    <path id="Icon_color" data-name="Icon color" d="M10,20A10,10,0,1,1,20,10,10.011,10.011,0,0,1,10,20Zm-.5-6a.5.5,0,0,0-.5.5v1a.5.5,0,0,0,.5.5h1a.5.5,0,0,0,.5-.5v-1a.5.5,0,0,0-.5-.5ZM11.04,5.879A1.121,1.121,0,0,1,12.16,7v.56a1.131,1.131,0,0,1-.76,1.07l-.95.31a1.877,1.877,0,0,0-1.29,1.78v.78a.5.5,0,0,0,.5.5h.76a.5.5,0,0,0,.5-.5v-.78A.129.129,0,0,1,11,10.6l.88-.311a2.884,2.884,0,0,0,2-2.73V7A2.879,2.879,0,0,0,11,4.12H9A2.883,2.883,0,0,0,6.12,7v.5a.5.5,0,0,0,.5.5h.76a.5.5,0,0,0,.5-.5V7A1.121,1.121,0,0,1,9,5.88h2.04Z" transform="translate(2 2)"/>
  </g>
</svg>
