<svg id="Layer_1" data-name="Layer 1" xmlns="http://www.w3.org/2000/svg" viewBox="0 0 992.13 992.13"><defs><style>.cls-1{fill:#222221;}</style></defs><title>Bridgestone icons 2020_correct-dev-names</title><path class="cls-1" d="M223.23,832a385.46,385.46,0,0,1-87.09-410.82c76.42-198.7,299.44-297.83,498.15-221.41l101.23-58.3A490.61,490.61,0,0,0,496,77.85a482,482,0,0,0-340.54,141C-32.81,407-32.95,712.12,155.18,900.41a49,49,0,0,0,68.44-.47l.08-.08a48,48,0,0,0-.08-67.86Z"/><path class="cls-1" d="M913.78,318.81,855.53,419.89a389,389,0,0,1,26,139.76,383.1,383.1,0,0,1-112.76,272.4,48.22,48.22,0,0,0,67.94,68.44A480.4,480.4,0,0,0,978,559.78,494.06,494.06,0,0,0,913.78,318.81Z"/><path class="cls-1" d="M423.7,434.06A144.77,144.77,0,1,0,625.12,624.79l266.4-461.64Z"/></svg>