<svg id="home_vs_2_outlined" xmlns="http://www.w3.org/2000/svg" width="20" height="18" viewBox="0 0 20 18">
  <path id="Icon_color" data-name="Icon color" d="M17,18H12a1,1,0,0,1-1-1V12.25a.25.25,0,0,0-.25-.25H9.25a.25.25,0,0,0-.25.25V17a1,1,0,0,1-1,1H3a1,1,0,0,1-1-1V10H.5A.5.5,0,0,1,0,9.5V8.41a.993.993,0,0,1,.29-.7L7.71.29A.993.993,0,0,1,8.41,0H11.59a1.008,1.008,0,0,1,.7.29l7.42,7.42a.993.993,0,0,1,.29.7V9.5a.5.5,0,0,1-.5.5H18v7A1,1,0,0,1,17,18ZM8,10h4a1,1,0,0,1,1,1v5h3V6.83L11.17,2H8.83L4,6.83V16H7V11A1,1,0,0,1,8,10Z" transform="translate(0)"/>
</svg>
