<svg id="home_vs" xmlns="http://www.w3.org/2000/svg" width="20" height="18" viewBox="0 0 20 18">
  <path id="Icon_color" data-name="Icon color" d="M19.71,7.71,12.29.29a1,1,0,0,0-.7-.29H8.41a1,1,0,0,0-.7.29L.29,7.71a1,1,0,0,0-.29.7V9.5a.5.5,0,0,0,.5.5H2v7a1,1,0,0,0,1,1H6a1,1,0,0,0,1-1V11.5a.5.5,0,0,1,.5-.5h5a.5.5,0,0,1,.5.5V17a1,1,0,0,0,1,1h3a1,1,0,0,0,1-1V10h1.5a.5.5,0,0,0,.5-.5V8.41A1,1,0,0,0,19.71,7.71Z"/>
  <path id="Icon_color-2" data-name="Icon color" d="M19.71,7.71,12.29.29a1,1,0,0,0-.7-.29H8.41a1,1,0,0,0-.7.29L.29,7.71a1,1,0,0,0-.29.7V9.5a.5.5,0,0,0,.5.5H2v7a1,1,0,0,0,1,1H6a1,1,0,0,0,1-1V11.5a.5.5,0,0,1,.5-.5h5a.5.5,0,0,1,.5.5V17a1,1,0,0,0,1,1h3a1,1,0,0,0,1-1V10h1.5a.5.5,0,0,0,.5-.5V8.41A1,1,0,0,0,19.71,7.71Z"/>
</svg>
