<svg id="home_vs_1_outlined" xmlns="http://www.w3.org/2000/svg" width="20" height="18" viewBox="0 0 20 18">
  <path id="Icon_color" data-name="Icon color" d="M17,18H12a1,1,0,0,1-1-1V12.25a.25.25,0,0,0-.25-.25H9.25a.25.25,0,0,0-.25.25V17a1,1,0,0,1-1,1H3a1,1,0,0,1-1-1V11H.5a.5.5,0,0,1-.5-.5V8.41a.993.993,0,0,1,.29-.7L7.71.29A.993.993,0,0,1,8.41,0H11.59a1.008,1.008,0,0,1,.7.29l7.42,7.42a.993.993,0,0,1,.29.7V10.5a.5.5,0,0,1-.5.5H18v6A1,1,0,0,1,17,18ZM8,10h4a1,1,0,0,1,1,1v5h3V9.5a.5.5,0,0,1,.5-.5H18a.891.891,0,0,0-.29-.46L11.17,2H8.83L2.29,8.54A.888.888,0,0,0,2.05,9H3.5a.5.5,0,0,1,.5.5V16H7V11A1,1,0,0,1,8,10Z" transform="translate(0)"/>
</svg>
