<svg id="hot" xmlns="http://www.w3.org/2000/svg" width="16" height="20" viewBox="0 0 16 20">
  <path id="Icon_color" data-name="Icon color" d="M8,20A8,8,0,0,1,0,12.02,8.254,8.254,0,0,1,1.668,7.142,7.085,7.085,0,0,0,3,4.04a.49.49,0,0,1,.211-.41.469.469,0,0,1,.429,0A7.142,7.142,0,0,1,6.08,5.377.5.5,0,0,0,7,5.107V.5A.5.5,0,0,1,7.5,0h.1a1,1,0,0,1,.53.149C10.5,1.629,16,5.747,16,12.02A8,8,0,0,1,8,20ZM7.246,8A.25.25,0,0,0,7,8.2a4.872,4.872,0,0,1-1.167,1.9A6.176,6.176,0,0,0,4,13.965a4,4,0,0,0,8,0A6.585,6.585,0,0,0,7.28,8L7.246,8Z" transform="translate(0 0)"/>
</svg>
