<svg id="import_export" xmlns="http://www.w3.org/2000/svg" width="12.996" height="19.998" viewBox="0 0 12.996 19.998">
  <path id="Icon_color" data-name="Icon color" d="M9.488,20a.508.508,0,0,1-.355-.144l-3-3a.5.5,0,0,1,.347-.86H8.493v-7.5a.5.5,0,0,1,.5-.5h1a.5.5,0,0,1,.5.5v7.5h2a.5.5,0,0,1,.36.85l-3,3A.507.507,0,0,1,9.488,20Zm-5.495-8h-1a.5.5,0,0,1-.5-.5v-7.5h-2a.5.5,0,0,1-.35-.851l3-3a.51.51,0,0,1,.71,0l3,3a.5.5,0,0,1-.358.851h-2v7.5A.5.5,0,0,1,3.993,11.993Z" transform="translate(0 0)"/>
</svg>
