<svg id="import" xmlns="http://www.w3.org/2000/svg" width="18" height="18" viewBox="0 0 18 18">
  <path id="Icon_color" data-name="Icon color" d="M16,18H2a2,2,0,0,1-2-2V12.5A.474.474,0,0,1,.5,12h1a.473.473,0,0,1,.5.5V16H16V12.5a.473.473,0,0,1,.5-.5h1a.474.474,0,0,1,.5.5V16A2,2,0,0,1,16,18ZM9.2,14H8.8a.762.762,0,0,1-.5-.2L3.2,8.6a.482.482,0,0,1,0-.7l.7-.7a.289.289,0,0,1,.271-.139A.52.52,0,0,1,4.6,7.3L8,10.7V.5A.473.473,0,0,1,8.5,0h1a.473.473,0,0,1,.5.5V10.7l3.4-3.4a.484.484,0,0,1,.7,0l.7.7a.482.482,0,0,1,0,.7L9.7,13.8A.762.762,0,0,1,9.2,14Z"/>
</svg>
