<svg xmlns="http://www.w3.org/2000/svg" width="18" height="20" viewBox="0 0 18 20">
  <g id="incognito" transform="translate(-3 -2)">
    <path id="Icon_color" data-name="Icon color" d="M4,20a4,4,0,1,1,3.2-6.394,2.923,2.923,0,0,1,3.6,0,3.98,3.98,0,1,1-.8,2.378,1,1,0,0,0-2,0A4,4,0,0,1,4,20Zm10-6.014a2,2,0,1,0,2,2A2,2,0,0,0,14,13.986Zm-10,0a2,2,0,1,0,2,2A2,2,0,0,0,4,13.986Zm13.5-4H.5a.5.5,0,0,1-.35-.85L1,8.282a.99.99,0,0,1,.7-.29H16.3a1,1,0,0,1,.7.29l.841.859h.01a.5.5,0,0,1-.35.85Zm-1.994-4H2.494A.5.5,0,0,1,2,5.414L2.76.839A1,1,0,0,1,3.748,0h.458A2.968,2.968,0,0,1,5.54.319l1.71.83a4.052,4.052,0,0,0,1.75.4,4.044,4.044,0,0,0,1.75-.4l1.71-.83A2.968,2.968,0,0,1,13.8,0h.458a1,1,0,0,1,.987.839L16,5.414a.5.5,0,0,1-.493.58Z" transform="translate(2.999 2)"/>
  </g>
</svg>
