<svg xmlns="http://www.w3.org/2000/svg" width="18" height="18" viewBox="0 0 18 18">
  <g id="key" transform="translate(-3 -3)">
    <path id="Icon_color" data-name="Icon color" d="M5.5,18a5.5,5.5,0,0,1,0-11h.006a5.374,5.374,0,0,1,2.2.47L14.89.29a1.008,1.008,0,0,1,.7-.29H17a1,1,0,0,1,1,1V3.5a.5.5,0,0,1-.5.5H15.63a.488.488,0,0,0-.36.2h-.05a.755.755,0,0,0-.22.53V6.49a.5.5,0,0,1-.5.5H12.72a.748.748,0,0,0-.53.22l-.259.26a.752.752,0,0,0-.22.53v.72a1.008,1.008,0,0,1-.29.7l-.88.879A5.5,5.5,0,0,1,5.5,18ZM4.44,11.56a2,2,0,1,0,2,2A2,2,0,0,0,4.44,11.56Z" transform="translate(3 3)"/>
  </g>
</svg>
