<svg xmlns="http://www.w3.org/2000/svg" width="18" height="18" viewBox="0 0 18 18">
  <g id="label_important" transform="translate(-3 -3)">
    <path id="Icon_color" data-name="Icon color" d="M9.666,18H9.453a.493.493,0,0,1-.353-.15l-.689-.689a1,1,0,0,1-.291-.7V11.02a.993.993,0,0,0-.3-.7L7.7,10.2A1,1,0,0,0,7,9.9H1.54a1.008,1.008,0,0,1-.7-.29L.15,8.92A.49.49,0,0,1,0,8.56v-.2A.49.49,0,0,1,.15,8L7.59.58A1.992,1.992,0,0,1,9,0h7.89a1.008,1.008,0,0,1,.7.29l.12.121a.993.993,0,0,1,.29.7V9a2.017,2.017,0,0,1-.56,1.43L10.02,17.85A.49.49,0,0,1,9.666,18ZM12.93,3.06a2,2,0,1,0,2,2A2,2,0,0,0,12.93,3.06Z" transform="translate(3 3)"/>
  </g>
</svg>
