<?xml version="1.0" encoding="UTF-8"?>
<svg width="24px" height="24px" viewBox="0 0 24 24" version="1.1" xmlns="http://www.w3.org/2000/svg" xmlns:xlink="http://www.w3.org/1999/xlink">
    <!-- Generator: Sketch 58 (84663) - https://sketch.com -->
    <title>1 - Atom/⚒/Icon/USP/LabelGrades/Dark</title>
    <desc>Created with Sketch.</desc>
    <g id="1---Atom/⚒/Icon/USP/LabelGrades/Dark" stroke="none" stroke-width="1" fill="none" fill-rule="evenodd">
        <path d="M18.3968797,5.06636349 C19.278805,5.06636349 19.9963485,5.79253776 19.9963485,6.68508548 L19.9963485,16.3988116 C19.9963485,17.2913593 19.278805,18.0175336 18.3968797,18.0175336 L5.59946888,18.0175336 C4.71747718,18.0175336 4,17.2913593 4,16.3988116 L4,6.68508548 C4,5.79253776 4.71747718,5.06636349 5.59946888,5.06636349 L18.3968797,5.06636349 Z M18.3968797,6.68508548 L5.59946888,6.68508548 L5.59946888,16.3988116 L18.3968797,16.3988116 L18.3968797,6.68508548 Z M11.998088,7.77649793 C12.0954158,7.77649793 12.1742871,7.85543568 12.1742871,7.95276349 L12.1742871,15.1655104 C12.1742871,15.2628382 12.0954158,15.3417095 11.998088,15.3417095 C11.9007602,15.3417095 11.8218888,15.2628382 11.8218888,15.1655104 L11.8218888,7.95276349 C11.8218888,7.85543568 11.9007602,7.77649793 11.998088,7.77649793 Z M9.17917344,9.71634855 L10.6396216,13.7315519 L9.60778755,13.7315519 L9.42162988,13.1337095 L8.18684149,13.1337095 L7.9894639,13.7315519 L6.95762988,13.7315519 L8.41801162,9.71634855 L9.17917344,9.71634855 Z M13.6974871,9.71635519 L15.3608896,9.71635519 C16.1953461,9.71635519 16.6407568,10.184405 16.6407568,10.8780481 C16.6407568,11.3348116 16.3250722,11.5886207 16.2010556,11.6732017 C16.3645079,11.7746456 16.6972548,11.9833759 16.6972548,12.5472929 C16.6972548,13.2662971 16.226482,13.6780269 15.5776011,13.7266845 L15.4455369,13.7315585 L13.6974871,13.7315585 L13.6974871,9.71635519 L15.3608896,9.71635519 Z M15.3496033,12.1412515 L14.6842423,12.1412515 L14.6842423,12.8461809 L15.3496033,12.8461809 C15.6202091,12.8461809 15.7104996,12.6600232 15.7104996,12.4908614 C15.7104996,12.3216996 15.6202091,12.1412515 15.3496033,12.1412515 Z M8.82392033,11.2389378 L8.46309046,12.310473 L9.16237676,12.310473 L8.82392033,11.2389378 Z M15.2988813,10.6017328 L14.6842423,10.6017328 L14.6842423,11.2558739 L15.2988813,11.2558739 C15.5695535,11.2558739 15.6541344,11.086712 15.6541344,10.9287701 C15.6541344,10.7708946 15.5695535,10.6017328 15.2988813,10.6017328 Z" id="Combined-Shape" fill="#031824"></path>
    </g>
</svg>