<svg xmlns="http://www.w3.org/2000/svg" width="10.928" height="12" viewBox="0 0 10.928 12">
  <g id="last_page" transform="translate(-6.072 -6)">
    <path id="Icon_color" data-name="Icon color" d="M10.428,12h-1a.5.5,0,0,1-.5-.5V.5a.5.5,0,0,1,.5-.5h1a.5.5,0,0,1,.5.5v11A.5.5,0,0,1,10.428,12ZM1.213,12a.5.5,0,0,1-.355-.148l-.71-.71a.491.491,0,0,1,0-.7L4.6,6,.148,1.56a.5.5,0,0,1,0-.71l.71-.7a.5.5,0,0,1,.71,0l5.14,5.13a.747.747,0,0,1,.22.53v.38a.768.768,0,0,1-.22.53l-5.14,5.13A.5.5,0,0,1,1.213,12Z" transform="translate(6.072 6)"/>
  </g>
</svg>
