<svg id="launch" xmlns="http://www.w3.org/2000/svg" width="18" height="18" viewBox="0 0 18 18">
  <path id="Icon_color" data-name="Icon color" d="M1.2,18a.5.5,0,0,1-.355-.148l-.7-.7a.5.5,0,0,1,0-.71l3.257-3.257a.5.5,0,0,1,.71,0l.7.7a.5.5,0,0,1,0,.709L1.557,17.852A.5.5,0,0,1,1.2,18Zm6.2-.03a.5.5,0,0,1-.406-.208l-.29-.41a3,3,0,0,1,.74-4.178l.889-.629L5.424,9.638l-.629.889a3,3,0,0,1-2.458,1.282,2.979,2.979,0,0,1-1.719-.542l-.41-.29a.5.5,0,0,1-.12-.689l2.818-4A3,3,0,0,1,6.364,5.2L8.522,2.423A3.884,3.884,0,0,1,10.88,1.014l5.5-1A.984.984,0,0,1,16.547,0a1.008,1.008,0,0,1,.718.3l.43.43a1,1,0,0,1,.29.889l-1,5.5a3.878,3.878,0,0,1-1.469,2.328l-2.748,2.158a3.01,3.01,0,0,1-1.089,3.458l-4,2.818A.5.5,0,0,1,7.4,17.97ZM12.488,4.012a1.506,1.506,0,1,0,1.061.439A1.489,1.489,0,0,0,12.488,4.012Z" transform="translate(-0.001)"/>
</svg>
