<?xml version="1.0" encoding="UTF-8"?>
<svg width="22px" height="21px" viewBox="0 0 22 21" version="1.1" xmlns="http://www.w3.org/2000/svg" xmlns:xlink="http://www.w3.org/1999/xlink">
    <!-- Generator: Sketch 63.1 (92452) - https://sketch.com -->
    <title>Mask</title>
    <desc>Created with Sketch.</desc>
    <defs>
        <path d="M35.5,10 C35.7761424,10 36,10.2238576 36,10.5 L36.0008352,12.1320819 C39.8199355,12.81247 42.7562695,16.0433739 42.9855686,20.0005248 L45.5,20 C45.7761424,20 46,20.2238576 46,20.5 L46,21.5 C46,21.7761424 45.7761424,22 45.5,22 L42.8679181,22.0008352 C42.2459061,25.4922631 39.4922631,28.2459061 36.0008352,28.8679181 L36,30.5 C36,30.7761424 35.7761424,31 35.5,31 L34.5,31 C34.2238576,31 34,30.7761424 34,30.5 L34.0005248,28.9855686 C30.0433739,28.7562695 26.81247,25.8199355 26.1320819,22.0008352 L24.5,22 C24.2238576,22 24,21.7761424 24,21.5 L24,20.5 C24,20.2238576 24.2238576,20 24.5,20 L26.0144314,20.0005248 C26.2634039,15.703857 29.703857,12.2634039 34.0005248,12.0144314 L34,10.5 C34,10.2238576 34.2238576,10 34.5,10 L35.5,10 Z M27.6175387,20.0006133 L29.5,20 C29.7761424,20 30,20.2238576 30,20.5 L30,21.5 C30,21.7761424 29.7761424,22 29.5,22 L27.7612786,22.0008652 C28.4068514,24.956002 30.9191126,27.2132124 34.000231,27.474665 L34,25.5 C34,25.2238576 34.2238576,25 34.5,25 L35.5,25 C35.7761424,25 36,25.2238576 36,25.5 L36.0007921,27.3598138 C38.7094895,26.8096498 40.8500825,24.6953836 41.4387212,22.0008652 L40.5,22 C40.2238576,22 40,21.7761424 40,21.5 L40,20.5 C40,20.2238576 40.2238576,20 40.5,20 L41.5824611,20.0006133 C41.3596048,16.8389647 39.0371218,14.2568957 36.0007921,13.6401862 L36,15.5 C36,15.7761424 35.7761424,16 35.5,16 L34.5,16 C34.2238576,16 34,15.7761424 34,15.5 L34.000231,13.525335 C30.5793011,13.8156228 27.8596242,16.5661617 27.6175387,20.0006133 Z" id="path-1"></path>
    </defs>
    <g id="BC18---4.25-Find-A-Retailer-(Small-Component)" stroke="none" stroke-width="1" fill="none" fill-rule="evenodd">
        <g id="Components/POS/Desktop/Filledin/White-Bg" transform="translate(-850.000000, -309.000000)">
            <g id="Group">
                <g id="3---Organism/⚒/XL/POS/IntegratedDarkWhite" transform="translate(826.000000, 72.000000)">
                    <g id="Group-6" transform="translate(0.000000, 227.000000)">
                        <mask id="mask-2" fill="white">
                            <use xlink:href="#path-1"></use>
                        </mask>
                        <use id="Mask" fill="#ED1C24" xlink:href="#path-1"></use>
                    </g>
                </g>
            </g>
        </g>
    </g>
</svg>