<svg id="message_add_outlined" xmlns="http://www.w3.org/2000/svg" width="20" height="20" viewBox="0 0 20 20">
  <path id="Icon_color" data-name="Icon color" d="M.5,20a.5.5,0,0,1-.5-.5V4A4,4,0,0,1,4,0H16a4,4,0,0,1,4,4v8a4,4,0,0,1-4,4H5.943a2.985,2.985,0,0,0-2.092.851l-3,3A.5.5,0,0,1,.5,20ZM4,2A2,2,0,0,0,2,4V15.88l.46-.419A4.968,4.968,0,0,1,5.99,14H16a2,2,0,0,0,2-2V4a2,2,0,0,0-2-2Zm6.5,10h-1a.5.5,0,0,1-.5-.5V9H6.5A.5.5,0,0,1,6,8.5v-1A.5.5,0,0,1,6.5,7H9V4.5A.5.5,0,0,1,9.5,4h1a.5.5,0,0,1,.5.5V7h2.5a.5.5,0,0,1,.5.5v1a.5.5,0,0,1-.5.5H11v2.5A.5.5,0,0,1,10.5,12Z" transform="translate(0 0)"/>
</svg>
