<svg id="messenger" xmlns="http://www.w3.org/2000/svg" width="20" height="20.011" viewBox="0 0 20 20.011">
  <path id="Icon_color" data-name="Icon color" d="M4,20.011A1.005,1.005,0,0,1,3,19V16.7a1.008,1.008,0,0,0-.29-.7A9.162,9.162,0,0,1,0,9.5,9.761,9.761,0,0,1,9.752,0Q9.876,0,10,0c.082,0,.166,0,.248,0A9.76,9.76,0,0,1,20,9.5a9.76,9.76,0,0,1-9.752,9.5q-.124,0-.248,0a10.221,10.221,0,0,1-2.29-.26,1.008,1.008,0,0,0-.229-.026.988.988,0,0,0-.381.076l-2.71,1.14A1,1,0,0,1,4,20.011ZM8.355,6.873a1.506,1.506,0,0,0-1.255.67l-2.63,3.97a.5.5,0,0,0,.069.63.43.43,0,0,0,.561,0l3-2.25,2.19,1.69a1.5,1.5,0,0,0,.91.311h.43a1.487,1.487,0,0,0,1.25-.68l2.62-4a.433.433,0,0,0,.085-.332.458.458,0,0,0-.744-.288l-3.06,2.34-2.3-1.76a1.487,1.487,0,0,0-.894-.3H8.355Z" transform="translate(0 0)"/>
</svg>
