<svg id="messenger_outlined" xmlns="http://www.w3.org/2000/svg" width="20" height="20.003" viewBox="0 0 20 20.003">
  <path id="Icon_color" data-name="Icon color" d="M4,20H4a.99.99,0,0,1-1-1V16.7a1.008,1.008,0,0,0-.29-.7A9.162,9.162,0,0,1,0,9.5,9.761,9.761,0,0,1,9.752,0L10,0l.248,0A9.76,9.76,0,0,1,20,9.5a9.76,9.76,0,0,1-9.752,9.5L10,19a10.2,10.2,0,0,1-2.29-.291.848.848,0,0,0-.22,0,1.091,1.091,0,0,0-.39.08l-2.72,1.13A1,1,0,0,1,4,20ZM9.76,2A7.77,7.77,0,0,0,2,9.5a7.2,7.2,0,0,0,2.13,5.09A2.982,2.982,0,0,1,5,16.7v.81L6.33,17a2.892,2.892,0,0,1,1.16-.29,2.98,2.98,0,0,1,.661.08A8.455,8.455,0,0,0,10,17c.071,0,.149,0,.239,0A7.77,7.77,0,0,0,18,9.5,7.77,7.77,0,0,0,10.239,2c-.09,0-.168,0-.239,0S9.85,2,9.76,2ZM4.86,12.217a.429.429,0,0,1-.28-.1.5.5,0,0,1-.07-.63L7.1,7.574A1.506,1.506,0,0,1,8.355,6.9h.231a1.487,1.487,0,0,1,.894.3l2.3,1.76,3.06-2.34a.429.429,0,0,1,.56,0l.08-.01a.429.429,0,0,1,.06.55l-2.62,4a1.484,1.484,0,0,1-1.25.68h-.43a1.5,1.5,0,0,1-.91-.31L8.14,9.863l-3,2.25A.429.429,0,0,1,4.86,12.217Z" transform="translate(0 0)"/>
</svg>
