<svg id="mms_outlined" xmlns="http://www.w3.org/2000/svg" width="20" height="20" viewBox="0 0 20 20">
  <path id="Icon_color" data-name="Icon color" d="M.5,20a.5.5,0,0,1-.5-.5V4A4,4,0,0,1,4,0H16a4,4,0,0,1,4,4v8a4,4,0,0,1-4,4H5.943a2.985,2.985,0,0,0-2.092.851l-3,3A.5.5,0,0,1,.5,20ZM12.25,7.006a.509.509,0,0,1,.4.194l4.45,5.93a.478.478,0,0,0,.389.2h.021a.489.489,0,0,0,.49-.5V4a2,2,0,0,0-2-2H4A2,2,0,0,0,2,4v8.82a.49.49,0,0,0,.491.5h.018a.481.481,0,0,0,.382-.19L5.96,9.19A.521.521,0,0,1,6.35,9h.006a.5.5,0,0,1,.383.18l1.48,1.75a.487.487,0,0,0,.378.18.512.512,0,0,0,.4-.2L11.85,7.2A.506.506,0,0,1,12.25,7.006ZM7.5,7A1.5,1.5,0,1,1,9,5.5,1.5,1.5,0,0,1,7.5,7Z" transform="translate(0 0)"/>
</svg>
