<svg id="mms" xmlns="http://www.w3.org/2000/svg" width="20" height="20" viewBox="0 0 20 20">
  <path id="Icon_color" data-name="Icon color" d="M.5,20a.5.5,0,0,1-.5-.5V4A4,4,0,0,1,4,0H16a4,4,0,0,1,4,4v8a4,4,0,0,1-4,4H5.943a2.985,2.985,0,0,0-2.092.851l-3,3A.5.5,0,0,1,.5,20ZM6.356,8H6.35A.522.522,0,0,0,6,8.19L3.11,11.86a.46.46,0,0,0-.111.3v.34a.5.5,0,0,0,.5.5h13a.5.5,0,0,0,.5-.5v-.34a.515.515,0,0,0-.1-.3L12.65,6.19a.51.51,0,0,0-.8,0L8.97,9.91a.5.5,0,0,1-.4.2.489.489,0,0,1-.38-.18L6.74,8.18A.5.5,0,0,0,6.356,8ZM7.5,3A1.5,1.5,0,1,0,9,4.5,1.5,1.5,0,0,0,7.5,3Z" transform="translate(0 0)"/>
</svg>
