<svg xmlns="http://www.w3.org/2000/svg" width="20.001" height="20" viewBox="0 0 20.001 20">
  <g id="move_page" transform="translate(-2 -2)">
    <path id="Icon_color" data-name="Icon color" d="M10,20a.506.506,0,0,1-.355-.144l-3-3A.5.5,0,0,1,7,16H9V13.5a.5.5,0,0,1,.5-.5h1a.5.5,0,0,1,.5.5V16h2a.5.5,0,0,1,.361.851l-3,3A.5.5,0,0,1,10,20Zm6.5-6.5A.5.5,0,0,1,16,13V11H13.5a.5.5,0,0,1-.5-.5v-1a.5.5,0,0,1,.5-.5H16V7a.5.5,0,0,1,.5-.5.5.5,0,0,1,.361.154l3,3a.51.51,0,0,1-.01.7l-3,3A.5.5,0,0,1,16.5,13.495Zm-13.007,0a.5.5,0,0,1-.351-.142l-3-3a.508.508,0,0,1,0-.71l3-3A.5.5,0,0,1,4,7V9H6.5a.5.5,0,0,1,.5.5v1a.5.5,0,0,1-.5.5H4v2a.5.5,0,0,1-.31.456A.492.492,0,0,1,3.5,13.495Zm7-6.5h-1A.5.5,0,0,1,9,6.5V4H7a.5.5,0,0,1-.351-.85l3-3a.51.51,0,0,1,.71,0l3,3a.5.5,0,0,1-.356.85H11V6.5A.5.5,0,0,1,10.5,7Z" transform="translate(2 2)"/>
  </g>
</svg>
