<svg xmlns="http://www.w3.org/2000/svg" width="18" height="18" viewBox="0 0 18 18">
  <g id="multi_direction_diagonal" transform="translate(-3 -3)">
    <path id="Icon_color" data-name="Icon color" d="M15.73,3.69,10.41,9l5.31,5.32,1.42-1.42a.5.5,0,0,1,.85.35V17.5a.52.52,0,0,1-.5.5H13.25a.5.5,0,0,1-.36-.85l1.42-1.42L9,10.41,3.68,15.72,5.1,17.14a.5.5,0,0,1-.35.85H.5a.52.52,0,0,1-.5-.5V13.25a.5.5,0,0,1,.85-.36l1.42,1.42L7.59,9,2.28,3.68.86,5.1A.5.5,0,0,1,0,4.75V.5A.52.52,0,0,1,.5,0H4.75a.5.5,0,0,1,.36.85L3.69,2.27,9,7.59l5.32-5.31L12.9.86A.5.5,0,0,1,13.25,0H17.5a.52.52,0,0,1,.5.5V4.75a.5.5,0,0,1-.85.36Z" transform="translate(3 3)"/>
  </g>
</svg>
