<svg id="new_message" xmlns="http://www.w3.org/2000/svg" width="18" height="18" viewBox="0 0 18 18">
  <path id="Icon_color" data-name="Icon color" d="M16,18H2a2,2,0,0,1-2-2V2A2,2,0,0,1,2,0H9.5a.5.5,0,0,1,.5.5v1a.5.5,0,0,1-.5.5H2V16H16V8.5a.5.5,0,0,1,.5-.5h1a.5.5,0,0,1,.5.5V16A2,2,0,0,1,16,18ZM4.5,13.976a.5.5,0,0,1-.463-.686l.79-2a1.979,1.979,0,0,1,.44-.68L11.85,4a.5.5,0,0,1,.7,0L14,5.45a.5.5,0,0,1,0,.7L7.37,12.71a1.99,1.99,0,0,1-.68.44l-2,.79A.5.5,0,0,1,4.5,13.976ZM15.56,4.353a.494.494,0,0,1-.35-.143L13.79,2.79a.5.5,0,0,1,0-.7l1.8-1.8a1.008,1.008,0,0,1,.7-.29h.3a.994.994,0,0,1,.7.29l.42.42a.994.994,0,0,1,.29.7v.3a1.008,1.008,0,0,1-.29.7l-1.8,1.8A.494.494,0,0,1,15.56,4.353Z"/>
</svg>
