<svg xmlns="http://www.w3.org/2000/svg" width="18" height="20" viewBox="0 0 18 20">
  <g id="notebook_bookmarked" transform="translate(-3 -2)">
    <path id="Icon_color" data-name="Icon color" d="M16,20H4a2,2,0,0,1-2-2H.5a.5.5,0,0,1-.5-.5v-1A.5.5,0,0,1,.5,16H2V11H.5a.5.5,0,0,1-.5-.5v-1A.5.5,0,0,1,.5,9H2V4H.5A.5.5,0,0,1,0,3.5v-1A.5.5,0,0,1,.5,2H2A2,2,0,0,1,4,0H16a2,2,0,0,1,2,2V18A2,2,0,0,1,16,20ZM13,8.539a.521.521,0,0,1,.28.082l1.939,1.3A.5.5,0,0,0,16,9.5v-7a.5.5,0,0,0-.5-.5h-5a.5.5,0,0,0-.5.5v7a.5.5,0,0,0,.78.419l1.939-1.3A.521.521,0,0,1,13,8.539Z" transform="translate(3 2)"/>
  </g>
</svg>
