<svg xmlns="http://www.w3.org/2000/svg" width="20" height="20" viewBox="0 0 20 20">
  <g id="notice" transform="translate(-2 -2)">
    <path id="Icon_color" data-name="Icon color" d="M9.5,20H7.57a1,1,0,0,1-.859-.49L4.43,15.71a2.713,2.713,0,0,1-.36-1H6.53a4.115,4.115,0,0,1,1.55.3L8.5,17.76a1,1,0,0,0,.751.571l.329.059a.5.5,0,0,1,.42.53v.58A.5.5,0,0,1,9.5,20ZM15,18h-.59a1.008,1.008,0,0,1-.7-.29l-3-2.95A5.967,5.967,0,0,0,6.51,13H3a3,3,0,0,1-3-3V8A3,3,0,0,1,3,5H6.51A5.969,5.969,0,0,0,10.76,3.24l3-2.95a.994.994,0,0,1,.7-.29H15a1,1,0,0,1,1,1V17A1,1,0,0,1,15,18Zm3.825-6.436a.512.512,0,0,1-.375-.164l-.72-.72a.5.5,0,0,1-.06-.63,2,2,0,0,0,0-2.2.5.5,0,0,1,.06-.63l.72-.72a.511.511,0,0,1,.361-.15h.029a.539.539,0,0,1,.36.2,4.075,4.075,0,0,1,0,4.85A.511.511,0,0,1,18.825,11.564Z" transform="translate(2 2)"/>
  </g>
</svg>
