<?xml version="1.0" encoding="UTF-8"?>
<svg width="24px" height="24px" viewBox="0 0 24 24" version="1.1" xmlns="http://www.w3.org/2000/svg" xmlns:xlink="http://www.w3.org/1999/xlink">
    <!-- Generator: Sketch 58 (84663) - https://sketch.com -->
    <title>1 - Atom/⚒/Icon/USP/Ologic/Dark</title>
    <desc>Created with Sketch.</desc>
    <g id="1---Atom/⚒/Icon/USP/Ologic/Dark" stroke="none" stroke-width="1" fill="none" fill-rule="evenodd">
        <path d="M15.3451286,9.00000664 C15.1337427,9.00000664 14.9608631,9.18032199 14.9608631,9.40345892 C14.9608631,9.62659585 15.1337427,9.80651286 15.3451286,9.80651286 C15.5563817,9.80651286 15.7285975,9.62659585 15.7285975,9.40345892 C15.7285975,9.18032199 15.5563817,9.00000664 15.3451286,9.00000664 L15.3451286,9.00000664 Z M13.1167469,12.6727701 C13.5394523,12.6727701 13.9768963,12.2930855 13.9768963,11.6581311 C13.9768963,11.1955253 13.6227718,10.6995253 13.0960332,10.6995253 C12.6654938,10.6995253 12.2200166,11.0603552 12.2200166,11.6645046 C12.2200166,12.2951436 12.6759834,12.6727701 13.1167469,12.6727701 L13.1167469,12.6727701 Z M14.6236017,12.657766 C14.6236017,14.3900149 13.2191203,14.4403386 13.0592531,14.4403386 C12.5487801,14.4403386 11.9110373,14.1863967 11.6327303,13.4787452 L12.3808797,13.4787452 C12.6596515,13.8201892 12.9993029,13.8201892 13.1110373,13.8201892 C13.5272365,13.8201892 13.9920332,13.5136 14.029278,12.8410689 L14.0299419,12.8285876 L13.9901743,12.7874257 L13.9723817,12.8123884 C13.7548216,13.1309942 13.4405311,13.2929859 13.0378755,13.2929859 C12.3330788,13.2929859 11.5725809,12.66799 11.5725809,11.6581311 C11.5725809,10.6832598 12.3304896,10.0796415 13.0327635,10.0796415 C13.3085477,10.0796415 13.6897593,10.1613676 13.9407137,10.5482888 L13.9489461,10.5596415 L13.9975436,10.5596415 L13.9975436,10.1846705 L14.6236017,10.1846705 L14.6236017,12.657766 Z M7.32846473,13.088571 C7.32846473,13.1303303 7.34984232,13.1677743 7.39273029,13.1989776 C7.43787552,13.2321062 7.50307054,13.2501643 7.58479668,13.2501643 L7.65702905,13.2489693 C7.7400166,13.2489693 7.80461411,13.231044 7.84929461,13.1968531 C7.89224896,13.1661809 7.91429046,13.1295336 7.91429046,13.087044 L7.91429046,9.38652946 C7.91429046,9.33965809 7.89224896,9.29776598 7.84929461,9.26204813 C7.80461411,9.22467054 7.7400166,9.20608133 7.65702905,9.20608133 L7.58479668,9.20674523 C7.50307054,9.20674523 7.43787552,9.22619751 7.39273029,9.26430539 C7.34984232,9.29929295 7.32846473,9.34171618 7.32846473,9.38865394 L7.32846473,13.088571 Z M15.0757842,13.088571 C15.0757842,13.1303303 15.0970954,13.1677743 15.1399834,13.1989776 C15.1853278,13.2321062 15.2497925,13.2501643 15.3324481,13.2501643 L15.4049461,13.2489693 C15.4865394,13.2489693 15.552,13.231044 15.5963485,13.1968531 C15.6399668,13.1661809 15.6617427,13.1295336 15.6617427,13.087044 L15.6617427,10.3392929 C15.6617427,10.2922224 15.6399668,10.2496664 15.5963485,10.2146124 C15.552,10.176571 15.4865394,10.1573842 15.4049461,10.1573842 L15.3324481,10.1596415 C15.2497925,10.1596415 15.1853278,10.1784299 15.1399834,10.2170689 C15.0970954,10.2508614 15.0757842,10.2936166 15.0757842,10.3414174 L15.0757842,13.088571 Z M18.3675353,12.6029278 C17.8706722,12.6029278 17.4684149,12.1806871 17.4684149,11.6570689 C17.4684149,11.1357079 17.8706722,10.7117411 18.3675353,10.7117411 C18.7008797,10.7117411 18.9918672,10.9024133 19.1473527,11.1862307 L19.8208133,11.1862307 C19.6507884,10.5089859 19.0647635,10.0761892 18.3675353,10.0761892 C17.5368631,10.0761892 16.8630705,10.7839734 16.8630705,11.6570689 C16.8630705,12.5308282 17.5368631,13.2389444 18.3675353,13.2389444 C19.0832863,13.2389444 19.682722,12.7130689 19.8342905,12.008073 L19.201195,12.0143137 C19.0667552,12.3600066 18.7435685,12.6029278 18.3675353,12.6029278 L18.3675353,12.6029278 Z M9.77965145,12.6029278 C10.2770456,12.6029278 10.6795021,12.1806871 10.6795021,11.6570689 C10.6795021,11.1357079 10.2770456,10.7117411 9.77965145,10.7117411 C9.28325311,10.7117411 8.88099585,11.1357079 8.88099585,11.6570689 C8.88099585,12.1806871 9.28325311,12.6029278 9.77965145,12.6029278 L9.77965145,12.6029278 Z M9.77965145,10.0761892 C10.6109876,10.0761892 11.2835851,10.7839734 11.2835851,11.6570689 C11.2835851,12.5308282 10.6109876,13.2389444 9.77965145,13.2389444 C8.94964315,13.2389444 8.27618257,12.5308282 8.27618257,11.6570689 C8.27618257,10.7839734 8.94964315,10.0761892 9.77965145,10.0761892 L9.77965145,10.0761892 Z M5.50293776,12.6029278 C6.00033195,12.6029278 6.40345228,12.1806871 6.40345228,11.6570689 C6.40345228,11.1357079 6.00033195,10.7117411 5.50293776,10.7117411 C5.00653942,10.7117411 4.60375104,11.1357079 4.60375104,11.6570689 C4.60375104,12.1806871 5.00653942,12.6029278 5.50293776,12.6029278 L5.50293776,12.6029278 Z M5.50293776,10.0761892 C6.33414108,10.0761892 7.00793361,10.7839734 7.00793361,11.6570689 C7.00793361,12.5308282 6.33414108,13.2389444 5.50293776,13.2389444 C4.67292946,13.2389444 4,12.5308282 4,11.6570689 C4,10.7839734 4.67292946,10.0761892 5.50293776,10.0761892 L5.50293776,10.0761892 Z M18.3379253,9.21378257 C18.951834,9.21378257 19.5104398,9.46606473 19.9260415,9.87535934 L19.587917,10.1860647 C19.2554357,9.87330124 18.818722,9.68176598 18.3379253,9.68176598 C17.2999834,9.68176598 16.458888,10.5665461 16.458888,11.6570689 C16.458888,12.7481228 17.2999834,13.6348282 18.3379253,13.6348282 C18.8461411,13.6348282 19.306888,13.4203884 19.6450124,13.0758905 L19.9963485,13.3691353 C19.5741079,13.8213842 18.9875519,14.101351 18.3379253,14.101351 C17.0535436,14.101351 16.0129461,13.0074423 16.0129461,11.6570689 C16.0129461,10.3080896 17.0535436,9.21378257 18.3379253,9.21378257 L18.3379253,9.21378257 Z" id="Fill-1" fill="#031824"></path>
    </g>
</svg>