<svg xmlns="http://www.w3.org/2000/svg" width="18" height="18" viewBox="0 0 18 18">
  <g id="open_in_new" transform="translate(-3 -3)">
    <path id="Icon_color" data-name="Icon color" d="M16,18H2a2,2,0,0,1-2-2V2A2,2,0,0,1,2,0H7.5A.5.5,0,0,1,8,.5v1a.5.5,0,0,1-.5.5H2V16H16V10.5a.5.5,0,0,1,.5-.5h1a.5.5,0,0,1,.5.5V16A2,2,0,0,1,16,18ZM7.205,12a.5.5,0,0,1-.356-.148l-.7-.7A.5.5,0,0,1,6,10.795a.5.5,0,0,1,.148-.355L14.59,2H10.5a.5.5,0,0,1-.5-.5V.5a.5.5,0,0,1,.5-.5H17a.745.745,0,0,1,.51.23l.27.27V.489A.749.749,0,0,1,18,1V7.5a.5.5,0,0,1-.5.5h-1a.5.5,0,0,1-.5-.5V3.42L7.56,11.85A.5.5,0,0,1,7.205,12Z" transform="translate(3 3)"/>
  </g>
</svg>
