<svg id="password_open" xmlns="http://www.w3.org/2000/svg" width="16" height="20" viewBox="0 0 16 20">
  <path id="Icon_color" data-name="Icon color" d="M14,20H2a2,2,0,0,1-2-2V10A2,2,0,0,1,2,8V6A6,6,0,0,1,14,6H12A4,4,0,1,0,4,6V8H14a2,2,0,0,1,2,2v8A2,2,0,0,1,14,20Zm-2.5-7a.5.5,0,0,0-.5.5v1a.5.5,0,0,0,.5.5h1a.5.5,0,0,0,.5-.5v-1a.5.5,0,0,0-.5-.5Zm-4,0a.5.5,0,0,0-.5.5v1a.5.5,0,0,0,.5.5h1a.5.5,0,0,0,.5-.5v-1a.5.5,0,0,0-.5-.5Zm-4,0a.5.5,0,0,0-.5.5v1a.5.5,0,0,0,.5.5h1a.5.5,0,0,0,.5-.5v-1a.5.5,0,0,0-.5-.5Z" transform="translate(0 0)"/>
</svg>
