<svg id="pinterest" xmlns="http://www.w3.org/2000/svg" width="16" height="20" viewBox="0 0 16 20">
  <path id="Icon_color" data-name="Icon color" d="M16,7.014c0,4.2-2.41,7.014-6,7.014a4.555,4.555,0,0,1-3.42-1.273l-.66,3.116a8.267,8.267,0,0,1-.83,2.164l-1,1.784a.35.35,0,0,1-.31.18.27.27,0,0,1-.2-.09.3.3,0,0,1-.08-.2l.08-2a8.9,8.9,0,0,1,.17-1.363L5.18,9.719A13.112,13.112,0,0,1,5,7.445c0-.571.09-3.437,1.79-3.437a1.239,1.239,0,0,1,1,.441A2.078,2.078,0,0,1,8,6.192L7.24,9.749A2.521,2.521,0,0,0,10,12.024c2.95,0,4-2.585,4-5.01C14,4.108,11.48,2,8,2,4.69,2,2,4.248,2,7.014A4.273,4.273,0,0,0,3.15,9.87a.5.5,0,0,1,.12.441L3,11.483a.493.493,0,0,1-.83.261A6.5,6.5,0,0,1,0,7.014C0,3.146,3.59,0,8,0S16,3.006,16,7.014Z"/>
</svg>
