<svg xmlns="http://www.w3.org/2000/svg" width="20" height="16" viewBox="0 0 20 16">
  <g id="record_screen" transform="translate(-2 -4)">
    <path id="Icon_color" data-name="Icon color" d="M18,16H15.5a.5.5,0,0,1-.5-.5v-1a.5.5,0,0,1,.5-.5H18V11.5a.5.5,0,0,1,.5-.5h1a.5.5,0,0,1,.5.5V14A2,2,0,0,1,18,16ZM4.5,16H2a2,2,0,0,1-2-2V11.5A.5.5,0,0,1,.5,11h1a.5.5,0,0,1,.5.5V14H4.5a.5.5,0,0,1,.5.5v1A.5.5,0,0,1,4.5,16Zm1-9A1.5,1.5,0,1,1,7,5.5,1.5,1.5,0,0,1,5.5,7Zm14-2h-1a.5.5,0,0,1-.5-.5V2H15.5a.5.5,0,0,1-.5-.5V.5a.5.5,0,0,1,.5-.5H18a2,2,0,0,1,2,2V4.5A.5.5,0,0,1,19.5,5ZM1.5,5H.5A.5.5,0,0,1,0,4.5V2A2,2,0,0,1,2,0H4.5A.5.5,0,0,1,5,.5v1a.5.5,0,0,1-.5.5H2V4.5A.5.5,0,0,1,1.5,5Z" transform="translate(2 4)"/>
  </g>
</svg>
