<svg id="reddit" xmlns="http://www.w3.org/2000/svg" width="20.002" height="17.23" viewBox="0 0 20.002 17.23">
  <path id="Icon_color" data-name="Icon color" d="M10.024,17.23a11.525,11.525,0,0,1-6.359-1.759A5.208,5.208,0,0,1,1.047,11.23a3.888,3.888,0,0,1,0-.481A2.491,2.491,0,0,1,2.484,6.229h.059a2.468,2.468,0,0,1,1.5.53,11.526,11.526,0,0,1,5.4-1.53l.639-3.78A1.743,1.743,0,0,1,11.79,0a1.929,1.929,0,0,1,.489.07l3.153.92a1.989,1.989,0,0,1,2.48-.538A2,2,0,0,1,17,4.229c-.061,0-.123,0-.184-.008a2,2,0,0,1-1.8-1.791L11.88,1.47h-.07a.242.242,0,0,0-.239.211l-.618,3.55A11.414,11.414,0,0,1,16.01,6.76a2.465,2.465,0,0,1,1.5-.53A2.515,2.515,0,0,1,19,10.75a3.894,3.894,0,0,1,0,.481,5.207,5.207,0,0,1-2.619,4.241A11.521,11.521,0,0,1,10.024,17.23ZM7.583,13.163a.49.49,0,0,0-.391.2l-.29.41a.523.523,0,0,0-.08.4.513.513,0,0,0,.25.32,6.261,6.261,0,0,0,5.9,0,.512.512,0,0,0,.249-.32.52.52,0,0,0-.079-.37l-.29-.41a.488.488,0,0,0-.407-.219.5.5,0,0,0-.231.059,5.046,5.046,0,0,1-4.389,0A.485.485,0,0,0,7.583,13.163ZM13.516,8.23a1.5,1.5,0,1,0,1.5,1.5A1.5,1.5,0,0,0,13.516,8.23Zm-6.983,0a1.5,1.5,0,1,0,1.5,1.5A1.5,1.5,0,0,0,6.533,8.23Z" transform="translate(0.002 0)"/>
</svg>
