<svg xmlns="http://www.w3.org/2000/svg" width="17.995" height="18.001" viewBox="0 0 17.995 18.001">
  <g id="refresh" transform="translate(-3.005 -3.003)">
    <path id="Icon_color" data-name="Icon color" d="M17.5,7h-5a.5.5,0,0,1-.5-.5v-.29a.49.49,0,0,1,.15-.36l1.78-1.78A6.93,6.93,0,0,0,9,2a7,7,0,1,0,7,7.47A.5.5,0,0,1,16.5,9h1a.52.52,0,0,1,.36.16.5.5,0,0,1,.13.37,9,9,0,1,1-2.62-6.89l1.49-1.49a.49.49,0,0,1,.35-.15h.29a.5.5,0,0,1,.5.5v5A.5.5,0,0,1,17.5,7Z" transform="translate(3.004 3.003)"/>
  </g>
</svg>
