<svg xmlns="http://www.w3.org/2000/svg" width="19.9" height="19.9" viewBox="0 0 19.9 19.9">
  <g id="remaining_time" transform="translate(-2.105 -2.105)">
    <path id="Icon_color" data-name="Icon color" d="M9.893,19.9A10,10,0,0,1,.005,11.345a.5.5,0,0,1,.5-.571h1.01a.5.5,0,0,1,.493.41A8,8,0,0,0,9.9,17.9c.15,0,.3,0,.435-.012a8,8,0,0,0,.854-15.885.5.5,0,0,1-.41-.5V.5a.5.5,0,0,1,.5-.5.463.463,0,0,1,.07.005,10,10,0,0,1-.962,19.883C10.227,19.9,10.062,19.9,9.893,19.9Zm.383-9.135H4.4a.5.5,0,0,1-.5-.5V9.5a.5.5,0,0,1,.5-.5l4.62.01V4.4a.5.5,0,0,1,.5-.5h.76a.5.5,0,0,1,.5.5v5.87A.507.507,0,0,1,10.275,10.765ZM.43,9A.537.537,0,0,1,.115,8.9a.518.518,0,0,1-.11-.4,9.345,9.345,0,0,1,.55-2.17.467.467,0,0,1,.34-.29.488.488,0,0,1,.41,0l.89.509a.491.491,0,0,1,.22.61,8.4,8.4,0,0,0-.371,1.41.5.5,0,0,1-.49.42h-1A.552.552,0,0,1,.43,9ZM3.419,4.967A.487.487,0,0,1,3.165,4.9l-.89-.56A.468.468,0,0,1,2.035,4a.482.482,0,0,1,.1-.4,9.209,9.209,0,0,1,1.51-1.461.483.483,0,0,1,.306-.109.441.441,0,0,1,.095.009.473.473,0,0,1,.339.24l.51.89a.48.48,0,0,1-.16.68,7.028,7.028,0,0,0-.94.941A.474.474,0,0,1,3.419,4.967Zm3.59-2.56a.5.5,0,0,1-.434-.252l-.49-.89a.5.5,0,0,1,0-.41.463.463,0,0,1,.291-.3A9.274,9.274,0,0,1,8.5.005a.518.518,0,0,1,.4.11.52.52,0,0,1,.12.4v1a.5.5,0,0,1-.42.49,8.406,8.406,0,0,0-1.409.37A.494.494,0,0,1,7.009,2.408Z" transform="translate(2.105 2.105)"/>
  </g>
</svg>
