<svg id="remove_from_trash" xmlns="http://www.w3.org/2000/svg" width="16" height="20" viewBox="0 0 16 20">
  <path id="Icon_color" data-name="Icon color" d="M12.155,20H3.865A2.005,2.005,0,0,1,1.87,18.14L1,6H15L14.15,18.14A2.005,2.005,0,0,1,12.155,20ZM8,14.24H8L9.86,16.09a.48.48,0,0,0,.7,0l.53-.53a.479.479,0,0,0,0-.7L9.24,13,11.09,11.14a.479.479,0,0,0,0-.7l-.53-.53a.48.48,0,0,0-.7,0L8,11.76,6.14,9.91a.481.481,0,0,0-.7,0l-.529.53a.479.479,0,0,0,0,.7L6.76,13,4.91,14.86a.479.479,0,0,0,0,.7l.529.53a.481.481,0,0,0,.7,0L8,14.241ZM15.5,4H.5A.5.5,0,0,1,0,3.5v-1A.5.5,0,0,1,.5,2H5V1A1,1,0,0,1,6,0h4a1,1,0,0,1,1,1V2h4.5a.5.5,0,0,1,.5.5v1A.5.5,0,0,1,15.5,4Z" transform="translate(0 0)"/>
</svg>
