<svg id="Layer_1" data-name="Layer 1" xmlns="http://www.w3.org/2000/svg" viewBox="0 0 992.13 992.13"><defs><style>.cls-1{fill:#222221;}</style></defs><title>Bridgestone icons 2020_correct-dev-names</title><path class="cls-1" d="M881.54,14.19,688.8,110.56v96.37L584.24,311.5l96.37,96.37L785.17,303.3h96.37l96.37-192.74ZM28.19,827.55a48.18,48.18,0,0,0,0,68l68.42,68.42a48.19,48.19,0,0,0,67.94,0L428.12,700.83,291.76,564.47Zm935.75,68-68.42,68.42a48.19,48.19,0,0,1-67.94,0L255.14,392.45A183.7,183.7,0,0,1,207,399.67,192.74,192.74,0,0,1,24.81,144.29L147.2,266.68l25.54-25.54,68.42-68.42,25.54-25.54L144.31,24.79A192.74,192.74,0,0,1,399.69,206.93a183.3,183.3,0,0,1-7.23,48.19L963.94,827.55a48.2,48.2,0,0,1,0,68"/></svg>