<svg id="reply_all" xmlns="http://www.w3.org/2000/svg" width="24" height="14.291" viewBox="0 0 24 14.291">
  <path id="Icon_color" data-name="Icon color" d="M23.562,14.291h-.1a.5.5,0,0,1-.491-.411c-.222-1.221-1.427-2.377-3.392-3.257A16.687,16.687,0,0,0,13,9.292v2.584a.507.507,0,0,1-.146.354l-.208.207a.5.5,0,0,1-.707,0L6.148,6.646a.5.5,0,0,1,0-.708L11.939.146a.5.5,0,0,1,.707,0l.208.207A.511.511,0,0,1,13,.707V3.291a10.526,10.526,0,0,1,4.058.823,11.393,11.393,0,0,1,3.458,2.25A10.912,10.912,0,0,1,24,13.834a.438.438,0,0,1-.437.457ZM6.292,12.583a.5.5,0,0,1-.353-.146L.148,6.646a.5.5,0,0,1,0-.708L5.939.146a.5.5,0,0,1,.707,0l.208.207A.508.508,0,0,1,7,.707V1.916L2.979,5.937a.495.495,0,0,0,0,.708L7,10.666v1.21a.5.5,0,0,1-.146.354l-.208.207A.5.5,0,0,1,6.292,12.583Z" transform="translate(0.001 0)"/>
</svg>
