<?xml version="1.0" encoding="UTF-8"?>
<svg width="24px" height="24px" viewBox="0 0 24 24" version="1.1" xmlns="http://www.w3.org/2000/svg" xmlns:xlink="http://www.w3.org/1999/xlink">
    <!-- Generator: Sketch 58 (84663) - https://sketch.com -->
    <title>1 - Atom/⚒/Icon/USP/Responsivness/Dark</title>
    <desc>Created with Sketch.</desc>
    <g id="1---Atom/⚒/Icon/USP/Responsivness/Dark" stroke="none" stroke-width="1" fill="none" fill-rule="evenodd">
        <path d="M5.49039101,7.20820674 C5.6832,6.93404944 6.07025618,6.88353258 6.32670562,7.0994427 C6.49767191,7.24326292 6.69021124,7.40542022 6.8570427,7.54582472 C7.08409888,7.73692584 7.12688539,8.06968989 6.95555955,8.31202697 C6.76796404,8.57746517 6.60311011,8.85512809 6.46072809,9.14357753 L6.46072809,9.14357753 C6.05021124,9.98986966 5.84059326,10.8993528 5.84059326,11.848027 C5.84059326,15.2430831 8.60266067,18.0052404 11.9977169,18.0052404 L11.9977169,18.0052404 L11.9977169,15.5605663 C11.9977169,15.1847461 12.4445483,14.9883416 12.7214022,15.2424539 L12.7214022,15.2424539 L14.3729978,16.7580494 L16.401582,18.6197124 C16.5880989,18.7907685 16.5880989,19.084791 16.401582,19.2559371 L16.401582,19.2559371 L14.3729978,21.1176 L12.7214022,22.6331955 C12.4445483,22.8873079 11.9977169,22.6909034 11.9977169,22.3150831 L11.9977169,22.3150831 L11.9977169,19.8457798 C7.58773933,19.8457798 4.00005393,16.2580944 4.00005393,11.848027 C4.00005393,10.6757124 4.24769438,9.5488809 4.73533483,8.49539775 C4.73533483,8.49539775 4.97542472,7.94061124 5.49039101,7.20820674 Z M11.2740045,1.20436854 C11.5508584,0.95025618 11.9976899,1.14666067 11.9976899,1.5224809 L11.9976899,1.5224809 L11.9976899,3.8540764 C16.4073978,3.85425618 19.9949034,7.44194157 19.9949034,11.8517393 C19.9949034,13.0240539 19.7472629,14.1509753 19.2596225,15.2043685 C19.2596225,15.2043685 19.0194427,15.7592449 18.5043865,16.4918292 C18.3117573,16.7659865 17.9245213,16.8161438 17.6681618,16.6004135 L17.6681618,16.6004135 L17.1378247,16.1540315 C16.9108584,15.9630202 16.8678921,15.6301663 17.0391281,15.3879191 C17.2269034,15.1224809 17.3917573,14.8447281 17.5342292,14.5562787 L17.5342292,14.5562787 C17.9447461,13.7098966 18.1544539,12.8005034 18.1544539,11.8517393 C18.1544539,8.45686292 15.3925663,5.69488539 11.9976899,5.69461573 L11.9976899,5.69461573 L11.9976899,8.27708764 C11.9976899,8.65281798 11.5508584,8.84922247 11.2740045,8.5952 L11.2740045,8.5952 L9.62240899,7.07951461 L7.59382472,5.21785169 C7.40739775,5.04679551 7.40739775,4.75277303 7.59382472,4.58162697 L7.59382472,4.58162697 L9.62240899,2.71996404 Z" id="Combined-Shape" fill="#031824"></path>
    </g>
</svg>