<svg xmlns="http://www.w3.org/2000/svg" width="20.998" height="18" viewBox="0 0 20.998 18">
  <g id="restore" transform="translate(-1.002 -3)">
    <path id="Icon_color" data-name="Icon color" d="M21,9a9,9,0,0,1-9,9,8.89,8.89,0,0,1-5.16-1.63.51.51,0,0,1-.21-.37.5.5,0,0,1,.14-.39l.72-.73a.5.5,0,0,1,.63-.06A6.91,6.91,0,0,0,12,16,7,7,0,1,0,5,9h2.36a.49.49,0,0,1,.36.15l.2.2a.5.5,0,0,1,0,.71L4.388,13.6a.51.51,0,0,1-.71,0L.148,10.06a.5.5,0,0,1,0-.71l.2-.2A.49.49,0,0,1,.708,9H3A9,9,0,0,1,21,9Z" transform="translate(1.002 3)"/>
  </g>
</svg>
