<svg xmlns="http://www.w3.org/2000/svg" width="18.002" height="18" viewBox="0 0 18.002 18">
  <g id="search" transform="translate(-3.002 -3)">
    <path id="Icon_color" data-name="Icon color" d="M16.8,18a.5.5,0,0,1-.355-.149l-4-4a2.683,2.683,0,0,1-.3-.361l-.75-1a7.026,7.026,0,0,1-4.37,1.532H7A7.01,7.01,0,0,1,3.974.69a6.991,6.991,0,0,1,8.518,1.971,7.016,7.016,0,0,1-.046,8.753l1,.691a2.471,2.471,0,0,1,.43.35l4,4.005a.5.5,0,0,1-.02.691l-.7.7A.5.5,0,0,1,16.8,18ZM7.025,2a5.008,5.008,0,1,0,5,5.007A5.009,5.009,0,0,0,7.025,2Z" transform="translate(3 3)"/>
  </g>
</svg>
