<svg id="settings" xmlns="http://www.w3.org/2000/svg" width="18.742" height="20" viewBox="0 0 18.742 20">
  <path id="Icon_color" data-name="Icon color" d="M10.563,20H8.237a1,1,0,0,1-.987-.842l-.17-1A2.016,2.016,0,0,0,6.02,16.7a5.573,5.573,0,0,1-.74-.43,1.995,1.995,0,0,0-1.78-.191l-1,.361a1,1,0,0,1-1.21-.431l-1.16-2A1,1,0,0,1,.37,12.735l.8-.661a2.015,2.015,0,0,0,.72-1.643V9.569a2.012,2.012,0,0,0-.72-1.642l-.8-.661A1,1,0,0,1,.13,5.992l1.16-2a1,1,0,0,1,1.19-.431l1,.361a2,2,0,0,0,1.78-.19A5.485,5.485,0,0,1,6,3.3,2.016,2.016,0,0,0,7.02,1.844l.17-1A1,1,0,0,1,8.177,0H10.5a1,1,0,0,1,.987.842l.17,1A2.011,2.011,0,0,0,12.721,3.3a5.486,5.486,0,0,1,.74.431,2,2,0,0,0,1.78.19l1-.361a1,1,0,0,1,1.21.431l1.16,2a1,1,0,0,1-.24,1.273l-.8.661a2.015,2.015,0,0,0-.72,1.642v.862a2.018,2.018,0,0,0,.72,1.643l.8.661a1,1,0,0,1,.24,1.273l-1.16,2a1,1,0,0,1-1.15.431l-1-.361a1.995,1.995,0,0,0-1.78.191,5.573,5.573,0,0,1-.74.43,2.016,2.016,0,0,0-1.06,1.454l-.169,1A1,1,0,0,1,10.563,20ZM9.37,6.994a3.007,3.007,0,1,0,3,3.006A3.006,3.006,0,0,0,9.37,6.994Z" transform="translate(0.001 0)"/>
</svg>
