<svg id="settings_vs_outlined" xmlns="http://www.w3.org/2000/svg" width="19.01" height="18" viewBox="0 0 19.01 18">
  <path id="Icon_color" data-name="Icon color" d="M12.225,18H6.781a4,4,0,0,1-3.5-2.06l-2.78-5A3.976,3.976,0,0,1,.5,7.06l2.78-5A4,4,0,0,1,6.779,0h5.443a4,4,0,0,1,3.5,2.06l2.78,5a3.981,3.981,0,0,1,0,3.881l-2.78,5A4,4,0,0,1,12.225,18ZM6.764,2A2.009,2.009,0,0,0,5.032,3L2.252,8.06a1.985,1.985,0,0,0,0,1.939l2.78,5a2.009,2.009,0,0,0,1.733,1h5.475a2.007,2.007,0,0,0,1.732-1l2.78-5a2,2,0,0,0,0-2l-2.78-5a2.007,2.007,0,0,0-1.732-1H6.764Z" transform="translate(0.003)"/>
</svg>
