<svg id="share" xmlns="http://www.w3.org/2000/svg" width="18" height="20" viewBox="0 0 18 20">
  <path id="Icon_color" data-name="Icon color" d="M18,17a3,3,0,0,1-6,0,2.086,2.086,0,0,1,0-.25.509.509,0,0,0-.24-.48L5.22,12.456a.5.5,0,0,0-.54,0,2.942,2.942,0,0,1-1.68.55A3,3,0,1,1,3,7.011a2.942,2.942,0,0,1,1.68.53.5.5,0,0,0,.54,0l6.55-3.817a.509.509,0,0,0,.23-.46,2.086,2.086,0,0,1,0-.25,3,3,0,1,1,1.07,2.278l-6.84,4a.509.509,0,0,0-.24.48,3.125,3.125,0,0,1,0,.5.509.509,0,0,0,.24.48l6.55,3.817a.5.5,0,0,0,.54,0,2.942,2.942,0,0,1,1.68-.56A3,3,0,0,1,18,17Z"/>
</svg>
