<svg id="share_screen" xmlns="http://www.w3.org/2000/svg" width="24" height="16" viewBox="0 0 24 16">
  <path id="Icon_color" data-name="Icon color" d="M23,16H1a.947.947,0,0,1-1-1v-.5A.473.473,0,0,1,.5,14H2V1A.947.947,0,0,1,3,0H21a.947.947,0,0,1,1,1V14h1.5a.473.473,0,0,1,.5.5V15A.947.947,0,0,1,23,16ZM13.65,2.65a.494.494,0,0,0-.35.15l-.2.2a.776.776,0,0,1-.05.2.777.777,0,0,0-.05.2V5a7.185,7.185,0,0,0-7,6.7c0,.1,0,.2.1.2a.09.09,0,0,0,.023.064A.265.265,0,0,0,6.3,12h.2a.319.319,0,0,0,.3-.3c.143-.764.9-1.492,2.137-2.05A10.479,10.479,0,0,1,13.1,8.8v1.8c-.1.2,0,.3.1.4l.2.2a.482.482,0,0,0,.7,0l3.8-3.8a.766.766,0,0,0-.1-.8L14,2.8A.5.5,0,0,0,13.65,2.65Z" transform="translate(0)"/>
</svg>
