<svg xmlns="http://www.w3.org/2000/svg" width="22" height="20" viewBox="0 0 22 20">
  <g id="shopping_basket_add" transform="translate(-1 -2)">
    <path id="Icon_color" data-name="Icon color" d="M16.4,20H5.6a2.989,2.989,0,0,1-2.89-2.35L1,10H.5A.5.5,0,0,1,0,9.5v-1A.5.5,0,0,1,.5,8h4L10.27.3a.765.765,0,0,1,.6-.3h.26a.772.772,0,0,1,.6.3L17.5,8h4a.5.5,0,0,1,.5.5l-.03,1a.5.5,0,0,1-.5.5H21L19.32,17.65A2.984,2.984,0,0,1,16.4,20ZM8.5,13.12a.5.5,0,0,0-.5.5v.76a.5.5,0,0,0,.5.5h1.62V16.5a.5.5,0,0,0,.5.5h.76a.5.5,0,0,0,.5-.5V14.88H13.5a.5.5,0,0,0,.5-.5v-.76a.5.5,0,0,0-.5-.5H11.88V11.5a.5.5,0,0,0-.5-.5h-.76a.5.5,0,0,0-.5.5v1.62ZM11,2.67,7,8h8Z" transform="translate(1 2)"/>
  </g>
</svg>
