<svg xmlns="http://www.w3.org/2000/svg" width="20" height="20" viewBox="0 0 20 20">
  <g id="shopping_cart" transform="translate(-2 -2)">
    <path id="Icon_color" data-name="Icon color" d="M16,20a2,2,0,1,1,2-2A2,2,0,0,1,16,20ZM6,20a2,2,0,1,1,2-2A2,2,0,0,1,6,20ZM4.983,15h0a.764.764,0,0,1-.653-.37l-.22-.381a.769.769,0,0,1,0-.71L5.97,9.84a2.183,2.183,0,0,1-.27-.35L1.42,2H.5A.5.5,0,0,1,0,1.5V.5A.5.5,0,0,1,.5,0h.927A2,2,0,0,1,3.16,1l.56,1H19.5a.5.5,0,0,1,.5.5V3a4.774,4.774,0,0,1-.65,2.361L17,9.49A2.948,2.948,0,0,1,14.49,11H8.26a2.7,2.7,0,0,1-.64-.09L6.62,13H17.5a.5.5,0,0,1,.5.5v1a.5.5,0,0,1-.5.5H4.983Z" transform="translate(2 2)"/>
  </g>
</svg>
