<svg xmlns="http://www.w3.org/2000/svg" width="21.97" height="20" viewBox="0 0 21.97 20">
  <g id="shopping_basket_clear" transform="translate(-1 -2)">
    <path id="Icon_color" data-name="Icon color" d="M16.4,20H5.6a2.989,2.989,0,0,1-2.89-2.35L1,10H.5A.5.5,0,0,1,0,9.5v-1A.5.5,0,0,1,.5,8h4L10.27.3a.765.765,0,0,1,.6-.3h.26a.772.772,0,0,1,.6.3L17.5,8h4a.5.5,0,0,1,.47.5v1a.5.5,0,0,1-.5.5H21L19.32,17.65A2.984,2.984,0,0,1,16.4,20ZM11,15.24h0L12.62,16.85a.479.479,0,0,0,.7,0l.53-.53a.48.48,0,0,0,0-.7L12.24,14l1.61-1.62a.481.481,0,0,0,0-.7l-.53-.53a.481.481,0,0,0-.7,0L11,12.76,9.38,11.15A.474.474,0,0,0,9.03,11a.48.48,0,0,0-.35.151l-.529.53a.479.479,0,0,0,0,.7L9.76,14,8.15,15.62a.478.478,0,0,0,0,.7l.529.53a.479.479,0,0,0,.7,0L11,15.241ZM11,2.67,7,8h8Z" transform="translate(1 2)"/>
  </g>
</svg>
