<svg xmlns="http://www.w3.org/2000/svg" width="20.003" height="20" viewBox="0 0 20.003 20">
  <g id="shopping_cart_off" transform="translate(-1.998 -2)">
    <path id="Icon_color" data-name="Icon color" d="M18.971,20a.479.479,0,0,1-.349-.151l-.88-.878a2.01,2.01,0,0,1-1.721.979,2.057,2.057,0,0,1-.355-.031A2,2,0,0,1,15,16.235l-1.239-1.258H4.96a.759.759,0,0,1-.628-.33l-.22-.38a.768.768,0,0,1,0-.708l1.86-3.694a2.218,2.218,0,0,1-.27-.349L2.3,3.525.151,1.379a.479.479,0,0,1,0-.7L.681.151a.481.481,0,0,1,.7,0l18.47,18.47a.477.477,0,0,1,0,.7l-.53.529A.48.48,0,0,1,18.971,20ZM7.621,10.894l-1,2.086h5.1l-2-2H8.261A2.8,2.8,0,0,1,7.621,10.894ZM6,19.968a2,2,0,1,1,2-2A2,2,0,0,1,6,19.968Zm8.711-8.985h0L5.711,2H19.5a.5.5,0,0,1,.5.5V3a4.753,4.753,0,0,1-.65,2.355L17,9.476A2.94,2.94,0,0,1,14.712,10.984Z" transform="translate(1.998 2)"/>
  </g>
</svg>
