<svg xmlns="http://www.w3.org/2000/svg" width="21.97" height="20" viewBox="0 0 21.97 20">
  <g id="shopping_basket_outlined" transform="translate(-1 -2)">
    <path id="Icon_color" data-name="Icon color" d="M16.4,20H5.6a2.989,2.989,0,0,1-2.89-2.35L1,10H.5A.5.5,0,0,1,0,9.5v-1A.5.5,0,0,1,.5,8h4L10.27.3a.765.765,0,0,1,.6-.3h.26a.772.772,0,0,1,.6.3L17.5,8h4a.5.5,0,0,1,.47.5v1a.5.5,0,0,1-.5.5H21L19.32,17.65A2.984,2.984,0,0,1,16.4,20ZM5.6,18h10.8a.994.994,0,0,0,.975-.781L19,10H3l1.6,7.22A1,1,0,0,0,5.575,18ZM11,2.67,7,8h8Z" transform="translate(1 2)"/>
  </g>
</svg>
