<svg xmlns="http://www.w3.org/2000/svg" width="20" height="20" viewBox="0 0 20 20">
  <g id="shopping_cart_add" transform="translate(-2 -2)">
    <path id="Icon_color" data-name="Icon color" d="M16,20a2,2,0,1,1,2-2A2,2,0,0,1,16,20ZM6,20a2,2,0,1,1,2-2A2,2,0,0,1,6,20Zm11.5-5H4.982a.764.764,0,0,1-.653-.37l-.22-.381a.769.769,0,0,1,0-.71L5.97,9.84a2.222,2.222,0,0,1-.27-.35L1.42,2H.5A.5.5,0,0,1,0,1.5V.5A.5.5,0,0,1,.5,0h.927A2,2,0,0,1,3.16,1L7.44,8.5A1,1,0,0,0,8.3,9h6.23a1.006,1.006,0,0,0,.751-.5L17.64,4.37A2.873,2.873,0,0,0,18,3V2.5a.5.5,0,0,1,.5-.5h1a.5.5,0,0,1,.5.5V3a4.778,4.778,0,0,1-.65,2.361L17,9.49A2.949,2.949,0,0,1,14.49,11H8.26a2.706,2.706,0,0,1-.64-.09L6.62,13H17.5a.5.5,0,0,1,.5.5v1A.5.5,0,0,1,17.5,15ZM11.38,6h-.76a.5.5,0,0,1-.5-.5V3.88H8.5a.5.5,0,0,1-.5-.5V2.62a.5.5,0,0,1,.5-.5h1.62V.5a.5.5,0,0,1,.5-.5h.76a.5.5,0,0,1,.5.5V2.12H13.5a.5.5,0,0,1,.5.5V3.38a.5.5,0,0,1-.5.5H11.88V5.5A.5.5,0,0,1,11.38,6Z" transform="translate(2 2)"/>
  </g>
</svg>
