<svg id="sign_in" xmlns="http://www.w3.org/2000/svg" width="18" height="18" viewBox="0 0 18 18">
  <path id="Icon_color" data-name="Icon color" d="M16,18H10.5a.5.5,0,0,1-.5-.5v-1a.5.5,0,0,1,.5-.5H16V2H10.5a.5.5,0,0,1-.5-.5V.5a.5.5,0,0,1,.5-.5H16a2,2,0,0,1,2,2V16A2,2,0,0,1,16,18ZM8.285,15a.5.5,0,0,1-.356-.148l-.71-.7a.5.5,0,0,1,0-.71L10.67,10H.5A.5.5,0,0,1,0,9.5v-1A.5.5,0,0,1,.5,8H10.67L7.22,4.56a.491.491,0,0,1,0-.7l.71-.71A.5.5,0,0,1,8.285,3a.5.5,0,0,1,.355.148l5.14,5.13a.768.768,0,0,1,.22.53v.38a.76.76,0,0,1-.22.53L8.64,14.85A.5.5,0,0,1,8.285,15Z"/>
</svg>
