<?xml version="1.0" encoding="UTF-8"?>
<svg width="14px" height="20px" viewBox="0 0 14 20" version="1.1" xmlns="http://www.w3.org/2000/svg" xmlns:xlink="http://www.w3.org/1999/xlink">
    <!-- Generator: Sketch 60 (88103) - https://sketch.com -->
    <title>ico_24_technology_data_wifi</title>
    <desc>Created with Sketch.</desc>
    <g id="BC20---4.59-Tyre-Size-Component" stroke="none" stroke-width="1" fill="none" fill-rule="evenodd">
        <g id="Tyre-size-table---All-Sizes---Regular" transform="translate(-717.000000, -526.000000)" fill="#031824" fill-rule="nonzero">
            <g id="Group-2" transform="translate(92.000000, 52.000000)">
                <g id="iconNoise1" transform="translate(625.000000, 474.000000)">
                    <g id="ico_24_technology_data_wifi" transform="translate(7.000000, 10.000000) rotate(90.000000) translate(-7.000000, -10.000000) translate(-3.000000, 3.000000)">
                        <path d="M19.6858332,3.9669 C19.6883877,4.08074162 19.6458804,4.19115824 19.5671429,4.2749 L18.3621429,5.6749 C18.2804722,5.76972726 18.1601928,5.82430793 18.0335714,5.8240013 C17.5585714,5.8240013 15.0292857,2.8 9.81928571,2.8 C4.60928571,2.8 2.1,5.8240013 1.59785714,5.8240013 C1.47123573,5.82430793 1.35095639,5.76972726 1.26928571,5.6749 L0.118571429,4.2749 C0.0398338823,4.19115824 -0.00267344123,4.08074162 -0.000118877694,3.9669 C-0.000118877694,3.3131 4.36428571,0 9.84285714,0 C15.1478571,0 19.6858332,3.248 19.6858332,3.9669 Z" id="Path" opacity="0.08"></path>
                        <path d="M9.84285714,5.6 C6.54714286,5.6 3.625,7.5411 3.625,8.1571 C3.62791336,8.27269343 3.66958258,8.38413099 3.74357143,8.4742 L4.95785714,9.8742 C5.03952782,9.96902726 5.15980715,10.0236079 5.28642857,10.0233 C5.76785714,10.0240013 6.90285714,8.4 9.85214286,8.4 C12.8014286,8.4 13.9607143,10.0240013 14.4171429,10.0240013 C14.5437643,10.0243079 14.6640436,9.96972726 14.7457143,9.8749 L15.96,8.4749 C16.0339888,8.38483099 16.0756581,8.27339343 16.0785714,8.1578 C16.0607143,7.5509 13.13,5.6 9.84285714,5.6 Z" id="Path-2" opacity="0.08"></path>
                        <path d="M9.83928571,11.2 C8.84714286,11.2 7.26785714,11.7411 7.26785714,12.376 C7.2680142,12.4877714 7.30650388,12.5962469 7.37714286,12.684 L8.29071429,13.7669 C8.416574,13.916237 8.60451185,14.0018957 8.80214286,14 L10.8285714,14 C11.0259531,14.0016839 11.2135841,13.9160455 11.3392857,13.7669 L12.2528571,12.684 C12.3234961,12.5962469 12.3619858,12.4877714 12.3621429,12.376 C12.4178571,11.7509 10.8564286,11.2 9.83928571,11.2 Z" id="Path-3"></path>
                    </g>
                </g>
            </g>
        </g>
    </g>
</svg>