<svg id="skype" xmlns="http://www.w3.org/2000/svg" width="20" height="20" viewBox="0 0 20 20">
  <path id="Icon_color" data-name="Icon color" d="M14.488,20h0a5.473,5.473,0,0,1-3.266-1.073,9.779,9.779,0,0,1-1.222.09A9.027,9.027,0,0,1,.983,10a9.95,9.95,0,0,1,.09-1.222,5.511,5.511,0,0,1,7.7-7.7A9.952,9.952,0,0,1,10,.983,9.027,9.027,0,0,1,19.017,10a9.777,9.777,0,0,1-.09,1.222A5.51,5.51,0,0,1,14.488,20ZM10,16.011h0c.071,0,.142,0,.213,0a6.731,6.731,0,0,0,2.462-.464,3.791,3.791,0,0,0,1.733-1.322v-.02a3.279,3.279,0,0,0,.6-1.934,3.133,3.133,0,0,0-.281-1.552,3.012,3.012,0,0,0-1-1,6,6,0,0,0-1.463-.67,18,18,0,0,0-1.884-.5L9.2,8.257a4.162,4.162,0,0,1-.692-.27A1.507,1.507,0,0,1,8,7.6a.8.8,0,0,1-.2-.551,1.009,1.009,0,0,1,.531-.822,2.632,2.632,0,0,1,1.352-.374q.066,0,.131,0c.066-.005.132-.008.2-.008a2.373,2.373,0,0,1,1.224.339,2.938,2.938,0,0,1,.772,1,2.582,2.582,0,0,0,.51.721,1.006,1.006,0,0,0,.657.244l.075,0a1.252,1.252,0,0,0,1.232-1.212,2.016,2.016,0,0,0-.27-1,2.9,2.9,0,0,0-.832-.941A4.164,4.164,0,0,0,12,4.259a6.6,6.6,0,0,0-1.873-.271H10l-.184,0a7.038,7.038,0,0,0-2.35.4A3.63,3.63,0,0,0,5.8,5.512a2.889,2.889,0,0,0-.581,1.753A2.74,2.74,0,0,0,5.782,9a3.723,3.723,0,0,0,1.5,1.122,12.1,12.1,0,0,0,2.245.681c.661.143,1.172.271,1.563.391A2.372,2.372,0,0,1,12,11.7a1.084,1.084,0,0,1,.29.821,1.244,1.244,0,0,1-.631,1.073,3.007,3.007,0,0,1-1.6.463l-.12,0-.1,0A2.883,2.883,0,0,1,8.7,13.828a1.768,1.768,0,0,1-.711-.562,3.906,3.906,0,0,1-.491-.871,2.007,2.007,0,0,0-.5-.742,1.113,1.113,0,0,0-.729-.271H6.2a1.2,1.2,0,0,0-.845.342,1.07,1.07,0,0,0-.361.812,2.71,2.71,0,0,0,.6,1.562,3.888,3.888,0,0,0,1.4,1.263,6.484,6.484,0,0,0,2.828.653Z" transform="translate(0 0)"/>
</svg>
