<svg id="sms_active_outlined" xmlns="http://www.w3.org/2000/svg" width="20" height="20" viewBox="0 0 20 20">
  <path id="Icon_color" data-name="Icon color" d="M.5,20a.5.5,0,0,1-.5-.5V4A4,4,0,0,1,4,0H16a4,4,0,0,1,4,4v8a4,4,0,0,1-4,4H5.943a2.985,2.985,0,0,0-2.092.851l-3,3A.5.5,0,0,1,.5,20ZM4,2A2,2,0,0,0,2,4V15.88l.46-.419A4.968,4.968,0,0,1,5.99,14H16a2,2,0,0,0,2-2V4a2,2,0,0,0-2-2ZM14.5,9h-1a.5.5,0,0,1-.5-.5v-1a.5.5,0,0,1,.5-.5h1a.5.5,0,0,1,.5.5v1A.5.5,0,0,1,14.5,9Zm-8,0h-1A.5.5,0,0,1,5,8.5v-1A.5.5,0,0,1,5.5,7h1a.5.5,0,0,1,.5.5v1A.5.5,0,0,1,6.5,9Zm4-1h-1A.5.5,0,0,1,9,7.5v-1A.5.5,0,0,1,9.5,6h1a.5.5,0,0,1,.5.5v1A.5.5,0,0,1,10.5,8Z" transform="translate(0 0)"/>
</svg>
