<svg id="snapchat" xmlns="http://www.w3.org/2000/svg" width="20" height="18" viewBox="0 0 20 18">
  <path id="Icon_color" data-name="Icon color" d="M20,14a1,1,0,0,1-1,1c-1.3,0-2,.41-2,1a1,1,0,0,1-1,1c-.83,0-1-.47-1.77-.47a1.28,1.28,0,0,0-.65.28,6.54,6.54,0,0,1-.84.52,5,5,0,0,1-2,.62,5.35,5.35,0,0,1-1.46,0,5,5,0,0,1-2-.62,6.54,6.54,0,0,1-.84-.52,1.28,1.28,0,0,0-.65-.28C5,16.53,4.83,17,4,17a1,1,0,0,1-1-1c0-.59-.7-1-2-1a1,1,0,0,1,0-2,3.34,3.34,0,0,0,3-2.71.49.49,0,0,0-.27-.59A14.89,14.89,0,0,1,1.6,8.5,1.365,1.365,0,0,1,3.13,6.24l.5.32a.24.24,0,0,0,.26,0A.25.25,0,0,0,4,6.33V6A6,6,0,0,1,16,6v.33a.25.25,0,0,0,.12.23.24.24,0,0,0,.26,0l.5-.32A1.362,1.362,0,1,1,18.4,8.5a14.89,14.89,0,0,1-2.13,1.2.49.49,0,0,0-.27.59A3.34,3.34,0,0,0,19,13,1,1,0,0,1,20,14Z"/>
</svg>
