<svg id="snapchat_outlined" xmlns="http://www.w3.org/2000/svg" width="20" height="18" viewBox="0 0 20 18">
  <path id="Icon_color" data-name="Icon color" d="M10,18a5.321,5.321,0,0,1-.731-.051,4.98,4.98,0,0,1-2-.619,6.6,6.6,0,0,1-.842-.52,1.265,1.265,0,0,0-.65-.28,1.753,1.753,0,0,0-.85.228A1.9,1.9,0,0,1,4,17a1,1,0,0,1-1-1c0-.617-.767-1-2-1a1,1,0,1,1,0-2,2.768,2.768,0,0,0,2.376-1.38A4.368,4.368,0,0,0,4,10.15c0-.316-.5-.558-1.077-.839C2.069,8.9,1,8.376,1,7.37A1.369,1.369,0,0,1,1.4,6.4,1.355,1.355,0,0,1,2.362,6h.01A1.768,1.768,0,0,1,3.4,6.405a.793.793,0,0,0,.356.184A.25.25,0,0,0,4,6.34V6A6.006,6.006,0,0,1,16.016,6V6.34a.251.251,0,0,0,.24.24.8.8,0,0,0,.379-.189A1.725,1.725,0,0,1,17.647,6h.01a1.352,1.352,0,0,1,.963.4,1.366,1.366,0,0,1,.4.972c0,.989-1.043,1.488-1.88,1.89-.6.288-1.122.538-1.122.89a4.231,4.231,0,0,0,.627,1.481A2.813,2.813,0,0,0,19.019,13H19a1,1,0,1,1,0,2c-1.235,0-2,.383-2,1a1,1,0,0,1-1,1,1.992,1.992,0,0,1-.947-.246,1.753,1.753,0,0,0-.824-.224,1.271,1.271,0,0,0-.651.28,6.6,6.6,0,0,1-.842.52,4.98,4.98,0,0,1-2,.619A5.321,5.321,0,0,1,10,18Zm.01-16a4.007,4.007,0,0,0-4,4v4.16a5.783,5.783,0,0,1-1.621,3.36.231.231,0,0,0,0,.25v.05a.208.208,0,0,0,.18.12,6,6,0,0,1,2.8,1.1A4.647,4.647,0,0,0,10.01,16a4.655,4.655,0,0,0,2.646-.952,6.045,6.045,0,0,1,2.82-1.108.21.21,0,0,0,.18-.12v-.05a.231.231,0,0,0-.04-.25,5.651,5.651,0,0,1-1.6-3.36V6A4.007,4.007,0,0,0,10.01,2Z" transform="translate(0 0)"/>
</svg>
