<svg xmlns="http://www.w3.org/2000/svg" width="19.998" height="20.002" viewBox="0 0 19.998 20.002">
  <g id="snooze" transform="translate(-1.999 -1.998)">
    <path id="Icon_color" data-name="Icon color" d="M10,20A9,9,0,1,1,19,11,9.007,9.007,0,0,1,10,20ZM10,4a7,7,0,1,0,7,7A7.005,7.005,0,0,0,10,4Zm2.5,11h-5a.5.5,0,0,1-.5-.5V13.4a1,1,0,0,1,.269-.69L10.75,9H7.5A.5.5,0,0,1,7,8.5v-1A.5.5,0,0,1,7.5,7h5a.5.5,0,0,1,.5.5V8.6a.993.993,0,0,1-.269.689L9.251,13H12.5a.5.5,0,0,1,.5.5v1A.5.5,0,0,1,12.5,15Zm6.607-9.99h0a.239.239,0,0,1-.17-.07l-3.878-3.88a.242.242,0,0,1-.07-.18.283.283,0,0,1,.09-.19A3.008,3.008,0,0,1,16.993,0H17a3,3,0,0,1,2.3,4.92.287.287,0,0,1-.19.09ZM.9,5H.886A.279.279,0,0,1,.7,4.922,3,3,0,0,1,4.914.692.279.279,0,0,1,5,.882a.239.239,0,0,1-.06.18L1.066,4.932A.239.239,0,0,1,.9,5Z" transform="translate(1.999 1.998)"/>
  </g>
</svg>
