<svg xmlns="http://www.w3.org/2000/svg" width="16" height="20" viewBox="0 0 16 20">
  <g id="snooze_notification" transform="translate(-4 -2)">
    <path id="Icon_color" data-name="Icon color" d="M8,20a2,2,0,0,1-2-2h4A2,2,0,0,1,8,20Zm7-4H1a1,1,0,0,1-1-1v-.59a1.008,1.008,0,0,1,.29-.7l.83-.83A3.018,3.018,0,0,0,2,10.76V8A6.035,6.035,0,0,1,3.2,4.4l.9-1.2A3.011,3.011,0,0,1,6.5,2H7V.5A.5.5,0,0,1,7.5,0h1A.5.5,0,0,1,9,.5V2h.5a3.011,3.011,0,0,1,2.4,1.2l.9,1.2A6.035,6.035,0,0,1,14,8v2.76a3.016,3.016,0,0,0,.879,2.12l.831.83a1.008,1.008,0,0,1,.29.7V15A1,1,0,0,1,15,16ZM5.5,5a.5.5,0,0,0-.5.5v.75a.5.5,0,0,0,.5.5H9L5.25,11A1,1,0,0,0,5,11.63v.87a.5.5,0,0,0,.5.5h5a.5.5,0,0,0,.5-.5v-.75a.5.5,0,0,0-.5-.5H7L10.75,7.03A.994.994,0,0,0,11,6.37V5.5a.5.5,0,0,0-.5-.5Z" transform="translate(4 2)"/>
  </g>
</svg>
