<svg id="Layer_1" data-name="Layer 1" xmlns="http://www.w3.org/2000/svg" viewBox="0 0 992.13 992.13"><defs><style>.cls-1{fill:#222221;}</style></defs><title>Bridgestone icons 2020_correct-dev-names</title><path class="cls-1" d="M585,865.46c4.38,17.09,20.59,26.73,38.56,22.35l69.65-19.28-19.27,69.66c-4.39,18,5.25,34.18,22.34,38.56a31.08,31.08,0,0,0,38.55-22.35l18-68.78L804,936.44c11.83,12.27,32.42,12.27,44.69,0s12.26-32.86,0-44.69L797.9,840.49l68.78-18A31.08,31.08,0,0,0,889,784c-4.38-17.09-20.59-26.73-38.55-22.34L780.81,780.9l19.28-69.66c4.38-18-5.26-34.17-22.34-38.56A31.07,31.07,0,0,0,739.2,695l-18,68.79L670,713c-11.83-12.26-32.42-12.26-44.69,0-12.26,12.71-12.26,32.86,0,44.69l50.82,51.26-68.78,18A31.07,31.07,0,0,0,585,865.46Zm-570.82-457c0-121,98.07-219.06,219-219.06C277,86.47,377.78,14.17,496.07,14.17c150.25,0,273.35,116.55,284.74,264.2l21.91-1.32A175.24,175.24,0,0,1,978,452.3c0,96.79-78.45,175.26-175.23,175.26a43.82,43.82,0,0,1,0-87.63,87.63,87.63,0,0,0,0-175.25H715.1V320.86c0-121-98.06-219.06-219-219.06-109.52,0-199.33,79.74-216.42,183.58a136.21,136.21,0,0,0-46.44-8.33,131.69,131.69,0,0,0-91.56,226.08,43.67,43.67,0,0,1-1.31,60.46c-16.65,17.09-45.12,17.09-61.76,0a218.57,218.57,0,0,1-64.41-155.1M145.6,687.14c-6.13-23.66,7.88-48.63,32-54.77L277,605.65,203.86,533.8c-17.52-17.53-17.52-46,0-64,17.53-17.53,46.88-17.53,64,0l72.73,72.29,25.84-98.58a44.25,44.25,0,0,1,54.76-32,43.37,43.37,0,0,1,31.11,55.2l-25.41,98.58,98.57-25.41A43.35,43.35,0,0,1,580.61,571a44.24,44.24,0,0,1-32,54.76l-98.57,25.85,72.29,72.73c17.52,17.09,17.52,46.45,0,64s-46.44,17.53-63.52,0l-72.28-73.17-26.73,99.46c-6.13,24.53-31.1,38.12-54.76,32-24.53-6.13-38.11-31.1-32-55.2l25.85-98.15L200.8,719.13c-24.1,6.13-49.07-7.45-55.2-32"/></svg>