<svg xmlns="http://www.w3.org/2000/svg" width="18" height="16.493" viewBox="0 0 18 16.493">
  <g id="sort" transform="translate(-3 -5)">
    <path id="Icon_color" data-name="Icon color" d="M7.5,16.493A.5.5,0,0,1,7,16V14A7,7,0,0,1,7,0H17.5a.5.5,0,0,1,.5.5v1a.5.5,0,0,1-.5.5H7A5,5,0,1,0,7,12V10a.5.5,0,0,1,.85-.36l3,3a.507.507,0,0,1,0,.71l-3,3A.5.5,0,0,1,7.5,16.493ZM17.5,14h-4a.5.5,0,0,1-.5-.5v-1a.5.5,0,0,1,.5-.5h4a.5.5,0,0,1,.5.5v1A.5.5,0,0,1,17.5,14Zm0-6H4.5A.5.5,0,0,1,4,7.5v-1A.5.5,0,0,1,4.5,6h13a.5.5,0,0,1,.5.5v1A.5.5,0,0,1,17.5,8Z" transform="translate(3 5)"/>
  </g>
</svg>
