<?xml version="1.0" encoding="UTF-8"?>
<svg width="18px" height="20px" viewBox="0 0 18 20" version="1.1" xmlns="http://www.w3.org/2000/svg" xmlns:xlink="http://www.w3.org/1999/xlink">
    <!-- Generator: Sketch 63.1 (92452) - https://sketch.com -->
    <title>iconControl</title>
    <desc>Created with Sketch.</desc>
    <g id="🔸-Atoms---Icons" stroke="none" stroke-width="1" fill="none" fill-rule="evenodd">
        <g id="1---Atom/⚒/Icon/Line/Stability" transform="translate(-3.000000, -2.000000)" fill="#040405" fill-rule="nonzero">
            <g id="iconControl" transform="translate(3.000000, 2.000000)">
                <g id="ico_24_transport_car">
                    <path d="M7.182,10.398 C7.51102089,10.3976184 7.8126668,10.5770715 7.96355465,10.862957 C8.11444249,11.1488425 8.08926407,11.4932093 7.89831818,11.7552 C7.22168182,12.6732 5.84959091,13.048 4.65177273,13.4192 C4.63622727,13.424 4.62027273,13.4284 4.60431818,13.4324 C3.20972727,13.778 2.16695455,14.1224 2.16695455,14.7248 C2.16695455,15.4172 3.83727273,16.0232 5.15618182,16.5424 C6.48040909,17.0396 7.98627273,17.5824 8.73122727,18.5508 C8.92884476,18.8117645 8.95894717,19.1594234 8.80901257,19.4491584 C8.6778198,19.7026766 8.42843727,19.8738729 8.14566632,19.9120118 L8.02268182,19.9200628 C7.74425963,19.9232856 7.48069021,19.797471 7.31209091,19.5808 C6.89481818,19.028 5.553,18.5352 4.45295455,18.1008 C2.60672727,17.4084 0.408681818,16.6292 0.408681818,14.7248 C0.408681818,12.734 2.43040909,12.2148 4.10113636,11.6964 C5.22613636,11.35 6.12654545,11.1144 6.44154545,10.724 C6.61764562,10.5139291 6.8821464,10.3938963 7.15990909,10.398 L7.182,10.398 Z M16.182,10.398 C16.5110209,10.3976184 16.8126668,10.5770715 16.9635546,10.862957 C17.1144425,11.1488425 17.0892641,11.4932093 16.8983182,11.7552 C16.2216818,12.6732 14.8495909,13.048 13.6517727,13.4192 C13.6362273,13.424 13.6202727,13.4284 13.6043182,13.4324 C12.2097273,13.778 11.1669545,14.1224 11.1669545,14.7248 C11.1669545,15.4172 12.8372727,16.0232 14.1561818,16.5424 C15.4804091,17.0396 16.9862727,17.5824 17.7312273,18.5508 C17.9288448,18.8117645 17.9589472,19.1594234 17.8090126,19.4491584 C17.6778198,19.7026766 17.4284373,19.8738729 17.1456663,19.9120118 L17.0226818,19.9200628 C16.7442596,19.9232856 16.4806902,19.797471 16.3120909,19.5808 C15.8948182,19.028 14.553,18.5352 13.4529545,18.1008 C11.6067273,17.4084 9.40868182,16.6292 9.40868182,14.7248 C9.40868182,12.734 11.4304091,12.2148 13.1011364,11.6964 C14.2261364,11.35 15.1265455,11.1144 15.4415455,10.724 C15.6176456,10.5139291 15.8821464,10.3938963 16.1599091,10.398 L16.182,10.398 Z M14.6204643,0.0004 C15.1425357,0.0174139532 15.5884132,0.389064402 15.7078929,0.9068 L16.5254286,4.01 C16.5820277,4.23302573 16.610672,4.46244923 16.6106786,4.6928 L16.6106786,9.3096 C16.6215039,9.63998217 16.3678362,9.91704268 16.0433929,9.9292 L15.4749286,9.9292 C15.1498537,9.91726259 14.8957621,9.63939393 14.90725,9.3084 L14.90725,8.688 L8.09510714,8.688 L8.09510714,9.3084 C8.10659257,9.63954464 7.85226608,9.91747779 7.52703571,9.9292 L6.95935714,9.9292 C6.63491676,9.91725591 6.38107769,9.64037889 6.39167857,9.31 L6.39167857,4.6928 C6.39168251,4.46024 6.42085905,4.2286328 6.4785,4.0036 L7.29564286,0.9004 C7.35978521,0.64752198 7.50071041,0.421721692 7.69832143,0.2552 C7.88817133,0.09383696 8.12675497,0.00387125282 8.37403571,0.0004 L14.6204643,0.0004 Z M8.38542857,1.0864 C8.32092107,1.08905051 8.26571731,1.13437387 8.2495,1.198 L7.59067857,3.7236 L15.4136429,3.7236 L14.7677857,1.1992 C14.7515684,1.13557387 14.6963646,1.09025051 14.6318571,1.0876 L8.38542857,1.0864 Z" id="Icon_color"></path>
                </g>
            </g>
        </g>
    </g>
</svg>