<svg xmlns="http://www.w3.org/2000/svg" width="20" height="19" viewBox="0 0 20 19">
  <g id="star_half" transform="translate(-2 -2)">
    <path id="Icon_color" data-name="Icon color" d="M15.727,19h-.021a.481.481,0,0,1-.251-.07L10,15.6,4.575,18.93a.475.475,0,0,1-.25.07H4.3a.466.466,0,0,1-.287-.1l-.249-.15a.508.508,0,0,1-.19-.529L5.014,12,.177,7.86a.492.492,0,0,1-.149-.54l.11-.249a.489.489,0,0,1,.438-.35l6.373-.51L9.392.32A.506.506,0,0,1,9.864,0h.276A.49.49,0,0,1,10.6.32l2.483,5.89,6.373.51a.49.49,0,0,1,.438.35l.08.249a.489.489,0,0,1-.139.53L14.987,12l1.436,6.221a.509.509,0,0,1-.189.529l-.22.15A.466.466,0,0,1,15.727,19ZM10,3.411h0V13.55l4.109,2.51-1.117-4.68,3.659-3.13-4.8-.38Z" transform="translate(2 2)"/>
  </g>
</svg>
