<svg id="steam" xmlns="http://www.w3.org/2000/svg" width="19.894" height="20" viewBox="0 0 19.894 20">
  <path id="Icon_color" data-name="Icon color" d="M0,11.443a.243.243,0,0,1,.091-.236.238.238,0,0,1,.249-.025l3.55,1.587V13a3,3,0,0,0,5.99.261.473.473,0,0,1,.22-.382l1.21-.8a.505.505,0,0,1,.34-.08h.24a4.017,4.017,0,1,0-4-4.018,1.988,1.988,0,0,0,.02.231.508.508,0,0,1-.08.341l-.8,1.215a.471.471,0,0,1-.381.221,3,3,0,0,0-1.94.984L.314,8.962a.483.483,0,0,1-.29-.533,10,10,0,1,1,10.6,11.543q-.37.027-.736.027A10.014,10.014,0,0,1,0,11.443ZM5.894,13a1,1,0,1,1,1,1A1,1,0,0,1,5.894,13Zm4-5.021a2,2,0,1,1,2,2.009A2,2,0,0,1,9.894,7.978Z" transform="translate(0 0)"/>
</svg>
