<svg xmlns="http://www.w3.org/2000/svg" width="20" height="18" viewBox="0 0 20 18">
  <g id="subscribe" transform="translate(-2 -3)">
    <path id="Icon_color" data-name="Icon color" d="M18,18H2a2,2,0,0,1-2-2V6A2,2,0,0,1,2,4H18a2,2,0,0,1,2,2V16A2,2,0,0,1,18,18ZM8.751,7.651A.752.752,0,0,0,8,8.4v5.2a.748.748,0,0,0,.4.661.758.758,0,0,0,.351.087.75.75,0,0,0,.42-.129l3.89-2.6a.741.741,0,0,0,0-1.24L9.17,7.78A.748.748,0,0,0,8.751,7.651ZM17,2H3A2,2,0,0,1,5,0H15a2,2,0,0,1,2,2Z" transform="translate(2 3)"/>
  </g>
</svg>
