<?xml version="1.0" encoding="UTF-8"?>
<svg width="24px" height="24px" viewBox="0 0 24 24" version="1.1" xmlns="http://www.w3.org/2000/svg" xmlns:xlink="http://www.w3.org/1999/xlink">
    <!-- Generator: Sketch 58 (84663) - https://sketch.com -->
    <title>1 - Atom/⚒/Icon/USP/Summer/Dark</title>
    <desc>Created with Sketch.</desc>
    <g id="1---Atom/⚒/Icon/USP/Summer/Dark" stroke="none" stroke-width="1" fill="none" fill-rule="evenodd">
        <path d="M11.9982606,17.770317 C12.4100218,17.770317 12.7510718,18.0795799 12.8011046,18.4780608 L12.8074224,18.5794124 L12.8074224,19.2537361 C12.8074224,19.6998108 12.4443353,20.0626988 11.9982606,20.0626988 C11.5865606,20.0626988 11.2455719,19.7534924 11.1954438,19.3550724 L11.1890988,19.2537361 L11.1890988,18.5794124 C11.1890988,18.3633793 11.2732813,18.1601593 11.4261112,18.0071967 C11.5790075,17.8544332 11.7820946,17.770317 11.9982606,17.770317 Z M6.86116515,16.1182805 C7.17532282,15.7990108 7.69064232,15.7948946 8.00984564,16.1090523 C8.32918174,16.4232763 8.33323154,16.9384631 8.01907386,17.2577328 L8.01907386,17.2577328 L7.53256763,17.752073 C7.21847635,18.07121 6.70322324,18.0754589 6.38388714,17.7613012 C6.06461743,17.4471436 6.06063402,16.9317577 6.37465892,16.6125544 L6.37465892,16.6125544 Z M17.0689736,16.0383664 L17.1514423,16.1116216 L17.6377494,16.606161 C17.9517743,16.9254971 17.9475253,17.4407502 17.6281228,17.7548415 C17.3353981,18.0427585 16.8779928,18.0631255 16.5619634,17.8184993 L16.4795087,17.7452149 L15.9932017,17.2507419 C15.6791768,16.9314722 15.6833593,16.4161527 16.0027618,16.101995 C16.2955474,15.8141389 16.752902,15.7938327 17.0689736,16.0383664 Z M12.000332,7.65582075 C14.4294772,7.66199502 16.3937593,9.63590373 16.3875996,12.0645842 C16.3875996,14.499439 14.4223734,16.4732813 11.9979419,16.4732813 C9.57370954,16.4732813 7.60843154,14.499439 7.60843154,12.0645842 C7.60843154,9.7012784 9.45980502,7.77232798 11.7852684,7.66090469 L11.9979419,7.65582075 Z M5.50573942,11.2522822 C5.95373942,11.2522822 6.31802158,11.6166307 6.31802158,12.0645643 C6.31802158,12.4780415 6.00762731,12.8202983 5.60751022,12.8705065 L5.50573942,12.8768465 L4.81216266,12.8768465 C4.36429544,12.8768465 4.00001328,12.5124979 4.00001328,12.0645643 C4.00001328,11.6510871 4.31040754,11.3088304 4.7104202,11.2586221 L4.81216266,11.2522822 L5.50573942,11.2522822 Z M19.1840398,11.2522954 C19.6319071,11.2522954 19.996322,11.616644 19.996322,12.0645776 C19.996322,12.4780548 19.6858146,12.8203115 19.2857845,12.8705198 L19.1840398,12.8768598 L18.4905295,12.8768598 C18.0427286,12.8768598 17.6781809,12.5125112 17.6781809,12.0645776 C17.6781809,11.6511004 17.9888015,11.3088436 18.3887967,11.2586354 L18.4905295,11.2522954 L19.1840398,11.2522954 Z M17.6129394,6.36816598 C17.9055425,6.6562047 17.9333848,7.11316367 17.6940118,7.43319106 L17.6221012,7.51684647 L17.135595,8.01118672 C16.8215701,8.33039004 16.3061842,8.334639 15.9869809,8.02041494 C15.694317,7.73243707 15.6664696,7.2753716 15.9058422,6.95537717 L15.9777527,6.87173444 L16.4641925,6.37739419 C16.7783502,6.05812448 17.2936697,6.0540083 17.6129394,6.36816598 Z M7.48655312,6.27722515 L7.56900913,6.35046639 L8.05531618,6.84500581 C8.36934108,7.16434191 8.36509212,7.67959502 8.04568963,7.99368631 C7.75296487,8.28160332 7.2956154,8.30191452 6.97954417,8.05738133 L6.89707552,7.98412614 L6.41076846,7.48958672 C6.09674357,7.17031701 6.10092614,6.65499751 6.42032863,6.34090622 C6.71305339,6.05298921 7.17051443,6.03273379 7.48655312,6.27722515 Z M11.998161,4.06636349 C12.4099835,4.06636349 12.7509816,4.37562637 12.8010061,4.77410732 L12.8073228,4.87545892 L12.8073228,5.54978257 C12.8073228,5.99592365 12.4443021,6.35887801 11.998161,6.35887801 C11.586461,6.35887801 11.2454723,6.04961512 11.1954486,5.65113418 L11.189132,5.54978257 L11.189132,4.87545892 C11.189132,4.42931784 11.5521527,4.06636349 11.998161,4.06636349 Z" id="Combined-Shape" fill="#031824"></path>
    </g>
</svg>