<svg id="Layer_1" data-name="Layer 1" xmlns="http://www.w3.org/2000/svg" viewBox="0 0 992.13 992.13"><defs><style>.cls-1{fill:#222221;}</style></defs><title>Bridgestone icons 2020_correct-dev-names</title><path class="cls-1" d="M836.56,69.51h-681a86.06,86.06,0,0,0-86,86V836.61a86.1,86.1,0,0,0,86,86H836.51a86.12,86.12,0,0,0,86-86V155.49A86.07,86.07,0,0,0,836.56,69.51Zm-681,78h90.21L417.84,269.79a12.53,12.53,0,0,0,14.83-1.14l.54-.42,4-2.87,93.32-67.51a7.07,7.07,0,0,0,1.2-1.39,7.42,7.42,0,0,0-2-10.28l-.39-.27-50.7-38.41h217L475.19,307.63a5.74,5.74,0,0,0-2.45,3.76,5.57,5.57,0,0,0,.94,4.22l.29.4,103.9,77.59.46.47a10.66,10.66,0,0,0,13.56,1.36l252.65-179.5v94.54L478.28,582.2A5.77,5.77,0,0,0,475.8,586a5.71,5.71,0,0,0,1,4.31l.2.28,100.56,75.6a10.58,10.58,0,0,0,13.52,1.35L844.54,487.5V591.6l-341.06,253H317.69L147.59,718.43V618.67L401.72,796.2a12.22,12.22,0,0,0,14.71-1.1l.43-.35,96.34-74.5a4.77,4.77,0,0,0-.59-7.35l-.29-.2L147.59,442.28V345.8l258,182.25a12.26,12.26,0,0,0,14.72-1.12l.58-.46,100-73.67a4.75,4.75,0,0,0,.25-6.51,3.85,3.85,0,0,0-.81-.73l-.37-.26L147.59,169.05V155.47A8,8,0,0,1,155.56,147.5Zm681,697.12h-99l107-76v68A8,8,0,0,1,836.51,844.62Z"/></svg>