<svg id="swap_horizontal" xmlns="http://www.w3.org/2000/svg" width="19.998" height="12.996" viewBox="0 0 19.998 12.996">
  <path id="Icon_color" data-name="Icon color" d="M3.494,13a.5.5,0,0,1-.35-.143l-3-3a.508.508,0,0,1,0-.71l3-3a.5.5,0,0,1,.85.36v2h7.5a.5.5,0,0,1,.5.5v1a.5.5,0,0,1-.5.5h-7.5v2a.5.5,0,0,1-.5.493Zm13-5.98a.5.5,0,0,1-.5-.513v-2h-7.5a.5.5,0,0,1-.5-.5V3a.5.5,0,0,1,.5-.5h7.5V.5a.5.5,0,0,1,.85-.36l3,3a.511.511,0,0,1,.01.72l-3,3A.5.5,0,0,1,16.493,7.016Z" transform="translate(0.001 0)"/>
</svg>
