<svg xmlns="http://www.w3.org/2000/svg" width="15.993" height="21.996" viewBox="0 0 15.993 21.996">
  <g id="sync" transform="translate(-4.003 -1.002)">
    <path id="Icon_color" data-name="Icon color" d="M8.706,22a.5.5,0,0,1-.356-.149l-.2-.2a.49.49,0,0,1-.15-.36V19A8,8,0,0,1,1.073,7a.516.516,0,0,1,.371-.259.5.5,0,0,1,.069,0,.5.5,0,0,1,.351.144l.741.74a.51.51,0,0,1,.09.59,5.846,5.846,0,0,0-.7,2.79A6.01,6.01,0,0,0,8,17V14.638a.493.493,0,0,1,.15-.36l.2-.2a.5.5,0,0,1,.711,0l3.543,3.53a.507.507,0,0,1,0,.71l-3.543,3.53A.5.5,0,0,1,8.706,22Zm5.782-6.753a.5.5,0,0,1-.352-.145l-.731-.73a.5.5,0,0,1-.09-.59A5.989,5.989,0,0,0,8,5v2.36a.49.49,0,0,1-.15.36l-.2.2a.5.5,0,0,1-.711,0L3.4,4.388a.51.51,0,0,1,0-.709L6.939.148a.5.5,0,0,1,.711,0l.2.2A.49.49,0,0,1,8,.708V3a8,8,0,0,1,6.927,12,.518.518,0,0,1-.371.24A.5.5,0,0,1,14.488,15.243Z" transform="translate(4 1.002)"/>
  </g>
</svg>
