<svg xmlns="http://www.w3.org/2000/svg" width="18" height="18.003" viewBox="0 0 18 18.003">
  <g id="sync_off" transform="translate(-3.003 -2.999)">
    <path id="Icon_color" data-name="Icon color" d="M16.974,18a.483.483,0,0,1-.35-.151L14,15.232a7.971,7.971,0,0,1-3.4,1.55.492.492,0,0,1-.6-.49v-1a.51.51,0,0,1,.38-.491,5.878,5.878,0,0,0,2.179-1L4.2,5.432A5.942,5.942,0,0,0,5.3,13.7l1.549-1.55A.493.493,0,0,1,7.2,12h.3a.5.5,0,0,1,.5.5v5a.5.5,0,0,1-.5.5h-5a.5.5,0,0,1-.5-.5v-.29a.492.492,0,0,1,.149-.36l1.72-1.73A8,8,0,0,1,2.77,4L.151,1.382a.481.481,0,0,1,0-.7l.53-.53a.48.48,0,0,1,.7,0l16.463,16.47a.48.48,0,0,1,.01.7l-.529.53A.483.483,0,0,1,16.974,18Zm-.75-5.511h0L14.7,10.961a6.008,6.008,0,0,0-2-6.66L11.147,5.852A.489.489,0,0,1,10.8,6h-.3a.5.5,0,0,1-.5-.5V.5a.5.5,0,0,1,.5-.5h5a.5.5,0,0,1,.5.5v.29a.487.487,0,0,1-.12.36L14.155,2.872a7.992,7.992,0,0,1,2.07,9.618ZM7.049,3.342h0L5.519,1.812A7.567,7.567,0,0,1,7.4,1.172a.516.516,0,0,1,.1-.009.533.533,0,0,1,.322.109.536.536,0,0,1,.18.39v1a.514.514,0,0,1-.38.49c-.076.028-.154.053-.229.077l-.052.017-.011,0c-.091.029-.186.058-.278.093Z" transform="translate(3.003 2.998)"/>
  </g>
</svg>
