<svg id="telegram" xmlns="http://www.w3.org/2000/svg" width="20" height="18" viewBox="0 0 20 18">
  <path id="Icon_color" data-name="Icon color" d="M15.047,18h0a2,2,0,0,1-1.229-.425l-3.074-2.436-1.587,1.5a1.718,1.718,0,0,1-1.188.481,1.505,1.505,0,0,1-.36,0,1.78,1.78,0,0,1-1.318-1.254l-1.3-4.4-4.3-1.444a1,1,0,0,1-.689-1V8.372a1,1,0,0,1,.619-1L17.192.16a1.893,1.893,0,0,1,2.156.452,2.115,2.115,0,0,1,.618,1.9L17.341,16.151a2.088,2.088,0,0,1-1.088,1.474l-.329.17A2,2,0,0,1,15.047,18Zm-4.378-4.7a.486.486,0,0,1,.324.124l3.754,3.008a.444.444,0,0,0,.5.06l.329-.17a.59.59,0,0,0,.3-.411L18.459,2.276a.632.632,0,0,0-.159-.552.518.518,0,0,0-.379-.18.38.38,0,0,0-.18,0L1.5,8.622,6,10.166a.5.5,0,0,0,.429,0l7.546-4.783a.347.347,0,0,1,.418.1.322.322,0,0,1,.1.261.371.371,0,0,1-.12.261c-1.538,1.3-3.634,3.2-6.229,5.655a.513.513,0,0,0-.159.371V15.57a.253.253,0,0,0,.14-.05l2.216-2.1A.489.489,0,0,1,10.668,13.3Z" transform="translate(0 0)"/>
</svg>
