<svg xmlns="http://www.w3.org/2000/svg" width="18" height="20.003" viewBox="0 0 18 20.003">
  <g id="timer_40_s" transform="translate(-3 -2)">
    <path id="Icon_color" data-name="Icon color" d="M8.993,20c-.081,0-.163,0-.244,0A9.111,9.111,0,0,1,0,11,9,9,0,0,1,7.007,2.23V1a1,1,0,0,1,1-1h2a1,1,0,0,1,1,1V2.23A9.053,9.053,0,0,1,14.615,4l1.112-1.17a.5.5,0,0,1,.711,0l.71.71a.5.5,0,0,1,0,.7l-1.13,1.13A9,9,0,0,1,8.993,20ZM9.01,4a7,7,0,1,0,7.007,7A7.012,7.012,0,0,0,9.01,4Zm0,11.994a5.037,5.037,0,0,1-3.1-1.073.51.51,0,0,1-.059-.76L9.01,11V6.5A.488.488,0,0,1,9.5,6L9.54,6a5.011,5.011,0,0,1-.534,9.993Z" transform="translate(3 2)"/>
  </g>
</svg>
