<svg xmlns="http://www.w3.org/2000/svg" width="18.003" height="20.002" viewBox="0 0 18.003 20.002">
  <g id="timer_off" transform="translate(-2.998 -2)">
    <path id="Icon_color" data-name="Icon color" d="M16.971,20a.484.484,0,0,1-.35-.151L14.7,17.94A9.039,9.039,0,0,1,9.13,19.873,9,9,0,0,1,2.062,5.3L.151,3.38a.481.481,0,0,1,0-.7l.53-.53a.481.481,0,0,1,.7,0l16.47,16.47a.481.481,0,0,1,0,.7l-.53.53A.484.484,0,0,1,16.971,20ZM3.481,6.72h0a6.982,6.982,0,0,0,9.8,9.8l-9.8-9.8Zm13.461,8.49h0L15.451,13.72A7,7,0,0,0,9.321,4c-.11,0-.215-.007-.313-.007a6.959,6.959,0,0,0-2.737.558L4.782,3.06A8.965,8.965,0,0,1,7,2.23V1A1,1,0,0,1,8,0h2a1,1,0,0,1,1,1V2.23A9.043,9.043,0,0,1,14.6,4l1.11-1.17a.5.5,0,0,1,.71,0l.71.71a.5.5,0,0,1,0,.7L16,5.37a9,9,0,0,1,.941,9.839ZM9.881,8.16l0,0L8.131,6.41A.488.488,0,0,1,8.614,6h.768a.5.5,0,0,1,.5.5V8.16Z" transform="translate(2.998 2)"/>
  </g>
</svg>
