<svg xmlns="http://www.w3.org/2000/svg" width="16" height="18" viewBox="0 0 16 18">
  <g id="turn_off" transform="translate(-4 -3)">
    <path id="Icon_color" data-name="Icon color" d="M8,18A7.989,7.989,0,0,1,2,4.724a.532.532,0,0,1,.37-.169h.01a.51.51,0,0,1,.36.149l.71.709a.508.508,0,0,1,0,.679A5.908,5.908,0,0,0,2,9.988a6,6,0,0,0,12,0,5.91,5.91,0,0,0-1.44-3.9.508.508,0,0,1,0-.679L13.27,4.7a.514.514,0,0,1,.361-.149h.01a.534.534,0,0,1,.36.169A7.991,7.991,0,0,1,8,18Zm.5-7.013h-1a.5.5,0,0,1-.5-.5V.5A.5.5,0,0,1,7.5,0h1A.5.5,0,0,1,9,.5v9.988A.5.5,0,0,1,8.5,10.987Z" transform="translate(4 3)"/>
  </g>
</svg>
