<svg id="twitch" xmlns="http://www.w3.org/2000/svg" width="18" height="18" viewBox="0 0 18 18">
  <path id="Icon_color" data-name="Icon color" d="M6.17,18H5a1,1,0,0,1-1-1V16H1a1,1,0,0,1-1-1V4.73A4.19,4.19,0,0,1,.26,3.32l1-2.67A1,1,0,0,1,2.19,0H17a1,1,0,0,1,1,1v9.17a2.017,2.017,0,0,1-.59,1.42l-3.82,3.82a2.017,2.017,0,0,1-1.42.59H9L7.59,17.41A2.013,2.013,0,0,1,6.17,18ZM3,2V13H6v2H7.17l2-2h4L16,10.17V2Zm10.5,8h-1a.5.5,0,0,1-.5-.5v-4a.5.5,0,0,1,.5-.5h1a.5.5,0,0,1,.5.5v4A.5.5,0,0,1,13.5,10Zm-5,0h-1A.5.5,0,0,1,7,9.5v-4A.5.5,0,0,1,7.5,5h1a.5.5,0,0,1,.5.5v4A.5.5,0,0,1,8.5,10Z"/>
</svg>
