<svg xmlns="http://www.w3.org/2000/svg" width="18" height="18" viewBox="0 0 18 18">
  <g id="unarchive" transform="translate(-3 -2)">
    <path id="Icon_color" data-name="Icon color" d="M16,18H2a2,2,0,0,1-2-2V2A2,2,0,0,1,2,0H16a2,2,0,0,1,2,2V16A2,2,0,0,1,16,18ZM9,6a.483.483,0,0,0-.35.151L5.11,9.68a.512.512,0,0,0,0,.709l.21.211a.5.5,0,0,0,.346.14H7V14.5a.5.5,0,0,0,.5.5h3a.5.5,0,0,0,.5-.5V10.74h1.33a.5.5,0,0,0,.35-.14l.21-.211a.512.512,0,0,0,0-.709L9.35,6.15A.483.483,0,0,0,9,6ZM2,2V4H16V2Z" transform="translate(3 2)"/>
  </g>
</svg>
