<svg id="unsubscribe" xmlns="http://www.w3.org/2000/svg" width="20" height="16" viewBox="0 0 20 16">
  <path id="Icon_color" data-name="Icon color" d="M17,16H2a2,2,0,0,1-2-2V3A2,2,0,0,1,2,1H12a4.947,4.947,0,0,1,2.972-1H15a5.006,5.006,0,0,1,5,5,4.934,4.934,0,0,1-1,3v6A2,2,0,0,1,17,16ZM2,7.39V14H17V9.581A4.918,4.918,0,0,1,15.007,10H15a4.721,4.721,0,0,1-1.41-.229l-2.44,1.71a2.881,2.881,0,0,1-3.3,0ZM2,3V5.25l6.85,4.8a1.141,1.141,0,0,0,1.3,0l1.7-1.2A4.946,4.946,0,0,1,10.42,3ZM12.5,4.12a.5.5,0,0,0-.5.5v.76a.5.5,0,0,0,.5.5h5a.5.5,0,0,0,.5-.5V4.62a.5.5,0,0,0-.5-.5Z" transform="translate(0 0)"/>
</svg>
