<?xml version="1.0" encoding="UTF-8"?>
<svg width="20px" height="20px" viewBox="0 0 20 20" version="1.1" xmlns="http://www.w3.org/2000/svg" xmlns:xlink="http://www.w3.org/1999/xlink">
    <!-- Generator: Sketch 60 (88103) - https://sketch.com -->
    <title>Fill 1</title>
    <desc>Created with Sketch.</desc>
    <g id="🔸-Atoms---USP-Icons" stroke="none" stroke-width="1" fill="none" fill-rule="evenodd">
        <g id="1---Atom/⚒/Icon/USP/Snow-Performance/Dark" transform="translate(-2.000000, -2.000000)" fill="#031824">
            <path d="M4.72684872,15.9627236 C4.5995399,15.4718294 4.89042479,14.953714 5.39036503,14.8264052 L7.45353145,14.2719396 L5.93561859,12.781082 C5.57219921,12.4174966 5.57219921,11.8266807 5.93561859,11.4539663 C6.29928694,11.090298 6.9082779,11.090298 7.26265121,11.4539663 L8.77151802,12.9537871 L9.30772551,10.9085468 C9.43503433,10.3994775 9.9531497,10.1085926 10.4439609,10.2449475 C10.9528642,10.3721733 11.2436661,10.8902887 11.0893021,11.3903119 L10.5621407,13.4356352 L12.6072149,12.9083078 C13.1069892,12.7538608 13.6251876,13.0447457 13.7523304,13.553815 C13.8886853,14.0447091 13.5978004,14.5628245 13.0888141,14.6900503 L11.0437398,15.2264238 L12.5435605,16.7354566 C12.9070629,17.0899129 12.9070629,17.6989869 12.5435605,18.0625722 C12.1798922,18.4262406 11.5801133,18.4262406 11.225574,18.0625722 L9.72591922,16.5444934 L9.17145362,18.6079918 C9.0441448,19.1170611 8.52611242,19.3988169 8.03530123,19.2715911 C7.52623193,19.1442822 7.2444761,18.6261669 7.37178492,18.1261436 L7.90799241,16.0899494 L5.87204717,16.6263229 C5.37210692,16.7535487 4.85399156,16.4717929 4.72684872,15.9627236 M2,10.1812931 C2,7.67105194 4.03478336,5.63618558 6.54460955,5.63618558 C7.45353145,3.49998672 9.54408504,2 11.998224,2 C15.1157133,2 17.6698569,4.41812068 17.9061334,7.48149956 L18.3606774,7.45419539 C20.3684885,7.45419539 21.996282,9.08215486 21.996282,11.090298 C21.996282,13.0984411 20.3684885,14.7264836 18.3606774,14.7264836 C17.8586623,14.7264836 17.4517554,14.3194107 17.4517554,13.8173957 C17.4517554,13.3153806 17.8586623,12.9083078 18.3606774,12.9083078 C19.3644584,12.9083078 20.1784382,12.094411 20.1784382,11.090298 C20.1784382,10.0861849 19.3644584,9.27228818 18.3606774,9.27228818 L16.5427505,9.27228818 L16.5427505,8.36320029 C16.5427505,5.85304214 14.5081332,3.81809279 11.998224,3.81809279 C9.72591922,3.81809279 7.86259611,5.47252653 7.5081398,7.6269835 C7.20812586,7.5178498 6.88105672,7.45419539 6.54460955,7.45419539 C5.03873043,7.45419539 3.81792681,8.67516499 3.81792681,10.1812931 C3.81792681,10.9539431 4.13603288,11.6448466 4.6449362,12.1447868 C4.97217132,12.4994091 4.96320825,13.0537917 4.61771502,13.399285 C4.27230477,13.7537413 3.68157192,13.7537413 3.33624467,13.399285 C2.5090693,12.5720266 2,11.4357912 2,10.1812931 M13.843289,19.6624806 C13.9341646,20.0170199 14.2704458,20.2169462 14.6432432,20.1260706 L16.0883726,19.726135 L15.688437,21.1715134 C15.5975614,21.5441448 15.7974877,21.880509 16.152027,21.9713846 C16.4973542,22.0713892 16.8608566,21.8623339 16.9517322,21.5077946 L17.3243636,20.0805913 L18.3878985,21.1350802 C18.6332211,21.3896148 19.0605439,21.3896148 19.3149956,21.1350802 C19.5694472,20.8805455 19.5694472,20.4533057 19.3149956,20.2078171 L18.2606727,19.1442822 L19.687627,18.7716508 C20.0421663,18.6806922 20.2512216,18.3171069 20.151217,17.9716966 C20.0602584,17.6172403 19.7240602,17.417148 19.3513458,17.5080236 L17.9061334,17.9079592 L18.306069,16.4626638 C18.3968616,16.0899494 18.1969353,15.7535852 17.842479,15.6627926 C17.4971517,15.562788 17.1336494,15.7717604 17.0426908,16.1263826 L16.6700594,17.5535029 L15.6065245,16.4990141 C15.3612019,16.2445624 14.9339621,16.2445624 14.6794274,16.4990141 C14.4249758,16.7626778 14.4249758,17.1808715 14.6794274,17.4261941 L15.7338333,18.489812 L14.306796,18.8625264 C13.9523397,18.953402 13.7432014,19.3169874 13.843289,19.6624806" id="Fill-1"></path>
        </g>
    </g>
</svg>