<svg id="viber" xmlns="http://www.w3.org/2000/svg" width="18" height="20" viewBox="0 0 18 20">
  <path id="Icon_color" data-name="Icon color" d="M4.81,20H4.5a.5.5,0,0,1-.5-.5V16.3c-2.8-1.055-4-3.388-4-7.8C0,5.3.64,3.2,2.013,1.9S5.608,0,9,0s5.612.6,6.987,1.9S18,5.3,18,8.5s-.64,5.3-2.013,6.6S12.392,17,9,17H8.34l-3.2,2.87A.514.514,0,0,1,4.81,20ZM5.32,4.87A1.553,1.553,0,0,0,4,6.34a2.213,2.213,0,0,0,.07.35A15.343,15.343,0,0,0,4.74,8.25a11.405,11.405,0,0,0,5.78,5.14,1.152,1.152,0,0,0,.91,0,2.1,2.1,0,0,0,1-.83v.03a.811.811,0,0,0-.25-1.29l-1-.77a1.3,1.3,0,0,0-.747-.285.891.891,0,0,0-.773.5l-.069.09a.623.623,0,0,1-.472.217A.614.614,0,0,1,8.86,11,4.135,4.135,0,0,1,6.61,8.92a.86.86,0,0,1,.32-1.28l.15-.131a.579.579,0,0,0,.149-.73A5.731,5.731,0,0,0,6,5.08a.789.789,0,0,0-.49-.21H5.32ZM9.245,6.055a.457.457,0,0,0-.305.115.482.482,0,0,0-.19.39v.51a.5.5,0,0,0,.36.48,1.258,1.258,0,0,1,.841.84.5.5,0,0,0,.48.36h.518a.484.484,0,0,0,.382-.19.461.461,0,0,0,.1-.42A2.757,2.757,0,0,0,9.36,6.07.445.445,0,0,0,9.245,6.055ZM9.238,3.5a.468.468,0,0,0-.318.124A.5.5,0,0,0,8.75,4v.5a.508.508,0,0,0,.44.5A3.739,3.739,0,0,1,12.5,8.29a.512.512,0,0,0,.5.44h.471a.507.507,0,0,0,.38-.17v.02A.47.47,0,0,0,14,8.2,5.26,5.26,0,0,0,9.3,3.5.477.477,0,0,0,9.238,3.5Z" transform="translate(0 0)"/>
</svg>
