<svg id="viber_outlined" xmlns="http://www.w3.org/2000/svg" width="18" height="20" viewBox="0 0 18 20">
  <path id="Icon_color" data-name="Icon color" d="M4.81,20H4.5a.5.5,0,0,1-.5-.5V16.3c-2.8-1.055-4-3.388-4-7.8C0,5.3.64,3.2,2.013,1.9S5.608,0,9,0s5.612.6,6.987,1.9S18,5.3,18,8.5s-.64,5.3-2.013,6.6S12.392,17,9,17H8.34l-3.2,2.87A.514.514,0,0,1,4.81,20ZM9,2C3.439,2,2,3.336,2,8.5a8.909,8.909,0,0,0,.86,4.464A3.339,3.339,0,0,0,4.68,14.42l1,.37A.5.5,0,0,1,6,15.26v1.17l1-.9.44-.4A.508.508,0,0,1,7.78,15H9c5.561,0,7-1.337,7-6.5S14.561,2,9,2Zm1.965,11.484a1.141,1.141,0,0,1-.455-.094A11.407,11.407,0,0,1,4.73,8.25,15.057,15.057,0,0,1,4.06,6.69,2.191,2.191,0,0,1,4,6.34,1.546,1.546,0,0,1,5.34,4.85h.19A.786.786,0,0,1,6,5.08a5.753,5.753,0,0,1,1.25,1.7.58.58,0,0,1-.15.73l-.15.131A.859.859,0,0,0,6.63,8.92,4.131,4.131,0,0,0,8.9,11.01a.621.621,0,0,0,.73-.159l.07-.09a.885.885,0,0,1,.765-.506,1.342,1.342,0,0,1,.755.285l1,.77a.78.78,0,0,1,.2,1.25,2.1,2.1,0,0,1-1,.83A1.15,1.15,0,0,1,10.965,13.484ZM13.477,8.75H12.97a.513.513,0,0,1-.5-.44A3.728,3.728,0,0,0,9.19,5.03a.508.508,0,0,1-.44-.5v-.5a.5.5,0,0,1,.17-.38.471.471,0,0,1,.319-.124.446.446,0,0,1,.06,0A5.261,5.261,0,0,1,14,8.2a.47.47,0,0,1-.15.38A.5.5,0,0,1,13.477,8.75Zm-2.528-.02H10.43a.5.5,0,0,1-.48-.36,1.257,1.257,0,0,0-.841-.84v.02a.5.5,0,0,1-.36-.5V6.54a.486.486,0,0,1,.19-.391.463.463,0,0,1,.3-.115.457.457,0,0,1,.116.015,2.755,2.755,0,0,1,2.07,2.07.461.461,0,0,1-.1.42A.483.483,0,0,1,10.949,8.73Z" transform="translate(0 0)"/>
</svg>
