<svg xmlns="http://www.w3.org/2000/svg" width="22" height="18" viewBox="0 0 22 18">
  <g id="vibrations" transform="translate(-0.999 -3)">
    <path id="Icon_color" data-name="Icon color" d="M14.987,18H6.994a2,2,0,0,1-2-2V2a2,2,0,0,1,2-2h7.993a2,2,0,0,1,2,2V16A2,2,0,0,1,14.987,18ZM6.994,2V16h7.993V2Zm13.3,12.006a.51.51,0,0,1-.448-.266l-.769-1.49a1,1,0,0,1-.11-.46v-.57a1,1,0,0,1,.11-.46L19.982,9l-.869-1.76A1,1,0,0,1,19,6.78V6.21a1,1,0,0,1,.11-.46l.769-1.481a.49.49,0,0,1,.67-.21l.889.46a.488.488,0,0,1,.252.289.493.493,0,0,1-.032.382l-.68,1.3.889,1.78V8.24A1.076,1.076,0,0,1,22,8.7v.58a1,1,0,0,1-.11.46l-.909,1.76.64,1.319a.5.5,0,0,1-.211.67l-.888.46A.5.5,0,0,1,20.29,14.006ZM1.651,14a.508.508,0,0,1-.231-.056L.53,13.48a.5.5,0,0,1-.21-.67L1,11.5.111,9.74A1.018,1.018,0,0,1,0,9.28V8.7a1.1,1.1,0,0,1,.09-.46L1,6.49.34,5.19a.491.491,0,0,1,.22-.67l.889-.46a.49.49,0,0,1,.379-.036.492.492,0,0,1,.291.246l.77,1.481A1.012,1.012,0,0,1,3,6.21v.57a1.02,1.02,0,0,1-.09.471L2,9l.889,1.75A1.019,1.019,0,0,1,3,11.21v.57a1,1,0,0,1-.13.46L2.1,13.73A.511.511,0,0,1,1.651,14Z" transform="translate(1 3)"/>
  </g>
</svg>
