<svg xmlns="http://www.w3.org/2000/svg" width="22" height="18.003" viewBox="0 0 22 18.003">
  <g id="vibrations_off" transform="translate(-1 -2.999)">
    <path id="Icon_color" data-name="Icon color" d="M18.973,18a.483.483,0,0,1-.35-.151l-1.638-1.63A2,2,0,0,1,15,18H6.994a2,2,0,0,1-2-2V4.242L2.148,1.382a.481.481,0,0,1,0-.7l.529-.53a.481.481,0,0,1,.7,0l16.474,16.47a.481.481,0,0,1,0,.7l-.53.53A.479.479,0,0,1,18.973,18ZM6.994,6.242V16h7.993v-1.76Zm13.3,7.766a.509.509,0,0,1-.448-.266l-.77-1.49a1,1,0,0,1-.11-.46v-.571a1,1,0,0,1,.11-.46L19.982,9l-.869-1.76a1,1,0,0,1-.11-.46v-.57a1,1,0,0,1,.11-.46l.769-1.48A.49.49,0,0,1,20.318,4a.489.489,0,0,1,.233.059l.889.46a.489.489,0,0,1,.22.67l-.679,1.3.889,1.78V8.241A1.069,1.069,0,0,1,22,8.7v.58a1,1,0,0,1-.11.46l-.909,1.76.64,1.32a.5.5,0,0,1-.211.67l-.888.46A.508.508,0,0,1,20.291,14.008ZM1.651,14a.5.5,0,0,1-.231-.056L.53,13.481a.5.5,0,0,1-.21-.67L1,11.5.111,9.742A1.023,1.023,0,0,1,0,9.282V8.7a1.111,1.111,0,0,1,.09-.46L1,6.492.32,5.191A.489.489,0,0,1,.288,4.81.494.494,0,0,1,.54,4.522l.889-.46a.486.486,0,0,1,.379-.037.5.5,0,0,1,.291.247l.789,1.48a1.012,1.012,0,0,1,.11.46v.57a1.018,1.018,0,0,1-.09.47L2,9l.889,1.75a1.012,1.012,0,0,1,.11.46v.571a1,1,0,0,1-.13.46L2.1,13.731A.509.509,0,0,1,1.651,14Zm15.334-2.706,0,0-2-2V2H7.7L5.995.282a1.927,1.927,0,0,1,1-.28h7.993a2,2,0,0,1,2,2v9.29Z" transform="translate(1 2.998)"/>
  </g>
</svg>
