<svg id="vimeo_square" xmlns="http://www.w3.org/2000/svg" width="18" height="18" viewBox="0 0 18 18">
  <path id="Icon_color" data-name="Icon color" d="M16.2,18H1.8A1.816,1.816,0,0,1,0,16.2V1.8A1.816,1.816,0,0,1,1.8,0H16.2A1.816,1.816,0,0,1,18,1.8V16.2A1.816,1.816,0,0,1,16.2,18ZM3.64,6.41h0c.49,0,.935.733,1.361,2.24L6.14,12.76C6.709,14.247,7.412,15,8.23,15c1.327,0,2.969-1.238,4.881-3.68,1.851-2.329,2.8-4.193,2.83-5.54A2.861,2.861,0,0,0,15.4,3.557,1.9,1.9,0,0,0,13.94,3l-.149,0A3.762,3.762,0,0,0,10.18,5.74a.249.249,0,0,0,0,.26.219.219,0,0,0,.169.078.222.222,0,0,0,.062-.009A3.023,3.023,0,0,1,11,6a.915.915,0,0,1,.715.259,1.21,1.21,0,0,1,.2.961,5.393,5.393,0,0,1-1,2.09c-.647.993-1.023,1.381-1.34,1.381-.349,0-.694-.733-1-2.12-.12-.459-.355-1.7-.57-3.18S7.182,3.169,6.207,3.169c-.067,0-.136,0-.206.011A4.627,4.627,0,0,0,3.93,4.42c-.511.5-1.035.928-1.589,1.378L2.08,6.01a.34.34,0,0,0,0,.48l.25.32a.339.339,0,0,0,.47.069,3.145,3.145,0,0,1,.84-.47Z"/>
</svg>
