<svg id="vimeo" xmlns="http://www.w3.org/2000/svg" width="19" height="16.002" viewBox="0 0 19 16.002">
  <path id="Icon_color" data-name="Icon color" d="M15.1,11.092Q11.188,16,8.473,16C7.352,16,6.4,15,5.629,13L4.077,7.532c-.571-2-1.182-3-1.853-3a4.208,4.208,0,0,0-1.142.63.471.471,0,0,1-.631-.1l-.341-.42A.45.45,0,0,1,.161,4C1,3.312,1.823,2.6,2.625,1.9A6.332,6.332,0,0,1,5.479.242Q7.7,0,8.233,3.192c.371,2.27.631,3.68.781,4.24q.631,2.82,1.412,2.82c.411,0,1-.61,1.823-1.84a7.2,7.2,0,0,0,1.292-2.78c.11-1.05-.331-1.63-1.292-1.63a3.741,3.741,0,0,0-.8.1.3.3,0,0,1-.331-.1.33.33,0,0,1-.1-.3c1-2.54,2.724-3.76,5.188-3.7,2,.06,2.9,1.3,2.784,3.71C18.939,5.512,17.627,8,15.1,11.092Z"/>
</svg>
