<svg id="vkontakte" xmlns="http://www.w3.org/2000/svg" width="20" height="12" viewBox="0 0 20 12">
  <path id="Icon_color" data-name="Icon color" d="M19.983,11.43a.451.451,0,0,1-.07.39.439.439,0,0,1-.349.18H16.572a1,1,0,0,1-.888-.54,8.926,8.926,0,0,0-1.5-2.129A1.046,1.046,0,0,0,13.4,9H13a.937.937,0,0,0-.708.29A1,1,0,0,0,12,10v1a1,1,0,0,1-1,1H9.949C4.752,12,.454,2.844.035,1.615A.44.44,0,0,1,.474,1H3.466a1,1,0,0,1,.888.55A27.915,27.915,0,0,0,6.667,5.193a.748.748,0,0,0,1.346-.45V2.474a1.509,1.509,0,0,0-.858-1.329.26.26,0,0,1-.06-.4A3.088,3.088,0,0,1,9.291.005h1.217A1.5,1.5,0,0,1,12,1.5V4a1.007,1.007,0,0,0,1.825.58,22.748,22.748,0,0,0,1.835-3,1,1,0,0,1,.9-.55h2.992a.41.41,0,0,1,.389.53h0A21.387,21.387,0,0,1,17.5,6.273a.751.751,0,0,0,.06.9,13.761,13.761,0,0,1,2.424,4.188Z"/>
</svg>
