<svg id="voice_chat" xmlns="http://www.w3.org/2000/svg" width="20" height="20" viewBox="0 0 20 20">
  <path id="Icon_color" data-name="Icon color" d="M.5,20a.5.5,0,0,1-.5-.5V4A4,4,0,0,1,4,0H16a4,4,0,0,1,4,4v8a4,4,0,0,1-4,4H5.943a2.984,2.984,0,0,0-2.093.85l-3,3A.492.492,0,0,1,.5,20Zm4-17A1.5,1.5,0,0,0,3,4.5v7A1.5,1.5,0,0,0,4.5,13h7A1.5,1.5,0,0,0,13,11.5V9l2.711,2.71a.993.993,0,0,0,.7.29h.09a.5.5,0,0,0,.5-.5v-7a.5.5,0,0,0-.5-.5h-.09a1,1,0,0,0-.7.291L13,7V4.5A1.5,1.5,0,0,0,11.5,3Z" transform="translate(0 0)"/>
</svg>
