<?xml version="1.0" encoding="UTF-8"?>
<svg width="22px" height="20px" viewBox="0 0 22 20" version="1.1" xmlns="http://www.w3.org/2000/svg" xmlns:xlink="http://www.w3.org/1999/xlink">
    <!-- Generator: Sketch 63.1 (92452) - https://sketch.com -->
    <title>weather-snowy-rainy</title>
    <desc>Created with Sketch.</desc>
    <g id="🔸-Atoms---Icons" stroke="none" stroke-width="1" fill="none" fill-rule="evenodd">
        <g id="1---Atom/⚒/Icon/Line/Snow&amp;Ice" transform="translate(-1.000000, -2.000000)" fill="#000000" fill-rule="nonzero">
            <g id="Snow&amp;Ice" transform="translate(1.000000, 2.000000)">
                <path d="M17.4626699,17.5193195 L2.993869,16.1424032 C2.8514347,15.5678911 3.17713989,14.9802917 3.72216619,14.8284944 L5.98718691,14.1874363 L4.32093954,12.4642677 C3.91856056,12.0404654 3.91856057,11.353346 4.32093955,10.9295436 C4.72331853,10.5057413 5.37570376,10.5057413 5.77808274,10.9295436 L7.43445118,12.6636952 L8.02334559,10.2988905 C8.08885885,10.0207799 8.25836029,9.78238808 8.49330931,9.63791956 C8.72825832,9.49345105 9.00868818,9.4551833 9.2708358,9.53181748 C9.53661859,9.59991383 9.7636982,9.78102787 9.89798381,10.0320179 C10.0322694,10.2830079 10.0617398,10.5814053 9.97937511,10.8561312 L9.40035964,13.2209359 L11.6456225,12.6110926 C11.9064609,12.5243426 12.1897742,12.5553821 12.4280766,12.6968173 C12.6663789,12.8382525 12.8383376,13.0774222 12.9029916,13.3573558 C12.9757519,13.6334606 12.9394186,13.9288211 12.802253,14.1762792 C12.6650875,14.4237373 12.4387464,14.6022633 12.1746944,14.6712646 L9.9294316,15.2915128 L11.5759211,17.0360693 C11.9751084,17.4612585 11.9751084,18.1456041 11.5759211,18.5707934 C11.1761629,18.9909044 10.5289639,18.9909044 10.1292057,18.5707934 L8.48271616,16.815832 L7.87406387,19.2014465 C7.77955427,19.5731781 7.50393232,19.8635675 7.15102215,19.9632279 C6.79811197,20.0628883 6.42152902,19.9566788 6.16312845,19.6846076 C5.90472788,19.4125363 5.80376687,19.0159374 5.89827648,18.6442058 L6.48717089,16.2898061 L4.25068932,16.9100543 C3.98731338,16.9857481 3.70612789,16.9472376 3.4698903,16.8031181 C3.2336527,16.6589985 3.06202774,16.4212665 2.99332017,16.1429812 M15.7247992,13.1679943 C15.7247992,13.1679943 17.4310491,15.9168882 17.6757462,16.4771541 C17.8807854,16.8380442 17.9919396,17.2399421 18,17.649552 C17.9938848,18.6373974 17.3389248,19.5175066 16.3577009,19.8564081 C15.3764769,20.1953096 14.2758744,19.921548 13.597962,19.1699565 C12.9200496,18.418365 12.8077612,17.347412 13.3164012,16.4845635 C13.5532631,15.9767335 15.2510752,13.1679943 15.2510752,13.1679943 C15.3854778,12.9440019 15.5982317,12.9440019 15.7247992,13.1679943 Z M12.0249581,0.0889768343 C14.9913569,0.59638746 17.2402231,3.18034486 17.4626699,6.33693228 L17.9615562,6.3051395 C19.3986866,6.28738985 20.7339203,7.08473878 21.4573944,8.3927163 C22.1808685,9.70069383 22.1808685,11.3173299 21.4573944,12.6253074 C20.7339203,13.933285 19.3986866,14.7306339 17.9615562,14.7128842 C17.6050864,14.7128843 17.2756946,14.5125847 17.0974597,14.1874363 C16.9192248,13.862288 16.9192248,13.4616888 17.0974597,13.1365405 C17.2756946,12.8113922 17.6050864,12.6110926 17.9615562,12.6110926 C19.063817,12.6110926 19.9573759,11.669959 19.9573759,10.5090119 C19.9573759,9.34806476 19.063817,8.40693118 17.9615562,8.40693118 L15.9660109,8.40693118 L15.9660109,7.35603534 C15.9542017,4.62579104 13.9611087,2.35891324 11.3774196,2.13712382 C8.79373047,1.91533439 6.47842228,3.81236977 6.04700936,6.50456693 C5.70816023,6.37386254 5.35027086,6.30637645 4.98941427,6.3051395 C3.76988824,6.30771036 2.67325458,7.08773813 2.21543507,8.2782513 C1.75761557,9.46876447 2.02977008,10.8327111 2.90386091,11.7284094 C3.26319522,12.1494019 3.24038944,12.7947949 2.85233778,13.1864905 C2.46428611,13.578186 1.85110239,13.5747546 1.46702441,13.1787382 C0.527139076,12.1938736 -0.000892767597,10.8547975 1.13311033e-06,9.45840506 C1.13311033e-06,6.55611709 2.23383811,4.20334783 4.98941427,4.20334783 C6.14888014,1.28314034 9.05855925,-0.418433791 12.0249581,0.0889768343 Z" id="weather-snowy-rainy"></path>
            </g>
        </g>
    </g>
</svg>