<svg id="Layer_1" data-name="Layer 1" xmlns="http://www.w3.org/2000/svg" viewBox="0 0 992.13 992.13"><defs><style>.cls-1{fill:#222221;}</style></defs><title>Bridgestone icons 2020_correct-dev-names</title><path class="cls-1" d="M494,732.89c-.43,78.15-64.67,141.47-142.79,141.47C272.63,873.9,209.32,810.12,209.78,732c0-25.16,4-38.19,18-69.15,13.46-30.54,110-199.41,110-199.41,7.65-13.46,19.76-13.46,26.94,0,0,0,97,165.28,110.93,198.94S494,707.3,494,732.89Z"/><path class="cls-1" d="M764.8,879.84C764.51,934,720,978,665.78,978c-54.52-.32-98.43-44.55-98.11-98.73,0-17.45,2.79-26.48,12.46-48,9.33-21.18,76.3-138.29,76.3-138.29,5.3-9.33,13.7-9.33,18.68,0,0,0,67.28,114.62,76.93,138S764.8,862.09,764.8,879.84Z"/><path class="cls-1" d="M14.17,408.45c0-121,98.07-219,219-219C277,86.46,377.78,14.18,496.06,14.18c150.27,0,273.37,116.53,284.76,264.16l21.9-1.31a175.23,175.23,0,0,1,0,350.46,43.81,43.81,0,0,1,0-87.62,87.62,87.62,0,1,0,0-175.23H715.1V320.83c0-121-98.06-219-219-219-109.52,0-199.32,79.73-216.41,183.56A136.25,136.25,0,0,0,233.21,277a131.67,131.67,0,0,0-91.56,226.05,43.66,43.66,0,0,1-1.31,60.45c-16.65,17.09-45.12,17.09-61.77,0a218.54,218.54,0,0,1-64.4-155.08"/></svg>