<svg id="whatsapp" xmlns="http://www.w3.org/2000/svg" width="20.001" height="20" viewBox="0 0 20.001 20">
  <path id="Icon_color" data-name="Icon color" d="M10.012,20h0a9.949,9.949,0,0,1-5.541-1.68l-2.847.92a.51.51,0,0,1-.509-.13A.492.492,0,0,1,1,18.6l.9-2.74A10,10,0,0,1,9.985,0h.028a10,10,0,0,1,0,20ZM6.09,4.58a1.492,1.492,0,0,0-.97.36,3.216,3.216,0,0,0-1,2.44,5.676,5.676,0,0,0,1.188,3,12.421,12.421,0,0,0,4.994,4.4,8.45,8.45,0,0,0,2.923.817,2.615,2.615,0,0,0,.573-.066,2.794,2.794,0,0,0,2-1.41,2.5,2.5,0,0,0,.07-1.37c-.064-.111-.233-.189-.488-.307l-.071-.033c-.077-.036-.229-.11-.417-.2-.552-.269-1.38-.672-1.58-.739a.56.56,0,0,0-.719.211,10.1,10.1,0,0,1-.779,1,.618.618,0,0,1-.7.11,7.29,7.29,0,0,1-2.347-1.45,8.928,8.928,0,0,1-1.618-2,.472.472,0,0,1,.12-.63c.076-.1.155-.181.232-.262s.133-.14.2-.218a1.814,1.814,0,0,0,.33-.46.569.569,0,0,0-.05-.54c-.071-.163-.689-1.669-.888-2.16s-.347-.49-.64-.49H6.09Z" transform="translate(0 0)"/>
</svg>
