<svg id="youtube_outlined" xmlns="http://www.w3.org/2000/svg" width="22.001" height="16" viewBox="0 0 22.001 16">
  <path id="Icon_color" data-name="Icon color" d="M11.027,16H11a63.209,63.209,0,0,1-6.54-.34L3,15.51A3.369,3.369,0,0,1,0,12.1V3.9A3.37,3.37,0,0,1,3,.49L4.4.34a63.611,63.611,0,0,1,13.14,0L19,.49A3.37,3.37,0,0,1,22,3.9v8.2a3.369,3.369,0,0,1-3,3.41l-1.43.15A63.27,63.27,0,0,1,11.027,16ZM11,2a61.772,61.772,0,0,0-6.36.33l-1.46.15A1.376,1.376,0,0,0,2,3.9v8.2a1.377,1.377,0,0,0,1.18,1.42l1.46.15A61.651,61.651,0,0,0,11,14a61.616,61.616,0,0,0,6.359-.33l1.461-.15A1.377,1.377,0,0,0,20,12.1V3.9a1.376,1.376,0,0,0-1.18-1.419L17.36,2.33A61.763,61.763,0,0,0,11,2ZM9.75,11.349A.75.75,0,0,1,9,10.6V5.4a.75.75,0,0,1,1.17-.62l3.891,2.6a.741.741,0,0,1,0,1.24l-3.891,2.6A.748.748,0,0,1,9.75,11.349Z" transform="translate(0)"/>
</svg>
