<svg xmlns="http://www.w3.org/2000/svg" width="20.241" height="18" viewBox="0 0 20.241 18">
  <g id="youtube_search" transform="translate(-1.757 -3)">
    <path id="Icon_color" data-name="Icon color" d="M20.093,17.152l-.7.7a.5.5,0,0,1-.71,0l-4-4a2.6,2.6,0,0,1-.3-.36l-.75-1A7,7,0,0,1,9.243,14a6.912,6.912,0,0,1-3-.69.49.49,0,0,1-.3-.31.51.51,0,0,1,.14-.44l.76-.76a.51.51,0,0,1,.54-.11,5,5,0,1,0-3.14-4.688h1.75a.5.5,0,0,1,.35.85L3.6,10.6a.51.51,0,0,1-.71,0L.143,7.855a.5.5,0,0,1,.36-.85h1.74a7,7,0,1,1,12.43,4.409h0l1,.69a2.44,2.44,0,0,1,.43.35l4,4A.5.5,0,0,1,20.093,17.152Z" transform="translate(1.757 3)"/>
  </g>
</svg>
