<svg xmlns="http://www.w3.org/2000/svg" class="ionicon" viewBox="0 0 20.998 20"><path data-name="Icon color" d="M18.967 20a.479.479 0 01-.349-.151l-1.91-1.895a9.036 9.036 0 01-5.707 2.038 8.986 8.986 0 01-6.938-14.71L2.884 4.1l-.82.818a.235.235 0 01-.167.069h-.013a.278.278 0 01-.19-.079A2.993 2.993 0 011.001 3a3.025 3.025 0 01.08-.679l-.94-.937a.506.506 0 010-.708L.674.147a.512.512 0 01.71 0l18.463 18.476a.478.478 0 010 .7l-.53.528a.484.484 0 01-.35.149zM5.473 6.7a6.981 6.981 0 005.528 11.254 7.039 7.039 0 004.288-1.465zm13.464 8.5l-1.5-1.495a6.828 6.828 0 00.564-2.729 7 7 0 00-9.73-6.432l-1.5-1.486A8.913 8.913 0 0110.973 2h.028a9 9 0 019 8.974 8.852 8.852 0 01-1.059 4.216zM20.117 5h-.01a.239.239 0 01-.17-.07l-3.879-3.865a.24.24 0 01-.069-.18.277.277 0 01.089-.185 3.016 3.016 0 011.916-.693h.007a2.991 2.991 0 012.3 4.906.287.287 0 01-.184.087zM5.362 1.642L3.743.007A1.115 1.115 0 013.874 0c.037 0 .078 0 .127.007A3.009 3.009 0 015.912.7a.274.274 0 01.089.185.245.245 0 01-.059.18l-.58.577z"/></svg>