<svg xmlns="http://www.w3.org/2000/svg" class="ionicon" viewBox="0 0 18 20.004"><path data-name="Icon color" d="M10.3 18.24a6.06 6.06 0 01-8.548 0 6 6 0 010-8.48l8.5-8.44a4.557 4.557 0 016.416 0 4.467 4.467 0 010 6.36l-7.8 7.74A3.014 3.014 0 114.6 11.17l4.945-4.9a.5.5 0 01.711 0l.541.53a.5.5 0 010 .71l-4.947 4.9a1.261 1.261 0 001.782 1.77l7.8-7.73a2.738 2.738 0 000-3.89 2.784 2.784 0 00-3.924 0L2.987 11a4.247 4.247 0 000 6 4.327 4.327 0 006.056 0l5.657-5.61a.511.511 0 01.721 0l.53.53a.48.48 0 010 .7z"/></svg>