<?xml version="1.0" encoding="UTF-8"?>
<svg viewBox="0 0 46 41" version="1.1" xmlns="http://www.w3.org/2000/svg" xmlns:xlink="http://www.w3.org/1999/xlink">
    <g id="Blizzak" stroke="none" stroke-width="1" fill="none" fill-rule="evenodd">
        <g id="XL_1280x800_Blizzak-Family--without-Find-A-Dealer" transform="translate(-829.000000, -631.000000)">
            <g id="Group-5" transform="translate(829.000000, 631.000000)">
                <path d="M23.5,40 C32.6123568,40 40,32.611738 40,23.4996013 C40,14.3874647 32.6123568,7 23.5,7 C14.3868458,7 7,14.3874647 7,23.4996013 C7,32.611738 14.3868458,40 23.5,40" id="Fill-13" fill="#FFFFFE"></path>
                <path d="M23.5,40 C32.6123568,40 40,32.611738 40,23.4996013 C40,14.3874647 32.6123568,7 23.5,7 C14.3868458,7 7,14.3874647 7,23.4996013 C7,32.611738 14.3868458,40 23.5,40 Z" id="Stroke-14" stroke="#D8232A" stroke-width="1.5"></path>
                <polygon id="Fill-18" fill="#D8232A" points="17 17 29 17 29 0 17 0"></polygon>
                <path d="M26.0826448,2.26274697 L26.3932222,2.26274697 L26.2619708,3.37173359 L25.9521565,3.37173359 L25.3294754,8.66889739 L24.2039182,8.66889739 L24.8273624,3.37173359 L24.5175481,3.37173359 L24.6480364,2.26274697 L24.9578507,2.26274697 L25.1058901,1 L26.2314472,1 L26.0826448,2.26274697 Z M23.7216456,8.24984066 C23.6941744,8.48087954 23.4927188,8.66889739 23.2714228,8.66889739 L21.637648,8.66889739 C21.416352,8.66889739 21.2591556,8.48087954 21.2866268,8.24984066 L21.9901954,2.26274697 L22.9906058,2.26274697 L22.3679247,7.55911409 L22.8234892,7.55911409 L23.4461703,2.26274697 L24.4259773,2.26274697 L23.7216456,8.24984066 Z M28.6450996,2.26274697 C28.8671586,2.26274697 29.0243551,2.44996813 28.9968839,2.6818037 L28.342153,8.24984066 C28.3146818,8.48087954 28.1132261,8.66889739 27.8919301,8.66889739 L26.238315,8.66889739 C26.016256,8.66889739 25.8590595,8.48087954 25.8865307,8.24984066 L26.5404985,2.6818037 C26.5679697,2.44996813 26.7701885,2.26274697 26.9914845,2.26274697 L28.6450996,2.26274697 Z M27.4439966,7.55911409 L27.9361893,3.37173359 L27.4806249,3.37173359 L26.9884321,7.55911409 L27.4439966,7.55911409 Z M26.9502776,14.737253 L27.3516627,14.737253 L27.3516627,11.9424793 L26.9502776,11.9424793 L26.9502776,14.737253 Z M25.6888905,15.5809433 L25.6888905,11.098789 C25.6888905,10.8669535 25.8682166,10.6797323 26.0895126,10.6797323 L27.3516627,10.6797323 L27.3516627,9.18514978 L28.5611597,9.18514978 L28.5611597,16 L26.0895126,16 C25.8682166,16 25.6888905,15.8119822 25.6888905,15.5809433 Z M23.9810961,16 L25.18983,16 L25.18983,9.18514978 L23.9810961,9.18514978 L23.9810961,16 Z M20.121389,9.18514978 L21.3751452,9.18514978 C21.5964412,9.18514978 21.7765303,9.37237094 21.7765303,9.6042065 L21.7765303,12.1735182 C21.7765303,12.4053537 21.5964412,12.5925749 21.3751452,12.5925749 C21.5964412,12.5925749 21.7765303,12.779796 21.7765303,13.0116316 L21.7765303,15.5809433 C21.7765303,15.8119822 21.5964412,16 21.3751452,16 L18.9126551,16 L18.9126551,9.18514978 L20.121389,9.18514978 Z M20.121389,11.9615997 L20.5670333,11.9615997 L20.5670333,10.4184194 L20.121389,10.4184194 L20.121389,11.9615997 Z M20.121389,14.7667304 L20.5670333,14.7667304 L20.5670333,13.22355 L20.121389,13.22355 L20.121389,14.7667304 Z M22.2740647,15.9992033 L23.4835617,15.9992033 L23.4835617,10.6964627 L22.2740647,10.6964627 L22.2740647,15.9992033 Z M22.2740647,10.4471001 L23.4835617,10.4471001 L23.4835617,9.18514978 L22.2740647,9.18514978 L22.2740647,10.4471001 Z M20.5861106,2.26195029 L19.7955498,4.80178458 L20.283164,4.80178458 L20.5861106,2.26195029 Z M19.4330822,6.06373486 L18.6867806,8.66889739 L18,8.66889739 L18,7.34002549 L19.8176794,1 L21.7208248,1 L20.8066435,8.66889739 L19.7604476,8.66889739 L20.070262,6.06373486 L19.4330822,6.06373486 L19.4330822,6.06373486 Z" id="Fill-20" fill="#FFFFFE"></path>
                <path d="M30.0791698,31.4422061 C30.0295135,31.5501662 29.901826,31.6862898 29.7047773,31.6862898 C29.4880238,31.6862898 29.3697946,31.5884999 29.3500898,31.3835322 C29.3303849,31.1879523 29.3303849,30.200665 29.3500898,30.0050851 C29.3697946,29.779777 29.5077287,29.6624291 29.6945308,29.6624291 C29.9309892,29.6624291 30.0594649,29.8095052 30.0689232,30.0927049 C30.0791698,30.6598866 30.0791698,31.0995502 30.0791698,31.4422061 Z M31.8226562,34.3860747 C31.9605903,33.8087229 32,32.7040876 32,31.941326 C32,31.1973401 31.9211805,29.6624291 31.6650173,29.0365734 C31.3796909,28.3520438 30.6900206,28 29.7047773,28 C28.5618952,28 27.8422735,28.5186779 27.5963568,29.2321533 C27.4087665,29.8095052 27.3598984,31.657344 27.5569471,32.2245257 C27.763454,32.8503814 28.2954854,33.1343634 29.0348119,33.1343634 C29.4486141,33.1343634 29.8033017,33.0553491 30.0594649,32.8409935 C30.0594649,32.9677293 30.0492184,33.6624291 30.0492184,34.0144729 C30.03976,34.2781146 29.9112843,34.4244084 29.6945308,34.4244084 C29.4880238,34.4244084 29.3697946,34.3266184 29.3500898,34.0629767 C29.3398432,33.9065128 29.3398432,33.632701 29.3398432,33.5255232 L27.5269957,33.5255232 C27.5269957,33.7015451 27.5467005,34.2194406 27.5861103,34.4635243 C27.7539957,35.4617641 28.4531243,36 29.6456627,36 C30.975347,36 31.6256076,35.334246 31.8226562,34.3860747 Z M26.9263914,35.9022101 L26.9263914,28.0884021 L25.4091168,28.0884021 C25.3405439,28.2636417 25.0646757,28.9192255 23.9020887,28.9481713 L23.9020887,30.5128105 L25.0150195,30.4940348 L25.0150195,35.9022101 L26.9263914,35.9022101 Z M21.6360293,31.9796597 C21.6360293,32.4983376 21.6360293,33.6624291 21.6257827,33.9260708 C21.6163244,34.2679445 21.5075535,34.4056327 21.2710952,34.4056327 C21.0346368,34.4056327 20.9266541,34.2679445 20.9164076,33.9260708 C20.8967027,33.6420888 20.8872444,32.8801095 20.8872444,32.0093878 C20.8872444,31.5697242 20.9069492,30.4838647 20.9069492,30.181107 C20.9164076,29.8486212 21.0149319,29.6819871 21.2710952,29.6819871 C21.5178001,29.6819871 21.6163244,29.818893 21.6257827,30.1709368 C21.6257827,30.4643067 21.6360293,31.3053002 21.6360293,31.9796597 Z M21.2710952,28.0101702 C19.7049525,28.0101702 19.2123309,28.8018776 19.0546919,29.6530413 C18.9561676,30.1709368 18.9364628,31.0706043 18.9364628,31.9898298 C18.9364628,32.5765695 18.9853308,33.7109329 19.0838551,34.2483865 C19.2517406,35.2755721 19.8822963,35.9890475 21.2710952,35.9890475 C22.6307308,35.9890475 23.2912379,35.2755721 23.4583352,34.2483865 C23.5568595,33.6718169 23.6159741,32.5663994 23.6159741,31.9898298 C23.6159741,31.0901623 23.5868109,30.2100528 23.4882866,29.6428711 C23.3204011,28.8018776 22.6803871,28.0101702 21.2710952,28.0101702 Z M18.5620703,35.9022101 L18.5620703,34.1701545 L16.3551255,34.1701545 C16.7689276,33.534911 18.4438411,32.1462938 18.5715287,30.6106004 C18.5817752,30.4447487 18.5912335,29.818893 18.5817752,29.6921572 C18.5124141,28.7525914 17.9512195,28.0101702 16.3551255,28.0101702 C14.8078995,28.0101702 14.0394097,28.8996675 14.0102465,29.7304909 C14,29.897125 14,30.7381185 14,30.8945824 L15.9113719,30.8945824 C15.9113719,30.7678467 15.9113719,30.1122629 15.9113719,30.0340309 C15.9216184,29.779777 16.049306,29.6624291 16.2171914,29.6624291 C16.4039935,29.6624291 16.5222227,29.7508312 16.5324692,30.083317 C16.5324692,30.1709368 16.5324692,30.3375709 16.5324692,30.4549188 C16.5025178,31.9702719 14.4926216,33.3784471 14,34.2882848 L14,35.9022101 L18.5620703,35.9022101 L18.5620703,35.9022101 Z" id="Fill-21" fill="#343534"></path>
                <path d="M46,25.9049739 L46,19.0685435 L44.2394118,19.0685435 L44.2394118,21.7417381 L43.4588554,21.7417381 L43.4588554,19.0685435 L41.70694,19.0685435 L41.70694,25.9049739 L43.4588554,25.9049739 L43.4588554,23.2411261 L44.2394118,23.2411261 L44.2394118,25.9049739 L46,25.9049739 Z M41.2993161,23.2668299 L39.5994378,23.2668299 C39.5994378,23.3867809 39.5820921,23.7972627 39.5474007,24.1150551 C39.5127093,24.3549572 39.3826166,24.4406365 39.1831411,24.4406365 C38.9923384,24.4406365 38.8535728,24.372093 38.7928629,24.123623 C38.7494987,23.9429175 38.7061344,23.2239902 38.7061344,22.4357405 C38.7061344,21.9465895 38.7148073,21.3904529 38.78419,20.9449204 C38.8188814,20.7385112 38.9489742,20.5936353 39.1744682,20.5936353 C39.3912894,20.5936353 39.5127093,20.7221542 39.5474007,20.9277846 C39.5734193,21.1419829 39.5820921,21.4847001 39.590765,21.7760098 L41.2906433,21.7760098 C41.2906433,21.509625 41.2819704,20.9277846 41.247279,20.6536108 C41.1432048,19.5904084 40.4753955,19.007789 39.2091596,19.007789 C38.0730165,19.007789 37.2317502,19.505508 37.0582932,20.387226 C36.9282005,21.0305998 36.8761634,21.509625 36.8761634,22.4700122 C36.8761634,23.4638923 36.9368733,24.3121175 37.127676,24.8339824 C37.3618429,25.50306 37.9515966,25.9828641 39.1484497,25.9828641 C40.4753955,25.9828641 41.1432048,25.3916769 41.2559519,24.4741293 C41.307989,24.0293758 41.2993161,23.4716813 41.2993161,23.2668299 Z M34.6472413,25.9049739 L36.4606551,25.9049739 L36.4606551,19.0677645 L34.6472413,19.0677645 L34.6472413,25.9049739 Z M34.3003274,25.9049739 L34.3003274,24.3378213 L32.3402636,24.3378213 L32.3402636,19.0685435 L30.5363111,19.0685435 L30.5363111,25.9049739 L34.3003274,25.9049739 Z M28.368099,24.2949816 C28.3420805,24.4741293 28.2033149,24.6034272 28.0211851,24.6034272 L27.5962155,24.6034272 L27.5962155,20.4822521 L27.9864937,20.4822521 C28.2119877,20.4822521 28.3334076,20.627907 28.3594262,20.8070546 C28.4201361,21.2276622 28.4374818,22.0579726 28.4374818,22.3321464 C28.4374818,23.5581395 28.4288089,23.8494492 28.368099,24.2949816 Z M29.7210634,25.2709469 C30.0766502,24.7919217 30.1200144,24.1064871 30.1200144,22.3414933 C30.1200144,20.8413264 30.0159402,20.0110159 29.7210634,19.6511628 C29.3914951,19.2476911 28.8797971,19.0685435 28.0558765,19.0685435 L25.8529729,19.0685435 L25.8529729,25.9049739 L28.255352,25.9049739 C29.0185626,25.9049739 29.4348594,25.6829865 29.7210634,25.2709469 Z M25.5147318,25.9049739 L25.5147318,24.3378213 L23.5546681,24.3378213 L23.5546681,19.0685435 L21.7507156,19.0685435 L21.7507156,25.9049739 L25.5147318,25.9049739 Z M19.4177193,25.9049739 L21.2303447,25.9049739 L21.2303447,19.0677645 L19.4177193,19.0677645 L19.4177193,25.9049739 Z M17.0500317,24.3549572 C17.0153403,24.508401 16.9286118,24.5605875 16.7811734,24.5605875 L16.2087654,24.5605875 L16.2087654,23.1289641 L16.7898463,23.1289641 C16.9112661,23.1289641 17.0153403,23.1725826 17.0500317,23.3182375 C17.0847231,23.4296206 17.093396,23.634472 17.093396,23.8323133 C17.093396,24.003672 17.0847231,24.2435741 17.0500317,24.3549572 Z M17.032686,21.124847 C17.032686,21.3990208 17.0153403,21.5696005 16.9893218,21.6731946 C16.9633032,21.8274174 16.8332105,21.870257 16.746482,21.870257 L16.2087654,21.870257 L16.2087654,20.4308446 L16.7031178,20.4308446 C16.8418833,20.4308446 16.9459575,20.4822521 16.9806489,20.5936353 C17.0153403,20.6956715 17.032686,20.9013019 17.032686,21.124847 Z M18.6631815,25.3994659 C18.9060213,25.1252921 18.9927498,24.6119951 18.9927498,24.0293758 C18.9927498,23.5581395 18.9493855,23.0946923 18.7325643,22.8298654 C18.5677802,22.5899633 18.290249,22.4100367 17.891298,22.3664182 C18.2468848,22.3243574 18.4723789,22.1701346 18.6111444,21.9388005 C18.81062,21.6646267 18.8713299,21.1840436 18.8713299,20.6878825 C18.8713299,20.2072994 18.7672557,19.8046067 18.5677802,19.5740514 C18.3336133,19.2656059 17.8999709,19.0685435 17.206143,19.0685435 L14.4655229,19.0685435 L14.4655229,25.9049739 L17.2148158,25.9049739 C17.9693536,25.9049739 18.4116689,25.7172583 18.6631815,25.3994659 Z M12.1845637,21.3047736 C12.1845637,21.4504284 12.1411995,21.6552798 12.1065081,21.7417381 C12.0718167,21.8445532 11.9243782,21.9045288 11.8029584,21.9045288 C11.8029584,21.9045288 11.3693159,21.9123178 11.3519702,21.9123178 C11.3519702,21.8095026 11.3519702,20.6022032 11.3519702,20.6022032 L11.7769398,20.6022032 C11.9417239,20.6022032 12.0718167,20.7128074 12.1238538,20.8506732 C12.1498723,20.9192166 12.1845637,21.132636 12.1845637,21.3047736 Z M13.9451519,21.132636 C13.9451519,20.4651163 13.8063864,19.9596083 13.5635466,19.6340269 C13.3033612,19.2656059 12.8350273,19.0685435 12.2366008,19.0685435 L9.61740055,19.0685435 L9.61740055,25.9049739 L11.3259517,25.9049739 L11.3259517,23.3011016 L11.6815385,23.3011016 L12.3233293,25.9049739 L14.1359546,25.9049739 L13.2599969,22.8719261 C13.4421267,22.7955936 13.6155837,22.6234561 13.7543493,22.3157895 C13.8670963,22.0501836 13.9451519,21.6817625 13.9451519,21.132636 Z M6.9635089,24.5177479 C6.72066915,24.5177479 6.60792212,24.3549572 6.57323072,24.1578947 C6.52119363,23.8408813 6.48650224,23.3260265 6.48650224,22.4949371 C6.48650224,22.0330477 6.51252078,21.124847 6.55588502,20.8935129 C6.60792212,20.6364749 6.6946506,20.4986091 6.9635089,20.4986091 C7.22369436,20.4986091 7.31909569,20.627907 7.37113278,20.8849449 C7.42316987,21.132636 7.43184272,22.0408368 7.43184272,22.4949371 C7.43184272,23.3088906 7.40582418,23.7801268 7.34511424,24.1493268 C7.31042284,24.3378213 7.18900297,24.5177479 6.9635089,24.5177479 Z M6.94616321,19 C5.5151432,19 5.00344514,19.6760877 4.80396963,20.5764994 C4.72591399,20.9527095 4.69989545,21.501836 4.69989545,22.4700122 C4.69989545,23.3182375 4.69989545,24.0293758 4.83866102,24.5691554 C5.07282793,25.5287638 5.67125448,26 6.94616321,26 C8.15168915,26 8.77613424,25.6136642 9.04499254,24.5862913 C9.18375812,24.0465116 9.20977667,23.3353733 9.20977667,22.4100367 C9.20977667,21.3296985 9.15773957,20.7735618 9.09702964,20.4736842 C8.93224551,19.6075442 8.25576333,19 6.94616321,19 Z M4.67466534,19.0685435 L2.88805855,19.0685435 L2.34166909,23.6866585 L1.79527964,19.0685435 L0,19.0685435 L1.17083455,25.9049739 L3.39975661,25.9049739 L4.67466534,19.0685435 L4.67466534,19.0685435 Z" id="Fill-22" fill="#343534"></path>
            </g>
        </g>
    </g>
</svg>