<svg id="Layer_1" data-name="Layer 1" xmlns="http://www.w3.org/2000/svg" viewBox="0 0 992.13 992.13" class="ionicon"><defs/><path d="M637.8 741.54a283.21 283.21 0 01-70.86 29.06 28.35 28.35 0 01-35.43-27.46V667.9c0-23.4 11.6-43.52 31.89-55.22s43.5-11.73 63.78 0l65.2 37.6a28.35 28.35 0 016 44.42 280.91 280.91 0 01-60.58 46.84zm-344-46.84a28.36 28.36 0 016-44.42l65.2-37.6c20.26-11.73 43.52-11.73 63.78 0s31.88 31.82 31.88 55.22v75.24a28.36 28.36 0 01-35.44 27.46 285.63 285.63 0 01-131.42-75.9zm485.72-198.65A284 284 0 01769.26 572a28.38 28.38 0 01-41.5 17l-65.14-37.7c-20.28-11.69-31.92-31.8-31.92-55.25s11.6-43.5 31.92-55.22l65.14-37.62a28.37 28.37 0 0141.5 17 283.67 283.67 0 0110.26 75.84zm-283.47-63.78a63.79 63.79 0 1063.79 63.78 63.79 63.79 0 00-63.79-63.78zm0-361.4c-234.85 0-425.19 190.38-425.19 425.18S261.2 921.26 496.05 921.26s425.2-190.38 425.2-425.21S730.86 70.87 496.05 70.87zM822 496.05c0 180.05-145.95 326-326 326s-326-145.94-326-326 146-326 326-326 326 145.95 326 326zM698.36 297.43a28.33 28.33 0 01-6 44.4l-65.2 37.62c-20.28 11.72-43.52 11.72-63.78 0s-31.89-31.82-31.89-55.22v-75.24a28.35 28.35 0 0135.43-27.46 285.36 285.36 0 01131.42 75.9zm-344-46.84a282.77 282.77 0 0170.84-29.06A28.36 28.36 0 01460.61 249v75.24c0 23.4-11.6 43.5-31.88 55.22s-43.52 11.72-63.78 0l-65.19-37.62a28.34 28.34 0 01-6-44.4 281.53 281.53 0 0160.57-46.85zm-131.5 169.6a28.37 28.37 0 0141.5-17l65.17 37.62c20.3 11.72 31.92 31.84 31.92 55.22s-11.64 43.56-31.92 55.25l-65.17 37.62a28.38 28.38 0 01-41.5-17 285.72 285.72 0 010-151.76z" fill-rule="evenodd"/><path class="cls-2" d="M216.69 752.35h-.06a47.37 47.37 0 00-33.86 14.15l-15.66 15.81A47.74 47.74 0 00201 863.63a47.39 47.39 0 0033.73-14l15.75-15.73a47.81 47.81 0 00-33.82-81.58zM150.68 496.06a47.88 47.88 0 00-47.84-47.83H62a47.83 47.83 0 000 95.66h40.84a47.88 47.88 0 0047.84-47.83zM496 843a47.63 47.63 0 00-47.6 47.6v39.71a47.65 47.65 0 0095.29 0V890.6A47.7 47.7 0 00496 843zM820.52 754.17A47.41 47.41 0 00786.67 740h-.07a47.82 47.82 0 00-33.82 81.59l15.75 15.73a47.42 47.42 0 0033.73 14h.07A47.73 47.73 0 00836.18 770zM930.12 448.23h-40.83a47.83 47.83 0 100 95.66h40.83a47.83 47.83 0 100-95.66zM496 134.84c26.27 0 47.64-19.11 47.64-42.59V56.76c0-23.48-21.37-42.59-47.64-42.59s-47.6 19.11-47.6 42.59v35.49c0 23.48 21.37 42.59 47.6 42.59zM159.66 247.79a47.41 47.41 0 0033.86 14.15h.06a47.81 47.81 0 0033.82-81.58l-15.74-15.73a47.43 47.43 0 00-33.74-14h-.06A47.74 47.74 0 00144 232zM786.59 252.1h.06a47.44 47.44 0 0033.86-14.1l15.66-15.82a47.86 47.86 0 00-.09-67.26 47.39 47.39 0 00-33.76-14.06h-.07a47.41 47.41 0 00-33.73 14l-15.75 15.72a47.82 47.82 0 0033.82 81.59z"/></svg>