<svg xmlns="http://www.w3.org/2000/svg" class="ionicon" viewBox="0 0 22 16"><path d="M16.913 13.878h-.867a.868.868 0 01-.867-.868v-.867H4.77v.867a.868.868 0 01-.867.868h-.867a.868.868 0 01-.868-.868V6.557a3.53 3.53 0 01.13-.962l1.25-4.337C3.754.518 4.427.005 5.195 0h9.54a1.741 1.741 0 011.665 1.268l1.249 4.337c.086.31.129.63.128.952v6.453a.868.868 0 01-.865.868zm-2.602-6.94a.869.869 0 00-.868.867v.868c.001.479.39.867.868.867h.868a.868.868 0 00.867-.867v-.868a.868.868 0 00-.867-.867h-.868zm-9.54 0a.868.868 0 00-.868.867v.868c0 .479.388.867.867.867h.867c.48 0 .868-.388.868-.867v-.868a.869.869 0 00-.867-.867H4.77zm.442-5.42a.219.219 0 00-.209.156l-1.006 3.53h11.951l-.988-3.53a.216.216 0 00-.208-.156h-9.54z"/></svg>