<svg id="Layer_1" data-name="Layer 1" xmlns="http://www.w3.org/2000/svg" viewBox="0 0 992.13 992.13" class="ionicon"><defs/><path class="cls-1" d="M110.54 203.44v585.25h771V203.44zm771 682.78h-771c-53.14 0-96.37-43.75-96.37-97.53V203.44c0-53.78 43.23-97.53 96.37-97.53h771c53.14 0 96.37 43.75 96.37 97.53v585.25c.09 53.78-43.19 97.53-96.33 97.53z"/><path class="cls-1" d="M325.2 542.36h-42.12l21.74-64.55zm89 85.62l-88-241.91h-45.84L192.37 628h62.17l11.89-36h74.4L352 628zM716.33 459.12c0 9.51-5.09 19.7-21.4 19.7h-37v-39.41h37c16.31 0 21.4 10.19 21.4 19.71zm3.4 94.11c0 10.2-5.44 21.41-21.74 21.41H657.9v-42.47H698c16.29 0 21.73 10.83 21.73 21.06zm59.45 3.4c0-34-20-46.55-29.89-52.66 7.47-5.1 26.49-20.39 26.49-47.91 0-41.79-26.83-70-77.11-70H598.45V628h105.31c43.15 0 75.42-25.16 75.42-71.37zM496.06 725a10.63 10.63 0 01-10.62-10.62V279.81a10.62 10.62 0 1121.23 0v434.57A10.62 10.62 0 01496.06 725z"/></svg>