<svg id="Layer_1" data-name="Layer 1" xmlns="http://www.w3.org/2000/svg" viewBox="0 0 992.13 992.13" class="ionicon"><defs/><path d="M14.17 409.41c0-121 98.07-219.07 219-219.07C277 87.38 377.78 15.09 496.07 15.09c150.25 0 273.35 116.54 284.74 264.19l21.91-1.28a175.25 175.25 0 010 350.5 43.82 43.82 0 010-87.63 87.63 87.63 0 000-175.25H715.1v-43.84c0-121-98.06-219.06-219-219.06-109.52 0-199.33 79.73-216.42 183.57a136.21 136.21 0 00-46.47-8.29 131.68 131.68 0 00-91.56 226 43.68 43.68 0 01-1.31 60.47c-16.65 17.08-45.12 17.08-61.76 0a218.59 218.59 0 01-64.41-155.1"/><path class="cls-2" d="M584.75 629.86a12.09 12.09 0 00-12.23-11.94l-98.62 1.13 58.1-59.41a11.61 11.61 0 00-.2-16.92l-8.56-8.6a12.33 12.33 0 00-17.16.19l-83.39 85.33-38.91.45-.42-36 83.39-85.33a12.09 12.09 0 00-.2-16.92l-8.8-8.6a12.08 12.08 0 00-16.92.19l-58.06 59.41-1.18-102.24a11.34 11.34 0 00-11.49-11.23l-13.77.16a11.35 11.35 0 00-11 11.48l1.11 96.69-56.48-55a11.6 11.6 0 00-16.92.19l-8.6 8.56a12.34 12.34 0 00.2 17.17L347 578.93l.48 41.58-33.12.38L229 537.5a12.09 12.09 0 00-16.92.2l-8.6 8.8a12.09 12.09 0 00.2 16.92l59.41 58.06-102.24 1.18a11.36 11.36 0 00-11.17 10.16V633.96l.16 13.78v.13a.34.34 0 010 .1 11.36 11.36 0 0011.48 11l102.24-1.18-58.06 59.41a12.09 12.09 0 00.2 16.92l8.8 8.6a12.09 12.09 0 0016.92-.19l83.39-85.33 33.11-.38.48 41.57-80.54 82.21a12.33 12.33 0 00.19 17.16l8.8 8.36a11.61 11.61 0 0016.92-.2L349 749.69l1.11 96.68a11.36 11.36 0 0011.25 11.23l13.78-.15a11.35 11.35 0 0011.2-11.45l-1.18-102.24 59.42 58.06a12.07 12.07 0 0016.91-.2l8.61-8.8a12.09 12.09 0 00-.2-16.92l-85.33-83.38-.41-36 38.92-.45 85.32 83.39a12.33 12.33 0 0017.16-.2l8.37-8.8a11.61 11.61 0 00-.2-16.92l-59.41-58.06 98.62-1.13a12.08 12.08 0 0011.9-11.12v-1.21zM891.26 815.51a8.58 8.58 0 00-8.67-8.47l-70 .81 41.18-42.14a8.22 8.22 0 00-.14-12l-6.07-6.11a8.76 8.76 0 00-12.17.14l-59.09 60.52-27.6.32-.3-25.58 59.14-60.52a8.58 8.58 0 00-.13-12l-6.25-6.1a8.57 8.57 0 00-12 .14L748 746.69l-.83-72.51a8.08 8.08 0 00-8.15-8l-9.77.11a8.07 8.07 0 00-7.8 8.15l.79 68.58-40.05-39a8.22 8.22 0 00-12 .14l-6.11 6.07a8.75 8.75 0 00.14 12.17l58.44 56.94.34 29.49-23.49.27L639 750a8.58 8.58 0 00-12 .13l-6.1 6.25a8.57 8.57 0 00.14 12l42.14 41.18-72.52.83a8.05 8.05 0 00-7.91 7.21v.8l.12 9.77v.1a.2.2 0 000 .07 8 8 0 008.13 7.8l72.52-.84-41.18 42.14a8.57 8.57 0 00.14 12l6.24 6.1a8.58 8.58 0 0012-.13l59.15-60.52 23.48-.27.34 29.48-57.19 58.32a8.74 8.74 0 00.14 12.17l6.24 5.93a8.22 8.22 0 0012-.14L724 900.5l.79 68.57a8.07 8.07 0 008 8l9.77-.12a8 8 0 008-8.15l-.83-72.51 42.14 41.18a8.58 8.58 0 0012-.14l6.1-6.24a8.58 8.58 0 00-.14-12l-60.52-59.14-.31-25.58 27.6-.32 60.52 59.14a8.74 8.74 0 0012.17-.14l5.93-6.24a8.22 8.22 0 00-.14-12l-42.14-41.18 70-.8a8.57 8.57 0 008.44-7.89 6 6 0 000-.85z"/></svg>