<svg xmlns="http://www.w3.org/2000/svg" class="ionicon" viewBox="0 0 18.001 18.003"><path data-name="Icon color" d="M14.67 18H14a10.108 10.108 0 01-4.781-1.23l-.45-.25a17.947 17.947 0 01-7.33-7.33l-.25-.45A10.119 10.119 0 010 4v-.67a2.014 2.014 0 01.59-1.42L2.28.222A.748.748 0 012.813 0a.746.746 0 01.647.373l2.25 3.86a1 1 0 01-.159 1.21L3.66 7.332a.5.5 0 00-.09.59l.35.66a13.487 13.487 0 005.5 5.49l.66.36a.5.5 0 00.59-.09l1.89-1.89a.991.991 0 01.709-.295 1 1 0 01.5.135l3.86 2.25a.751.751 0 01.15 1.18l-1.69 1.69A2.017 2.017 0 0114.67 18zm2.839-10.018H16.5a.5.5 0 01-.5-.46A6 6 0 0010.48 2a.5.5 0 01-.48-.5v-1a.512.512 0 01.15-.37.528.528 0 01.35-.13h.051A8 8 0 0118 7.452a.532.532 0 01-.13.381.514.514 0 01-.361.149zm-4.013 0h-1.014a.49.49 0 01-.482-.4 1.991 1.991 0 00-1.6-1.57.488.488 0 01-.4-.49v-1a.5.5 0 01.17-.38h.02A.518.518 0 0110.546 4h.044a4.049 4.049 0 013.4 3.41.518.518 0 01-.12.4.494.494 0 01-.37.172z"/></svg>