<svg xmlns="http://www.w3.org/2000/svg" class="ionicon" viewBox="0 0 20 20"><path data-name="Icon color" d="M10 20a10 10 0 1110-10 10.011 10.011 0 01-10 10zm0-18a8 8 0 108 8 8.009 8.009 0 00-8-8zm2.21 11.242a.481.481 0 01-.35-.152L10 11.24l-1.86 1.85a.478.478 0 01-.7 0l-.53-.529a.479.479 0 010-.7L8.76 10 6.91 8.14a.478.478 0 010-.7l.53-.53a.478.478 0 01.7 0L10 8.76l1.86-1.85a.479.479 0 01.7 0l.529.53a.478.478 0 010 .7L11.24 10l1.849 1.86a.479.479 0 010 .7l-.529.529a.481.481 0 01-.35.153z"/></svg>