<svg xmlns="http://www.w3.org/2000/svg" class="ionicon" viewBox="0 0 10.003 15.925"><path data-name="Icon color" d="M1.207 15.926a.5.5 0 01-.356-.148l-.7-.71a.481.481 0 010-.7l4.13-4.15a.755.755 0 01.53-.22h.38a.763.763 0 01.53.22l4.13 4.15a.481.481 0 01.151.35.474.474 0 01-.151.35l-.71.71a.5.5 0 01-.7 0L5 12.328l-3.44 3.45a.5.5 0 01-.353.148zm3.984-10h-.38a.772.772 0 01-.53-.22L.151 1.578a.5.5 0 010-.71l.71-.71a.491.491 0 01.7 0L5 3.6 8.441.148a.5.5 0 01.71 0l.7.71a.5.5 0 010 .71l-4.13 4.14a.76.76 0 01-.53.22z"/></svg>