<svg xmlns="http://www.w3.org/2000/svg" class="ionicon" viewBox="0 0 20 18"><path data-name="Icon color" d="M10.19 18h-.38a.755.755 0 01-.53-.22l-1.49-1.49a1.008 1.008 0 00-.7-.29H2a2 2 0 01-2-2V2a2 2 0 012-2h16a2 2 0 012 2v12a2 2 0 01-2 2h-5.09a.993.993 0 00-.7.29l-1.49 1.49a.755.755 0 01-.53.22zM2 2v12h5.09a2.975 2.975 0 012.119.879l.79.79.79-.79A3.016 3.016 0 0112.91 14H18V2zm9.5 9h-7a.5.5 0 01-.5-.5v-1a.5.5 0 01.5-.5h7a.5.5 0 01.5.5v1a.5.5 0 01-.5.5zm4-4h-11a.5.5 0 01-.5-.5v-1a.5.5 0 01.5-.5h11a.5.5 0 01.5.5v1a.5.5 0 01-.5.5z"/></svg>