<svg xmlns="http://www.w3.org/2000/svg" class="ionicon" viewBox="0 0 20 18"><path data-name="Icon color" d="M10.19 18h-.38a.755.755 0 01-.53-.22l-1.49-1.49a1.008 1.008 0 00-.7-.29H2a2 2 0 01-2-2V2a2 2 0 012-2h16a2 2 0 012 2v12a2 2 0 01-2 2h-5.09a.993.993 0 00-.7.29l-1.49 1.49a.755.755 0 01-.53.22zM6.356 8H6.35a.522.522 0 00-.35.19l-2.89 3.67a.46.46 0 00-.111.3v.34a.5.5 0 00.5.5h13a.5.5 0 00.5-.5v-.34a.515.515 0 00-.1-.3L12.65 6.19a.51.51 0 00-.8 0L8.97 9.91a.5.5 0 01-.4.2.489.489 0 01-.38-.18L6.74 8.18A.5.5 0 006.356 8zM7.5 3A1.5 1.5 0 109 4.5 1.5 1.5 0 007.5 3z"/></svg>