<svg id="Layer_1" data-name="Layer 1" xmlns="http://www.w3.org/2000/svg" viewBox="0 0 992.13 992.13" class="ionicon"><defs/><path class="cls-1" d="M539.29 246.88V477.1L726.7 589.77l-38.55 65.54-229.18-137.59V246.88h80.32z"/><path class="cls-1" d="M950.21 495.57h-52.4a27.24 27.24 0 00-27.15 25.74c-5.44 95.27-41.61 172.51-108.51 239.69C616 907.25 379.28 907.25 233.1 761c-146.18-147.34-146.18-384 0-530.85 145.67-145.73 381.16-140.83 527.46 3.91l-90.37 91.24c-14.15 14.28-4.56 38.57 15.53 39.33l119.82 4.57 147.18 5.62a23.11 23.11 0 0023.95-24.18l-7-147.12-5.73-119.77c-1-20.08-25.34-29.44-39.48-15.16L838 155.86c-192.78-188.66-496-188.08-683.1-1C-33 342.82-31.42 648.33 156 836.29c188 188.5 493.18 188.5 681.13 0C923 750.44 969.69 627.3 977.35 525a27.27 27.27 0 00-27.14-29.43z"/></svg>