<svg data-name="Layer 1" xmlns="http://www.w3.org/2000/svg" viewBox="0 0 992.13 992.13" class="ionicon"><path d="M737 147.18c89.63 68.9 144.56 185.52 144.56 300.69 0 144.57-80.47 271.79-199.5 337.33h-372c-119-65.54-199.5-192.76-199.5-337.33 0-115.17 52.53-232.75 144.57-300.69V41.36a27.19 27.19 0 00-27.19-27.19h-42a27.18 27.18 0 00-27.18 27.19v62.44C69.59 191.51 14.17 313 14.17 447.87s55.42 256.37 144.57 344.07V978h96.38v-96.43h96.38V978h96.37v-96.43h96.38V978h96.38v-96.43H737V978h96.38V792C922.54 704.24 978 582.8 978 447.87S922.54 191.51 833.39 103.8V41.36a27.19 27.19 0 00-27.19-27.19h-42A27.18 27.18 0 00737 41.36zm-289.13 11.56h96.38v289.13h-96.38V158.74m0 385.51h96.38v96.38h-96.38v-96.38"/></svg>