<svg xmlns="http://www.w3.org/2000/svg" class="ionicon" viewBox="0 0 20 20"><path data-name="Icon color" d="M10 20a10 10 0 1110-10 10.011 10.011 0 01-10 10zm1.41-8.54a10.667 10.667 0 00-6.23 4.91v.01a7.927 7.927 0 007.72 1.08 29.863 29.863 0 00-1.49-6zm3.06-.46a11.958 11.958 0 00-1.58.121 32.829 32.829 0 011.42 5.61 8.037 8.037 0 003.54-5.18A10.739 10.739 0 0014.47 11zM2 9.62V10a7.985 7.985 0 002.06 5.34 12.215 12.215 0 016.82-5.279 25.984 25.984 0 00-.69-1.52A16.6 16.6 0 014 9.75a16.055 16.055 0 01-2-.13zm12.47-.14A12.211 12.211 0 0118 10a7.934 7.934 0 00-2-5.31 16.945 16.945 0 01-4.44 3.21c.272.57.53 1.156.79 1.79a12.5 12.5 0 012.12-.21zM6.62 2.76a7.96 7.96 0 00-4.39 5.38A17.547 17.547 0 004 8.25 15.3 15.3 0 009.51 7.2a32.334 32.334 0 00-2.89-4.44zM10 2a8.132 8.132 0 00-1.92.24 32.784 32.784 0 012.79 4.34 15.155 15.155 0 004-2.91A8.048 8.048 0 0010 2z"/></svg>