<svg xmlns="http://www.w3.org/2000/svg" class="ionicon" viewBox="0 0 18 18"><path data-name="Icon color" d="M13.5 18h-1a.5.5 0 01-.5-.5V13a1 1 0 011-1h4.5a.5.5 0 01.5.5v1a.5.5 0 01-.5.5H14v3.5a.5.5 0 01-.5.5zm-8 0h-1a.5.5 0 01-.5-.5V14H.5a.5.5 0 01-.5-.5v-1a.5.5 0 01.5-.5H5a1 1 0 011 1v4.5a.5.5 0 01-.5.5zm12-12H13a1 1 0 01-1-1V.5a.5.5 0 01.5-.5h1a.5.5 0 01.5.5V4h3.5a.5.5 0 01.5.5v1a.5.5 0 01-.5.5zM5 6H.5a.5.5 0 01-.5-.5v-1A.5.5 0 01.5 4H4V.5a.5.5 0 01.5-.5h1a.5.5 0 01.5.5V5a1 1 0 01-1 1z"/></svg>