<svg xmlns="http://www.w3.org/2000/svg" class="ionicon" viewBox="0 0 18 14"><path data-name="Icon color" d="M17.5 14h-13a.5.5 0 01-.5-.5v-1a.5.5 0 01.5-.5h13a.5.5 0 01.5.5v1a.5.5 0 01-.5.5zm-16 0h-1a.5.5 0 01-.5-.5v-1a.5.5 0 01.5-.5h1a.5.5 0 01.5.5v1a.5.5 0 01-.5.5zm16-6h-13a.5.5 0 01-.5-.5v-1a.5.5 0 01.5-.5h13a.5.5 0 01.5.5v1a.5.5 0 01-.5.5zm-16 0h-1a.5.5 0 01-.5-.5v-1A.5.5 0 01.5 6h1a.5.5 0 01.5.5v1a.5.5 0 01-.5.5zm16-6h-13a.5.5 0 01-.5-.5v-1a.5.5 0 01.5-.5h13a.5.5 0 01.5.5v1a.5.5 0 01-.5.5zm-16 0h-1a.5.5 0 01-.5-.5v-1A.5.5 0 01.5 0h1a.5.5 0 01.5.5v1a.5.5 0 01-.5.5z"/></svg>