<svg xmlns="http://www.w3.org/2000/svg" class="ionicon" viewBox="0 0 19.837 18.001"><path data-name="Icon color" d="M15.607 18H6.4a.5.5 0 01-.409-.264.5.5 0 01.009-.485L8.37 13a2.007 2.007 0 011.73-1h9.24a.5.5 0 01.43.75L17.34 17a2.007 2.007 0 01-1.733 1zm-12.442-.615a.513.513 0 01-.436-.244L.2 12.722a1.534 1.534 0 01-.2-.75v-.22A1.534 1.534 0 01.2 11l4.71-8.219a.49.49 0 01.86 0l2.46 4.27A1.987 1.987 0 018.23 9L3.6 17.141a.512.512 0 01-.435.244zM18.377 10h-4.9a2.006 2.006 0 01-1.73-1L7 .752A.5.5 0 017.431 0h4.939a2 2 0 011.73 1l4.71 8.249a.5.5 0 01-.433.751z"/></svg>