<svg data-name="Layer 1" xmlns="http://www.w3.org/2000/svg" viewBox="0 0 992.13 992.13" class="ionicon"><path d="M656.71 774.27a321.39 321.39 0 01-80.31 32.93 32.12 32.12 0 01-40.15-31.12v-85.27c0-26.52 13.15-49.33 36.13-62.59s49.3-13.28 72.29 0l73.89 42.62a32.12 32.12 0 016.83 50.34 318.3 318.3 0 01-68.68 53.09zm-389.93-53.09a32.14 32.14 0 016.85-50.34l73.87-42.62c23-13.28 49.32-13.28 72.29 0s36.13 36.07 36.13 62.59v85.27a32.15 32.15 0 01-40.17 31.12 323.61 323.61 0 01-149-86zm550.55-225.13a322.4 322.4 0 01-11.63 86 32.16 32.16 0 01-47 19.23l-73.83-42.64c-23-13.24-36.18-36-36.18-62.61s13.15-49.3 36.18-62.58l73.83-42.64a32.16 32.16 0 0147 19.24 322.05 322.05 0 0111.63 86zm-321.27-72.28a72.3 72.3 0 1072.29 72.28 72.29 72.29 0 00-72.29-72.28zm0-409.6c-266.16 0-481.89 215.77-481.89 481.88S229.9 978 496.06 978 978 762.19 978 496.05 762.18 14.17 496.06 14.17zM865.5 496.05c0 204.05-165.4 369.45-369.44 369.45S126.61 700.1 126.61 496.05 292 126.62 496.06 126.62 865.5 292 865.5 496.05zM725.35 270.94a32.12 32.12 0 01-6.83 50.33l-73.89 42.63c-23 13.29-49.33 13.29-72.29 0s-36.13-36.06-36.13-62.58v-85.27a32.12 32.12 0 0140.15-31.13 323.58 323.58 0 01149 86zm-389.91-53.08a320.31 320.31 0 0180.29-32.94 32.15 32.15 0 0140.17 31.13v85.27c0 26.52-13.15 49.3-36.13 62.58s-49.33 13.29-72.29 0l-73.87-42.63a32.14 32.14 0 01-6.85-50.33 319.19 319.19 0 0168.68-53.08zm-149 192.21a32.16 32.16 0 0147-19.24l73.85 42.64c23 13.28 36.18 36.08 36.18 62.58s-13.19 49.37-36.18 62.61l-73.81 42.64a32.16 32.16 0 01-47-19.23 323.79 323.79 0 010-172z" fill-rule="evenodd"/><path d="M886.4 976.4H105.06a34.58 34.58 0 010-69.16H886.4a34.58 34.58 0 110 69.16z"/></svg>