<svg xmlns="http://www.w3.org/2000/svg" class="ionicon" viewBox="0 0 17 20"><path data-name="Icon color" d="M8.494 20A.5.5 0 018 19.5v-2.51a8.5 8.5 0 119-8.49 11.683 11.683 0 01-2.355 7.382A12.7 12.7 0 018.66 19.97a.475.475 0 01-.166.03zM8.5 2a6.5 6.5 0 00-.383 12.993l1.413.083a.5.5 0 01.471.5v1.616a9.591 9.591 0 003.478-3.127A9.969 9.969 0 0015 8.5 6.508 6.508 0 008.5 2zm2 10.7a.493.493 0 01-.313-.113A.5.5 0 0110 12.2v-.513a.5.5 0 01.375-.484A1.5 1.5 0 0011.5 9.75H9.75a.5.5 0 01-.5-.5V6.5a.5.5 0 01.5-.5h2.75a.5.5 0 01.5.5v3.25a3.006 3.006 0 01-2.4 2.939.481.481 0 01-.1.011zm-5.25 0a.5.5 0 01-.5-.5v-.513a.5.5 0 01.374-.484A1.5 1.5 0 006.25 9.75H4.5a.5.5 0 01-.5-.5V6.5a.5.5 0 01.5-.5h2.75a.5.5 0 01.5.5v3.25a3.007 3.007 0 01-2.4 2.939.482.482 0 01-.102.011z"/></svg>