<svg xmlns="http://www.w3.org/2000/svg" class="ionicon" viewBox="0 0 17 20"><path data-name="Icon color" d="M8.494 20A.5.5 0 018 19.5v-2.51a8.5 8.5 0 119-8.49 11.683 11.683 0 01-2.355 7.382A12.7 12.7 0 018.66 19.97a.472.472 0 01-.166.03zM9.75 6a.5.5 0 00-.5.5v2.75a.5.5 0 00.5.5h1.75a1.5 1.5 0 01-1.125 1.45.5.5 0 00-.375.484v.516a.5.5 0 00.6.489A3.006 3.006 0 0013 9.75V6.5a.5.5 0 00-.5-.5zM4.5 6a.5.5 0 00-.5.5v2.75a.5.5 0 00.5.5h1.75a1.5 1.5 0 01-1.125 1.45.5.5 0 00-.374.484v.516a.5.5 0 00.5.5.482.482 0 00.1-.011A3.007 3.007 0 007.75 9.75V6.5a.5.5 0 00-.5-.5z"/></svg>