<svg id="Layer_1" data-name="Layer 1" xmlns="http://www.w3.org/2000/svg" viewBox="0 0 992.13 992.13" class="ionicon"><defs/><path class="cls-1" d="M223.23 832a385.46 385.46 0 01-87.09-410.82c76.42-198.7 299.44-297.83 498.15-221.41l101.23-58.3A490.61 490.61 0 00496 77.85a482 482 0 00-340.54 141C-32.81 407-32.95 712.12 155.18 900.41a49 49 0 0068.44-.47l.08-.08a48 48 0 00-.08-67.86zM913.78 318.81l-58.25 101.08a389 389 0 0126 139.76 383.1 383.1 0 01-112.76 272.4 48.22 48.22 0 0067.94 68.44A480.4 480.4 0 00978 559.78a494.06 494.06 0 00-64.22-240.97z"/><path class="cls-1" d="M423.7 434.06a144.77 144.77 0 10201.42 190.73l266.4-461.64z"/></svg>