<svg xmlns="http://www.w3.org/2000/svg" class="ionicon" viewBox="0 0 20.998 18"><path data-name="Icon color" d="M11.968 18a8.838 8.838 0 01-5.129-1.63.514.514 0 01-.211-.37.5.5 0 01.14-.391l.72-.73a.5.5 0 01.63-.059A6.885 6.885 0 0011.98 16H12a7 7 0 10-7-7h2.364a.49.49 0 01.353.15l.2.2a.5.5 0 010 .71l-3.53 3.54a.509.509 0 01-.709 0l-3.53-3.54a.5.5 0 010-.71l.2-.2A.49.49 0 01.7 9H3a9 9 0 119 9zm2.945-5.052a.507.507 0 01-.356-.148l-3.29-3.29a.533.533 0 01-.15-.35V4.5a.5.5 0 01.5-.5h.76a.5.5 0 01.354.147.5.5 0 01.147.354V8.64l2.92 2.92a.5.5 0 010 .71l-.53.53a.5.5 0 01-.355.148z"/></svg>