<svg xmlns="http://www.w3.org/2000/svg" class="ionicon" viewBox="0 0 20 18"><path data-name="Icon color" d="M17 18h-5a1 1 0 01-1-1v-4.75a.25.25 0 00-.25-.25h-1.5a.25.25 0 00-.25.25V17a1 1 0 01-1 1H3a1 1 0 01-1-1v-6H.5a.5.5 0 01-.5-.5V8.41a.993.993 0 01.29-.7L7.71.29a.993.993 0 01.7-.29h3.18a1.008 1.008 0 01.7.29l7.42 7.42a.993.993 0 01.29.7v2.09a.5.5 0 01-.5.5H18v6a1 1 0 01-1 1zm-9-8h4a1 1 0 011 1v5h3V9.5a.5.5 0 01.5-.5H18a.891.891 0 00-.29-.46L11.17 2H8.83L2.29 8.54a.888.888 0 00-.24.46H3.5a.5.5 0 01.5.5V16h3v-5a1 1 0 011-1z"/></svg>