<svg xmlns="http://www.w3.org/2000/svg" class="ionicon" viewBox="0 0 18 20"><path data-name="Icon color" d="M3.999 20a4 4 0 113.2-6.394 2.923 2.923 0 013.6 0 3.98 3.98 0 11-.8 2.378 1 1 0 00-2 0 4 4 0 01-4 4.016zm10-6.014a2 2 0 102 2 2 2 0 00-2-2zm-10 0a2 2 0 102 2 2 2 0 00-2-2zm13.5-4h-17a.5.5 0 01-.35-.85l.85-.854a.99.99 0 01.7-.29h14.6a1 1 0 01.7.29l.841.859h.01a.5.5 0 01-.35.85zm-1.994-4H2.493a.5.5 0 01-.494-.572l.76-4.575A1 1 0 013.747 0h.458a2.968 2.968 0 011.334.319l1.71.83a4.052 4.052 0 001.75.4 4.044 4.044 0 001.75-.4l1.71-.83A2.968 2.968 0 0113.799 0h.458a1 1 0 01.987.839l.755 4.575a.5.5 0 01-.493.58z"/></svg>