<svg xmlns="http://www.w3.org/2000/svg" class="ionicon" viewBox="0 0 24 24"><path d="M18.397 5.066c.882 0 1.6.727 1.6 1.62v9.713c0 .892-.718 1.619-1.6 1.619H5.599c-.882 0-1.599-.727-1.599-1.62V6.686c0-.892.717-1.619 1.6-1.619h12.797zm0 1.62H5.599v9.713h12.798V6.685zm-6.399 1.09c.097 0 .176.08.176.177v7.213a.176.176 0 11-.352 0V7.953c0-.098.079-.177.176-.177zM9.18 9.716l1.46 4.016H9.609l-.186-.598H8.187l-.198.598H6.958l1.46-4.016h.761zm4.518 0h1.664c.834 0 1.28.468 1.28 1.162 0 .457-.316.71-.44.795.164.102.496.31.496.874 0 .72-.47 1.131-1.12 1.18l-.131.005h-1.749V9.716h1.664zm1.653 2.425h-.666v.705h.666c.27 0 .36-.186.36-.355 0-.17-.09-.35-.36-.35zm-6.526-.902l-.36 1.071h.698l-.338-1.071zm6.475-.637h-.615v.654h.615c.27 0 .355-.17.355-.327 0-.158-.084-.327-.355-.327z" fill-rule="evenodd"/></svg>