<svg xmlns="http://www.w3.org/2000/svg" class="ionicon" viewBox="0 0 22 20"><path data-name="Icon color" d="M13.25 20a.747.747 0 01-.53-.219l-.89-.89 7.581-7.57a2.012 2.012 0 00.588-1.421V4h.88a1.052 1.052 0 01.71.291l.12.12a1.047 1.047 0 01.29.71V9.9a4.017 4.017 0 01-1.22 2.88l-7 7a.744.744 0 01-.529.22zm-3.765-2a1 1 0 01-.706-.291L.29 9.22a1 1 0 010-1.409L7.51.59A2.017 2.017 0 018.93 0h7.95a1.047 1.047 0 01.71.29l.121.121a1.042 1.042 0 01.288.709v7.95a2.017 2.017 0 01-.59 1.42l-7.22 7.22a.993.993 0 01-.704.29zM8.93 2L2.41 8.51l7.08 7.08 6.509-6.52V2H8.93zm3.069 6a2 2 0 112-2 2 2 0 01-2 2z"/></svg>