<svg xmlns="http://www.w3.org/2000/svg" class="ionicon" viewBox="0 0 18 18"><path data-name="Icon color" d="M1.199 18a.5.5 0 01-.355-.148l-.7-.7a.5.5 0 010-.71l3.257-3.257a.5.5 0 01.71 0l.7.7a.5.5 0 010 .709l-3.255 3.258a.5.5 0 01-.357.148zm6.2-.03a.5.5 0 01-.406-.208l-.29-.41a3 3 0 01.74-4.178l.889-.629-2.909-2.907-.629.889a3 3 0 01-2.458 1.282 2.979 2.979 0 01-1.719-.542l-.41-.29a.5.5 0 01-.12-.689l2.818-4A3 3 0 016.363 5.2l2.158-2.777a3.884 3.884 0 012.358-1.409l5.5-1A.984.984 0 0116.546 0a1.008 1.008 0 01.718.3l.43.43a1 1 0 01.29.889l-1 5.5a3.878 3.878 0 01-1.469 2.328l-2.748 2.158a3.01 3.01 0 01-1.089 3.458l-4 2.818a.5.5 0 01-.279.089zm5.088-13.958a1.506 1.506 0 101.061.439 1.489 1.489 0 00-1.061-.439z"/></svg>