<svg xmlns="http://www.w3.org/2000/svg" class="ionicon" viewBox="0 0 18 18"><path data-name="Icon color" d="M16 18H2a2 2 0 01-2-2V2a2 2 0 012-2h14a2 2 0 012 2v14a2 2 0 01-2 2zm-5-8.75a1.5 1.5 0 011.5 1.5v3.75a.5.5 0 00.5.5h1.5a.5.5 0 00.5-.5V9.9a3.092 3.092 0 00-2.72-3.14 3.116 3.116 0 00-.273-.012A2.989 2.989 0 009.5 8.1v-.6A.5.5 0 009 7H7.5a.5.5 0 00-.5.5v7a.5.5 0 00.5.5H9a.5.5 0 00.5-.5v-3.75a1.5 1.5 0 011.5-1.5zM3.5 7a.5.5 0 00-.5.5v7a.5.5 0 00.5.5H5a.5.5 0 00.5-.5v-7A.5.5 0 005 7zm.75-4a1.5 1.5 0 101.5 1.5A1.5 1.5 0 004.25 3z"/></svg>