<svg xmlns="http://www.w3.org/2000/svg" xmlns:xlink="http://www.w3.org/1999/xlink" class="ionicon" viewBox="0 0 22 21"><defs><path d="M35.5 10a.5.5 0 01.5.5v1.632a8.504 8.504 0 016.986 7.869L45.5 20a.5.5 0 01.5.5v1a.5.5 0 01-.5.5h-2.632A8.508 8.508 0 0136 28.869L36 30.5a.5.5 0 01-.5.5h-1a.5.5 0 01-.5-.5v-1.514A8.504 8.504 0 0126.133 22L24.5 22a.5.5 0 01-.5-.5v-1a.5.5 0 01.5-.5h1.514a8.501 8.501 0 017.987-7.986L34 10.5a.5.5 0 01.5-.5h1zm-7.882 10H29.5a.5.5 0 01.5.5v1a.5.5 0 01-.5.5h-1.739a7.005 7.005 0 006.24 5.475L34 25.5a.5.5 0 01.5-.5h1a.5.5 0 01.5.5v1.86A7.009 7.009 0 0041.44 22H40.5a.5.5 0 01-.5-.5v-1a.5.5 0 01.5-.5h1.082a7.004 7.004 0 00-5.581-6.36L36 15.5a.5.5 0 01-.5.5h-1a.5.5 0 01-.5-.5v-1.975a7.001 7.001 0 00-6.382 6.476z" id="a"/></defs><use xlink:href="#a" transform="translate(-24 -10)" fill-rule="evenodd"/></svg>