<svg xmlns="http://www.w3.org/2000/svg" class="ionicon" viewBox="0 0 14 20"><path d="M2.8 9.84c0 1.016-.55 2.578-1.176 2.522a.492.492 0 01-.308-.11L.233 11.34A.66.66 0 010 10.83V8.802a.66.66 0 01.233-.511l1.083-.914a.492.492 0 01.308-.11c.635 0 1.176 1.58 1.176 2.572zm5.6.003c0 3.287-1.95 6.218-2.558 6.236a.52.52 0 01-.317-.119l-1.4-1.214a.432.432 0 01-.149-.329c0-.456 1.624-1.616 1.624-4.565 0-2.95-1.624-4.084-1.623-4.566 0-.126.054-.246.149-.328l1.4-1.214a.52.52 0 01.317-.119c.616 0 2.557 2.922 2.557 6.218zm5.6 0c0 5.305-3.248 9.843-3.967 9.843a.435.435 0 01-.308-.119l-1.4-1.205a.432.432 0 01-.149-.328c0-.475 3.024-3.005 3.024-8.215S8.176 2.1 8.176 1.598c0-.127.054-.247.15-.329l1.4-1.15a.435.435 0 01.307-.12C10.687 0 14 4.365 14 9.844z" fill-rule="nonzero"/></svg>