<svg xmlns="http://www.w3.org/2000/svg" class="ionicon" viewBox="0 0 20 20.011"><path data-name="Icon color" d="M4 20.011A1.005 1.005 0 013 19v-2.3a1.008 1.008 0 00-.29-.7A9.162 9.162 0 010 9.5 9.761 9.761 0 019.752 0h.496A9.76 9.76 0 0120 9.5a9.76 9.76 0 01-9.752 9.5H10a10.221 10.221 0 01-2.29-.26 1.008 1.008 0 00-.229-.026.988.988 0 00-.381.076l-2.71 1.14a1 1 0 01-.39.081zM8.355 6.873a1.506 1.506 0 00-1.255.67l-2.63 3.97a.5.5 0 00.069.63.43.43 0 00.561 0l3-2.25 2.19 1.69a1.5 1.5 0 00.91.311h.43a1.487 1.487 0 001.25-.68l2.62-4a.433.433 0 00.085-.332.458.458 0 00-.744-.288l-3.06 2.34-2.3-1.76a1.487 1.487 0 00-.894-.3h-.232z"/></svg>