<svg xmlns="http://www.w3.org/2000/svg" class="ionicon" viewBox="0 0 20 20.003"><path data-name="Icon color" d="M4 20a.99.99 0 01-1-1v-2.3a1.008 1.008 0 00-.29-.7A9.162 9.162 0 010 9.5 9.761 9.761 0 019.752 0h.496A9.76 9.76 0 0120 9.5a9.76 9.76 0 01-9.752 9.5H10a10.2 10.2 0 01-2.29-.291.848.848 0 00-.22 0 1.091 1.091 0 00-.39.08l-2.72 1.13A1 1 0 014 20zM9.76 2A7.77 7.77 0 002 9.5a7.2 7.2 0 002.13 5.09A2.982 2.982 0 015 16.7v.81L6.33 17a2.892 2.892 0 011.16-.29 2.98 2.98 0 01.661.08A8.455 8.455 0 0010 17h.239A7.77 7.77 0 0018 9.5 7.77 7.77 0 0010.239 2H9.76zm-4.9 10.217a.429.429 0 01-.28-.1.5.5 0 01-.07-.63L7.1 7.574A1.506 1.506 0 018.355 6.9h.231a1.487 1.487 0 01.894.3l2.3 1.76 3.06-2.34a.429.429 0 01.56 0l.08-.01a.429.429 0 01.06.55l-2.62 4a1.484 1.484 0 01-1.25.68h-.43a1.5 1.5 0 01-.91-.31L8.14 9.863l-3 2.25a.429.429 0 01-.28.104z"/></svg>