<svg xmlns="http://www.w3.org/2000/svg" class="ionicon" viewBox="0 0 20.001 20"><path data-name="Icon color" d="M20 10.011A9.994 9.994 0 0110 20a9.831 9.831 0 01-2.25-.26.48.48 0 01-.34-.28.489.489 0 010-.439l.15-.29a5.9 5.9 0 00.56-1.538l.66-3.1a3.943 3.943 0 002.92 1.069c3.09 0 5.17-2.417 5.17-5.993 0-3.426-3-5.993-6.88-5.993s-6.88 2.7-6.88 5.993a5.471 5.471 0 001.78 4 .49.49 0 00.49.12.47.47 0 00.34-.37l.2-.9a.519.519 0 00-.11-.43 3.6 3.6 0 01-.94-2.377c0-2.347 2.29-4.255 5.12-4.255s5.12 1.788 5.12 4.255c0 2.068-.89 4.265-3.41 4.265a2.139 2.139 0 01-2.36-1.928l.65-3a1.8 1.8 0 00-.21-1.508A1.06 1.06 0 009 6.565c-1.47 0-1.55 2.467-1.55 3a10.4 10.4 0 00.16 1.938l-1.28 5.763a5.727 5.727 0 00-.13 1.488.339.339 0 01-.14.28.31.31 0 01-.31 0A9.991 9.991 0 1120 10.011z"/></svg>