<svg xmlns="http://www.w3.org/2000/svg" class="ionicon" viewBox="0 0 16 20"><path data-name="Icon color" d="M16 7.014c0 4.2-2.41 7.014-6 7.014a4.555 4.555 0 01-3.42-1.273l-.66 3.116a8.267 8.267 0 01-.83 2.164l-1 1.784a.35.35 0 01-.31.18.27.27 0 01-.2-.09.3.3 0 01-.08-.2l.08-2a8.9 8.9 0 01.17-1.363l1.43-6.627A13.112 13.112 0 015 7.445c0-.571.09-3.437 1.79-3.437a1.239 1.239 0 011 .441A2.078 2.078 0 018 6.192l-.76 3.557A2.521 2.521 0 0010 12.024c2.95 0 4-2.585 4-5.01C14 4.108 11.48 2 8 2 4.69 2 2 4.248 2 7.014A4.273 4.273 0 003.15 9.87a.5.5 0 01.12.441L3 11.483a.493.493 0 01-.83.261A6.5 6.5 0 010 7.014C0 3.146 3.59 0 8 0s8 3.006 8 7.014z"/></svg>