<svg xmlns="http://www.w3.org/2000/svg" class="ionicon" viewBox="0 0 18 9.995"><path data-name="Icon color" d="M13.285 10a.5.5 0 01-.355-.148l-.71-.71a.489.489 0 010-.7L15.67 5l-3.45-3.44a.5.5 0 010-.71l.71-.7a.5.5 0 01.71 0l4.14 4.13a.755.755 0 01.22.53v.38a.768.768 0 01-.22.53l-4.14 4.13a.5.5 0 01-.355.15zm-8.57 0a.5.5 0 01-.355-.148L.22 5.718a.755.755 0 01-.22-.53v-.38a.771.771 0 01.22-.53L4.35.148a.5.5 0 01.71 0l.71.71a.489.489 0 010 .7L2.33 5l3.45 3.44a.5.5 0 010 .71l-.71.7a.5.5 0 01-.355.15z"/></svg>