<svg xmlns="http://www.w3.org/2000/svg" class="ionicon" viewBox="0 0 18 18"><path data-name="Icon color" d="M11.476 18h-.16a.511.511 0 01-.459-.29l-3.386-7.187L.292 7.134A.511.511 0 010 6.675v-.16A.5.5 0 01.331 6l16.726-6a.457.457 0 01.086 0 .447.447 0 01.085.008.5.5 0 01.349.139l.26.26a.5.5 0 01.139.519L11.945 17.67a.5.5 0 01-.469.33zm-.315-11.983a.5.5 0 01.344.138l.38.38a.5.5 0 010 .689l-1.557 1.69a1.992 1.992 0 00-.339 2.21l1.228 2.659 3.914-10.926L4.216 6.775 6.872 8a2 2 0 002.256-.29l1.688-1.56a.5.5 0 01.345-.133z"/></svg>