<svg xmlns="http://www.w3.org/2000/svg" class="ionicon" viewBox="0 0 18.784 20"><path data-name="Icon color" d="M10.562 20H8.238a1 1 0 01-.987-.841l-.17-1A2.016 2.016 0 006.02 16.7a5.52 5.52 0 01-.74-.43 1.988 1.988 0 00-1.08-.321h-.007a1.9 1.9 0 00-.693.13l-1 .361a.844.844 0 01-.338.07H2.15a1 1 0 01-.859-.5l-1.16-2a1 1 0 01.239-1.275l.8-.661a2.013 2.013 0 00.72-1.643v-.862a2.01 2.01 0 00-.72-1.642l-.8-.661a1 1 0 01-.24-1.274l1.139-2a1.007 1.007 0 01.86-.5h.013a.844.844 0 01.338.07l1 .361a1.882 1.882 0 00.687.13h.013a2 2 0 001.08-.32A5.45 5.45 0 016 3.3a2.015 2.015 0 001.02-1.456l.17-1A1 1 0 018.177 0H10.5a1 1 0 01.987.842l.17 1A2.012 2.012 0 0012.721 3.3a5.451 5.451 0 01.74.431 1.99 1.99 0 001.08.32h.014a1.882 1.882 0 00.687-.13l1-.361a.858.858 0 01.337-.07h.013a1 1 0 01.86.5l1.16 2a1 1 0 01-.23 1.273l-.8.661a2.01 2.01 0 00-.72 1.642v.862a2.013 2.013 0 00.72 1.643l.789.661a1 1 0 01.3 1.273l-1.16 2a1.007 1.007 0 01-.86.5h-.013a.865.865 0 01-.337-.07l-1-.361a1.9 1.9 0 00-.693-.13H14.6a1.988 1.988 0 00-1.08.321 5.521 5.521 0 01-.74.43 2.016 2.016 0 00-1.06 1.453l-.169 1a1 1 0 01-.989.852zM9.37 4.489A5.514 5.514 0 1014.87 10a5.512 5.512 0 00-5.5-5.511zm0 7.511a2 2 0 112-2 2 2 0 01-2 2z"/></svg>