<svg xmlns="http://www.w3.org/2000/svg" class="ionicon" viewBox="0 0 24 16"><path data-name="Icon color" d="M23 16H1a.947.947 0 01-1-1v-.5a.473.473 0 01.5-.5H2V1a.947.947 0 011-1h18a.947.947 0 011 1v13h1.5a.473.473 0 01.5.5v.5a.947.947 0 01-1 1zM13.65 2.65a.494.494 0 00-.35.15l-.2.2a.776.776 0 01-.05.2.777.777 0 00-.05.2V5a7.185 7.185 0 00-7 6.7c0 .1 0 .2.1.2a.09.09 0 00.023.064A.265.265 0 006.3 12h.2a.319.319 0 00.3-.3c.143-.764.9-1.492 2.137-2.05A10.479 10.479 0 0113.1 8.8v1.8c-.1.2 0 .3.1.4l.2.2a.482.482 0 00.7 0l3.8-3.8a.766.766 0 00-.1-.8L14 2.8a.5.5 0 00-.35-.15z"/></svg>