<svg xmlns="http://www.w3.org/2000/svg" class="ionicon" viewBox="0 0 20 20"><path data-name="Icon color" d="M16 20a2 2 0 112-2 2 2 0 01-2 2zM6 20a2 2 0 112-2 2 2 0 01-2 2zm11.5-5H4.982a.764.764 0 01-.653-.37l-.22-.381a.769.769 0 010-.71L5.97 9.84a2.222 2.222 0 01-.27-.35L1.42 2H.5a.5.5 0 01-.5-.5v-1A.5.5 0 01.5 0h.927A2 2 0 013.16 1l4.28 7.5a1 1 0 00.86.5h6.23a1.006 1.006 0 00.751-.5l2.359-4.13A2.873 2.873 0 0018 3v-.5a.5.5 0 01.5-.5h1a.5.5 0 01.5.5V3a4.778 4.778 0 01-.65 2.361L17 9.49A2.949 2.949 0 0114.49 11H8.26a2.706 2.706 0 01-.64-.09l-1 2.09H17.5a.5.5 0 01.5.5v1a.5.5 0 01-.5.5zm-6.12-9h-.76a.5.5 0 01-.5-.5V3.88H8.5a.5.5 0 01-.5-.5v-.76a.5.5 0 01.5-.5h1.62V.5a.5.5 0 01.5-.5h.76a.5.5 0 01.5.5v1.62h1.62a.5.5 0 01.5.5v.76a.5.5 0 01-.5.5h-1.62V5.5a.5.5 0 01-.5.5z"/></svg>