<svg xmlns="http://www.w3.org/2000/svg" class="ionicon" viewBox="0 0 20 20"><path data-name="Icon color" d="M16 20a2 2 0 112-2 2 2 0 01-2 2zM6 20a2 2 0 112-2 2 2 0 01-2 2zm11.5-5H4.982a.764.764 0 01-.653-.37l-.22-.381a.769.769 0 010-.71L5.97 9.84a2.109 2.109 0 01-.27-.35L1.42 2H.5a.5.5 0 01-.5-.5v-1A.5.5 0 01.5 0h.927A2 2 0 013.16 1l.56 1H19.5a.5.5 0 01.5.5V3a4.783 4.783 0 01-.65 2.361L17 9.49A2.949 2.949 0 0114.49 11H8.26a2.719 2.719 0 01-.64-.09l-1 2.09H17.5a.5.5 0 01.5.5v1a.5.5 0 01-.5.5zM4.87 4l2.57 4.5a1 1 0 00.86.5h6.23a1.006 1.006 0 00.751-.5l2.359-4.13a2.276 2.276 0 00.1-.234c.017-.046.034-.092.053-.137H4.87z"/></svg>