<svg xmlns="http://www.w3.org/2000/svg" class="ionicon" viewBox="0 0 22 21"><path data-name="Icon color" d="M21.5 21a.5.5 0 01-.35-.149l-2-2a3.029 3.029 0 00-2.125-.879H6.006a2 2 0 01-2-2h12.009a4 4 0 004-3.994V3.994a2 2 0 011.982 2V20.5a.5.5 0 01-.497.5zm-21-4.024a.5.5 0 01-.5-.5V3.994A4 4 0 014 0h10.01a4 4 0 014 3.994v5.992a4 4 0 01-4 3.994H4.947a2.987 2.987 0 00-2.094.85l-2 2a.5.5 0 01-.353.146zM4 2a2 2 0 00-2 2v8.987a5.05 5.05 0 013-1h9.008a2 2 0 002-2V3.994a2 2 0 00-2-2zm9.509 5.991h-1a.5.5 0 01-.5-.5v-1a.5.5 0 01.5-.5h1a.5.5 0 01.5.5v1a.5.5 0 01-.496.497zm-4 0h-1a.5.5 0 01-.5-.5v-1a.5.5 0 01.5-.5h1a.5.5 0 01.5.5v1a.5.5 0 01-.5.497zm-4 0h-1a.5.5 0 01-.5-.5v-1a.5.5 0 01.5-.5h1a.5.5 0 01.5.5v1a.5.5 0 01-.504.497z"/></svg>