<svg xmlns="http://www.w3.org/2000/svg" class="ionicon" viewBox="0 0 20 18"><path data-name="Icon color" d="M10 18a5.321 5.321 0 01-.731-.051 4.98 4.98 0 01-2-.619 6.6 6.6 0 01-.842-.52 1.265 1.265 0 00-.65-.28 1.753 1.753 0 00-.85.228A1.9 1.9 0 014 17a1 1 0 01-1-1c0-.617-.767-1-2-1a1 1 0 110-2 2.768 2.768 0 002.376-1.38A4.368 4.368 0 004 10.15c0-.316-.5-.558-1.077-.839C2.069 8.9 1 8.376 1 7.37a1.369 1.369 0 01.4-.97 1.355 1.355 0 01.962-.4h.01a1.768 1.768 0 011.028.405.793.793 0 00.356.184A.25.25 0 004 6.34V6a6.008 6.008 0 0112.016 0v.34a.251.251 0 00.24.24.8.8 0 00.379-.189A1.725 1.725 0 0117.647 6h.01a1.352 1.352 0 01.963.4 1.366 1.366 0 01.4.972c0 .989-1.043 1.488-1.88 1.89-.6.288-1.122.538-1.122.89a4.231 4.231 0 00.627 1.481A2.813 2.813 0 0019.019 13H19a1 1 0 110 2c-1.235 0-2 .383-2 1a1 1 0 01-1 1 1.992 1.992 0 01-.947-.246 1.753 1.753 0 00-.824-.224 1.271 1.271 0 00-.651.28 6.6 6.6 0 01-.842.52 4.98 4.98 0 01-2 .619A5.321 5.321 0 0110 18zm.01-16a4.007 4.007 0 00-4 4v4.16a5.783 5.783 0 01-1.621 3.36.231.231 0 000 .25v.05a.208.208 0 00.18.12 6 6 0 012.8 1.1 4.647 4.647 0 002.641.96 4.655 4.655 0 002.646-.952 6.045 6.045 0 012.82-1.108.21.21 0 00.18-.12v-.05a.231.231 0 00-.04-.25 5.651 5.651 0 01-1.6-3.36V6a4.007 4.007 0 00-4.006-4z"/></svg>