<svg xmlns="http://www.w3.org/2000/svg" class="ionicon" viewBox="0 0 20 19"><path data-name="Icon color" d="M15.727 19h-.021a.481.481 0 01-.251-.07L10 15.6l-5.425 3.33a.475.475 0 01-.25.07H4.3a.466.466 0 01-.287-.1l-.249-.15a.508.508 0 01-.19-.529L5.014 12 .177 7.86a.492.492 0 01-.149-.54l.11-.249a.489.489 0 01.438-.35l6.373-.51L9.392.32A.506.506 0 019.864 0h.276a.49.49 0 01.46.32l2.483 5.89 6.373.51a.49.49 0 01.438.35l.08.249a.489.489 0 01-.139.53L14.987 12l1.436 6.221a.509.509 0 01-.189.529l-.22.15a.466.466 0 01-.287.1zM10 13.55l4.109 2.51-1.117-4.68 3.659-3.13-4.8-.38L10 3.41 8.145 7.871l-4.8.38 3.659 3.13-1.127 4.68L10 13.551z"/></svg>