<svg xmlns="http://www.w3.org/2000/svg" class="ionicon" viewBox="0 0 19.894 20"><path data-name="Icon color" d="M0 11.443a.243.243 0 01.091-.236.238.238 0 01.249-.025l3.55 1.587V13a3 3 0 005.99.261.473.473 0 01.22-.382l1.21-.8a.505.505 0 01.34-.08h.24a4.017 4.017 0 10-4-4.018 1.988 1.988 0 00.02.231.508.508 0 01-.08.341l-.8 1.215a.471.471 0 01-.381.221 3 3 0 00-1.94.984L.314 8.962a.483.483 0 01-.29-.533 10 10 0 1110.6 11.543q-.37.027-.736.027A10.014 10.014 0 010 11.443zM5.894 13a1 1 0 111 1 1 1 0 01-1-1zm4-5.021a2 2 0 112 2.009 2 2 0 01-2-2.01z"/></svg>