<svg data-name="Layer 1" xmlns="http://www.w3.org/2000/svg" viewBox="0 0 992.13 992.13" class="ionicon"><path d="M836.56 69.51h-681a86.06 86.06 0 00-86 86v681.1a86.1 86.1 0 0086 86h680.95a86.12 86.12 0 0086-86V155.49a86.07 86.07 0 00-85.95-85.98zm-681 78h90.21l172.07 122.28a12.53 12.53 0 0014.83-1.14l.54-.42 4-2.87 93.32-67.51a7.07 7.07 0 001.2-1.39 7.42 7.42 0 00-2-10.28l-.39-.27-50.7-38.41h217L475.19 307.63a5.74 5.74 0 00-2.45 3.76 5.57 5.57 0 00.94 4.22l.29.4 103.9 77.59.46.47a10.66 10.66 0 0013.56 1.36l252.65-179.5v94.54L478.28 582.2a5.77 5.77 0 00-2.48 3.8 5.71 5.71 0 001 4.31l.2.28 100.56 75.6a10.58 10.58 0 0013.52 1.35L844.54 487.5v104.1l-341.06 253H317.69l-170.1-126.17v-99.76L401.72 796.2a12.22 12.22 0 0014.71-1.1l.43-.35 96.34-74.5a4.77 4.77 0 00-.59-7.35l-.29-.2-364.73-270.42V345.8l258 182.25a12.26 12.26 0 0014.72-1.12l.58-.46 100-73.67a4.75 4.75 0 00.25-6.51 3.85 3.85 0 00-.81-.73l-.37-.26-372.37-276.25v-13.58a8 8 0 017.97-7.97zm681 697.12h-99l107-76v68a8 8 0 01-8.05 7.99z"/></svg>