<svg xmlns="http://www.w3.org/2000/svg" class="ionicon" viewBox="0 0 18 18.003"><path data-name="Icon color" d="M16.974 17.999a.483.483 0 01-.35-.151L14 15.231a7.971 7.971 0 01-3.4 1.55.492.492 0 01-.6-.49v-1a.51.51 0 01.38-.491 5.878 5.878 0 002.179-1L4.2 5.431a5.942 5.942 0 001.1 8.268l1.549-1.55a.493.493 0 01.351-.15h.3a.5.5 0 01.5.5v5a.5.5 0 01-.5.5h-5a.5.5 0 01-.5-.5v-.29a.492.492 0 01.149-.36l1.72-1.73A8 8 0 012.77 3.999L.151 1.381a.481.481 0 010-.7l.53-.53a.48.48 0 01.7 0l16.463 16.47a.48.48 0 01.01.7l-.529.53a.483.483 0 01-.351.148zm-.75-5.511L14.7 10.96a6.008 6.008 0 00-2-6.66l-1.553 1.551a.489.489 0 01-.347.148h-.3a.5.5 0 01-.5-.5v-5a.5.5 0 01.5-.5h5a.5.5 0 01.5.5v.29a.487.487 0 01-.12.36l-1.725 1.722a7.992 7.992 0 012.07 9.618zM7.049 3.341l-1.53-1.53a7.567 7.567 0 011.881-.64.516.516 0 01.1-.009.533.533 0 01.322.109.536.536 0 01.18.39v1a.514.514 0 01-.38.49 5.603 5.603 0 01-.229.077l-.052.017H7.33c-.091.029-.186.058-.278.093z"/></svg>