<svg xmlns="http://www.w3.org/2000/svg" class="ionicon" viewBox="0 0 15.993 21.996"><path data-name="Icon color" d="M8.703 22a.5.5 0 01-.356-.149l-.2-.2a.49.49 0 01-.15-.36V19A8 8 0 011.07 7a.516.516 0 01.371-.259.5.5 0 01.069 0 .5.5 0 01.351.144l.741.74a.51.51 0 01.09.59 5.846 5.846 0 00-.7 2.79A6.01 6.01 0 007.997 17v-2.362a.493.493 0 01.15-.36l.2-.2a.5.5 0 01.711 0l3.543 3.53a.507.507 0 010 .71l-3.543 3.53a.5.5 0 01-.355.152zm5.782-6.753a.5.5 0 01-.352-.145l-.731-.73a.5.5 0 01-.09-.59A5.989 5.989 0 007.997 5v2.36a.49.49 0 01-.15.36l-.2.2a.5.5 0 01-.711 0L3.397 4.388a.51.51 0 010-.709L6.936.148a.5.5 0 01.711 0l.2.2a.49.49 0 01.15.36V3a8 8 0 016.927 12 .518.518 0 01-.371.24.5.5 0 01-.068.003z"/></svg>