<svg xmlns="http://www.w3.org/2000/svg" class="ionicon" viewBox="0 0 20 18"><path data-name="Icon color" d="M15.047 18a2 2 0 01-1.229-.425l-3.074-2.436-1.587 1.5a1.718 1.718 0 01-1.188.481 1.505 1.505 0 01-.36 0 1.78 1.78 0 01-1.318-1.254l-1.3-4.4-4.3-1.444a1 1 0 01-.689-1v-.65a1 1 0 01.619-1L17.192.16a1.893 1.893 0 012.156.452 2.115 2.115 0 01.618 1.9l-2.625 13.639a2.088 2.088 0 01-1.088 1.474l-.329.17a2 2 0 01-.877.205zm-4.378-4.7a.486.486 0 01.324.124l3.754 3.008a.444.444 0 00.5.06l.329-.17a.59.59 0 00.3-.411l2.583-13.635a.632.632 0 00-.159-.552.518.518 0 00-.379-.18.38.38 0 00-.18 0L1.5 8.622 6 10.166a.5.5 0 00.429 0l7.546-4.783a.347.347 0 01.418.1.322.322 0 01.1.261.371.371 0 01-.12.261c-1.538 1.3-3.634 3.2-6.229 5.655a.513.513 0 00-.159.371v3.539a.253.253 0 00.14-.05l2.216-2.1a.489.489 0 01.327-.12z"/></svg>