<svg xmlns="http://www.w3.org/2000/svg" class="ionicon" viewBox="0 0 18 18"><path data-name="Icon color" d="M6.17 18H5a1 1 0 01-1-1v-1H1a1 1 0 01-1-1V4.73a4.19 4.19 0 01.26-1.41l1-2.67A1 1 0 012.19 0H17a1 1 0 011 1v9.17a2.017 2.017 0 01-.59 1.42l-3.82 3.82a2.017 2.017 0 01-1.42.59H9l-1.41 1.41a2.013 2.013 0 01-1.42.59zM3 2v11h3v2h1.17l2-2h4L16 10.17V2zm10.5 8h-1a.5.5 0 01-.5-.5v-4a.5.5 0 01.5-.5h1a.5.5 0 01.5.5v4a.5.5 0 01-.5.5zm-5 0h-1a.5.5 0 01-.5-.5v-4a.5.5 0 01.5-.5h1a.5.5 0 01.5.5v4a.5.5 0 01-.5.5z"/></svg>