<svg xmlns="http://www.w3.org/2000/svg" class="ionicon" viewBox="0 0 20 20"><path d="M2.727 13.963a.932.932 0 01.663-1.137l2.064-.554-1.518-1.49a.944.944 0 010-1.328.943.943 0 011.327 0l1.509 1.5.536-2.045a.918.918 0 011.136-.664.9.9 0 01.645 1.145l-.527 2.046 2.045-.528a.9.9 0 011.145.646.918.918 0 01-.663 1.136l-2.045.536 1.5 1.51a.944.944 0 010 1.327.932.932 0 01-1.318 0l-1.5-1.519-.555 2.064a.925.925 0 01-1.136.664c-.509-.128-.79-.646-.663-1.146l.536-2.036-2.036.536c-.5.128-1.018-.154-1.145-.663M0 8.18a4.545 4.545 0 014.545-4.545C5.454 1.5 7.545 0 9.998 0c3.118 0 5.672 2.418 5.908 5.481l.455-.027a3.636 3.636 0 010 7.272.909.909 0 010-1.818 1.818 1.818 0 000-3.636h-1.818v-.909a4.548 4.548 0 00-9.035-.736 2.727 2.727 0 00-3.69 2.554c0 .773.318 1.464.827 1.964a.906.906 0 01-1.309 1.254A4.535 4.535 0 010 8.181m11.843 9.481c.091.355.427.555.8.464l1.445-.4-.4 1.446c-.09.372.11.709.464.8.345.1.709-.11.8-.464l.372-1.427 1.064 1.054a.658.658 0 00.927 0 .659.659 0 000-.927l-1.054-1.064 1.427-.372a.645.645 0 00.463-.8c-.09-.355-.427-.555-.8-.464l-1.445.4.4-1.445c.09-.373-.11-.71-.464-.8a.645.645 0 00-.8.463l-.372 1.428-1.063-1.055a.658.658 0 00-.928 0 .658.658 0 000 .927l1.055 1.064-1.427.373a.645.645 0 00-.464.8" fill-rule="evenodd"/></svg>