<svg xmlns="http://www.w3.org/2000/svg" class="ionicon" viewBox="0 0 22 18"><path data-name="Icon color" d="M14.988 18H6.995a2 2 0 01-2-2V2a2 2 0 012-2h7.993a2 2 0 012 2v14a2 2 0 01-2 2zM6.995 2v14h7.993V2zm13.3 12.006a.51.51 0 01-.448-.266l-.769-1.49a1 1 0 01-.11-.46v-.57a1 1 0 01.11-.46L19.983 9l-.869-1.76a1 1 0 01-.113-.46v-.57a1 1 0 01.11-.46l.769-1.481a.49.49 0 01.67-.21l.889.46a.488.488 0 01.252.289.493.493 0 01-.032.382l-.68 1.3.889 1.78v-.03a1.076 1.076 0 01.133.46v.58a1 1 0 01-.11.46l-.909 1.76.64 1.319a.5.5 0 01-.211.67l-.888.46a.5.5 0 01-.232.057zM1.652 14a.508.508 0 01-.231-.056l-.89-.464a.5.5 0 01-.21-.67l.68-1.31-.889-1.76a1.018 1.018 0 01-.111-.46V8.7a1.1 1.1 0 01.09-.46l.91-1.75-.66-1.3a.491.491 0 01.22-.67l.889-.46a.49.49 0 01.379-.036.492.492 0 01.291.246l.77 1.481a1.012 1.012 0 01.111.459v.57a1.02 1.02 0 01-.09.471L2.001 9l.889 1.75a1.019 1.019 0 01.111.46v.57a1 1 0 01-.13.46l-.77 1.49a.511.511 0 01-.449.27z"/></svg>