<svg xmlns="http://www.w3.org/2000/svg" class="ionicon" viewBox="0 0 18 18"><path data-name="Icon color" d="M16.2 18H1.8A1.816 1.816 0 010 16.2V1.8A1.816 1.816 0 011.8 0h14.4A1.816 1.816 0 0118 1.8v14.4a1.816 1.816 0 01-1.8 1.8zM3.64 6.41c.49 0 .935.733 1.361 2.24l1.139 4.11C6.709 14.247 7.412 15 8.23 15c1.327 0 2.969-1.238 4.881-3.68 1.851-2.329 2.8-4.193 2.83-5.54a2.861 2.861 0 00-.541-2.223A1.9 1.9 0 0013.94 3h-.149a3.762 3.762 0 00-3.611 2.74.249.249 0 000 .26.219.219 0 00.169.078.222.222 0 00.062-.009A3.023 3.023 0 0111 6a.915.915 0 01.715.259 1.21 1.21 0 01.2.961 5.393 5.393 0 01-1 2.09c-.647.993-1.023 1.381-1.34 1.381-.349 0-.694-.733-1-2.12-.12-.459-.355-1.7-.57-3.18s-.823-2.222-1.798-2.222c-.067 0-.136 0-.206.011A4.627 4.627 0 003.93 4.42c-.511.5-1.035.928-1.589 1.378l-.261.212a.34.34 0 000 .48l.25.32a.339.339 0 00.47.069 3.145 3.145 0 01.84-.47z"/></svg>