<svg xmlns="http://www.w3.org/2000/svg" class="ionicon" viewBox="0 0 19 16.002"><path data-name="Icon color" d="M15.1 11.092Q11.188 16 8.473 16c-1.121 0-2.073-1-2.844-3L4.077 7.532c-.571-2-1.182-3-1.853-3a4.208 4.208 0 00-1.142.63.471.471 0 01-.631-.1l-.341-.42A.45.45 0 01.161 4C1 3.312 1.823 2.6 2.625 1.9A6.332 6.332 0 015.479.242Q7.7 0 8.233 3.192c.371 2.27.631 3.68.781 4.24q.631 2.82 1.412 2.82c.411 0 1-.61 1.823-1.84a7.2 7.2 0 001.292-2.78c.11-1.05-.331-1.63-1.292-1.63a3.741 3.741 0 00-.8.1.3.3 0 01-.331-.1.33.33 0 01-.1-.3c1-2.54 2.724-3.76 5.188-3.7 2 .06 2.9 1.3 2.784 3.71-.051 1.8-1.363 4.288-3.89 7.38z"/></svg>