<svg xmlns="http://www.w3.org/2000/svg" class="ionicon" viewBox="0 0 20 12"><path data-name="Icon color" d="M19.983 11.43a.451.451 0 01-.07.39.439.439 0 01-.349.18h-2.992a1 1 0 01-.888-.54 8.926 8.926 0 00-1.5-2.129A1.046 1.046 0 0013.4 9H13a.937.937 0 00-.708.29A1 1 0 0012 10v1a1 1 0 01-1 1H9.949C4.752 12 .454 2.844.035 1.615A.44.44 0 01.474 1h2.992a1 1 0 01.888.55 27.915 27.915 0 002.313 3.643.748.748 0 001.346-.45V2.474a1.509 1.509 0 00-.858-1.329.26.26 0 01-.06-.4 3.088 3.088 0 012.196-.74h1.217A1.5 1.5 0 0112 1.5V4a1.007 1.007 0 001.825.58 22.748 22.748 0 001.835-3 1 1 0 01.9-.55h2.992a.41.41 0 01.389.53A21.387 21.387 0 0117.5 6.273a.751.751 0 00.06.9 13.761 13.761 0 012.424 4.188z"/></svg>