<svg xmlns="http://www.w3.org/2000/svg" class="ionicon" viewBox="0 0 22 20"><path d="M17.463 17.52l-14.47-1.378c-.142-.574.184-1.162.73-1.314l2.264-.64-1.666-1.724a1.126 1.126 0 010-1.534.994.994 0 011.457 0l1.656 1.734.59-2.365c.065-.278.234-.517.47-.661a.963.963 0 01.777-.106c.266.068.493.249.627.5s.164.55.081.824L9.4 13.221l2.246-.61a.944.944 0 01.782.086c.238.141.41.38.475.66a1.11 1.11 0 01-.1.82 1.015 1.015 0 01-.628.494l-2.246.62 1.647 1.745c.4.425.4 1.11 0 1.535a.988.988 0 01-1.447 0l-1.646-1.755-.609 2.385c-.094.372-.37.663-.723.762a.988.988 0 01-.988-.278 1.117 1.117 0 01-.265-1.04l.59-2.355-2.237.62a.976.976 0 01-.781-.107 1.07 1.07 0 01-.477-.66m12.732-2.975s1.706 2.749 1.95 3.31c.206.36.317.762.325 1.172-.006.987-.661 1.868-1.642 2.206-.982.34-2.082.066-2.76-.686a2.263 2.263 0 01-.282-2.685c.237-.508 1.935-3.317 1.935-3.317.134-.224.347-.224.474 0zM12.025.089c2.966.507 5.215 3.091 5.438 6.248l.499-.032c1.437-.018 2.772.78 3.495 2.088a4.398 4.398 0 010 4.232c-.723 1.308-2.058 2.106-3.495 2.088a.99.99 0 01-.865-.526 1.1 1.1 0 010-1.05.99.99 0 01.865-.526c1.102 0 1.995-.941 1.995-2.102 0-1.16-.893-2.102-1.995-2.102h-1.996V7.356c-.012-2.73-2.005-4.997-4.589-5.219-2.583-.222-4.899 1.675-5.33 4.368a2.965 2.965 0 00-1.058-.2c-1.22.003-2.316.783-2.774 1.973-.457 1.19-.185 2.555.689 3.45.36.421.336 1.067-.052 1.458a.96.96 0 01-1.385-.007A5.387 5.387 0 010 9.459c0-2.903 2.234-5.256 4.99-5.256C6.148 1.283 9.058-.418 12.024.09z" fill-rule="nonzero"/></svg>