<svg xmlns="http://www.w3.org/2000/svg" class="ionicon" viewBox="0 0 19.995 20"><path data-name="Icon color" d="M9.995 20a9.968 9.968 0 01-5.517-1.66l-2.849.92h-.15a.51.51 0 01-.36-.15A.49.49 0 011 18.6l.9-2.74A9.993 9.993 0 119.995 20zM10 2a8 8 0 105.656 2.344A8.009 8.009 0 0010 2zm2.794 12.739a7.636 7.636 0 01-2.514-.689 10.409 10.409 0 01-4.2-3.72 4.767 4.767 0 01-1-2.54A2.739 2.739 0 016 5.73a1.266 1.266 0 01.82-.3h.33c.254 0 .37 0 .54.42s.691 1.7.75 1.82a.473.473 0 010 .46 1.691 1.691 0 01-.27.391c-.053.062-.109.119-.164.175a2.982 2.982 0 00-.206.224.4.4 0 00-.1.53 7.557 7.557 0 001.37 1.7 6.3 6.3 0 002 1.23.549.549 0 00.6-.1 7.668 7.668 0 00.65-.879.48.48 0 01.61-.17c.224.068 1.382.641 1.68.79l.129.063a.858.858 0 01.351.227 1.993 1.993 0 01-.16 1.18 2.314 2.314 0 01-1.65 1.19 2.063 2.063 0 01-.489.058z"/></svg>