<svg xmlns="http://www.w3.org/2000/svg" class="ionicon" viewBox="0 0 22.001 16"><path data-name="Icon color" d="M11.027 16H11a63.209 63.209 0 01-6.54-.34L3 15.51a3.369 3.369 0 01-3-3.41V3.9A3.37 3.37 0 013 .49L4.4.34a63.611 63.611 0 0113.14 0L19 .49a3.37 3.37 0 013 3.41v8.2a3.369 3.369 0 01-3 3.41l-1.43.15a63.27 63.27 0 01-6.543.34zM11 2a61.772 61.772 0 00-6.36.33l-1.46.15A1.376 1.376 0 002 3.9v8.2a1.377 1.377 0 001.18 1.42l1.46.15A61.651 61.651 0 0011 14a61.616 61.616 0 006.359-.33l1.461-.15A1.377 1.377 0 0020 12.1V3.9a1.376 1.376 0 00-1.18-1.419l-1.46-.151A61.763 61.763 0 0011 2zm-1.25 9.349A.75.75 0 019 10.6V5.4a.75.75 0 011.17-.62l3.891 2.6a.741.741 0 010 1.24l-3.891 2.6a.748.748 0 01-.42.129z"/></svg>