<svg xmlns="http://www.w3.org/2000/svg" class="ionicon" viewBox="0 0 55 23"><path d="M7.838 8.023c.445-.112.869.2.96.661.09.465-.191.918-.628 1.012-4.834 1.066-6.546 1.938-6.546 3.332 0 .223.183.462.34.622 2.338 2.423 13.615 4.792 30.127 4.624l-1.227-1.297a.944.944 0 010-1.286.827.827 0 011.22 0l2.664 2.814a.953.953 0 01.03 1.257l-2.525 2.942a.843.843 0 01-.639.296.826.826 0 01-.577-.237.947.947 0 01-.062-1.285l1.281-1.491c-.61.006-1.225.02-1.82.02-14.684 0-26.611-2.027-29.605-5.131C.278 14.306 0 13.684 0 13.028c0-3.038 3.396-4.03 7.838-5.005zm38.385.652a.78.78 0 01.935-.595c4.363.888 7.702 1.783 7.702 4.525 0 2.738-6.967 5.233-15.858 5.675h-.04a.782.782 0 01-.787-.735.779.779 0 01.748-.81c9.471-.47 14.356-3.109 14.356-4.13 0-1.258-1.688-2.046-6.444-3.016a.769.769 0 01-.612-.914zM17.5 1c1.948 0 3.382 1.335 3.382 3.207 0 1.184-.563 1.761-1.092 2.11.574.41 1.21 1.064 1.21 2.355C21 10.934 19.346 12 17.5 12c-1.745 0-3.5-.959-3.5-3.388h2.42c0 .758.474 1.14 1.08 1.14.636 0 1.077-.382 1.077-1.154 0-.657-.47-1.14-1.122-1.14h-.34V5.3h.34c.724 0 1.004-.534 1.004-1.02 0-.681-.46-1.033-.959-1.033-.502 0-.962.365-.962 1.02h-2.42C14.118 2.227 15.624 1 17.5 1zm10.185 0l-2.083 4.275c.208-.077.43-.077.59-.077C27.477 5.198 29 6.33 29 8.489 29 10.803 27.392 12 25.5 12S22 10.803 22 8.49c0-1.117.516-2.142 1.002-3.17L25.027 1h2.658zM34.5 1C36.303 1 38 2.143 38 4.374v4.254C38 10.86 36.303 12 34.5 12c-1.805 0-3.5-1.14-3.5-3.372V4.374C31 2.144 32.695 1 34.5 1zm0 2.25c-.536 0-.995.366-.995 1.124v4.268c0 .758.459 1.11.995 1.11.534 0 .992-.352.992-1.11V4.374c0-.758-.458-1.123-.992-1.123zm-9 4c-.59 0-1.08.43-1.08 1.24 0 .814.49 1.244 1.08 1.244.59 0 1.077-.43 1.077-1.245 0-.809-.487-1.238-1.077-1.238zM41.097.079a2.895 2.895 0 012.888 2.888 2.895 2.895 0 01-2.888 2.893 2.895 2.895 0 01-2.888-2.893A2.895 2.895 0 0141.097.078zm0 1.933a.954.954 0 00-.958.955c0 .536.427.96.958.96.53 0 .957-.424.957-.96a.954.954 0 00-.957-.955z" fill-rule="evenodd"/></svg>