<svg xmlns="http://www.w3.org/2000/svg" class="ionicon" viewBox="0 0 19.998 20"><path data-name="Icon color" d="M10.013 20A8.986 8.986 0 1119 11.014 8.995 8.995 0 0110.013 20zm0-15.975A6.989 6.989 0 1017 11.014a7 7 0 00-6.987-6.989zm.469 10.983h-1a.5.5 0 01-.5-.5v-1a.5.5 0 01.5-.5h1.028a.5.5 0 01.47.5v1a.5.5 0 01-.498.499zm.062-3.993h-1.06a.251.251 0 01-.249-.22l-.4-3.215a.5.5 0 01.5-.56h1.36a.506.506 0 01.376.167.5.5 0 01.123.392l-.4 3.215a.25.25 0 01-.25.22zm8.573-5.981h-.01a.239.239 0 01-.17-.07L15.064 1.09a.242.242 0 01-.07-.18.279.279 0 01.09-.19 3 3 0 011.908-.688H17a2.995 2.995 0 012.306 4.912.282.282 0 01-.189.09zM.92 5.024H.91a.284.284 0 01-.19-.08A3 3 0 014.943.72a.278.278 0 01.079.19.245.245 0 01-.059.18L1.089 4.954a.238.238 0 01-.169.07z"/></svg>