<svg xmlns="http://www.w3.org/2000/svg" class="ionicon" viewBox="0 0 19.998 20.002"><path data-name="Icon color" d="M10 20a9 9 0 119-9 9.007 9.007 0 01-9 9zm0-16a7 7 0 107 7 7.005 7.005 0 00-7-7zM8.382 14.523a.483.483 0 01-.35-.151L5.653 12a.5.5 0 010-.71l.53-.53a.478.478 0 01.7 0l1.5 1.49 4.738-4.739a.5.5 0 01.7 0l.53.53a.5.5 0 010 .709l-5.617 5.62a.484.484 0 01-.352.153zm10.734-9.511h-.01a.239.239 0 01-.17-.07l-3.878-3.88a.242.242 0 01-.07-.18.279.279 0 01.09-.19A3.007 3.007 0 0116.993 0H17a3 3 0 012.3 4.92.287.287 0 01-.184.092zM.9 5H.886A.279.279 0 01.7 4.922 3 3 0 014.914.692.282.282 0 015 .882a.236.236 0 01-.06.18l-3.874 3.87A.236.236 0 01.9 5z"/></svg>