<svg id="Layer_1" data-name="Layer 1" xmlns="http://www.w3.org/2000/svg" viewBox="0 0 992.13 992.13" class="ionicon"><defs/><path class="cls-1" d="M901.74 558.3v22.53a22.54 22.54 0 01-22.53 22.54H695.3L804.83 712.9a21.63 21.63 0 010 31.55l-15.78 16.23a23 23 0 01-32 0L599.74 603.37h-72.57v67.16l157.31 157.31a22.55 22.55 0 010 31.56l-16.23 16.22a22.53 22.53 0 01-31.55 0L527.17 766.09v190.67A21.17 21.17 0 01506 977.94h-25.71a21.19 21.19 0 01-20.74-21.18v-180.3L355.43 880.13a21.63 21.63 0 01-31.55 0l-16.23-15.78a23 23 0 010-32l151.9-151.45v-77.53h-61.74L240.49 760.68a22.53 22.53 0 01-31.55 0l-16.22-16.23a22.52 22.52 0 010-31.55l109.52-109.53H111.58a21.18 21.18 0 01-21.18-21.19v-25.69a21.17 21.17 0 0121.18-20.73h767.63a22.53 22.53 0 0122.53 22.54zM703.17 456.36H286.7a206.66 206.66 0 01-4.26-41.88c0-115.38 95.36-209.25 212.58-209.25s212.41 93.87 212.41 209.25a207.05 207.05 0 01-4.24 41.8zM207.89 419.61a41.22 41.22 0 00-41.18-41.17h-35.16a41.18 41.18 0 000 82.35h35.16a41.23 41.23 0 0041.18-41.18zM860.08 378.44h-35.16a41.18 41.18 0 000 82.35h35.16a41.18 41.18 0 000-82.35zM495.81 130.39a41.06 41.06 0 0041-41v-34.2a41 41 0 00-82 0v34.18a41.07 41.07 0 0041 41.02zM290.3 213.46a41.22 41.22 0 00.3-58.23l-24.73-25a41.18 41.18 0 00-58.53 57.93l24.73 25a41.22 41.22 0 0058.23.3zM701.34 213.46a41.22 41.22 0 01-.29-58.23l24.73-25a41.18 41.18 0 0158.53 57.93l-24.74 25a41.22 41.22 0 01-58.23.3z"/></svg>