<svg data-name="Layer 1" xmlns="http://www.w3.org/2000/svg" viewBox="0 0 992.13 992.13" class="ionicon"><path d="M202.11 137.49c-5.89 0-11.18 4.25-12.87 10.33l-62.11 233.52H865l-61.06-233.52c-1.68-6.18-6.85-10.33-12.87-10.33zm-27.32 358.57c-29.52 0-53.54 25.73-53.54 57.36v57.37c0 31.63 24 57.36 53.54 57.36h53.53c29.55 0 53.59-25.73 53.59-57.36v-57.37c0-31.63-24-57.36-53.59-57.36zm589 0c-29.55 0-53.59 25.73-53.59 57.36v57.37c0 31.63 24 57.36 53.59 57.36h53.54c29.52 0 53.53-25.73 53.53-57.36v-57.37c0-31.63-24-57.36-53.53-57.36zM924.41 955h-53.54c-29.52 0-53.53-25.74-53.53-57.36v-57.36H174.79v57.37c0 31.62-24 57.36-53.54 57.36H67.71c-29.52 0-53.54-25.74-53.54-57.36V470.81a249 249 0 018-63.66l77.1-286.86c13.11-49.18 54-82.6 101.73-83.17h589c47.66.15 89.92 34.59 102.79 83.74l77.1 286.86a249.39 249.39 0 018.11 63.09v426.84c0 31.62-24.07 57.35-53.59 57.35z"/></svg>