<svg xmlns="http://www.w3.org/2000/svg" class="ionicon" viewBox="0 0 18 19"><path data-name="Icon color" d="M16 19H2a2 2 0 01-2-2V4a2 2 0 012-2h1V.5a.5.5 0 01.5-.5h1a.5.5 0 01.5.5V2h8V.5a.5.5 0 01.5-.5h1a.5.5 0 01.5.5V2h1a2 2 0 012 2v13a2 2 0 01-2 2zM2 6v11h14V6zm8.97 8a.483.483 0 01-.35-.151L9 12.24l-1.62 1.61a.481.481 0 01-.7 0l-.53-.53a.481.481 0 010-.7L7.76 11 6.15 9.38a.481.481 0 010-.7l.53-.529a.479.479 0 01.7 0L9 9.76l1.62-1.61a.479.479 0 01.7 0l.53.529a.481.481 0 010 .7L10.24 11l1.61 1.62a.481.481 0 010 .7l-.53.53a.484.484 0 01-.35.15z"/></svg>