<svg xmlns="http://www.w3.org/2000/svg" class="ionicon" viewBox="0 0 16 16"><path data-name="Icon color" d="M15.5 16h-3a.5.5 0 01-.5-.5v-3a.5.5 0 01.5-.5h3a.5.5 0 01.5.5v3a.5.5 0 01-.5.5zm-6 0h-3a.5.5 0 01-.5-.5v-3a.5.5 0 01.5-.5h3a.5.5 0 01.5.5v3a.5.5 0 01-.5.5zm-6 0h-3a.5.5 0 01-.5-.5v-3a.5.5 0 01.5-.5h3a.5.5 0 01.5.5v3a.5.5 0 01-.5.5zm12-6h-3a.5.5 0 01-.5-.5v-3a.5.5 0 01.5-.5h3a.5.5 0 01.5.5v3a.5.5 0 01-.5.5zm-6 0h-3a.5.5 0 01-.5-.5v-3a.5.5 0 01.5-.5h3a.5.5 0 01.5.5v3a.5.5 0 01-.5.5zm-6 0h-3a.5.5 0 01-.5-.5v-3A.5.5 0 01.5 6h3a.5.5 0 01.5.5v3a.5.5 0 01-.5.5zm12-6h-3a.5.5 0 01-.5-.5v-3a.5.5 0 01.5-.5h3a.5.5 0 01.5.5v3a.5.5 0 01-.5.5zm-6 0h-3a.5.5 0 01-.5-.5v-3a.5.5 0 01.5-.5h3a.5.5 0 01.5.5v3a.5.5 0 01-.5.5zm-6 0h-3a.5.5 0 01-.5-.5v-3A.5.5 0 01.5 0h3a.5.5 0 01.5.5v3a.5.5 0 01-.5.5z"/></svg>