<svg xmlns="http://www.w3.org/2000/svg" class="ionicon" viewBox="0 0 20 18"><path data-name="Icon color" d="M15.77 17.288l-4.118-7.04a3.121 3.121 0 010-2.975l.6-.991 3.013 5.156h3.616a1.159 1.159 0 011.105 1.289 1.213 1.213 0 01-1.205 1.19h-2.11L17.98 16.1a.1.1 0 01.1.1 1.3 1.3 0 01-.6 1.686 1.157 1.157 0 01-.515.117 1.362 1.362 0 01-1.195-.715zm-13.259.4A1.153 1.153 0 012.11 16l.1-.1a1.571 1.571 0 011.306-.794h2.008l-1.205 2.083-.1.1a1.091 1.091 0 01-1.014.56 1.577 1.577 0 01-.694-.164zm-1.306-3.771A1.306 1.306 0 010 12.628a1.213 1.213 0 011.205-1.19h3.717l3.716-6.346L6.83 1.919a.1.1 0 01-.1-.1 1.159 1.159 0 01.5-1.686 1.246 1.246 0 011.71.596l1.105 1.884 1.1-1.884.1-.1a1.267 1.267 0 011.707-.4 1.153 1.153 0 01.4 1.686l-5.617 9.523h2.008a1.793 1.793 0 011.607.992l.9 1.487z"/></svg>