<svg xmlns="http://www.w3.org/2000/svg" class="ionicon" viewBox="0 0 15.993 21.996"><path data-name="Icon color" d="M7.292 22a.494.494 0 01-.356-.149l-3.539-3.533a.507.507 0 010-.71l3.543-3.53a.5.5 0 01.711 0l.2.2a.493.493 0 01.15.36V17a6.011 6.011 0 006.006-6 5.847 5.847 0 00-.7-2.77.507.507 0 01.09-.59l.741-.741a.505.505 0 01.352-.144.5.5 0 01.069 0 .519.519 0 01.365.245 8 8 0 01-6.927 12v2.29a.49.49 0 01-.15.36l-.2.2a.5.5 0 01-.355.15zm-5.783-6.747a.5.5 0 01-.069 0A.517.517 0 011.07 15 8 8 0 017.997 3V.708a.49.49 0 01.15-.36l.2-.2a.5.5 0 01.711 0l3.539 3.53a.51.51 0 010 .709L9.058 7.918a.5.5 0 01-.711 0l-.2-.2a.49.49 0 01-.15-.36V5a6 6 0 00-5.315 8.79.5.5 0 01-.09.59l-.731.731a.505.505 0 01-.352.142z"/></svg>