<svg xmlns="http://www.w3.org/2000/svg" class="ionicon" viewBox="0 0 20 12.467"><path data-name="Icon color" d="M15.908 12.467c-.078 0-.161 0-.248-.007h-.1a4.89 4.89 0 01-3.04-1.06 4.335 4.335 0 01-1.36-3.57 4.846 4.846 0 011.23-3.55 4.255 4.255 0 013.018-1.244h.254a4.97 4.97 0 012.008.421 3.616 3.616 0 011.54 1.28 4.322 4.322 0 01.71 1.84A8.457 8.457 0 0120 7.85a.5.5 0 01-.139.35.511.511 0 01-.35.149h-6a2.1 2.1 0 00.93 1.88 2.3 2.3 0 001.2.341h.162a2.009 2.009 0 001.215-.412 1.633 1.633 0 00.34-.39.509.509 0 01.418-.22h1.833a.229.229 0 01.189.1.237.237 0 010 .22 3.289 3.289 0 01-.8 1.29 4.335 4.335 0 01-3.09 1.309zm-.432-7.41a1.858 1.858 0 00-1.3.522 2.4 2.4 0 00-.62 1.381h4.024a1.946 1.946 0 00-.62-1.41 2 2 0 00-1.312-.491h-.068zM5.64 12.46H.75a.765.765 0 01-.75-.75V.77A.751.751 0 01.75.02H6A3.633 3.633 0 016.386 0 3.79 3.79 0 019.28 1.339a3.184 3.184 0 01.57 1.9 2.779 2.779 0 01-.57 1.831 2.929 2.929 0 01-1 .71 2.766 2.766 0 011.43 1.07 3.229 3.229 0 01.49 1.82 3.645 3.645 0 01-.55 2 3.575 3.575 0 01-.88 1 3.473 3.473 0 01-1.409.62 8.886 8.886 0 01-1.721.17zm-2.77-5.5v3.5H5.653a2.713 2.713 0 001.107-.235 1.691 1.691 0 00.82-1.64 1.435 1.435 0 00-.79-1.41 3.14 3.14 0 00-1.163-.22H2.87zm0-4.78v2.74h2.745a2.5 2.5 0 001.205-.31 1.16 1.16 0 00.5-1.09 1.116 1.116 0 00-.66-1.15 4.765 4.765 0 00-1.333-.192H5.19zm14.63-.22h-4a.5.5 0 01-.5-.5v-.5a.5.5 0 01.5-.5h4a.5.5 0 01.5.5v.5a.5.5 0 01-.5.499z"/></svg>