<svg xmlns="http://www.w3.org/2000/svg" class="ionicon" viewBox="0 0 18 18"><path data-name="Icon color" d="M11.5 18h-5a2.89 2.89 0 01-2.1-.9L.9 13.6a2.732 2.732 0 01-.9-2.1v-5a2.89 2.89 0 01.9-2.1L4.4.9A2.732 2.732 0 016.5 0h5a2.89 2.89 0 012.1.9l3.5 3.5a2.732 2.732 0 01.9 2.1v5a2.89 2.89 0 01-.9 2.1l-3.5 3.5a2.732 2.732 0 01-2.1.9zm3.1-13.3l-9.9 9.9 1.1 1.1a.906.906 0 00.7.3h5a.906.906 0 00.7-.3l3.5-3.5a.906.906 0 00.3-.7v-5a.906.906 0 00-.3-.7l-1.1-1.1zM6.5 2a.906.906 0 00-.7.3L2.3 5.8a.906.906 0 00-.3.7v5a1.446 1.446 0 00.2.7l1.2 1.1 9.9-9.9-1.1-1.1a.906.906 0 00-.7-.3z"/></svg>