<svg xmlns="http://www.w3.org/2000/svg" class="ionicon" viewBox="0 0 241 132"><path d="M197.147.722a21.1 21.1 0 0112.813 9.838l10.56 18.28-178.3 102.91-10.55-18.28A64.07 64.07 0 0113.9 93.25a63.9 63.9 0 01-8.62-25.49L0 58.62l9.14-5.28 14.42 3.87 41.13-23.75 3.87-14.42 9.14-5.28 76 4.9 27.43-15.83A21.1 21.1 0 01197.147.722zM225.11 38.3l2.64 4.57 10.56 18.29 2.63 4.57-4.56 2.63h-.01l-14.93 8.63 14.61 25.3 2.64 4.57-4.57 2.64-9.15 5.28-4.57 2.64-2.63-4.57-.01-.01-14.6-25.3-30.66 17.7-22.96 13.26-15.84-27.42 4.57-2.64 64.17-37.04 22.67-13.1z" fill-rule="nonzero"/></svg>