<svg xmlns="http://www.w3.org/2000/svg" class="ionicon" viewBox="0 0 21.996 16"><path data-name="Icon color" d="M11 16a8.008 8.008 0 01-4-1.072.519.519 0 01-.239-.371.5.5 0 01.14-.42l.73-.731a.5.5 0 01.355-.149.5.5 0 01.235.059 5.952 5.952 0 002.775.69H11A6 6 0 0017 8h-2.369a.493.493 0 01-.353-.15l-.2-.2a.5.5 0 010-.711l3.53-3.539a.509.509 0 01.71 0l3.53 3.543a.5.5 0 010 .711l-.2.2a.49.49 0 01-.353.15H19a8 8 0 01-8 8zm-6.967-3.251a.5.5 0 01-.355-.144L.148 9.061a.5.5 0 010-.711l.2-.2A.49.49 0 01.7 8H3a8 8 0 0112-6.927.524.524 0 01.26.371.5.5 0 01-.139.42l-.741.741a.507.507 0 01-.357.146.512.512 0 01-.232-.056 5.847 5.847 0 00-2.774-.7H11A6.01 6.01 0 005 8h2.364a.49.49 0 01.353.15l.2.2a.5.5 0 010 .711L4.388 12.6a.5.5 0 01-.355.149z"/></svg>