<svg xmlns="http://www.w3.org/2000/svg" class="ionicon" viewBox="0 0 18.002 18.002"><path data-name="Icon color" d="M14.67 18H14a10.114 10.114 0 01-4.74-1.19l-.45-.25a17.955 17.955 0 01-7.33-7.33l-.249-.45A10.1 10.1 0 010 4v-.67a2.017 2.017 0 01.59-1.42L2.28.221a.751.751 0 011.18.15l2.25 3.86a1 1 0 01-.159 1.21L3.66 7.331a.5.5 0 00-.09.59l.35.66a13.487 13.487 0 005.5 5.49l.66.36a.5.5 0 00.235.059.5.5 0 00.355-.149l1.89-1.89a.993.993 0 01.709-.294 1 1 0 01.5.134l3.86 2.25a.755.755 0 01.365.553.747.747 0 01-.215.627l-1.69 1.689a2.017 2.017 0 01-1.419.59zM12.5 8.495A.5.5 0 0112 8V6H9.5a.5.5 0 01-.5-.5v-1a.5.5 0 01.5-.5H12V2a.5.5 0 01.316-.52.5.5 0 01.584.17l3 3h-.04a.51.51 0 01-.01.7l-3 3a.5.5 0 01-.35.145z"/></svg>