<svg xmlns="http://www.w3.org/2000/svg" class="ionicon" viewBox="0 0 18.002 18.002"><path data-name="Icon color" d="M14.67 18H14a10.107 10.107 0 01-4.781-1.23l-.45-.25a17.943 17.943 0 01-7.33-7.33l-.25-.45A10.113 10.113 0 010 4v-.67a2.017 2.017 0 01.59-1.42L2.28.221a.751.751 0 011.18.15l2.25 3.86a1 1 0 01-.159 1.21L3.66 7.331a.5.5 0 00-.09.59l.35.66a13.487 13.487 0 005.5 5.49l.66.36a.5.5 0 00.235.059.5.5 0 00.355-.149l1.89-1.89a.993.993 0 01.709-.294 1 1 0 01.5.134l3.86 2.25a.755.755 0 01.365.553.747.747 0 01-.215.627l-1.69 1.689a2.017 2.017 0 01-1.419.59zM12.493 7.982a.492.492 0 01-.483-.4A1.988 1.988 0 0010.42 6a.49.49 0 01-.4-.49v-1a.5.5 0 01.17-.38.52.52 0 01.348-.13h.052A4.052 4.052 0 0114 7.411a.524.524 0 01-.121.4.5.5 0 01-.377.17h-1.009z"/></svg>