<svg xmlns="http://www.w3.org/2000/svg" class="ionicon" viewBox="0 0 20 18"><path data-name="Icon color" d="M10.19 18h-.38a.755.755 0 01-.53-.22l-1.49-1.49a1.008 1.008 0 00-.7-.29H2a2 2 0 01-2-2V2a2 2 0 012-2h16a2 2 0 012 2v12a2 2 0 01-2 2h-5.09a.993.993 0 00-.7.29l-1.49 1.49a.755.755 0 01-.53.22zm2.06-10.994a.509.509 0 01.4.194l4.45 5.93a.478.478 0 00.389.2h.021a.489.489 0 00.49-.5V2H2v10.82a.49.49 0 00.491.5h.018a.481.481 0 00.382-.19L5.96 9.19A.521.521 0 016.35 9h.006a.5.5 0 01.383.18l1.48 1.75a.487.487 0 00.378.18.512.512 0 00.4-.2L11.85 7.2a.506.506 0 01.4-.194zM7.5 7A1.5 1.5 0 119 5.5 1.5 1.5 0 017.5 7z"/></svg>