<svg xmlns="http://www.w3.org/2000/svg" class="ionicon" viewBox="0 0 18.001 20"><path data-name="Icon color" d="M9.541 20h-1A.991.991 0 018 19.84l-4.54-2.92a1 1 0 01-.46-.84v-1.89l2.73 1.73A.5.5 0 006 16h.034a.521.521 0 00.4-.181L9 12.65l2.61 3.17A.52.52 0 0012 16a.466.466 0 00.086.007.5.5 0 00.284-.087l2.69-1.73v1.89a1 1 0 01-.46.84l-4.52 2.92a1 1 0 01-.539.16zm2.809-6.143a.5.5 0 01-.389-.186L8.968 9.92 6 13.53a.506.506 0 01-.4.195.514.514 0 01-.229-.054L.16 10.29A.34.34 0 010 10v-.19a.363.363 0 01.08-.22l2.53-3.1L.1 4a.361.361 0 01-.1-.27v-.07a.34.34 0 01.16-.29L5.241.08a.493.493 0 01.27-.08H5.8a.487.487 0 01.353.15L9 3 3.681 6.44 9 9.88l-.006.008L14.28 6.47 9 3 11.85.15A.493.493 0 0112.2 0h.286a.493.493 0 01.27.08l5.08 3.29a.339.339 0 01.16.29v.07a.363.363 0 01-.1.249l-2.51 2.51 2.53 3.1a.376.376 0 01.08.22V10a.339.339 0 01-.16.29l-5.21 3.48a.5.5 0 01-.276.086z"/></svg>