<svg id="Layer_1" data-name="Layer 1" xmlns="http://www.w3.org/2000/svg" viewBox="0 0 992.13 992.13" class="ionicon"><defs/><path class="cls-1" d="M476.84 274.58a453.39 453.39 0 01128.26 18.47 152 152 0 0032.7-94.31c0-84.82-69.34-153.59-154.88-153.59s-154.87 68.77-154.87 153.59a152 152 0 0030.47 91.47 452.57 452.57 0 01118.32-15.63zM883.41 398.36c-.83-.06-1.67-.08-2.52-.11-.55 0-1.08-.07-1.64-.07h-.58c-23.2 0-42 12-42 26.72s18.81 26.72 42 26.72h.58c30 0 45.85 19 45.85 36.83 0 19.37-11.39 39.28-31.25 54.63-10.68 8.25-26.81 17.35-50 23.76-20.77-133.22-156.5-238.6-327.24-253.49v-.36c-11.46-.94-23.12-1.5-35-1.5-1.29 0-2.55 0-3.83.05-.93 0-1.84-.05-2.76-.05-71.91 0-139 16.07-195.85 43.76l-75.42-67.05-6.22 133.24c-29.42 29.64-51.79 63.92-65 101.28a1 1 0 01-.38-.18s-34.06 67.54-118 78.31l34.34 107.77s39 1.49 136.47 61.45v-.14c29 33 66.4 60.66 109.62 81.55L323 937.69s44.76 17.09 86.87 4.9l3.69-53.28a472.87 472.87 0 0061.44 4.06c1.08 0 2.14-.06 3.21-.06s2.24.06 3.38.06a447.35 447.35 0 0087.41-8.88l4.1 58.1c42.1 12.19 86.83-4.9 86.83-4.9L692.49 839A354.75 354.75 0 00732 812.58c65.25-48.89 107.76-116.17 113.93-191.23 31.49-7.05 58.81-19.11 80.63-36 33-25.54 51.44-60.87 51.44-96.92 0-50.94-42-88.18-94.59-90.07zM242 616.7a34.43 34.43 0 1134.41-34.43A34.42 34.42 0 01242 616.7z"/></svg>