<svg xmlns="http://www.w3.org/2000/svg" class="ionicon" viewBox="0 0 18 18"><path data-name="Icon color" d="M.583 18a.5.5 0 01-.353-.146.5.5 0 01-.189-.619L1.757 12.9a1.986 1.986 0 01.449-.679l8.051-8.054a.5.5 0 01.355-.148.494.494 0 01.354.148l2.854 2.819a.5.5 0 010 .7l-8.042 8.072a1.975 1.975 0 01-.679.449L.77 17.964A.5.5 0 01.583 18zM15.361 5.956a.5.5 0 01-.355-.148L12.2 2.964a.5.5 0 010-.7L14.009.439A1.49 1.49 0 0115.07 0h.775A1.488 1.488 0 0116.9.439l.659.659A1.491 1.491 0 0118 2.156v.759a1.507 1.507 0 01-.439 1.078l-1.846 1.816a.5.5 0 01-.354.147z"/></svg>