<svg xmlns="http://www.w3.org/2000/svg" class="ionicon" viewBox="0 0 20 16"><path data-name="Icon color" d="M16.5 16h-1a.5.5 0 01-.5-.5V12a1 1 0 011-1h3.5a.5.5 0 01.5.5v1a.5.5 0 01-.5.5H17v2.5a.5.5 0 01-.5.5zm-12 0h-1a.5.5 0 01-.5-.5V13H.5a.5.5 0 01-.5-.5v-1a.5.5 0 01.5-.5H4a1 1 0 011 1v3.5a.5.5 0 01-.5.5zm15-11H16a1 1 0 01-1-1V.5a.5.5 0 01.5-.5h1a.5.5 0 01.5.5V3h2.5a.5.5 0 01.5.5v1a.5.5 0 01-.5.5zM4 5H.5a.5.5 0 01-.5-.5v-1A.5.5 0 01.5 3H3V.5a.5.5 0 01.5-.5h1a.5.5 0 01.5.5V4a1 1 0 01-1 1z"/></svg>