<svg xmlns="http://www.w3.org/2000/svg" class="ionicon" viewBox="0 0 9.995 18"><path data-name="Icon color" d="M5.188 18h-.38a.771.771 0 01-.53-.22l-4.13-4.138a.5.5 0 010-.709l.71-.71a.491.491 0 01.7 0L5 15.661l3.44-3.448a.5.5 0 01.71 0l.7.72a.5.5 0 010 .709L5.718 17.78a.755.755 0 01-.53.22zM1.2 5.925a.5.5 0 01-.356-.148l-.7-.71a.5.5 0 010-.709L4.278.22a.755.755 0 01.53-.22h.38a.768.768 0 01.53.22l4.13 4.138a.5.5 0 010 .709l-.71.71a.491.491 0 01-.7 0L5 2.328 1.558 5.777a.5.5 0 01-.358.148z"/></svg>