<svg xmlns="http://www.w3.org/2000/svg" class="ionicon" viewBox="0 0 19.997 20.001"><path data-name="Icon color" d="M10.011 20A10.01 10.01 0 012.299 3.607l-1.192-1.2a.482.482 0 010-.7l.531-.53a.479.479 0 01.7 0L18.824 17.66a.48.48 0 010 .7l-.53.53a.48.48 0 01-.7 0l-1.2-1.191A10.027 10.027 0 0110.011 20zM7.454 8.791l-2 4.825a.489.489 0 00.11.541l.24.239a.491.491 0 00.541.111l4.834-1.992zm11.191 6.246L13.17 9.522l1.229-3.073a.49.49 0 00-.111-.541l-.24-.239a.489.489 0 00-.54-.111L10.477 6.83 4.962 1.355a10.009 10.009 0 0113.683 13.681z"/></svg>