<svg xmlns="http://www.w3.org/2000/svg" class="ionicon" viewBox="0 0 19.999 20"><path data-name="Icon color" d="M10 20A10 10 0 012.3 3.626l-1.19-1.2a.478.478 0 010-.7l.529-.53a.481.481 0 01.7 0L18.8 17.663a.481.481 0 010 .7l-.53.53a.48.48 0 01-.7 0l-1.2-1.19A10.017 10.017 0 0110 20zM3.727 5.046a7.984 7.984 0 0011.227 11.227L11.2 12.5l-4.828 2a.488.488 0 01-.189.038.5.5 0 01-.351-.148l-.24-.24a.487.487 0 01-.11-.54l2-4.828zm14.906 10l-1.479-1.508A8 8 0 006.467 2.847l-1.51-1.48a10 10 0 0113.677 13.676zm-5.479-5.511l-2.689-2.69 3.069-1.27a.486.486 0 01.188-.038.494.494 0 01.352.148l.24.239a.488.488 0 01.11.54l-1.269 3.069z"/></svg>