<svg xmlns="http://www.w3.org/2000/svg" class="ionicon" viewBox="0 0 20 18"><path data-name="Icon color" d="M10.19 18h-.38a.755.755 0 01-.53-.22l-1.49-1.49a1.008 1.008 0 00-.7-.29H2a2 2 0 01-2-2V2a2 2 0 012-2h16a2 2 0 012 2v12a2 2 0 01-2 2h-5.09a.993.993 0 00-.7.29l-1.49 1.49a.755.755 0 01-.53.22zM7.75 4A2.753 2.753 0 005 6.75c0 1.535 1.8 3.38 3 4.6.162.166.314.321.444.459l1 1a.75.75 0 001.06 0l1-1 .3-.3C13 10.328 15 8.354 15 6.75A2.75 2.75 0 0012.25 4 3.226 3.226 0 0010 5a3.2 3.2 0 00-2.25-1z"/></svg>