<svg xmlns="http://www.w3.org/2000/svg" class="ionicon" viewBox="0 0 17.999 18"><path data-name="Icon color" d="M16.8 18a.5.5 0 01-.356-.148l-4.006-4a2.618 2.618 0 01-.3-.36l-.751-1a7.017 7.017 0 01-9.534-.73l-1 1a.491.491 0 01-.853-.35v-3.88a.523.523 0 01.5-.5h3.949a.5.5 0 01.321.882L3.3 10.382a5.011 5.011 0 008.543-2 .5.5 0 01.481-.36h1a.5.5 0 01.391.19.529.529 0 01.1.419 7.033 7.033 0 01-1.382 2.8l1 .69a2.444 2.444 0 01.43.35l4.006 4a.5.5 0 01-.02.68l-.7.7A.5.5 0 0116.8 18zM.679 6.033a.493.493 0 01-.388-.191.526.526 0 01-.1-.419 7.013 7.013 0 0112.017-3.13l1-1a.493.493 0 01.362-.158.487.487 0 01.187.037.493.493 0 01.3.472v3.89a.522.522 0 01-.5.5H9.625a.5.5 0 01-.351-.85l1.463-1.47a5.01 5.01 0 00-8.543 2 .5.5 0 01-.466.32H.679z"/></svg>