<svg id="Layer_1" data-name="Layer 1" xmlns="http://www.w3.org/2000/svg" viewBox="0 0 992.13 992.13" class="ionicon"><defs/><path class="cls-1" d="M689.13 719.8A232.6 232.6 0 00796.24 658a23.12 23.12 0 00-4.91-36.21l-53.14-30.69a55.06 55.06 0 00-8.74-4 377.27 377.27 0 01-52.9 120.21c-2 3.07-4.23 6-6.37 9a22.35 22.35 0 0018.95 3.49zM840.49 573.11a22.43 22.43 0 0013.51-15.2 232.9 232.9 0 000-123.68 23.12 23.12 0 00-33.82-13.84l-53.09 30.66a51.95 51.95 0 000 90l53.09 30.66a22.39 22.39 0 0020.31 1.4z"/><path class="cls-1" d="M631.36 149.53a346.53 346.53 0 00-92.59 12.54A376.28 376.28 0 01629.44 229c.46.46.89 1 1.35 1.42h.57C778.08 230.4 897 349.32 897 496.06c0 146.4-118.42 265.12-264.69 265.64-1 1-1.9 2-2.89 3A378.66 378.66 0 01572 811.85q-15.18 10.15-31.22 18.76a346.92 346.92 0 0090.58 12c191.37 0 346.53-155.16 346.53-346.53S822.73 149.53 631.36 149.53z"/><path class="cls-1" d="M746.88 296a230.76 230.76 0 00-57.75-23.69 22.37 22.37 0 00-19.7 4c2.4 3.35 4.82 6.68 7.12 10.11a378.47 378.47 0 0152.56 118.73 55.16 55.16 0 009.08-4.09l53.14-30.66a23.1 23.1 0 004.91-36.19A228.83 228.83 0 00746.88 296z"/><path d="M476.29 696.12a230.27 230.27 0 01-57.76 23.68 23.09 23.09 0 01-28.86-22.38v-61.31a52 52 0 0178-45l53.14 30.64a23.11 23.11 0 014.9 36.21 229.08 229.08 0 01-49.42 38.16zM195.89 658a23.13 23.13 0 014.92-36.21l53.12-30.64a52 52 0 0178 45v61.31A23.1 23.1 0 01303 719.8 232.73 232.73 0 01195.89 658zm395.9-161.89a232 232 0 01-8.36 61.85 23.13 23.13 0 01-33.83 13.83l-53.09-30.66a52 52 0 010-90l53.09-30.66a23.13 23.13 0 0133.83 13.84 231.69 231.69 0 018.36 61.75zm-231-52a52 52 0 1052 52 52 52 0 00-52.02-52.04zm0-294.54c-191.4 0-346.53 155.16-346.53 346.53s155.11 346.49 346.51 346.49 346.52-155.16 346.52-346.53-155.16-346.53-346.52-346.53zm265.64 346.49c0 146.73-118.94 265.67-265.66 265.67S95.09 642.79 95.09 496.06 214 230.4 360.77 230.4s265.66 118.92 265.66 265.66zM525.64 334.18a23.09 23.09 0 01-4.9 36.19L467.6 401a52 52 0 01-78-45v-61.32a23.1 23.1 0 0128.86-22.38 232.6 232.6 0 01107.11 61.86zM245.26 296A230.39 230.39 0 01303 272.32a23.11 23.11 0 0128.88 22.38v61.32a52 52 0 01-78 45l-53.12-30.66a23.11 23.11 0 01-4.92-36.19A229.38 229.38 0 01245.26 296zM138.12 434.23a23.12 23.12 0 0133.82-13.84l53.11 30.66a52 52 0 010 90l-53.11 30.66a23.12 23.12 0 01-33.82-13.83 232.9 232.9 0 010-123.68z" fill-rule="evenodd"/></svg>