<svg data-name="Layer 1" xmlns="http://www.w3.org/2000/svg" viewBox="0 0 992.13 992.13" class="ionicon"><path d="M953 253.47L721.7 22.74a27.21 27.21 0 00-39.68 0l-20.41 19.84a28.9 28.9 0 000 40.25l117.92 117.92v134.36a85.06 85.06 0 0024.94 60.09l88.44 89v353.7c0 21-11.77 40.77-31 49.35-41.84 18.7-82.42-11.41-82.42-51V577.54a109.78 109.78 0 00-109.74-109.78H581.1V67.28a53 53 0 00-53-53H67.25a53.08 53.08 0 00-53.08 53.04v857.56A53.09 53.09 0 0067.27 978H528a53.07 53.07 0 0053.06-53.06V552.8h88.64a24.75 24.75 0 0124.75 24.75v259.69c0 56.15 43.33 117.43 97 133.89C888.82 1001 978 929 978 836.25V314.13a87.3 87.3 0 00-25-60.66zm-444.62 60.6H88.06V87.31h420.33z"/></svg>