<svg xmlns="http://www.w3.org/2000/svg" class="ionicon" viewBox="0 0 20 18.5"><path data-name="Icon color" d="M10.19 18.5h-.38a.76.76 0 01-.53-.221L7 16c-.186-.186-.389-.386-.6-.6C4 13.043 0 9.1 0 5.5A5.506 5.506 0 015.5 0 6.391 6.391 0 0110 2.07 6.392 6.392 0 0114.5 0 5.506 5.506 0 0120 5.5c0 3.6-4 7.543-6.4 9.9-.216.213-.419.413-.6.6l-2.28 2.28a.76.76 0 01-.53.22zM5.5 2A3.5 3.5 0 002 5.5c0 1.194.72 2.72 2.139 4.535A42.66 42.66 0 007.8 14l2.2 2.17L12.2 14a42.736 42.736 0 003.661-3.965C17.28 8.22 18 6.694 18 5.5a3.524 3.524 0 00-1.036-2.486A3.477 3.477 0 0014.5 2h-.03a5.086 5.086 0 00-3.81 2.3.515.515 0 01-.4.2h-.45a.768.768 0 01-.6-.29A4.976 4.976 0 005.5 2z"/></svg>