<svg xmlns="http://www.w3.org/2000/svg" class="ionicon" viewBox="0 0 20 20"><path data-name="Icon color" d="M10 20a10 10 0 1110-10 10.011 10.011 0 01-10 10zm0-18a8 8 0 108 8 8.009 8.009 0 00-8-8zm.5 14h-1a.5.5 0 01-.5-.5v-1a.5.5 0 01.5-.5h1a.5.5 0 01.5.5v1a.5.5 0 01-.5.5zm-.121-4H9.62a.5.5 0 01-.5-.5v-.78a1.879 1.879 0 011.29-1.78l.95-.31a1.131 1.131 0 00.76-1.07V7A1.122 1.122 0 0011 5.88H9A1.12 1.12 0 007.88 7v.5a.5.5 0 01-.5.5h-.76a.5.5 0 01-.5-.5V7A2.883 2.883 0 019 4.12h2A2.883 2.883 0 0113.88 7l.07.56a2.884 2.884 0 01-2 2.73l-.95.31a.13.13 0 00-.12.12v.78a.5.5 0 01-.5.5z"/></svg>