<svg xmlns="http://www.w3.org/2000/svg" class="ionicon" viewBox="0 0 20 20"><path data-name="Icon color" d="M10 20a10 10 0 1110-10 10.011 10.011 0 01-10 10zm-.5-6a.5.5 0 00-.5.5v1a.5.5 0 00.5.5h1a.5.5 0 00.5-.5v-1a.5.5 0 00-.5-.5zm1.54-8.121A1.121 1.121 0 0112.16 7v.56a1.131 1.131 0 01-.76 1.07l-.95.31a1.877 1.877 0 00-1.29 1.78v.78a.5.5 0 00.5.5h.76a.5.5 0 00.5-.5v-.78a.129.129 0 01.08-.12l.88-.311a2.884 2.884 0 002-2.73V7A2.879 2.879 0 0011 4.12H9A2.883 2.883 0 006.12 7v.5a.5.5 0 00.5.5h.76a.5.5 0 00.5-.5V7A1.121 1.121 0 019 5.88h2.04z"/></svg>