<svg xmlns="http://www.w3.org/2000/svg" class="ionicon" viewBox="0 0 20 18.003"><path data-name="Icon color" d="M17.96 18a.483.483 0 01-.35-.151l-2.948-2.94A10.872 10.872 0 019.994 16h-.055A10.639 10.639 0 01.06 9.311.8.8 0 010 9a1 1 0 01.06-.32A9.6 9.6 0 013.748 4l-2.6-2.62a.481.481 0 010-.7l.53-.53a.48.48 0 01.7 0l16.46 16.47a.481.481 0 010 .7l-.53.53a.482.482 0 01-.348.15zM5.2 5.441A8.081 8.081 0 002.069 9a8.814 8.814 0 007.924 5 8.96 8.96 0 003.118-.64l-1.757-1.76a3 3 0 01-3.413-.586A3.006 3.006 0 017.356 7.6zm12.4 7.45l-1.419-1.42A7.207 7.207 0 0017.919 9a8.814 8.814 0 00-7.925-5 7.988 7.988 0 00-1.189.09L7.115 2.4a10.7 10.7 0 0112.873 6.3.937.937 0 010 .3.806.806 0 01-.06.329 9.153 9.153 0 01-2.328 3.56z"/></svg>