<svg xmlns="http://www.w3.org/2000/svg" class="ionicon" viewBox="0 0 20 18.003"><path data-name="Icon color" d="M17.96 18a.483.483 0 01-.35-.151l-2.948-2.94A11.052 11.052 0 019.994 16h-.055A10.639 10.639 0 01.06 9.311.8.8 0 010 9a1 1 0 01.06-.32A9.6 9.6 0 013.748 4l-2.6-2.62a.481.481 0 010-.7l.53-.53a.48.48 0 01.7 0l16.46 16.47a.481.481 0 010 .7l-.53.53a.482.482 0 01-.348.15zM7.366 7.6A2.9 2.9 0 007 9a3 3 0 003 3 2.9 2.9 0 001.37-.4zM17.6 12.9L7.115 2.411A10.661 10.661 0 0119.988 8.7a.937.937 0 010 .3.806.806 0 01-.06.329A9.47 9.47 0 0117.6 12.9z"/></svg>