<svg xmlns="http://www.w3.org/2000/svg" class="ionicon" viewBox="0 0 20 18"><path data-name="Icon color" d="M19.71 7.71L12.29.29a1 1 0 00-.7-.29H8.41a1 1 0 00-.7.29L.29 7.71a1 1 0 00-.29.7V9.5a.5.5 0 00.5.5H2v7a1 1 0 001 1h3a1 1 0 001-1v-5.5a.5.5 0 01.5-.5h5a.5.5 0 01.5.5V17a1 1 0 001 1h3a1 1 0 001-1v-7h1.5a.5.5 0 00.5-.5V8.41a1 1 0 00-.29-.7z"/><path data-name="Icon color" d="M19.71 7.71L12.29.29a1 1 0 00-.7-.29H8.41a1 1 0 00-.7.29L.29 7.71a1 1 0 00-.29.7V9.5a.5.5 0 00.5.5H2v7a1 1 0 001 1h3a1 1 0 001-1v-5.5a.5.5 0 01.5-.5h5a.5.5 0 01.5.5V17a1 1 0 001 1h3a1 1 0 001-1v-7h1.5a.5.5 0 00.5-.5V8.41a1 1 0 00-.29-.7z"/></svg>