<svg xmlns="http://www.w3.org/2000/svg" class="ionicon" viewBox="0 0 18.003 18.003"><path data-name="Icon color" d="M16.97 18a.483.483 0 01-.35-.151l-3.29-3.28-3.14 3.139a1 1 0 01-1.41 0L.291 9.221a1 1 0 010-1.41l3.14-3.139L.15 1.382a.481.481 0 010-.7l.53-.53a.481.481 0 01.7 0l16.47 16.47a.481.481 0 010 .7l-.53.53a.483.483 0 01-.35.148zm-1.16-5.911l-9.9-9.9 1.6-1.6A2.013 2.013 0 018.927 0h7.953a1.047 1.047 0 01.71.29l.12.12a1.044 1.044 0 01.291.71v7.95a2.014 2.014 0 01-.59 1.42l-1.6 1.6z"/></svg>