<svg xmlns="http://www.w3.org/2000/svg" class="ionicon" viewBox="0 0 18 18"><path data-name="Icon color" d="M1.199 18a.5.5 0 01-.355-.148l-.7-.7a.5.5 0 010-.71l3.257-3.257a.5.5 0 01.71 0l.7.7a.5.5 0 010 .709l-3.255 3.258a.5.5 0 01-.357.148zm6.2-.03a.5.5 0 01-.406-.208l-.29-.41a3 3 0 01.74-4.178l.889-.629-2.909-2.907-.629.889a3.016 3.016 0 01-1.936 1.236 3 3 0 01-2.241-.5l-.41-.29a.5.5 0 01-.12-.689l2.818-4A3 3 0 016.363 5.2l2.158-2.777a3.885 3.885 0 012.358-1.409l5.5-1A.969.969 0 0116.546 0a1.008 1.008 0 01.718.3l.43.43a1 1 0 01.29.889l-1 5.5a3.878 3.878 0 01-1.469 2.328l-2.748 2.158a3.01 3.01 0 01-1.089 3.458l-4 2.818a.5.5 0 01-.279.089zm5.32-15.5l-1.528.28a2.241 2.241 0 00-1.3.779l-3.578 4.55 3.607 3.607L14.476 8.1a2.225 2.225 0 00.769-1.289l.28-1.529-2.807-2.809zm-1.192 5.5a1.462 1.462 0 11.986-2.485 1.494 1.494 0 01.037 2.082 1.5 1.5 0 01-1.024.405z"/></svg>