<svg xmlns="http://www.w3.org/2000/svg" class="ionicon" viewBox="0 0 20 20"><path data-name="Icon color" d="M.5 20a.5.5 0 01-.5-.5V4a4 4 0 014-4h12a4 4 0 014 4v8a4 4 0 01-4 4H5.943a2.985 2.985 0 00-2.092.851l-3 3A.5.5 0 01.5 20zM12.25 7.006a.509.509 0 01.4.194l4.45 5.93a.478.478 0 00.389.2h.021a.489.489 0 00.49-.5V4a2 2 0 00-2-2H4a2 2 0 00-2 2v8.82a.49.49 0 00.491.5h.018a.481.481 0 00.382-.19L5.96 9.19A.521.521 0 016.35 9h.006a.5.5 0 01.383.18l1.48 1.75a.487.487 0 00.378.18.512.512 0 00.4-.2L11.85 7.2a.506.506 0 01.4-.194zM7.5 7A1.5 1.5 0 119 5.5 1.5 1.5 0 017.5 7z"/></svg>