<svg xmlns="http://www.w3.org/2000/svg" class="ionicon" viewBox="0 0 20 20"><path data-name="Icon color" d="M.5 20a.5.5 0 01-.5-.5V4a4 4 0 014-4h12a4 4 0 014 4v8a4 4 0 01-4 4H5.943a2.985 2.985 0 00-2.092.851l-3 3A.5.5 0 01.5 20zM6.356 8H6.35a.522.522 0 00-.35.19l-2.89 3.67a.46.46 0 00-.111.3v.34a.5.5 0 00.5.5h13a.5.5 0 00.5-.5v-.34a.515.515 0 00-.1-.3L12.65 6.19a.51.51 0 00-.8 0L8.97 9.91a.5.5 0 01-.4.2.489.489 0 01-.38-.18L6.74 8.18A.5.5 0 006.356 8zM7.5 3A1.5 1.5 0 109 4.5 1.5 1.5 0 007.5 3z"/></svg>