<svg xmlns="http://www.w3.org/2000/svg" class="ionicon" viewBox="0 0 20.001 20"><path data-name="Icon color" d="M10 20a.506.506 0 01-.355-.144l-3-3A.5.5 0 017 16h2v-2.5a.5.5 0 01.5-.5h1a.5.5 0 01.5.5V16h2a.5.5 0 01.361.851l-3 3A.5.5 0 0110 20zm6.5-6.5a.5.5 0 01-.5-.5v-2h-2.5a.5.5 0 01-.5-.5v-1a.5.5 0 01.5-.5H16V7a.5.5 0 01.5-.5.5.5 0 01.361.154l3 3a.51.51 0 01-.01.7l-3 3a.5.5 0 01-.351.141zm-13.007 0a.5.5 0 01-.351-.142l-3-3a.508.508 0 010-.71l3-3A.5.5 0 014 7v2h2.5a.5.5 0 01.5.5v1a.5.5 0 01-.5.5H4v2a.5.5 0 01-.31.456.492.492 0 01-.19.039zm7-6.5h-1A.5.5 0 019 6.5V4H7a.5.5 0 01-.351-.85l3-3a.51.51 0 01.71 0l3 3a.5.5 0 01-.356.85H11v2.5a.5.5 0 01-.5.5z"/></svg>