<svg xmlns="http://www.w3.org/2000/svg" class="ionicon" viewBox="0 0 18 18"><path data-name="Icon color" d="M16 18H2a2 2 0 01-2-2V2a2 2 0 012-2h7.5a.5.5 0 01.5.5v1a.5.5 0 01-.5.5H2v14h14V8.5a.5.5 0 01.5-.5h1a.5.5 0 01.5.5V16a2 2 0 01-2 2zM4.5 13.976a.5.5 0 01-.463-.686l.79-2a1.979 1.979 0 01.44-.68L11.85 4a.5.5 0 01.7 0L14 5.45a.5.5 0 010 .7l-6.63 6.56a1.99 1.99 0 01-.68.44l-2 .79a.5.5 0 01-.19.036zm11.06-9.623a.494.494 0 01-.35-.143l-1.42-1.42a.5.5 0 010-.7l1.8-1.8a1.008 1.008 0 01.7-.29h.3a.994.994 0 01.7.29l.42.42a.994.994 0 01.29.7v.3a1.008 1.008 0 01-.29.7l-1.8 1.8a.494.494 0 01-.35.143z"/></svg>