<svg id="Layer_1" data-name="Layer 1" xmlns="http://www.w3.org/2000/svg" viewBox="0 0 992.13 992.13" class="ionicon"><defs/><path class="cls-1" d="M485.38 93.78l-280 250.62a32.33 32.33 0 01-21.54 8.23H46.44a32.28 32.28 0 00-32.28 32.3v229.12a32.28 32.28 0 0032.28 32.28h137.67a32.36 32.36 0 0121.24 8l280.37 244.31c20.9 18.19 53.5 3.37 53.5-24.35V117.85c0-27.92-33.03-42.69-53.84-24.07zM669.38 655.68a31.45 31.45 0 01-18.9-6.3 31.78 31.78 0 01-6.15-44.28c84.73-113.13 5.19-205.19 1.76-209a31.76 31.76 0 012.31-44.52 31.12 31.12 0 0144.12 2.08c41.48 45.71 95.18 164.9 2 289.44a31.32 31.32 0 01-25.13 12.6"/><path class="cls-1" d="M765.42 720.84a31.4 31.4 0 01-19.15-6.54 31.73 31.73 0 01-5.66-44.3c131.47-171.6 1.27-346.16-.08-347.92a31.75 31.75 0 015.82-44.27 31.34 31.34 0 0144 5.82c1.59 2.15 160.51 215.25-.08 424.91a31.37 31.37 0 01-24.89 12.28"/><path class="cls-1" d="M866.6 792.64a31.28 31.28 0 01-16.84-4.95 31.69 31.69 0 01-9.65-43.55c167.77-265.67 3.11-491.92 1.43-494.16a31.65 31.65 0 016.23-44.2 31.28 31.28 0 0144 6.31c1.91 2.63 192.18 263.83 1.35 565.95a31.36 31.36 0 01-26.48 14.6"/></svg>