<svg xmlns="http://www.w3.org/2000/svg" class="ionicon" viewBox="0 0 20 20"><path data-name="Icon color" d="M9.5 20H7.57a1 1 0 01-.859-.49l-2.281-3.8a2.71 2.71 0 01-.36-1h2.46a4.108 4.108 0 011.55.3l.42 2.75a1 1 0 00.751.571l.329.059a.5.5 0 01.42.53v.58a.5.5 0 01-.5.5zm5.5-2h-.59a1.008 1.008 0 01-.7-.29l-3-2.95A5.967 5.967 0 006.51 13H3a3 3 0 01-3-3V8a3 3 0 013-3h3.51a5.969 5.969 0 004.25-1.76l3-2.95a.994.994 0 01.7-.29H15a1 1 0 011 1v16a1 1 0 01-1 1zM14 2.83l-1.83 1.83A7.879 7.879 0 018 6.86v4.28a7.88 7.88 0 014.17 2.2L14 15.17zm4.825 8.735a.512.512 0 01-.375-.164l-.72-.72a.5.5 0 01-.06-.63 2 2 0 000-2.2.5.5 0 01.06-.63l.72-.72a.511.511 0 01.361-.15h.029a.539.539 0 01.36.2 4.075 4.075 0 010 4.85.511.511 0 01-.375.163z"/></svg>