<svg xmlns="http://www.w3.org/2000/svg" class="ionicon" viewBox="0 0 24 24"><path d="M15.345 9a.395.395 0 00-.384.403c0 .224.173.404.384.404.211 0 .384-.18.384-.404A.394.394 0 0015.345 9zm-2.228 3.673c.422 0 .86-.38.86-1.015 0-.462-.354-.958-.881-.958-.43 0-.876.36-.876.965 0 .63.456 1.008.897 1.008zm1.507-.015c0 1.732-1.405 1.782-1.565 1.782-.51 0-1.148-.254-1.426-.961h.748a.89.89 0 00.73.341c.416 0 .881-.306.918-.979v-.012l-.039-.042-.018.025c-.217.319-.531.481-.934.481-.705 0-1.465-.625-1.465-1.635 0-.975.757-1.578 1.46-1.578.276 0 .657.081.908.468l.008.012h.049v-.375h.626v2.473zm-7.296.43c0 .042.022.08.065.111.045.033.11.051.192.051l.072-.001a.312.312 0 00.192-.052c.043-.03.065-.067.065-.11v-3.7a.16.16 0 00-.065-.125.293.293 0 00-.192-.056h-.072a.292.292 0 00-.192.058.158.158 0 00-.065.125v3.7zm7.748 0c0 .042.021.08.064.111.045.033.11.051.192.051l.073-.001a.312.312 0 00.191-.052c.044-.03.066-.067.066-.11v-2.748a.157.157 0 00-.066-.124.289.289 0 00-.191-.058l-.073.003a.289.289 0 00-.192.057.155.155 0 00-.064.124v2.748zm3.292-.485c-.497 0-.9-.422-.9-.946 0-.521.403-.945.9-.945.333 0 .624.19.78.474h.673c-.17-.677-.756-1.11-1.453-1.11-.831 0-1.505.708-1.505 1.581 0 .874.674 1.582 1.505 1.582.715 0 1.315-.526 1.466-1.23l-.633.005a.902.902 0 01-.833.589zm-8.588 0c.497 0 .9-.422.9-.946 0-.521-.403-.945-.9-.945s-.899.424-.899.945c0 .524.402.946.899.946zm0-2.527c.831 0 1.504.708 1.504 1.581 0 .874-.673 1.582-1.504 1.582-.83 0-1.504-.708-1.504-1.582 0-.873.674-1.58 1.504-1.58zm-4.277 2.527c.497 0 .9-.422.9-.946 0-.521-.403-.945-.9-.945-.496 0-.9.424-.9.945 0 .524.404.946.9.946zm0-2.527c.831 0 1.505.708 1.505 1.581 0 .874-.674 1.582-1.505 1.582-.83 0-1.503-.708-1.503-1.582 0-.873.673-1.58 1.503-1.58zm12.835-.862c.614 0 1.172.252 1.588.661l-.338.311a1.817 1.817 0 00-1.25-.504c-1.038 0-1.88.885-1.88 1.975 0 1.091.842 1.978 1.88 1.978.508 0 .969-.215 1.307-.56l.351.294a2.261 2.261 0 01-1.658.732c-1.284 0-2.325-1.094-2.325-2.444 0-1.349 1.04-2.443 2.325-2.443z" fill-rule="evenodd"/></svg>