<svg xmlns="http://www.w3.org/2000/svg" class="ionicon" viewBox="0 0 20 16"><path data-name="Icon color" d="M18 16h-2.5a.5.5 0 01-.5-.5v-1a.5.5 0 01.5-.5H18v-2.5a.5.5 0 01.5-.5h1a.5.5 0 01.5.5V14a2 2 0 01-2 2zM4.5 16H2a2 2 0 01-2-2v-2.5a.5.5 0 01.5-.5h1a.5.5 0 01.5.5V14h2.5a.5.5 0 01.5.5v1a.5.5 0 01-.5.5zm1-9A1.5 1.5 0 117 5.5 1.5 1.5 0 015.5 7zm14-2h-1a.5.5 0 01-.5-.5V2h-2.5a.5.5 0 01-.5-.5v-1a.5.5 0 01.5-.5H18a2 2 0 012 2v2.5a.5.5 0 01-.5.5zm-18 0h-1a.5.5 0 01-.5-.5V2a2 2 0 012-2h2.5a.5.5 0 01.5.5v1a.5.5 0 01-.5.5H2v2.5a.5.5 0 01-.5.5z"/></svg>