<svg xmlns="http://www.w3.org/2000/svg" class="ionicon" viewBox="0 0 20.002 17.23"><path data-name="Icon color" d="M10.026 17.23a11.525 11.525 0 01-6.359-1.759 5.208 5.208 0 01-2.618-4.241 3.888 3.888 0 010-.481 2.491 2.491 0 011.437-4.52h.059a2.468 2.468 0 011.5.53 11.526 11.526 0 015.4-1.53l.639-3.78A1.743 1.743 0 0111.792 0a1.929 1.929 0 01.489.07l3.153.92a1.989 1.989 0 012.48-.538 2 2 0 01-.912 3.777c-.061 0-.123 0-.184-.008a2 2 0 01-1.8-1.791l-3.136-.96h-.07a.242.242 0 00-.239.211l-.618 3.55a11.414 11.414 0 015.057 1.529 2.465 2.465 0 011.5-.53 2.515 2.515 0 011.49 4.52 3.894 3.894 0 010 .481 5.207 5.207 0 01-2.619 4.241 11.521 11.521 0 01-6.357 1.758zm-2.441-4.067a.49.49 0 00-.391.2l-.29.41a.523.523 0 00-.08.4.513.513 0 00.25.32 6.261 6.261 0 005.9 0 .512.512 0 00.249-.32.52.52 0 00-.079-.37l-.29-.41a.488.488 0 00-.407-.219.5.5 0 00-.231.059 5.046 5.046 0 01-4.389 0 .485.485 0 00-.242-.07zm5.933-4.933a1.5 1.5 0 101.5 1.5 1.5 1.5 0 00-1.5-1.5zm-6.983 0a1.5 1.5 0 101.5 1.5 1.5 1.5 0 00-1.5-1.5z"/></svg>