<svg xmlns="http://www.w3.org/2000/svg" class="ionicon" viewBox="0 0 19.9 19.9"><path data-name="Icon color" d="M9.893 19.9a10 10 0 01-9.888-8.555.5.5 0 01.5-.571h1.01a.5.5 0 01.493.41A8 8 0 009.9 17.9c.15 0 .3 0 .435-.012a8 8 0 00.854-15.885.5.5 0 01-.41-.5V.5a.5.5 0 01.5-.5.463.463 0 01.07.005 10 10 0 01-.962 19.883c-.16.012-.325.012-.494.012zm.383-9.135H4.4a.5.5 0 01-.5-.5V9.5a.5.5 0 01.5-.5l4.62.01V4.4a.5.5 0 01.5-.5h.76a.5.5 0 01.5.5v5.87a.507.507 0 01-.505.495zM.43 9a.537.537 0 01-.315-.1.518.518 0 01-.11-.4 9.345 9.345 0 01.55-2.17.467.467 0 01.34-.29.488.488 0 01.41 0l.89.509a.491.491 0 01.22.61 8.4 8.4 0 00-.371 1.41.5.5 0 01-.49.42h-1A.552.552 0 01.43 9zm2.989-4.033a.487.487 0 01-.254-.067l-.89-.56a.468.468 0 01-.24-.34.482.482 0 01.1-.4 9.209 9.209 0 011.51-1.461.483.483 0 01.306-.109.441.441 0 01.095.009.473.473 0 01.339.24l.51.89a.48.48 0 01-.16.68 7.028 7.028 0 00-.94.941.474.474 0 01-.376.177zm3.59-2.56a.5.5 0 01-.434-.252l-.49-.89a.5.5 0 010-.41.463.463 0 01.291-.3A9.274 9.274 0 018.5.005a.518.518 0 01.4.11.52.52 0 01.12.4v1a.5.5 0 01-.42.49 8.406 8.406 0 00-1.409.37.494.494 0 01-.182.033z"/></svg>