<svg xmlns="http://www.w3.org/2000/svg" class="ionicon" viewBox="0 0 16 20"><path data-name="Icon color" d="M12.155 20h-8.29a2.005 2.005 0 01-1.995-1.86L1 6h14l-.85 12.14A2.005 2.005 0 0112.155 20zM8 14.24l1.86 1.85a.48.48 0 00.7 0l.53-.53a.479.479 0 000-.7L9.24 13l1.85-1.86a.479.479 0 000-.7l-.53-.53a.48.48 0 00-.7 0L8 11.76 6.14 9.91a.481.481 0 00-.7 0l-.529.53a.479.479 0 000 .7L6.76 13l-1.85 1.86a.479.479 0 000 .7l.529.53a.481.481 0 00.7 0L8 14.241zM15.5 4H.5a.5.5 0 01-.5-.5v-1A.5.5 0 01.5 2H5V1a1 1 0 011-1h4a1 1 0 011 1v1h4.5a.5.5 0 01.5.5v1a.5.5 0 01-.5.5z"/></svg>