<svg data-name="Layer 1" xmlns="http://www.w3.org/2000/svg" viewBox="0 0 992.13 992.13" class="ionicon"><path d="M881.54 14.19L688.8 110.56v96.37L584.24 311.5l96.37 96.37L785.17 303.3h96.37l96.37-192.74zM28.19 827.55a48.18 48.18 0 000 68l68.42 68.42a48.19 48.19 0 0067.94 0l263.57-263.14-136.36-136.36zm935.75 68l-68.42 68.42a48.19 48.19 0 01-67.94 0L255.14 392.45a183.7 183.7 0 01-48.14 7.22A192.74 192.74 0 0124.81 144.29L147.2 266.68l25.54-25.54 68.42-68.42 25.54-25.54L144.31 24.79a192.74 192.74 0 01255.38 182.14 183.3 183.3 0 01-7.23 48.19l571.48 572.43a48.2 48.2 0 010 68"/></svg>