<svg xmlns="http://www.w3.org/2000/svg" class="ionicon" viewBox="0 0 24 14.291"><path data-name="Icon color" d="M23.563 14.291h-.1a.5.5 0 01-.491-.411c-.222-1.221-1.427-2.377-3.392-3.257a16.687 16.687 0 00-6.579-1.331v2.584a.507.507 0 01-.146.354l-.208.207a.5.5 0 01-.707 0L6.149 6.646a.5.5 0 010-.708L11.94.146a.5.5 0 01.707 0l.208.207a.511.511 0 01.146.354v2.584a10.526 10.526 0 014.058.823 11.393 11.393 0 013.458 2.25 10.912 10.912 0 013.484 7.47.438.438 0 01-.437.457zm-17.27-1.708a.5.5 0 01-.353-.146L.149 6.646a.5.5 0 010-.708L5.94.146a.5.5 0 01.707 0l.208.207a.508.508 0 01.146.354v1.209L2.98 5.937a.495.495 0 000 .708l4.021 4.021v1.21a.5.5 0 01-.146.354l-.208.207a.5.5 0 01-.354.146z"/></svg>