<svg xmlns="http://www.w3.org/2000/svg" class="ionicon" viewBox="0 0 24 24"><path d="M5.49 7.208a.572.572 0 01.837-.109l.53.447a.57.57 0 01.099.766 6.175 6.175 0 00-.495.832 6.164 6.164 0 005.537 8.862V15.56c0-.376.447-.573.723-.319l1.652 1.516 2.029 1.862a.432.432 0 010 .636l-2.029 1.862-1.652 1.515a.432.432 0 01-.723-.318v-2.47C7.588 19.846 4 16.259 4 11.849c0-1.172.248-2.3.735-3.353 0 0 .24-.554.755-1.287zm5.784-6.004a.432.432 0 01.724.318v2.332c4.41 0 7.997 3.588 7.997 7.998a7.92 7.92 0 01-.735 3.352s-.24.555-.756 1.288a.572.572 0 01-.836.108l-.53-.446a.57.57 0 01-.099-.766c.188-.266.353-.543.495-.832a6.164 6.164 0 00-5.537-8.862v2.583a.432.432 0 01-.723.318L9.622 7.08 7.594 5.218a.432.432 0 010-.636L9.622 2.72z" fill-rule="evenodd"/></svg>