<svg id="Layer_1" data-name="Layer 1" xmlns="http://www.w3.org/2000/svg" viewBox="0 0 992.13 992.13" class="ionicon"><defs/><path class="cls-1" d="M601.77 711.41L528.28 644c-12.32-11.3-32.21-2.56-32.21 14.16v108.75c-151.08 0-274-122.92-274-274a271.36 271.36 0 0127.73-120.29l-.13-.06a274.27 274.27 0 0122-37 25.4 25.4 0 00-4.39-34.1l-23.6-19.86a25.47 25.47 0 00-37.21 4.84c-22.92 32.6-33.6 57.28-33.6 57.28a352.47 352.47 0 00-32.72 149.2c0 196.24 159.65 355.89 355.89 355.89V958.7c0 16.72 19.89 25.46 32.21 14.15l73.49-67.44 90.28-82.84a19.23 19.23 0 000-28.32zM496.07 137.18V33.43c0-16.73-19.88-25.47-32.2-14.16l-73.5 67.45-90.27 82.84a19.21 19.21 0 000 28.31l90.27 82.85 73.5 67.44c12.32 11.31 32.2 2.57 32.2-14.15V219.09c151.07 0 274 122.92 274 274a271.29 271.29 0 01-27.74 120.28l.14.07a274.76 274.76 0 01-22 37 25.39 25.39 0 004.39 34.09l23.6 19.86a25.46 25.46 0 0037.21-4.83c22.92-32.59 33.61-57.29 33.61-57.29A352.43 352.43 0 00852 493.08c0-196.24-159.69-355.89-355.93-355.9z"/></svg>