<svg id="Layer_1" data-name="Layer 1" xmlns="http://www.w3.org/2000/svg" viewBox="0 0 992.13 992.13" class="ionicon"><defs/><path class="cls-1" d="M968.69 402.05a481.84 481.84 0 109.26 94 480.43 480.43 0 00-9.26-94zM496.05 848.7c-194.44 0-352.64-158.19-352.64-352.63s158.2-352.63 352.64-352.63 352.62 158.19 352.62 352.63S690.49 848.7 496.05 848.7z"/><path class="cls-1" d="M635.38 619.29c9 24.36 55.07 52.43 55.07 52.43a31.24 31.24 0 0045.71-5.66 294.6 294.6 0 0056-173.2v-.35c0-17.75-15.58-31.54-33.31-30.08 0 0-40.2-1.08-65.81 7-24 7.59-47.17 30.88-57.61 55.82-19.1 45.5-4.61 81.75-.05 94.04zM657.32 399.75c26-.95 67-35.93 67-35.93a31.24 31.24 0 008.87-45.2 294.58 294.58 0 00-147.07-107.23l-.32-.11c-16.87-5.52-34.82 5-39 22.26 0 0-13.54 37.87-13.86 64.7-.3 25.21 14.61 54.47 35 72.18 37.34 32.29 76.27 29.82 89.38 29.33zM457.12 313.4c7.13-25-13.44-74.84-13.44-74.84a31.22 31.22 0 00-40.22-22.44A294.64 294.64 0 00256 322.8l-.19.27c-10.48 14.34-6.06 34.67 9.08 44 0 0 31.82 24.62 57.25 33.23 23.88 8.08 56.3 2.94 79.47-11 42.21-25.5 51.91-63.3 55.51-75.9zM306.66 472.58c-21.63-14.41-75.38-10-75.38-10a31.27 31.27 0 00-33.61 31.5 294.58 294.58 0 0056.76 173l.19.27c10.47 14.35 31.18 16.31 44.63 4.72 0 0 33.14-22.82 49.07-44.42 15-20.28 19.94-52.74 13.71-79-11.4-48.07-44.43-68.81-55.37-76.07zM417 667.77c-20.35 16.15-32.7 68.66-32.7 68.66a31.27 31.27 0 0019.64 41.66 294.55 294.55 0 00182-.79l.31-.11c16.87-5.56 25.11-24.64 18.22-41 0 0-11.53-38.53-27.19-60.34-14.7-20.49-44-35.2-71-37.36-49.13-3.94-79.02 21.11-89.28 29.28z"/></svg>