<svg xmlns="http://www.w3.org/2000/svg" class="ionicon" viewBox="0 0 18.742 20"><path data-name="Icon color" d="M10.564 20H8.238a1 1 0 01-.987-.842l-.17-1a2.016 2.016 0 00-1.06-1.458 5.573 5.573 0 01-.74-.43 1.995 1.995 0 00-1.78-.191l-1 .361a1 1 0 01-1.21-.431l-1.16-2a1 1 0 01.24-1.274l.8-.661a2.015 2.015 0 00.72-1.643v-.862a2.012 2.012 0 00-.72-1.642l-.8-.661a1 1 0 01-.24-1.274l1.16-2a1 1 0 011.19-.431l1 .361a2 2 0 001.78-.19 5.485 5.485 0 01.74-.432 2.016 2.016 0 001.02-1.456l.17-1A1 1 0 018.178 0h2.323a1 1 0 01.987.842l.17 1A2.011 2.011 0 0012.722 3.3a5.486 5.486 0 01.74.431 2 2 0 001.78.19l1-.361a1 1 0 011.21.431l1.16 2a1 1 0 01-.24 1.273l-.8.661a2.015 2.015 0 00-.72 1.642v.862a2.018 2.018 0 00.72 1.643l.8.661a1 1 0 01.24 1.273l-1.16 2a1 1 0 01-1.15.431l-1-.361a1.995 1.995 0 00-1.78.191 5.573 5.573 0 01-.74.43 2.016 2.016 0 00-1.06 1.454l-.169 1a1 1 0 01-.989.849zM9.371 6.994a3.007 3.007 0 103 3.006 3.006 3.006 0 00-3-3.006z"/></svg>