<svg xmlns="http://www.w3.org/2000/svg" class="ionicon" viewBox="0 0 21.97 20"><path data-name="Icon color" d="M16.4 20H5.6a2.989 2.989 0 01-2.89-2.35L1 10H.5a.5.5 0 01-.5-.5v-1A.5.5 0 01.5 8h4L10.27.3a.765.765 0 01.6-.3h.26a.772.772 0 01.6.3L17.5 8h4a.5.5 0 01.47.5v1a.5.5 0 01-.5.5H21l-1.68 7.65A2.984 2.984 0 0116.4 20zM11 15.24l1.62 1.61a.479.479 0 00.7 0l.53-.53a.48.48 0 000-.7L12.24 14l1.61-1.62a.481.481 0 000-.7l-.53-.53a.481.481 0 00-.7 0L11 12.76l-1.62-1.61a.474.474 0 00-.35-.15.48.48 0 00-.35.151l-.529.53a.479.479 0 000 .7L9.76 14l-1.61 1.62a.478.478 0 000 .7l.529.53a.479.479 0 00.7 0L11 15.241zm0-12.57L7 8h8z"/></svg>