<svg xmlns="http://www.w3.org/2000/svg" class="ionicon" viewBox="0 0 22 20"><path data-name="Icon color" d="M16.4 20H5.6a2.989 2.989 0 01-2.89-2.35L1 10H.5a.5.5 0 01-.5-.5v-1A.5.5 0 01.5 8h4L10.27.3a.765.765 0 01.6-.3h.26a.772.772 0 01.6.3L17.5 8h4a.5.5 0 01.5.5l-.03 1a.5.5 0 01-.5.5H21l-1.68 7.65A2.984 2.984 0 0116.4 20zm-7.9-6.88a.5.5 0 00-.5.5v.76a.5.5 0 00.5.5h1.62v1.62a.5.5 0 00.5.5h.76a.5.5 0 00.5-.5v-1.62h1.62a.5.5 0 00.5-.5v-.76a.5.5 0 00-.5-.5h-1.62V11.5a.5.5 0 00-.5-.5h-.76a.5.5 0 00-.5.5v1.62zM11 2.67L7 8h8z"/></svg>