<svg xmlns="http://www.w3.org/2000/svg" class="ionicon" viewBox="0 0 20.003 20"><path data-name="Icon color" d="M18.971 20a.479.479 0 01-.349-.151l-.88-.878a2.01 2.01 0 01-1.721.979 2.057 2.057 0 01-.355-.031A2 2 0 0115 16.235l-1.239-1.258H4.96a.759.759 0 01-.628-.33l-.22-.38a.768.768 0 010-.708l1.86-3.694a2.218 2.218 0 01-.27-.349L2.3 3.525.151 1.379a.479.479 0 010-.7l.53-.528a.481.481 0 01.7 0l18.47 18.47a.477.477 0 010 .7l-.53.529a.48.48 0 01-.35.15zm-11.35-9.106l-1 2.086h5.1l-2-2h-1.46a2.8 2.8 0 01-.64-.086zM6 19.968a2 2 0 112-2 2 2 0 01-2 2zm8.711-8.985L5.711 2H19.5a.5.5 0 01.5.5V3a4.753 4.753 0 01-.65 2.355L17 9.476a2.94 2.94 0 01-2.288 1.508z"/></svg>