<svg xmlns="http://www.w3.org/2000/svg" class="ionicon" viewBox="0 0 20 20"><path data-name="Icon color" d="M16 20a2 2 0 112-2 2 2 0 01-2 2zM6 20a2 2 0 112-2 2 2 0 01-2 2zm-1.017-5a.764.764 0 01-.653-.37l-.22-.381a.769.769 0 010-.71L5.97 9.84a2.183 2.183 0 01-.27-.35L1.42 2H.5a.5.5 0 01-.5-.5v-1A.5.5 0 01.5 0h.927A2 2 0 013.16 1l.56 1H19.5a.5.5 0 01.5.5V3a4.774 4.774 0 01-.65 2.361L17 9.49A2.948 2.948 0 0114.49 11H8.26a2.7 2.7 0 01-.64-.09l-1 2.09H17.5a.5.5 0 01.5.5v1a.5.5 0 01-.5.5H4.983z"/></svg>