<svg xmlns="http://www.w3.org/2000/svg" class="ionicon" viewBox="0 0 14 20"><g fill-rule="nonzero"><path d="M10.033 19.686a.435.435 0 01-.308-.119l-1.4-1.205a.432.432 0 01-.149-.328c0-.475 3.024-3.005 3.024-8.215S8.176 2.1 8.176 1.598c0-.127.054-.247.15-.329l1.4-1.15a.435.435 0 01.307-.12C10.687 0 14 4.365 14 9.844c0 5.305-3.248 9.843-3.967 9.843z" opacity=".08"/><path d="M8.4 9.843c0-3.296-1.941-6.218-2.557-6.218a.52.52 0 00-.317.119l-1.4 1.214a.432.432 0 00-.15.328c0 .482 1.624 1.617 1.624 4.566 0 2.95-1.624 4.109-1.624 4.565 0 .127.054.247.15.329l1.4 1.214a.52.52 0 00.316.119C6.45 16.06 8.4 13.13 8.4 9.843z" opacity=".08"/><path d="M2.8 9.84c0-.993-.541-2.572-1.176-2.572a.492.492 0 00-.308.11L.233 8.29A.66.66 0 000 8.802v2.027a.66.66 0 00.233.51l1.083.914c.088.07.196.109.308.11.625.055 1.176-1.507 1.176-2.524z"/></g></svg>