<svg xmlns="http://www.w3.org/2000/svg" class="ionicon" viewBox="0 0 20 20"><path data-name="Icon color" d="M14.488 20a5.473 5.473 0 01-3.266-1.073 9.779 9.779 0 01-1.222.09A9.027 9.027 0 01.983 10a9.95 9.95 0 01.09-1.222 5.511 5.511 0 017.7-7.7A9.952 9.952 0 0110 .983 9.027 9.027 0 0119.017 10a9.777 9.777 0 01-.09 1.222A5.51 5.51 0 0114.488 20zM10 16.011h.213a6.731 6.731 0 002.462-.464 3.791 3.791 0 001.733-1.322v-.02a3.279 3.279 0 00.6-1.934 3.133 3.133 0 00-.281-1.552 3.012 3.012 0 00-1-1 6 6 0 00-1.463-.67 18 18 0 00-1.884-.5L9.2 8.257a4.162 4.162 0 01-.692-.27A1.507 1.507 0 018 7.6a.8.8 0 01-.2-.551 1.009 1.009 0 01.531-.822 2.632 2.632 0 011.352-.374h.131c.066-.005.132-.008.2-.008a2.373 2.373 0 011.224.339 2.938 2.938 0 01.772 1 2.582 2.582 0 00.51.721 1.006 1.006 0 00.657.244h.075a1.252 1.252 0 001.232-1.212 2.016 2.016 0 00-.27-1 2.9 2.9 0 00-.832-.941A4.164 4.164 0 0012 4.259a6.6 6.6 0 00-1.873-.271h-.311a7.038 7.038 0 00-2.35.4A3.63 3.63 0 005.8 5.512a2.889 2.889 0 00-.581 1.753A2.74 2.74 0 005.782 9a3.723 3.723 0 001.5 1.122 12.1 12.1 0 002.245.681c.661.143 1.172.271 1.563.391a2.372 2.372 0 01.91.506 1.084 1.084 0 01.29.821 1.244 1.244 0 01-.631 1.073 3.007 3.007 0 01-1.6.463h-.22a2.883 2.883 0 01-1.139-.229 1.768 1.768 0 01-.711-.562 3.906 3.906 0 01-.491-.871 2.007 2.007 0 00-.5-.742 1.113 1.113 0 00-.729-.271H6.2a1.2 1.2 0 00-.845.342 1.07 1.07 0 00-.361.812 2.71 2.71 0 00.6 1.562 3.888 3.888 0 001.4 1.263 6.484 6.484 0 002.828.653z"/></svg>