<svg xmlns="http://www.w3.org/2000/svg" class="ionicon" viewBox="0 0 19.5 19.5"><path data-name="Icon color" d="M12.37 19.5a1.872 1.872 0 01-1.87-1.87v-1.38a.5.5 0 01.5-.5h1.38a1.861 1.861 0 011.32.55 1.878 1.878 0 01-1.33 3.2zm-5.25 0a1.872 1.872 0 01-1.87-1.87v-5.26a1.883 1.883 0 01.55-1.326 1.854 1.854 0 011.32-.544h.01a1.874 1.874 0 011.86 1.87v5.26a1.872 1.872 0 01-1.87 1.87zm-5.24-5.25h-.01a1.857 1.857 0 01-1.325-.55 1.877 1.877 0 011.325-3.2h1.38a.5.5 0 01.5.5v1.38a1.883 1.883 0 01-.55 1.326 1.857 1.857 0 01-1.32.544zm15.75-.01h-5.26a1.87 1.87 0 010-3.74h5.26a1.87 1.87 0 110 3.74zm0-5.24h-1.38a.5.5 0 01-.5-.5V7.12a1.871 1.871 0 011.87-1.87h.01a1.875 1.875 0 010 3.75zm-5.25 0h-.01a1.884 1.884 0 01-1.319-.545A1.857 1.857 0 0110.5 7.13V1.87A1.872 1.872 0 0112.37 0h.01a1.881 1.881 0 011.32.545 1.857 1.857 0 01.55 1.325v5.26a1.883 1.883 0 01-.55 1.322A1.858 1.858 0 0112.38 9zm-5.25-.01H1.87a1.87 1.87 0 010-3.74h5.26a1.87 1.87 0 010 3.74zM8.5 3.75H7.12A1.877 1.877 0 015.8.545 1.858 1.858 0 017.12 0h.01A1.872 1.872 0 019 1.87v1.38a.5.5 0 01-.5.5z"/></svg>