<svg xmlns="http://www.w3.org/2000/svg" class="ionicon" viewBox="0 0 20 18"><path data-name="Icon color" d="M20 14a1 1 0 01-1 1c-1.3 0-2 .41-2 1a1 1 0 01-1 1c-.83 0-1-.47-1.77-.47a1.28 1.28 0 00-.65.28 6.54 6.54 0 01-.84.52 5 5 0 01-2 .62 5.35 5.35 0 01-1.46 0 5 5 0 01-2-.62 6.54 6.54 0 01-.84-.52 1.28 1.28 0 00-.65-.28C5 16.53 4.83 17 4 17a1 1 0 01-1-1c0-.59-.7-1-2-1a1 1 0 010-2 3.34 3.34 0 003-2.71.49.49 0 00-.27-.59A14.89 14.89 0 011.6 8.5a1.365 1.365 0 011.53-2.26l.5.32a.24.24 0 00.26 0A.25.25 0 004 6.33V6a6 6 0 0112 0v.33a.25.25 0 00.12.23.24.24 0 00.26 0l.5-.32A1.362 1.362 0 1118.4 8.5a14.89 14.89 0 01-2.13 1.2.49.49 0 00-.27.59A3.34 3.34 0 0019 13a1 1 0 011 1z"/></svg>