<svg xmlns="http://www.w3.org/2000/svg" class="ionicon" viewBox="0 0 16 20"><path data-name="Icon color" d="M8 20a2 2 0 01-2-2h4a2 2 0 01-2 2zm7-4H1a1 1 0 01-1-1v-.59a1.008 1.008 0 01.29-.7l.83-.83A3.018 3.018 0 002 10.76V8a6.035 6.035 0 011.2-3.6l.9-1.2A3.011 3.011 0 016.5 2H7V.5a.5.5 0 01.5-.5h1a.5.5 0 01.5.5V2h.5a3.011 3.011 0 012.4 1.2l.9 1.2A6.035 6.035 0 0114 8v2.76a3.016 3.016 0 00.879 2.12l.831.83a1.008 1.008 0 01.29.7V15a1 1 0 01-1 1zM5.5 5a.5.5 0 00-.5.5v.75a.5.5 0 00.5.5H9L5.25 11a1 1 0 00-.25.63v.87a.5.5 0 00.5.5h5a.5.5 0 00.5-.5v-.75a.5.5 0 00-.5-.5H7l3.75-4.22a.994.994 0 00.25-.66V5.5a.5.5 0 00-.5-.5z"/></svg>