<svg xmlns="http://www.w3.org/2000/svg" class="ionicon" viewBox="0 0 19.998 20.002"><path data-name="Icon color" d="M10 20a9 9 0 119-9 9.007 9.007 0 01-9 9zm0-16a7 7 0 107 7 7.005 7.005 0 00-7-7zm2.5 11h-5a.5.5 0 01-.5-.5v-1.1a1 1 0 01.269-.69L10.75 9H7.5a.5.5 0 01-.5-.5v-1a.5.5 0 01.5-.5h5a.5.5 0 01.5.5v1.1a.993.993 0 01-.269.689L9.251 13H12.5a.5.5 0 01.5.5v1a.5.5 0 01-.5.5zm6.607-9.99a.239.239 0 01-.17-.07l-3.878-3.88a.242.242 0 01-.07-.18.283.283 0 01.09-.19A3.008 3.008 0 0116.993 0H17a3 3 0 012.3 4.92.287.287 0 01-.19.09zM.9 5H.886A.279.279 0 01.7 4.922 3 3 0 014.914.692.279.279 0 015 .882a.239.239 0 01-.06.18l-3.874 3.87A.239.239 0 01.9 5z"/></svg>