<svg xmlns="http://www.w3.org/2000/svg" class="ionicon" viewBox="0 0 18 20"><path d="M7.182 10.398c.329 0 .63.18.782.465.15.286.125.63-.066.892-.676.918-2.048 1.293-3.246 1.664a.919.919 0 01-.048.013c-1.394.346-2.437.69-2.437 1.293 0 .692 1.67 1.298 2.99 1.817 1.323.498 2.83 1.04 3.574 2.009a.843.843 0 01.078.898.877.877 0 01-.663.463l-.123.008a.887.887 0 01-.71-.34c-.418-.552-1.76-1.045-2.86-1.48-1.846-.692-4.044-1.47-4.044-3.375 0-1.991 2.021-2.51 3.692-3.029 1.125-.346 2.026-.582 2.34-.972a.92.92 0 01.719-.326h.022zm9 0c.329 0 .63.18.782.465.15.286.125.63-.066.892-.676.918-2.048 1.293-3.246 1.664a.919.919 0 01-.048.013c-1.394.346-2.437.69-2.437 1.293 0 .692 1.67 1.298 2.99 1.817 1.323.498 2.83 1.04 3.574 2.009a.843.843 0 01.078.898.877.877 0 01-.663.463l-.123.008a.887.887 0 01-.71-.34c-.418-.552-1.76-1.045-2.86-1.48-1.846-.692-4.044-1.47-4.044-3.375 0-1.991 2.021-2.51 3.692-3.029 1.125-.346 2.026-.582 2.34-.972a.92.92 0 01.719-.326h.022zM14.62 0a1.16 1.16 0 011.088.907l.817 3.103c.057.223.086.452.086.683V9.31a.596.596 0 01-.568.62h-.568a.596.596 0 01-.568-.622v-.62H8.095v.62a.596.596 0 01-.568.621h-.568a.596.596 0 01-.567-.619V4.693c0-.233.029-.464.087-.69L7.296.9C7.36.648 7.5.422 7.698.255c.19-.161.429-.251.676-.255h6.246zM8.385 1.086a.147.147 0 00-.136.112l-.658 2.526h7.823l-.646-2.525a.147.147 0 00-.136-.111l-6.247-.002z" fill-rule="nonzero"/></svg>