<svg xmlns="http://www.w3.org/2000/svg" class="ionicon" viewBox="0 0 20 17"><path data-name="Icon color" d="M19.971 2.464a7.99 7.99 0 01-1.847 1.778v.549A12.184 12.184 0 015.772 17 12.217 12.217 0 01.33 15.74a.25.25 0 01-.15-.23v-.11a.26.26 0 01.26-.26 8.844 8.844 0 005.112-1.84 4.363 4.363 0 01-3.884-2.557.26.26 0 01.26-.36 3.992 3.992 0 001.518-.14A4.355 4.355 0 010 6.44a.26.26 0 01.36-.26 3.992 3.992 0 001.578.34A4.277 4.277 0 01.23 1.585a.539.539 0 01.909-.18 12.339 12.339 0 008.4 3.876 4 4 0 01-.12-1 4.353 4.353 0 017.5-2.937A8.674 8.674 0 0019.3.516a.17.17 0 01.18 0 .17.17 0 010 .18 4.365 4.365 0 01-1.757 2 8.564 8.564 0 002-.48.16.16 0 01.18 0 .17.17 0 01.07.25z"/></svg>