<svg xmlns="http://www.w3.org/2000/svg" class="ionicon" viewBox="0 0 20 16"><path data-name="Icon color" d="M17 16H2a2 2 0 01-2-2V3a2 2 0 012-2h10a4.947 4.947 0 012.972-1H15a5.006 5.006 0 015 5 4.934 4.934 0 01-1 3v6a2 2 0 01-2 2zM2 7.39V14h15V9.581a4.918 4.918 0 01-1.993.419H15a4.721 4.721 0 01-1.41-.229l-2.44 1.71a2.881 2.881 0 01-3.3 0zM2 3v2.25l6.85 4.8a1.141 1.141 0 001.3 0l1.7-1.2A4.946 4.946 0 0110.42 3zm10.5 1.12a.5.5 0 00-.5.5v.76a.5.5 0 00.5.5h5a.5.5 0 00.5-.5v-.76a.5.5 0 00-.5-.5z"/></svg>