<svg xmlns="http://www.w3.org/2000/svg" class="ionicon" viewBox="0 0 17.998 18.001"><path data-name="Icon color" d="M8.998 18a9 9 0 116.357-15.382l1.491-1.49a.492.492 0 01.352-.15h.3a.5.5 0 01.5.5v5a.5.5 0 01-.5.5h-5a.5.5 0 01-.5-.5v-.29a.488.488 0 01.149-.36l1.781-1.78a6.979 6.979 0 10-5.216 11.923c.1 0 .207.007.31.007a7 7 0 006.984-6.53.5.5 0 01.5-.47h1a.516.516 0 01.36.159.5.5 0 01.131.37A9.01 9.01 0 018.998 18zm2.907-5.075a.5.5 0 01-.356-.148L8.26 9.488a.524.524 0 01-.149-.35v-4.66a.5.5 0 01.5-.5h.76a.5.5 0 01.5.5v4.14l2.922 2.92a.5.5 0 010 .71l-.53.53a.5.5 0 01-.355.148z"/></svg>