<svg xmlns="http://www.w3.org/2000/svg" class="ionicon" viewBox="0 0 18 20"><path data-name="Icon color" d="M4.81 20H4.5a.5.5 0 01-.5-.5v-3.2c-2.8-1.055-4-3.388-4-7.8 0-3.2.64-5.3 2.013-6.6S5.608 0 9 0s5.612.6 6.987 1.9S18 5.3 18 8.5s-.64 5.3-2.013 6.6S12.392 17 9 17h-.66l-3.2 2.87a.514.514 0 01-.33.13zM9 2C3.439 2 2 3.336 2 8.5a8.909 8.909 0 00.86 4.464 3.339 3.339 0 001.82 1.456l1 .37a.5.5 0 01.32.47v1.17l1-.9.44-.4a.508.508 0 01.34-.13H9c5.561 0 7-1.337 7-6.5S14.561 2 9 2zm1.965 11.484a1.141 1.141 0 01-.455-.094 11.407 11.407 0 01-5.78-5.14 15.057 15.057 0 01-.67-1.56A2.191 2.191 0 014 6.34a1.546 1.546 0 011.34-1.49h.19a.786.786 0 01.47.23 5.753 5.753 0 011.25 1.7.58.58 0 01-.15.73l-.15.131a.859.859 0 00-.32 1.279 4.131 4.131 0 002.27 2.09.621.621 0 00.73-.159l.07-.09a.885.885 0 01.765-.506 1.342 1.342 0 01.755.285l1 .77a.78.78 0 01.2 1.25 2.1 2.1 0 01-1 .83 1.15 1.15 0 01-.455.094zm2.512-4.734h-.507a.513.513 0 01-.5-.44 3.728 3.728 0 00-3.28-3.28.508.508 0 01-.44-.5v-.5a.5.5 0 01.17-.38.471.471 0 01.319-.124.446.446 0 01.06 0A5.261 5.261 0 0114 8.2a.47.47 0 01-.15.38.5.5 0 01-.373.17zm-2.528-.02h-.519a.5.5 0 01-.48-.36 1.257 1.257 0 00-.841-.84v.02a.5.5 0 01-.36-.5v-.51a.486.486 0 01.19-.391.463.463 0 01.3-.115.457.457 0 01.116.015 2.755 2.755 0 012.07 2.07.461.461 0 01-.1.42.483.483 0 01-.376.191z"/></svg>