<svg xmlns="http://www.w3.org/2000/svg" class="ionicon" viewBox="0 0 18 20"><path data-name="Icon color" d="M4.81 20H4.5a.5.5 0 01-.5-.5v-3.2c-2.8-1.055-4-3.388-4-7.8 0-3.2.64-5.3 2.013-6.6S5.608 0 9 0s5.612.6 6.987 1.9S18 5.3 18 8.5s-.64 5.3-2.013 6.6S12.392 17 9 17h-.66l-3.2 2.87a.514.514 0 01-.33.13zm.51-15.13A1.553 1.553 0 004 6.34a2.213 2.213 0 00.07.35 15.343 15.343 0 00.67 1.56 11.405 11.405 0 005.78 5.14 1.152 1.152 0 00.91 0 2.1 2.1 0 001-.83v.03a.811.811 0 00-.25-1.29l-1-.77a1.3 1.3 0 00-.747-.285.891.891 0 00-.773.5l-.069.09a.623.623 0 01-.472.217A.614.614 0 018.86 11a4.135 4.135 0 01-2.25-2.08.86.86 0 01.32-1.28l.15-.131a.579.579 0 00.149-.73A5.731 5.731 0 006 5.08a.789.789 0 00-.49-.21h-.19zm3.925 1.185a.457.457 0 00-.305.115.482.482 0 00-.19.39v.51a.5.5 0 00.36.48 1.258 1.258 0 01.841.84.5.5 0 00.48.36h.518a.484.484 0 00.382-.19.461.461 0 00.1-.42A2.757 2.757 0 009.36 6.07a.445.445 0 00-.115-.015zM9.238 3.5a.468.468 0 00-.318.124.5.5 0 00-.17.376v.5a.508.508 0 00.44.5 3.739 3.739 0 013.31 3.29.512.512 0 00.5.44h.471a.507.507 0 00.38-.17v.02A.47.47 0 0014 8.2a5.26 5.26 0 00-4.7-4.7.477.477 0 00-.062 0z"/></svg>