<svg xmlns="http://www.w3.org/2000/svg" class="ionicon" viewBox="0 0 22 18.003"><path data-name="Icon color" d="M18.973 17.999a.483.483 0 01-.35-.151l-1.638-1.63A2 2 0 0115 17.999H6.994a2 2 0 01-2-2V4.241l-2.846-2.86a.481.481 0 010-.7l.529-.53a.481.481 0 01.7 0l16.474 16.47a.481.481 0 010 .7l-.53.53a.479.479 0 01-.348.148zM6.994 6.241v9.758h7.993v-1.76zm13.3 7.766a.509.509 0 01-.448-.266l-.77-1.49a1 1 0 01-.11-.46v-.571a1 1 0 01.11-.46l.906-1.761-.869-1.76a1 1 0 01-.11-.46v-.57a1 1 0 01.11-.46l.769-1.48a.49.49 0 01.436-.27.489.489 0 01.233.059l.889.46a.489.489 0 01.22.67l-.679 1.3.889 1.78V8.24a1.069 1.069 0 01.13.459v.58a1 1 0 01-.11.46l-.909 1.76.64 1.32a.5.5 0 01-.211.67l-.888.46a.508.508 0 01-.231.058zm-18.643-.008a.5.5 0 01-.231-.056l-.89-.463a.5.5 0 01-.21-.67L1 11.499.111 9.741A1.023 1.023 0 010 9.281v-.582a1.111 1.111 0 01.09-.46L1 6.491.32 5.19a.489.489 0 01-.032-.381.494.494 0 01.252-.288l.889-.46a.486.486 0 01.379-.037.5.5 0 01.291.247l.789 1.48a1.012 1.012 0 01.11.46v.57a1.018 1.018 0 01-.09.47L2 8.999l.889 1.75a1.012 1.012 0 01.11.46v.571a1 1 0 01-.13.46L2.1 13.73a.509.509 0 01-.449.269zm15.334-2.706l-2-2V1.999H7.7L5.995.281a1.927 1.927 0 011-.28h7.993a2 2 0 012 2v9.29z"/></svg>