<svg xmlns="http://www.w3.org/2000/svg" class="ionicon" viewBox="0 0 20.001 20"><path data-name="Icon color" d="M10.012 20a9.949 9.949 0 01-5.541-1.68l-2.847.92a.51.51 0 01-.509-.13A.492.492 0 011 18.6l.9-2.74A10 10 0 019.985 0h.028a10 10 0 010 20zM6.09 4.58a1.492 1.492 0 00-.97.36 3.216 3.216 0 00-1 2.44 5.676 5.676 0 001.188 3 12.421 12.421 0 004.994 4.4 8.45 8.45 0 002.923.817 2.615 2.615 0 00.573-.066 2.794 2.794 0 002-1.41 2.5 2.5 0 00.07-1.37c-.064-.111-.233-.189-.488-.307l-.071-.033-.417-.2c-.552-.269-1.38-.672-1.58-.739a.56.56 0 00-.719.211 10.1 10.1 0 01-.779 1 .618.618 0 01-.7.11 7.29 7.29 0 01-2.347-1.45 8.928 8.928 0 01-1.618-2 .472.472 0 01.12-.63c.076-.1.155-.181.232-.262s.133-.14.2-.218a1.814 1.814 0 00.33-.46.569.569 0 00-.05-.54c-.071-.163-.689-1.669-.888-2.16s-.347-.49-.64-.49H6.09z"/></svg>